<svg id="Layer_1" data-name="Layer 1" xmlns="http://www.w3.org/2000/svg" viewBox="0 0 369.35 362.53"><defs><style>.cls-1{fill:#1a1c1b;}.cls-1,.cls-2{stroke:#1d2120;stroke-linecap:round;stroke-linejoin:round;stroke-width:5px;}.cls-2{fill:#232625;opacity:0.8;}.cls-2,.cls-3{isolation:isolate;}.cls-3{font-size:113.12px;fill:#f0f1f2;font-family:Teko;}</style></defs><title>Client</title><rect class="cls-1" x="43.82" y="233.84" width="281.71" height="101.19"/><path class="cls-2" d="M154,131.72c-0.93,10.86-1,20.41-4.15,28.12,0,0-2.58,26-2.27,71.45H88s6-12.43,7.24-17.9,18.23-43.75,7-62.29-21.26-24-21.26-24-12.76-11-21.59-30.43C55.56,88.22,48.31,81.19,41.34,76c0,0-14.14-12.66-16.26-17.21S10.79,27.79,7.15,26s-3-10.94,2.43-10,6.68,0.91,10.33,5.16A139.91,139.91,0,0,1,36,44.18c6.08,10.94,21,19.45,21,19.45S96.78,76.69,100.13,98c0,0,0-9.72-9.11-21,0,0-11.4-20.05-11.47-23.69s-1.9-15.8,10.26-9.11c0,0,3-1.21,17.62,22.78,0,0,10.67,17.52,20.58,21.27S155,119.71,154,131.72Z" transform="translate(-2.35 -6.34)"/><path class="cls-2" d="M72.36,68.09S47.72,39.28,43.5,29.41,38,11,31.65,9.28s-7.74,2-7.46,6.57a34.18,34.18,0,0,0,2.25,9.34S39.53,42.37,39.67,45,48.55,56.27,72.36,68.09Z" transform="translate(-2.35 -6.34)"/><path class="cls-2" d="M85.87,73.83s-9-2.25-20.55-17.32S51,36.32,51,36.32s0.67-14.93-2.7-21c0,0-.54-4.79,6.91-2.54s9.18,19.82,9.18,19.82S67.71,56,85.87,73.83Z" transform="translate(-2.35 -6.34)"/><path class="cls-2" d="M220.12,131.72c0.93,10.86,1,20.41,4.15,28.12,0,0,2.58,26,2.27,71.45H286s-6-12.43-7.24-17.9-18.23-43.75-7-62.29,21.26-24,21.26-24,12.76-10.94,21.57-30.39c3.85-8.49,11.11-15.53,18.08-20.73,0,0,14.14-12.66,16.26-17.21s14.28-31,17.93-32.81,3-10.94-2.43-10-6.68.91-10.33,5.16a139.91,139.91,0,0,0-16.1,23.09c-6.08,10.85-21,19.37-21,19.37s-39.8,13.06-43.15,34.34c0,0,0-9.72,9.11-21,0,0,11.4-20.05,11.47-23.69s1.9-15.8-10.26-9.11c0,0-3-1.21-17.62,22.78,0,0-10.67,17.52-20.58,21.27S219.09,119.71,220.12,131.72Z" transform="translate(-2.35 -6.34)"/><path class="cls-2" d="M301.72,68.09s24.68-28.86,28.86-38.71,5.49-18.44,11.85-20.13,7.74,2,7.46,6.57a34.18,34.18,0,0,1-2.25,9.34S334.55,42.35,334.41,45,325.52,56.27,301.72,68.09Z" transform="translate(-2.35 -6.34)"/><path class="cls-2" d="M288.21,73.83s9-2.25,20.55-17.32,14.36-20.2,14.36-20.2-0.67-14.93,2.7-21c0,0,.54-4.79-6.91-2.54s-9.15,19.85-9.15,19.85S306.37,56,288.21,73.83Z" transform="translate(-2.35 -6.34)"/><text class="cls-3" transform="translate(69.46 317.96)">Cliente</text></svg>