<svg id="Layer_1" data-name="Layer 1" xmlns="http://www.w3.org/2000/svg" viewBox="0 0 797.2 457.98"><defs><style>.cls-1{fill:#1d2120;}.cls-2{fill:#101211;}.cls-3,.cls-6,.cls-7{fill:#f0f1f2;}.cls-3{opacity:0.4;}.cls-4{fill:#232625;stroke:#1d2120;stroke-width:5px;}.cls-4,.cls-5{stroke-linecap:round;stroke-linejoin:round;}.cls-5{fill:#e7000d;stroke:#d3d3d3;stroke-width:10px;opacity:0.5;}.cls-6{stroke:#fff;stroke-miterlimit:10;stroke-width:2px;opacity:0.6;}.cls-7{font-size:12px;font-family:Teko;}</style></defs><title>FrontsideCone</title><circle class="cls-1" cx="343.1" cy="272.5" r="17.63"/><path class="cls-2" d="M-31.5,178.57A17.64,17.64,0,0,1-49,162.72a17.8,17.8,0,0,0-.09,1.78A17.63,17.63,0,0,0-31.5,182.13,17.63,17.63,0,0,0-13.87,164.5c0-.6,0-1.2-0.09-1.78A17.64,17.64,0,0,1-31.5,178.57Z" transform="translate(374.6 108)"/><circle class="cls-3" cx="343.1" cy="272.5" r="11.54"/><circle class="cls-1" cx="24" cy="164.5" r="17.63" transform="translate(265.31 173.15) rotate(-45)"/><path class="cls-2" d="M33.95,174.45a17.64,17.64,0,0,1-23.61,1.2A17.63,17.63,0,1,0,36.47,152q-0.64-.64-1.33-1.2A17.64,17.64,0,0,1,33.95,174.45Z" transform="translate(374.6 108)"/><circle class="cls-3" cx="398.6" cy="272.5" r="11.54"/><circle class="cls-1" cx="79.5" cy="164.5" r="17.63" transform="translate(281.56 212.4) rotate(-45)"/><path class="cls-2" d="M89.45,174.45a17.64,17.64,0,0,1-23.61,1.2A17.63,17.63,0,1,0,92,152q-0.64-.64-1.33-1.2A17.64,17.64,0,0,1,89.45,174.45Z" transform="translate(374.6 108)"/><circle class="cls-3" cx="454.1" cy="272.5" r="11.54"/><polygon class="cls-4" points="433.39 455.48 358.35 455.48 289.48 307.61 502.52 307.61 433.39 455.48"/><line class="cls-5" x1="309.46" y1="319.73" x2="365.93" y2="444.11"/><polygon class="cls-4" points="2.5 2.5 289.48 240.5 503.35 240.5 794.7 2.5 2.5 2.5"/><line class="cls-5" x1="50.46" y1="14.73" x2="305.52" y2="226.27"/><rect class="cls-4" x="289.48" y="239.5" width="213.04" height="68.11"/><line class="cls-5" x1="305.6" y1="248" x2="305.6" y2="297"/><polyline class="cls-4" points="478.1 223 478.1 193.73 478.1 222"/><polyline class="cls-4" points="462.1 223 462.1 193.73 462.1 222"/><polyline class="cls-4" points="446.1 223 446.1 193.73 446.1 222"/><polyline class="cls-4" points="430.1 223 430.1 193.73 430.1 222"/><polyline class="cls-4" points="414.1 223 414.1 193.73 414.1 222"/><polyline class="cls-4" points="398.1 223 398.1 193.73 398.1 222"/><polyline class="cls-4" points="382.1 223 382.1 193.73 382.1 222"/><polyline class="cls-4" points="366.1 223 366.1 193.73 366.1 222"/><polyline class="cls-4" points="350.1 223 350.1 193.73 350.1 222"/><polyline class="cls-4" points="334.1 223 334.1 193.73 334.1 222"/><polyline class="cls-4" points="318.1 223 318.1 193.73 318.1 222"/><polyline class="cls-4" points="422.1 444 464.1 321.73 422.1 443"/><polyline class="cls-4" points="406.1 444 420.1 321.73 406.1 443"/><polyline class="cls-4" points="390.1 444 376.1 321.73 390.1 443"/><polyline class="cls-4" points="374.1 444 332.1 321.73 374.1 443"/><polyline class="cls-4" points="277.1 42 277.1 13.73 277.1 43 478.1 193.73"/><polyline class="cls-4" points="261.1 42 261.1 13.73 261.1 43 462.1 193.73"/><polyline class="cls-4" points="245.1 42 245.1 13.73 245.1 43 446.1 193.73"/><polyline class="cls-4" points="229.1 42 229.1 13.73 229.1 43 430.1 193.73"/><polyline class="cls-4" points="213.1 42 213.1 13.73 213.1 43 414.1 193.73"/><polyline class="cls-4" points="197.1 42 197.1 13.73 197.1 43 398.1 193.73"/><polyline class="cls-4" points="181.1 42 181.1 13.73 181.1 43 382.1 193.73"/><polyline class="cls-4" points="165.1 42 165.1 13.73 165.1 43 366.1 193.73"/><polyline class="cls-4" points="149.1 42 149.1 13.73 149.1 43 350.1 193.73"/><polyline class="cls-4" points="133.1 42 133.1 13.73 133.1 43 334.1 193.73"/><polyline class="cls-4" points="117.1 42 117.1 13.73 117.1 43 318.1 193.73"/><polyline class="cls-4" points="519.1 42 519.1 13.73 519.1 43 318.1 193.73"/><polyline class="cls-4" points="535.1 42 535.1 13.73 535.1 43 334.1 193.73"/><polyline class="cls-4" points="551.1 42 551.1 13.73 551.1 43 350.1 193.73"/><polyline class="cls-4" points="567.1 42 567.1 13.73 567.1 43 366.1 193.73"/><polyline class="cls-4" points="583.1 42 583.1 13.73 583.1 43 382.1 193.73"/><polyline class="cls-4" points="599.1 42 599.1 13.73 599.1 43 398.1 193.73"/><polyline class="cls-4" points="615.1 42 615.1 13.73 615.1 43 414.1 193.73"/><polyline class="cls-4" points="631.1 42 631.1 13.73 631.1 43 430.1 193.73"/><polyline class="cls-4" points="647.1 42 647.1 13.73 647.1 43 446.1 193.73"/><polyline class="cls-4" points="663.1 42 663.1 13.73 663.1 43 462.1 193.73"/><polyline class="cls-4" points="679.1 42 679.1 13.73 679.1 43 478.1 193.73"/><polygon class="cls-4" points="398.67 39.5 441.97 39.5 420.32 77 398.67 114.5 377.02 77 355.37 39.5 398.67 39.5"/><circle class="cls-6" cx="398.6" cy="64.6" r="15.43"/><text class="cls-7" transform="translate(397.33 61.79)">1<tspan x="-0.9" y="14.4">0</tspan></text></svg>