<svg id="Layer_1" data-name="Layer 1" xmlns="http://www.w3.org/2000/svg" viewBox="0 0 49.23 47.26"><defs><style>.cls-1,.cls-3{fill:#020202;}.cls-1{stroke:#020202;stroke-miterlimit:10;}.cls-2{fill:#fff;}</style></defs><title>Radio</title><path class="cls-1" d="M21.93,11.64h9.64" transform="translate(-0.27 -0.95)"/><path class="cls-1" d="M31.58,46.27H21.93" transform="translate(-0.27 -0.95)"/><path class="cls-1" d="M4.51,17.8a6.28,6.28,0,0,1,6.27-6.27H42.73A6.28,6.28,0,0,1,49,17.8V40.11a6.28,6.28,0,0,1-6.27,6.27H10.78a6.28,6.28,0,0,1-6.27-6.27V17.8Z" transform="translate(-0.27 -0.95)"/><polygon class="cls-2" points="7.73 20.05 9.73 20.05 9.73 19.05 12.73 19.05 12.73 20.05 14.73 20.05 14.73 19.05 15.73 19.05 15.73 20.05 18.73 20.05 18.73 15.05 7.73 15.05 7.73 20.05"/><path class="cls-2" d="M19,21H16V19.21h0V21H13V20H10v1H8V16H19v5Z" transform="translate(-0.27 -0.95)"/><polyline class="cls-2" points="23.73 20.05 26.73 20.05 26.73 18.26 26.73 18.26 26.73 20.05 29.73 20.05 29.73 18.26 29.73 18.26 29.73 20.05 33.73 20.05 33.73 19.05 34.73 19.05 34.73 20.05 38.73 20.05 38.73 18.26 38.73 18.26 38.73 20.05 40.73 20.05 40.73 19.05 41.73 19.05 41.73 20.05 43.73 20.05 43.73 15.05 21.73 15.05 21.73 20.05 22.73 20.05 22.73 19.05 23.73 19.05 23.73 20.05"/><circle class="cls-2" cx="14.43" cy="25.54" r="2.88"/><path class="cls-3" d="M14.7,29.48a3,3,0,1,1,3-3A3,3,0,0,1,14.7,29.48Zm0-5.76a2.78,2.78,0,1,0,2.78,2.78A2.78,2.78,0,0,0,14.7,23.72Z" transform="translate(-0.27 -0.95)"/><circle class="cls-2" cx="35.88" cy="31.85" r="9.5"/><path class="cls-3" d="M36.15,42.41a9.61,9.61,0,1,1,9.61-9.61A9.62,9.62,0,0,1,36.15,42.41Zm0-19a9.4,9.4,0,1,0,9.4,9.4A9.41,9.41,0,0,0,36.15,23.4Z" transform="translate(-0.27 -0.95)"/><rect class="cls-3" x="28.98" y="39.38" width="13.25" height="0.74"/><rect class="cls-3" x="25.91" y="37.52" width="19.4" height="0.74"/><rect class="cls-3" x="25.91" y="35.55" width="19.4" height="0.74"/><rect class="cls-3" x="25.91" y="33.46" width="19.4" height="0.74"/><rect class="cls-3" x="25.91" y="31.49" width="19.4" height="0.74"/><rect class="cls-3" x="25.91" y="29.39" width="19.4" height="0.74"/><rect class="cls-3" x="25.91" y="27.42" width="19.4" height="0.74"/><rect class="cls-3" x="25.91" y="25.54" width="19.4" height="0.74"/><rect class="cls-3" x="25.91" y="23.57" width="19.4" height="0.74"/><rect class="cls-3" x="14.43" y="24.41" width="3.98" height="2.01"/><rect class="cls-2" x="7.79" y="30.71" width="12.1" height="0.96" rx="0.41" ry="0.41"/><path class="cls-2" d="M19.68,32.73H8.54a0.58,0.58,0,1,1,0-1.17H19.68A0.58,0.58,0,0,1,19.68,32.73Zm-11.14-1a0.37,0.37,0,1,0,0,.74H19.68a0.37,0.37,0,1,0,0-.74H8.54Z" transform="translate(-0.27 -0.95)"/><rect class="cls-2" x="7.79" y="34.45" width="12.1" height="0.96" rx="0.41" ry="0.41"/><path class="cls-2" d="M19.68,36.47H8.54a0.58,0.58,0,1,1,0-1.17H19.68A0.58,0.58,0,0,1,19.68,36.47Zm-11.14-1a0.37,0.37,0,1,0,0,.74H19.68a0.37,0.37,0,1,0,0-.74H8.54Z" transform="translate(-0.27 -0.95)"/><rect class="cls-2" x="7.79" y="37.52" width="12.1" height="0.96" rx="0.41" ry="0.41"/><path class="cls-2" d="M19.68,39.53H8.54a0.58,0.58,0,0,1,0-1.17H19.68A0.58,0.58,0,0,1,19.68,39.53Zm-11.14-1a0.37,0.37,0,0,0,0,.74H19.68a0.37,0.37,0,0,0,0-.74H8.54Z" transform="translate(-0.27 -0.95)"/><rect class="cls-3" x="11.41" y="45.32" width="4.79" height="1.93" rx="0.83" ry="0.83"/><rect class="cls-3" x="37.04" y="45.32" width="4.79" height="1.93" rx="0.83" ry="0.83"/><polygon class="cls-3" points="11.52 10.82 0 5.89 0.12 5.38 13.54 10.69 11.52 10.82"/><polygon class="cls-3" points="14.2 10.82 41.59 0 42.07 0.46 17.56 11.01 14.2 10.82"/></svg>