<?xml version="1.0" encoding="utf-8"?>
<!-- Generator: Adobe Illustrator 19.2.0, SVG Export Plug-In . SVG Version: 6.00 Build 0)  -->
<svg version="1.1" id="Layer_1" xmlns="http://www.w3.org/2000/svg" xmlns:xlink="http://www.w3.org/1999/xlink" x="0px" y="0px"
	 viewBox="0 0 308.2 49.3" style="enable-background:new 0 0 308.2 49.3;" xml:space="preserve">
<style type="text/css">
	.st0{fill:#207245;}
	.st1{fill:#FFFFFF;}
	.st2{fill:#00A7E1;}
	.st3{opacity:0.8;fill:#232625;enable-background:new    ;}
	.st4{fill:#F0F1F2;}
	.st5{font-family:'Teko-Regular';}
	.st6{font-size:24.92px;}
</style>
<title>ReportExport</title>
<path class="st0" d="M28.1,5.7h6.1c5,0,9,4,9,9v14c0,5-4,9-9,9H28c-5,0-9-4-9-9v-14C19,9.8,23.1,5.7,28.1,5.7z"/>
<polygon class="st0" points="26.5,42 23.7,42 2.2,38.2 2.2,5.7 23.7,2 26.5,2 "/>
<polygon class="st1" points="8.8,14.7 11.9,14.5 13.8,19.9 16.1,14.3 19.3,14.1 15.6,21.7 19.4,29.5 16.1,29.3 13.8,23.5 11.5,28.9 
	8.5,28.8 12,21.9 "/>
<path class="st1" d="M38.9,7.2H26.5V10h3.7v3.3h-3.7v1.9h3.7v3.2h-3.7v1.9h3.7v3.2h-3.7v1.8h3.7v3.2h-3.7v1.9h3.7v3.2h-3.7v2.8h15.3
	V7.2H38.9L38.9,7.2z M32.1,10h6.5v3.3h-6.5V10L32.1,10z M32.1,15h6.5v3.2h-6.5C32.1,18.2,32.1,15,32.1,15z M32.1,20.1h6.5v3.2h-6.5
	C32.1,23.3,32.1,20.1,32.1,20.1z M32.1,25.2h6.5v3.2h-6.5V25.2L32.1,25.2z M32.1,33.6v-3.2h6.5v3.2H32.1z"/>
<path class="st2" d="M102.3,38.8c-9.3,0-16.8-7.5-16.8-16.8S93,5.2,102.3,5.2s16.8,7.5,16.8,16.8l0,0
	C119.1,31.3,111.6,38.8,102.3,38.8z M102.3,7.1c-8.3,0-15,6.7-15,15s6.7,15,15,15s15-6.7,15-15S110.6,7.1,102.3,7.1L102.3,7.1z"/>
<path class="st2" d="M102.3,38.5c-2.4,0-4.6-1.8-6.2-5c-3.2-7.3-3.2-15.7,0-23c1.6-3.2,3.8-5,6.2-5s4.6,1.8,6.2,5
	c3.2,7.3,3.2,15.7,0,23C106.9,36.8,104.7,38.5,102.3,38.5z M102.3,6.8c-1.9,0-3.7,1.5-5.1,4.3c-3,7-3,14.9,0,21.9
	c1.4,2.8,3.2,4.3,5.1,4.3s3.7-1.5,5.1-4.3c3-7,3-14.9,0-21.9C106,8.4,104.2,6.8,102.3,6.8L102.3,6.8z"/>
<path class="st2" d="M112.2,39.4c-1.7,0-3.4-0.3-5-0.9c-9.9-3.9-17.7-11.7-21.6-21.6c-1.5-4.5-1.1-8.2,1.1-10.4s5.9-2.5,10.4-1
	c4.9,1.8,9.4,4.8,13.1,8.6l0,0c3.8,3.7,6.7,8.1,8.6,13.1c1.5,4.5,1.1,8.2-1.1,10.4C116.2,38.8,114.2,39.5,112.2,39.4z M92.1,5.8
	c-1.7-0.1-3.3,0.5-4.5,1.6c-1.8,1.8-2.1,5.1-0.8,9.1c3.8,9.5,11.3,17.1,20.8,20.8c4,1.3,7.3,1,9.1-0.8s2.1-5.1,0.8-9.1
	c-3.8-9.5-11.3-17.1-20.8-20.8C95.2,6.1,93.7,5.8,92.1,5.8L92.1,5.8z"/>
<circle class="st2" cx="91.9" cy="26.4" r="2"/>
<rect x="102.3" y="7.2" class="st2" width="1" height="31"/>
<rect x="90.3" y="14.2" class="st2" width="27" height="1"/>
<polygon class="st2" points="116.4,29.2 89.3,29.2 89.3,29.2 "/>
<rect x="87.3" y="22.2" class="st2" width="31" height="1"/>
<path class="st3" d="M185.4,2h-16c-2.2,0-4,1.8-4,4v32c0,2.2,1.8,4,4,4h24c2.2,0,4.4-1.8,4.4-4V14L185.4,2z M168.2,18
	c-0.6-0.6-0.6-1.6,0-2.2l0,0l3.6-3.6c0.6-0.6,1.6-0.6,2.2,0l0,0l2.8,2.8l-5.8,5.8L168.2,18z M195.8,40h-5.9l-17.2-17.3l5.9-5.9
	l17.2,17.1V40L195.8,40z"/>
<text transform="matrix(1 0 0 1 222.9055 42)" class="st4 st5 st6">... and more</text>
</svg>
