<svg id="Layer_1" data-name="Layer 1" xmlns="http://www.w3.org/2000/svg" viewBox="0 0 229.65 370.87"><defs><style>.cls-1,.cls-2{fill:#020202;}.cls-2{stroke:#020202;stroke-miterlimit:10;}</style></defs><title>TV2</title><path class="cls-1" d="M50,39.35H0V7.13H50V39.35ZM1.51,37.84h47V8.64h-47V37.84Z" transform="translate(102.65 -7.13)"/><polygon class="cls-1" points="141.81 35.71 113.61 35.71 114.79 33.92 140.53 33.92 141.81 35.71"/><path class="cls-1" d="M39.22,42.87H10.9L12.12,41H37.9ZM11,42.81H39.1l-1.24-1.73H12.15Z" transform="translate(102.65 -7.13)"/><rect class="cls-1" x="126.22" y="32.12" width="2.96" height="1.79"/><path class="cls-1" d="M26.56,41.08h-3V39.22h3v1.85Zm-3-.06h2.9V39.28H23.6V41Z" transform="translate(102.65 -7.13)"/><path class="cls-2" d="M97.94,205.5H-16.38L-19.92,207l-15.83-.88,1.63-.64h-4.74l-9.51.64-1.5-.64h-2.68a28.94,28.94,0,0,0-28.94,29V339.6a28.84,28.84,0,0,0,28.94,28.9H97.94a28.52,28.52,0,0,0,28.56-28.9V234.52C126.5,218.49,114,205.5,97.94,205.5Zm-160.44,19h51v23h-19v-8h-4v8h-14v-9h-5v9h-9v-23Zm47,46v9h-5.62A13,13,0,0,1-34,289a13.55,13.55,0,0,1-13.57-13.54A13.41,13.41,0,0,1-34,262a13.53,13.53,0,0,1,12.5,8.46h6Zm4.92,66h-52.5a2.48,2.48,0,0,1-2.25-2.5,2.48,2.48,0,0,1,2.25-2.5h52.5A2.48,2.48,0,0,1-8.33,334,2.48,2.48,0,0,1-10.58,336.5Zm0-15h-52.5a2.05,2.05,0,0,1-2.25-2,2.05,2.05,0,0,1,2.25-2h52.5a2.05,2.05,0,0,1,2.25,2A2.05,2.05,0,0,1-10.58,321.5Zm0-17h-52.5a2.48,2.48,0,0,1-2.25-2.5,2.48,2.48,0,0,1,2.25-2.5h52.5A2.48,2.48,0,0,1-8.33,302,2.48,2.48,0,0,1-10.58,304.5Zm17.08-66h-4v9h-5v-24h112v24h-10v-9h-5v9h-13v-8h-4v8h-15v-8h-5v8h-13v-8h-4v8h-14v-9h-5v9H6.5v-9Zm105,74v4h-1.1a46.13,46.13,0,0,1-2.15,6h3.25v4h-4.91c-1.08,2-2.3,4-3.66,5h8.57v4H100.05a20.43,20.43,0,0,1-5.78,5H96.5v4H89c-6.5,3-14,5.79-22,5.79S51.5,347.5,45,344.5H34.5v-4h5.25a20.43,20.43,0,0,1-5.78-5H19.5v-4H31.09c-1.36-1-2.58-3-3.66-5H19.5v-4h6.27a46.13,46.13,0,0,1-2.15-6H19.5v-4h3.39a49.5,49.5,0,0,1-.61-6H19.5v-3h2.78a41,41,0,0,1,.7-6H19.5v-4h4.25a54.5,54.5,0,0,1,2-6H19.5v-3h7.88q1.49-3,3.35-6H19.5v-3h14c1.88-2,4-4,6.22-6H19.5v-3H45a41.49,41.49,0,0,1,22-5.8,41.49,41.49,0,0,1,22,5.8H111.5v3H94.29c2.25,2,4.34,4,6.22,6h11v3h-8.21q1.86,3,3.35,6h4.86v3h-3.21a54.5,54.5,0,0,1,2,6h1.23v4H111a36.74,36.74,0,0,1,.74,7.74,37.4,37.4,0,0,1-.65,7.26h0.37Z" transform="translate(102.65 -7.13)"/><path class="cls-1" d="M97,344v-3H94.27q-2.49,1.5-5.25,3h8Z" transform="translate(102.65 -7.13)"/><path class="cls-1" d="M34,341v3H45q-2.75-1.5-5.25-3H34Z" transform="translate(102.65 -7.13)"/><path class="cls-1" d="M45,344H89q2.75-1.5,5.25-3H39.75Q42.24,342.5,45,344Z" transform="translate(102.65 -7.13)"/><path class="cls-1" d="M111,335v-3h-8.07q-1.35,1.5-2.87,3H111Z" transform="translate(102.65 -7.13)"/><path class="cls-1" d="M20,332v3H34q-1.52-1.5-2.87-3H20Z" transform="translate(102.65 -7.13)"/><path class="cls-1" d="M34,335h66.09q1.52-1.5,2.87-3H31.09Q32.44,333.5,34,335Z" transform="translate(102.65 -7.13)"/><path class="cls-1" d="M20,323v3h7.43c-0.6-1-1.16-2-1.66-3H20Z" transform="translate(102.65 -7.13)"/><path class="cls-1" d="M111,326v-3h-2.75c-0.5,1-1.06,2-1.66,3H111Z" transform="translate(102.65 -7.13)"/><path class="cls-1" d="M27.43,326h79.16c0.6-1,1.16-2,1.66-3H25.77C26.27,324,26.83,325,27.43,326Z" transform="translate(102.65 -7.13)"/><path class="cls-1" d="M20,313v3h3.62c-0.29-1-.53-2-0.73-3H20Z" transform="translate(102.65 -7.13)"/><path class="cls-1" d="M111,316v-3h0.13c-0.2,1-.44,2-0.73,3H111Z" transform="translate(102.65 -7.13)"/><path class="cls-1" d="M23.62,316H110.4c0.29-1,.53-2,0.73-3H22.89C23.09,314,23.33,315,23.62,316Z" transform="translate(102.65 -7.13)"/><path class="cls-1" d="M22.28,303H20v4h2.28c0-1,0-1.45,0-2.05S22.26,304,22.28,303Z" transform="translate(102.65 -7.13)"/><path class="cls-1" d="M111,303H22.28c0,1,0,1.38,0,1.95s0,1.05,0,2.05H111v-4Z" transform="translate(102.65 -7.13)"/><path class="cls-1" d="M111,297v-3h-0.73c0.3,1,.56,2,0.77,3h0Z" transform="translate(102.65 -7.13)"/><path class="cls-1" d="M20,294v3h3c0.21-1,.47-2,0.77-3H20Z" transform="translate(102.65 -7.13)"/><path class="cls-1" d="M110.27,294H23.75c-0.3,1-.56,2-0.77,3H111C110.83,296,110.57,295,110.27,294Z" transform="translate(102.65 -7.13)"/><path class="cls-1" d="M20,284v4h5.73c0.5-1,1.06-3,1.65-4H20Z" transform="translate(102.65 -7.13)"/><path class="cls-1" d="M111,288v-4h-4.36c0.6,1,1.15,3,1.65,4H111Z" transform="translate(102.65 -7.13)"/><path class="cls-1" d="M106.64,284H27.38c-0.6,1-1.15,3-1.65,4h82.57C107.79,287,107.24,285,106.64,284Z" transform="translate(102.65 -7.13)"/><path class="cls-1" d="M111,279v-4H100.51a16.33,16.33,0,0,0,2.79,4H111Z" transform="translate(102.65 -7.13)"/><path class="cls-1" d="M20,275v4H30.73a16.33,16.33,0,0,0,2.79-4H20Z" transform="translate(102.65 -7.13)"/><path class="cls-1" d="M100.51,275h-67a16.33,16.33,0,0,1-2.79,4h72.56A16.33,16.33,0,0,1,100.51,275Z" transform="translate(102.65 -7.13)"/><path class="cls-1" d="M20,266v4H39.74A16.23,16.23,0,0,1,45,266H20Z" transform="translate(102.65 -7.13)"/><path class="cls-1" d="M111,270v-4H89a16.23,16.23,0,0,1,5.24,4H111Z" transform="translate(102.65 -7.13)"/><path class="cls-1" d="M89,266H45a16.23,16.23,0,0,0-5.24,4H94.29A16.23,16.23,0,0,0,89,266Z" transform="translate(102.65 -7.13)"/><path class="cls-1" d="M-21.12,280H-15V270h-6.54a16.42,16.42,0,0,1,1.08,5.57A19.62,19.62,0,0,1-21.12,280Z" transform="translate(102.65 -7.13)"/><path class="cls-1" d="M-34,280h12.88a19.62,19.62,0,0,0,.66-4.43A16.42,16.42,0,0,0-21.54,270H-34v10Z" transform="translate(102.65 -7.13)"/><rect class="cls-1" x="54.65" y="361.87" width="23" height="9" rx="4.17" ry="4.17"/><rect class="cls-1" x="174.65" y="361.87" width="23" height="9" rx="4.17" ry="4.17"/><polygon class="cls-1" points="0.56 173.1 0 175.37 52.78 197.87 63.79 197.87 0.56 173.1"/><polygon class="cls-1" points="63.79 197.87 52.78 197.87 54.28 198.51 63.79 197.87"/><polygon class="cls-1" points="198.16 149.92 195.89 147.65 68.53 197.87 86.27 197.87 198.16 149.92"/><polygon class="cls-1" points="82.73 199.64 86.27 197.87 68.53 197.87 66.91 198.64 82.73 199.64"/></svg>