<svg id="Layer_1" data-name="Layer 1" xmlns="http://www.w3.org/2000/svg" viewBox="0 0 170.99 58"><defs><style>.cls-1,.cls-2,.cls-3{fill:none;}.cls-2,.cls-3,.cls-5{stroke:#1d2120;stroke-linecap:round;stroke-linejoin:round;stroke-width:5px;}.cls-3{stroke-dasharray:12 12;}.cls-4{fill:#1d2120;}.cls-5{fill:#232625;opacity:0.8;}.cls-5,.cls-6{isolation:isolate;}.cls-6{fill:#e8e8dc;opacity:0.46;}.cls-7{fill:#f0f1f2;}</style></defs><title>2</title><line class="cls-1" x1="95.26" y1="28.77" x2="0.26" y2="28.77"/><line class="cls-2" x1="95.26" y1="29.27" x2="89.26" y2="29.27"/><line class="cls-3" x1="77.26" y1="29.27" x2="33.26" y2="29.27"/><line class="cls-2" x1="27.26" y1="29.27" x2="21.26" y2="29.27"/><polygon class="cls-4" points="30.73 16.01 25.22 28.97 30.73 41.93 0 28.97 30.73 16.01"/><circle class="cls-5" cx="141.99" cy="29" r="26.5"/><circle class="cls-6" cx="141.99" cy="29" r="21.04"/><path class="cls-7" d="M5246.7,4980.58v4.29H5244v-4.71q0-3.08,3.08-3.08h3q3.08,0,3.08,3.08v2.15a12.8,12.8,0,0,1-1,5.07l-5.34,11.66h6.55v2.3h-9.32v-2.27l5.53-12.1a12.15,12.15,0,0,0,.9-4.8v-1.59a0.94,0.94,0,0,0-1.21-1.21h-1.4A0.94,0.94,0,0,0,5246.7,4980.58Z" transform="translate(-5106.74 -4960.2)"/></svg>