<svg id="Layer_1" data-name="Layer 1" xmlns="http://www.w3.org/2000/svg" viewBox="0 0 74.61 16.67"><defs><style>.cls-1{fill:#f0f1f2;}</style></defs><title>AndMore</title><path class="cls-1" d="M596.34,405.79V403h2v2.79h-2Z" transform="translate(-596.34 -389.11)"/><path class="cls-1" d="M599.88,405.79V403h2v2.79h-2Z" transform="translate(-596.34 -389.11)"/><path class="cls-1" d="M603.42,405.79V403h2v2.79h-2Z" transform="translate(-596.34 -389.11)"/><path class="cls-1" d="M614.78,393.7h1.72v12.09h-1.72V405a1.27,1.27,0,0,1-1.37.82h-1a1.74,1.74,0,0,1-2-2v-8.15a1.74,1.74,0,0,1,2-2h1a1.27,1.27,0,0,1,1.37.82V393.7Zm-1.84,10.62h1a0.88,0.88,0,0,0,.65-0.2,1,1,0,0,0,.2-0.7v-7.35a1,1,0,0,0-.2-0.7,0.89,0.89,0,0,0-.65-0.2h-1a0.91,0.91,0,0,0-.64.15,1,1,0,0,0-.14.62v7.6A0.6,0.6,0,0,0,612.94,404.31Z" transform="translate(-596.34 -389.11)"/><path class="cls-1" d="M621.83,393.7h1a1.74,1.74,0,0,1,2,2v10.12h-1.72v-9.84a1,1,0,0,0-.14-0.62,0.91,0.91,0,0,0-.64-0.15h-1a0.89,0.89,0,0,0-.65.2,1,1,0,0,0-.2.7v9.72h-1.72V393.7h1.72v0.82A1.27,1.27,0,0,1,621.83,393.7Z" transform="translate(-596.34 -389.11)"/><path class="cls-1" d="M631.25,389.11H633v16.67h-1.72V405a1.27,1.27,0,0,1-1.37.82h-1a1.74,1.74,0,0,1-2-2v-8.17a1.74,1.74,0,0,1,2-2h1a1.27,1.27,0,0,1,1.37.82v-5.38Zm-1.84,15.2h1a0.88,0.88,0,0,0,.65-0.2,1,1,0,0,0,.2-0.7V396a1,1,0,0,0-.2-0.7,0.89,0.89,0,0,0-.65-0.2h-1a0.6,0.6,0,0,0-.77.77v7.63A0.6,0.6,0,0,0,629.41,404.31Z" transform="translate(-596.34 -389.11)"/><path class="cls-1" d="M645.88,393.7h1a1.74,1.74,0,0,1,2,2v10.12h-1.72v-9.84a1,1,0,0,0-.14-0.62,0.91,0.91,0,0,0-.64-0.15h-1a0.89,0.89,0,0,0-.65.2,1,1,0,0,0-.2.7v9.72h-1.72v-9.84a1,1,0,0,0-.14-0.62,0.91,0.91,0,0,0-.64-0.15h-1a0.89,0.89,0,0,0-.65.2,1,1,0,0,0-.2.7v9.72h-1.72V393.7h1.72v0.82a1.27,1.27,0,0,1,1.37-.82h1a1.74,1.74,0,0,1,1.82,1A1.35,1.35,0,0,1,645.88,393.7Z" transform="translate(-596.34 -389.11)"/><path class="cls-1" d="M652.81,393.7h2.54a1.74,1.74,0,0,1,2,2v8.15a1.74,1.74,0,0,1-2,2h-2.54a1.74,1.74,0,0,1-2-2v-8.15A1.74,1.74,0,0,1,652.81,393.7Zm2.82,9.84v-7.6a0.61,0.61,0,0,0-.77-0.77h-1.55a0.61,0.61,0,0,0-.77.77v7.6a0.91,0.91,0,0,0,.15.64,1,1,0,0,0,.62.14h1.55a1,1,0,0,0,.62-0.14A0.91,0.91,0,0,0,655.63,403.54Z" transform="translate(-596.34 -389.11)"/><path class="cls-1" d="M663,393.7h0.52v1.5h-0.75q-1.57,0-1.57,1.87v8.72h-1.72V393.7h1.72v1.4a2.32,2.32,0,0,1,.66-1A1.64,1.64,0,0,1,663,393.7Z" transform="translate(-596.34 -389.11)"/><path class="cls-1" d="M666.69,393.7H669a1.74,1.74,0,0,1,2,2v4.66h-4.51v3.21a0.91,0.91,0,0,0,.15.64,1,1,0,0,0,.62.14h1.17a0.6,0.6,0,0,0,.77-0.77v-1.1h1.72v1.37a1.74,1.74,0,0,1-2,2h-2.22a1.74,1.74,0,0,1-2-2v-8.15A1.74,1.74,0,0,1,666.69,393.7Zm-0.25,5.16h2.79v-2.92a0.61,0.61,0,0,0-.77-0.77h-1.25a0.61,0.61,0,0,0-.77.77v2.92Z" transform="translate(-596.34 -389.11)"/></svg>