<svg id="Layer_1" data-name="Layer 1" xmlns="http://www.w3.org/2000/svg" viewBox="0 0 41.18 40.05"><defs><style>.cls-1{fill:#207245;}.cls-2{fill:#fff;}</style></defs><title>Excel</title><rect class="cls-1" x="16.9" y="3.69" width="24.29" height="32.14" rx="1.59" ry="1.59"/><polygon class="cls-1" points="24.33 40.05 21.57 40.05 0 36.32 0 3.69 21.61 0 24.33 0 24.33 40.05"/><polygon class="cls-2" points="6.59 12.72 9.69 12.54 11.67 17.94 13.99 12.26 17.17 12.08 13.43 19.7 17.29 27.5 13.97 27.3 11.59 21.48 9.35 26.96 6.29 26.88 9.85 19.88 6.59 12.72"/><path class="cls-2" d="M656.53,385H644.15v2.8h3.74V391h-3.74v1.87h3.74v3.25h-3.74V398h3.74v3.25h-3.74v1.87h3.74v3.25h-3.74v1.87h3.74v3.25h-3.74v2.8h15.37V385h-3Zm-6.77,2.8h6.52V391h-6.52v-3.24Zm0,5.11h6.52v3.25h-6.52v-3.25Zm0,5.12h6.52v3.25h-6.52V398Zm0,5.12h6.52v3.25h-6.52v-3.25Zm0,8.37v-3.25h6.52v3.25h-6.52Z" transform="translate(-619.74 -379.83)"/></svg>