<svg id="Layer_1" data-name="Layer 1" xmlns="http://www.w3.org/2000/svg" viewBox="0 0 188.21 261.49"><defs><style>.cls-1{fill:#5b5559;}.cls-2{fill:#232625;stroke:#1d2120;stroke-width:5px;}.cls-2,.cls-9{stroke-linecap:round;stroke-linejoin:round;}.cls-2,.cls-3,.cls-4,.cls-6,.cls-8{opacity:0.8;}.cls-12,.cls-13,.cls-14,.cls-3{fill:#f0f1f2;}.cls-4{fill:#ff5629;}.cls-5{fill:#65859a;}.cls-6,.cls-8{fill:#647362;}.cls-6,.cls-7,.cls-9{stroke:#647362;}.cls-10,.cls-6,.cls-7{stroke-miterlimit:10;}.cls-7{fill:#fff;}.cls-10,.cls-9{fill:none;}.cls-10{stroke:#65767e;}.cls-11{fill:#668599;}.cls-12{font-size:24.92px;}.cls-12,.cls-13,.cls-14{font-family:Teko;}.cls-13{font-size:14.62px;}.cls-14{font-size:10.21px;}</style></defs><title>Report</title><rect class="cls-1" x="1.98" y="2.5" width="183.21" height="256.49" rx="11.54" ry="11.54"/><rect class="cls-2" x="2.5" y="2.5" width="183.21" height="256.49" rx="15.9" ry="15.9"/><rect class="cls-3" x="15.72" y="16.19" width="155.74" height="225.16"/><rect class="cls-4" x="24.13" y="25.45" width="141.33" height="14.9"/><rect class="cls-4" x="32.17" y="86.47" width="9.06" height="15.16"/><rect class="cls-4" x="45.54" y="76.36" width="9.06" height="25.27"/><rect class="cls-4" x="72.08" y="70.04" width="9.06" height="31.59"/><rect class="cls-5" x="43.83" y="50.92" width="9.06" height="47.39" transform="translate(127.53 79.59) rotate(90)"/><rect class="cls-6" x="120.37" y="49.29" width="5.15" height="46.73" transform="translate(200.16 3.06) rotate(90)"/><rect class="cls-7" x="116.58" y="57.61" width="5.15" height="39.16" transform="translate(200.9 11.37) rotate(90)"/><rect class="cls-7" x="111.74" y="78.24" width="5.15" height="29.48" transform="translate(211.85 32.01) rotate(90)"/><rect class="cls-7" x="120.76" y="83.36" width="5.15" height="47.51" transform="translate(235.01 37.13) rotate(90)"/><rect class="cls-6" x="115.36" y="70.1" width="5.15" height="36.72" transform="translate(210.94 23.86) rotate(90)"/><rect class="cls-6" x="124.01" y="76.63" width="5.15" height="54.01" transform="translate(234.77 30.39) rotate(90)"/><rect class="cls-5" x="38.78" y="71.77" width="9.06" height="37.28" transform="translate(138.27 100.44) rotate(90)"/><rect class="cls-5" x="47.1" y="79.25" width="9.06" height="53.91" transform="translate(162.38 107.92) rotate(90)"/><rect class="cls-4" x="58.81" y="79.94" width="9.06" height="21.69"/><rect class="cls-8" x="32.17" y="57.4" width="9.06" height="29.06"/><rect class="cls-8" x="45.54" y="57.4" width="9.06" height="18.95"/><rect class="cls-8" x="72.08" y="57.4" width="9.06" height="12.64"/><rect class="cls-8" x="58.81" y="57.4" width="9.06" height="22.53"/><line class="cls-9" x1="25.32" y1="189.37" x2="90.89" y2="189.37"/><line class="cls-9" x1="25.32" y1="198.83" x2="90.89" y2="198.83"/><line class="cls-9" x1="25.32" y1="208.28" x2="90.89" y2="208.28"/><line class="cls-9" x1="25.32" y1="217.74" x2="90.89" y2="217.74"/><line class="cls-9" x1="25.32" y1="227.2" x2="90.89" y2="227.2"/><line class="cls-9" x1="97.88" y1="189.37" x2="163.45" y2="189.37"/><line class="cls-9" x1="97.88" y1="198.83" x2="163.45" y2="198.83"/><line class="cls-9" x1="97.88" y1="208.28" x2="163.45" y2="208.28"/><line class="cls-9" x1="97.88" y1="217.74" x2="163.45" y2="217.74"/><line class="cls-9" x1="97.88" y1="227.2" x2="163.45" y2="227.2"/><polyline class="cls-10" points="26.69 121 26.69 169.02 84.82 169.02"/><rect class="cls-10" x="35.77" y="166.08" width="0.92" height="2.94"/><rect class="cls-10" x="45.08" y="166.08" width="0.92" height="2.94"/><rect class="cls-10" x="54.39" y="166.08" width="0.92" height="2.94"/><rect class="cls-10" x="63.7" y="166.08" width="0.92" height="2.94"/><rect class="cls-10" x="73" y="166.08" width="0.92" height="2.94"/><rect class="cls-10" x="82.31" y="166.08" width="0.92" height="2.94"/><polyline class="cls-10" points="101.6 121 101.6 169.02 159.73 169.02"/><rect class="cls-10" x="110.68" y="166.08" width="0.92" height="2.94"/><rect class="cls-10" x="119.99" y="166.08" width="0.92" height="2.94"/><rect class="cls-10" x="129.3" y="166.08" width="0.92" height="2.94"/><rect class="cls-10" x="138.6" y="166.08" width="0.92" height="2.94"/><rect class="cls-10" x="147.91" y="166.08" width="0.92" height="2.94"/><rect class="cls-10" x="157.22" y="166.08" width="0.92" height="2.94"/><path class="cls-4" d="M122.94,2.32A25,25,0,1,0,141,44.61L122.94,27.34v-25Z" transform="translate(4.55 53.34)"/><path class="cls-11" d="M141.58,10.7a24.93,24.93,0,0,0-18.64-8.37v25Z" transform="translate(4.55 53.34)"/><path class="cls-8" d="M141.58,10.7L122.94,27.34,141,44.61A24.93,24.93,0,0,0,141.58,10.7Z" transform="translate(4.55 53.34)"/><text class="cls-12" transform="translate(107.5 90.33)">%</text><text class="cls-13" transform="translate(139.77 84.21)">%</text><text class="cls-13" transform="translate(129.76 70.04)">%</text><text class="cls-14" transform="translate(73.93 68.67)">%</text><text class="cls-14" transform="translate(60.31 79.12)">%</text><text class="cls-14" transform="translate(47.86 74.45)">%</text><text class="cls-14" transform="translate(34.05 84.21)">%</text><text class="cls-14" transform="translate(77.9 130.74)">%</text><text class="cls-14" transform="translate(67.87 146.32)">%</text><text class="cls-14" transform="translate(84.82 162.37)">%</text></svg>