<svg id="Layer_1" data-name="Layer 1" xmlns="http://www.w3.org/2000/svg" viewBox="0 0 34.87 34.87"><defs><style>.cls-1{fill:#00a7e1;}</style></defs><title>Web</title><path class="cls-1" d="M641,417.59a16.75,16.75,0,1,1,16.75-16.75A16.77,16.77,0,0,1,641,417.59Zm0-31.73a15,15,0,1,0,15,15A15,15,0,0,0,641,385.87Z" transform="translate(-623.41 -383.35)"/><path class="cls-1" d="M641,417.33c-2.38,0-4.57-1.77-6.19-5a28.72,28.72,0,0,1,0-23c1.62-3.22,3.81-5,6.19-5s4.57,1.77,6.19,5a28.72,28.72,0,0,1,0,23C645.58,415.56,643.38,417.33,641,417.33Zm0-31.73c-1.88,0-3.69,1.53-5.08,4.3a27.51,27.51,0,0,0,0,21.88c1.39,2.78,3.2,4.3,5.08,4.3s3.69-1.53,5.08-4.3a27.51,27.51,0,0,0,0-21.88C644.69,387.13,642.89,385.6,641,385.6Z" transform="translate(-623.41 -383.35)"/><path class="cls-1" d="M650.89,418.22a16,16,0,0,1-5-.89A38.25,38.25,0,0,1,624.3,395.7c-1.49-4.5-1.1-8.18,1.09-10.37s5.87-2.58,10.37-1.09a34.86,34.86,0,0,1,13.07,8.56h0a34.87,34.87,0,0,1,8.56,13.07c1.49,4.5,1.1,8.18-1.09,10.37A7.39,7.39,0,0,1,650.89,418.22Zm-20.1-33.63a6.19,6.19,0,0,0-4.53,1.62c-1.84,1.84-2.12,5.07-.79,9.1a37,37,0,0,0,20.84,20.84c4,1.33,7.26,1.05,9.1-.79s2.12-5.07.79-9.1a37,37,0,0,0-20.84-20.84A14.74,14.74,0,0,0,630.79,384.59Z" transform="translate(-623.41 -383.35)"/><circle class="cls-1" cx="7.13" cy="21.83" r="1.96"/><rect class="cls-1" x="17.59" y="2.65" width="1" height="31"/><rect class="cls-1" x="5.59" y="9.65" width="27" height="1"/><polygon class="cls-1" points="31.64 26.65 4.54 26.65 4.54 26.65 31.64 26.65 31.64 26.65"/><rect class="cls-1" x="2.59" y="17.65" width="31" height="1"/></svg>