<svg id="Layer_1" data-name="Layer 1" xmlns="http://www.w3.org/2000/svg" viewBox="0 0 312.05 58"><defs><style>.cls-1,.cls-2,.cls-3{fill:none;}.cls-2,.cls-3,.cls-5{stroke:#1d2120;stroke-linecap:round;stroke-linejoin:round;stroke-width:5px;}.cls-3{stroke-dasharray:12 12;}.cls-4{fill:#1d2120;}.cls-5{fill:#232625;opacity:0.8;}.cls-5,.cls-6{isolation:isolate;}.cls-6{fill:#e8e8dc;opacity:0.46;}.cls-7{fill:#f0f1f2;}</style></defs><title>3</title><line class="cls-1" x1="236" y1="29.45" y2="29.45"/><line class="cls-2" x1="236" y1="28.95" x2="230" y2="28.95"/><line class="cls-3" x1="218" y1="28.95" x2="33" y2="28.95"/><line class="cls-2" x1="27" y1="28.95" x2="21" y2="28.95"/><polygon class="cls-4" points="30.93 16.04 25.43 29 30.93 41.96 0.21 29 30.93 16.04"/><circle class="cls-5" cx="283.05" cy="29" r="26.5"/><circle class="cls-6" cx="283.05" cy="29" r="21.04"/><path class="cls-7" d="M5317,4979.9v4h-2.65v-4.43q0-3.08,3.08-3.08h3.28q3.08,0,3.08,3.08v7q0,1.76-1.44,1.87a1.62,1.62,0,0,1,1.45,1.78v7.46q0,3.08-3.08,3.08h-3.28q-3.08,0-3.08-3.08v-4.37H5317v3.94a1.42,1.42,0,0,0,.23,1,1.53,1.53,0,0,0,1,.21h1.72a1.53,1.53,0,0,0,1-.21,1.42,1.42,0,0,0,.23-1v-6.4a1.43,1.43,0,0,0-.23-1,1.53,1.53,0,0,0-1-.21h-2.85v-2.34h2.85a1.53,1.53,0,0,0,1-.21,1.43,1.43,0,0,0,.23-1v-6.08a1.43,1.43,0,0,0-.23-1,1.53,1.53,0,0,0-1-.21h-1.72a1.53,1.53,0,0,0-1,.21A1.43,1.43,0,0,0,5317,4979.9Z" transform="translate(-5036 -4959.52)"/></svg>