<svg id="Layer_1" data-name="Layer 1" xmlns="http://www.w3.org/2000/svg" viewBox="0 0 374.06 341.84"><defs><style>.cls-1{fill:#1a1c1b;}.cls-1,.cls-2{stroke:#1d2120;stroke-linecap:round;stroke-linejoin:round;stroke-width:5px;}.cls-2{fill:#232625;opacity:0.8;}.cls-3{fill:#f0f1f2;}</style></defs><title>Client</title><rect class="cls-1" x="42.25" y="236.84" width="285.36" height="102.5"/><path class="cls-2" d="M606.77,343.64c-0.94,11-1,20.67-4.2,28.48,0,0-2.61,26.38-2.3,72.38H540s6.1-12.59,7.33-18.13,18.47-44.32,7.08-63.1S532.87,339,532.87,339,519.94,327.88,511,308.18c-3.9-8.6-11.25-15.73-18.31-21,0,0-14.32-12.82-16.47-17.43s-14.47-31.39-18.16-33.24-3.08-11.08,2.46-10.16,6.77,0.92,10.46,5.23a141.72,141.72,0,0,1,16.31,23.39c6.16,11.08,21.24,19.7,21.24,19.7s40.32,13.23,43.71,34.78c0,0,0-9.85-9.23-21.24,0,0-11.55-20.31-11.62-24s-1.92-16,10.39-9.23c0,0,3.08-1.23,17.85,23.08,0,0,10.81,17.75,20.85,21.55S607.81,331.47,606.77,343.64Z" transform="translate(-453.25 -216.66)"/><path class="cls-2" d="M524.11,279.19S499.15,250,494.88,240s-5.56-18.68-12-20.39-7.84,2-7.56,6.66a34.62,34.62,0,0,0,2.28,9.46s13.26,17.4,13.4,20.11S500,267.21,524.11,279.19Z" transform="translate(-453.25 -216.66)"/><path class="cls-2" d="M537.8,285s-9.13-2.28-20.82-17.54S502.43,247,502.43,247s0.68-15.12-2.73-21.25c0,0-.55-4.85,7-2.57S516,243.26,516,243.26,519.4,266.93,537.8,285Z" transform="translate(-453.25 -216.66)"/><path class="cls-2" d="M673.79,343.64c0.94,11,1,20.67,4.2,28.48,0,0,2.61,26.38,2.3,72.38h60.27s-6.1-12.59-7.33-18.13-18.47-44.32-7.08-63.1S747.69,339,747.69,339s12.93-11.08,21.85-30.78c3.9-8.6,11.25-15.73,18.31-21,0,0,14.32-12.82,16.47-17.43s14.47-31.39,18.16-33.24,3.08-11.08-2.46-10.16-6.77.92-10.46,5.23a141.72,141.72,0,0,0-16.31,23.39C787.09,266,772,274.63,772,274.63s-40.32,13.23-43.71,34.78c0,0,0-9.85,9.23-21.24,0,0,11.55-20.31,11.62-24s1.92-16-10.39-9.23c0,0-3.08-1.23-17.85,23.08,0,0-10.81,17.75-20.85,21.55S672.75,331.47,673.79,343.64Z" transform="translate(-453.25 -216.66)"/><path class="cls-2" d="M756.45,279.19s25-29.23,29.23-39.21,5.56-18.68,12-20.39,7.84,2,7.56,6.66a34.62,34.62,0,0,1-2.28,9.46s-13.26,17.4-13.4,20.11S780.55,267.21,756.45,279.19Z" transform="translate(-453.25 -216.66)"/><path class="cls-2" d="M742.76,285s9.13-2.28,20.82-17.54S778.13,247,778.13,247s-0.68-15.12,2.73-21.25c0,0,.55-4.85-7-2.57s-9.27,20.11-9.27,20.11S761.16,266.93,742.76,285Z" transform="translate(-453.25 -216.66)"/><path class="cls-3" d="M572.78,488.53h-7.91V477.76q0-2.29-.69-2.92a4.5,4.5,0,0,0-2.86-.63H555q-2.29,0-2.92.63t-0.63,2.92v50.76a4.49,4.49,0,0,0,.63,2.86q0.63,0.69,2.92.69h6.3a2.82,2.82,0,0,0,3.55-3.55V517.75h7.91v12q0,9.05-9.05,9.05H552.61q-9.05,0-9.05-9.05V476.5q0-9,9.05-9.05h11.12q9.05,0,9.05,9.05v12Z" transform="translate(-453.25 -216.66)"/><path class="cls-3" d="M590.42,538.72h-7.91V462.06h7.91v76.66Z" transform="translate(-453.25 -216.66)"/><path class="cls-3" d="M600.51,471.23v-9.28h8.36v9.28h-8.36Zm8.14,67.49h-7.91V483.14h7.91v55.58Z" transform="translate(-453.25 -216.66)"/><path class="cls-3" d="M628,483.14h10.54q9.05,0,9.05,9.05v21.43H626.86v14.78q0,2.29.69,2.92a4.49,4.49,0,0,0,2.86.63h5.39q2.29,0,2.92-.63t0.63-2.92v-5h7.91v6.3q0,9.05-9.05,9.05H628q-9.05,0-9.05-9.05V492.2Q619,483.14,628,483.14Zm-1.15,23.72H639.7V493.46a2.82,2.82,0,0,0-3.55-3.55h-5.73a2.82,2.82,0,0,0-3.55,3.55v13.41Z" transform="translate(-453.25 -216.66)"/><path class="cls-3" d="M671,483.14h4.58q9.05,0,9.05,9.05v46.52h-7.91V493.46a4.51,4.51,0,0,0-.63-2.87q-0.63-.69-2.92-0.69h-4.58a4.1,4.1,0,0,0-3,.92,4.47,4.47,0,0,0-.92,3.21v44.69h-7.91V483.14h7.91v3.78Q665.93,483.14,671,483.14Z" transform="translate(-453.25 -216.66)"/><path class="cls-3" d="M711.2,489.9h-7.91v37.93a2.82,2.82,0,0,0,3.55,3.55h4.35v7.33h-6.76q-9.05,0-9.05-9.05V489.9h-5v-6.76h5v-9.05h7.91v9.05h7.91v6.76Z" transform="translate(-453.25 -216.66)"/><path class="cls-3" d="M726.55,483.14h10.54q9.05,0,9.05,9.05v21.43H725.41v14.78q0,2.29.69,2.92A4.49,4.49,0,0,0,729,532h5.39q2.29,0,2.92-.63t0.63-2.92v-5h7.91v6.3q0,9.05-9.05,9.05h-10.2q-9.05,0-9.05-9.05V492.2Q717.5,483.14,726.55,483.14Zm-1.15,23.72h12.83V493.46a2.82,2.82,0,0,0-3.55-3.55H729a2.82,2.82,0,0,0-3.55,3.55v13.41Z" transform="translate(-453.25 -216.66)"/></svg>