<svg id="Layer_1" data-name="Layer 1" xmlns="http://www.w3.org/2000/svg" xmlns:xlink="http://www.w3.org/1999/xlink" viewBox="0 0 195.29 266.67"><defs><style>.cls-1{fill:#5e5e5e;}.cls-2{fill:#d1d1c6;}.cls-3{fill:url(#linear-gradient);}.cls-4{fill:url(#linear-gradient-2);}.cls-5{fill:url(#linear-gradient-3);}.cls-6{fill:url(#linear-gradient-4);}.cls-7{fill:url(#linear-gradient-5);}.cls-8{fill:url(#linear-gradient-6);}.cls-9{fill:url(#linear-gradient-7);}.cls-10{fill:url(#linear-gradient-8);}.cls-11{fill:url(#linear-gradient-9);}.cls-12{fill:url(#linear-gradient-10);}.cls-13{fill:url(#linear-gradient-11);}.cls-14{fill:url(#linear-gradient-12);}.cls-15{fill:url(#linear-gradient-13);}.cls-16{fill:url(#linear-gradient-14);}.cls-17{fill:url(#linear-gradient-15);}.cls-18{fill:url(#linear-gradient-16);}.cls-19{fill:url(#linear-gradient-17);}.cls-20{fill:url(#linear-gradient-18);}.cls-21{fill:url(#linear-gradient-19);}.cls-22{fill:url(#linear-gradient-20);}.cls-23{fill:url(#linear-gradient-21);}.cls-24{fill:url(#linear-gradient-22);}.cls-25{fill:url(#linear-gradient-23);}.cls-26{fill:url(#linear-gradient-24);}.cls-27{fill:url(#linear-gradient-25);}.cls-28{fill:url(#linear-gradient-26);}.cls-29{fill:url(#linear-gradient-27);}.cls-30{fill:url(#linear-gradient-28);}.cls-31{fill:url(#linear-gradient-29);}.cls-32{fill:url(#linear-gradient-30);}.cls-33{fill:url(#linear-gradient-31);}.cls-34{fill:url(#linear-gradient-32);}.cls-35{fill:#f3f2e5;}.cls-36{fill:#93928b;}.cls-37{fill:none;stroke:#d1d1c6;stroke-miterlimit:10;}</style><linearGradient id="linear-gradient" x1="18.39" y1="-93.54" x2="34.76" y2="-93.54" gradientUnits="userSpaceOnUse"><stop offset="0" stop-color="#d2d1c6"/><stop offset="1" stop-color="#92928a"/></linearGradient><linearGradient id="linear-gradient-2" x1="11.75" y1="-84.5" x2="16.98" y2="-84.5" xlink:href="#linear-gradient"/><linearGradient id="linear-gradient-3" x1="30.99" y1="-80.11" x2="43.95" y2="-80.11" xlink:href="#linear-gradient"/><linearGradient id="linear-gradient-4" x1="35.34" y1="-71.44" x2="37.84" y2="-71.44" xlink:href="#linear-gradient"/><linearGradient id="linear-gradient-5" x1="29.34" y1="-72.98" x2="34.97" y2="-72.98" xlink:href="#linear-gradient"/><linearGradient id="linear-gradient-6" x1="22.29" y1="-70.33" x2="34.9" y2="-70.33" xlink:href="#linear-gradient"/><linearGradient id="linear-gradient-7" x1="-26.66" y1="-34.01" x2="56.94" y2="-34.01" xlink:href="#linear-gradient"/><linearGradient id="linear-gradient-8" x1="37.14" y1="-55.1" x2="50.13" y2="-55.1" xlink:href="#linear-gradient"/><linearGradient id="linear-gradient-9" x1="31.66" y1="-61.39" x2="34.06" y2="-61.39" xlink:href="#linear-gradient"/><linearGradient id="linear-gradient-10" x1="34.25" y1="-62.93" x2="37.06" y2="-62.93" xlink:href="#linear-gradient"/><linearGradient id="linear-gradient-11" x1="37.45" y1="-61.85" x2="43.45" y2="-61.85" xlink:href="#linear-gradient"/><linearGradient id="linear-gradient-12" x1="44.1" y1="-61.9" x2="45.72" y2="-61.9" xlink:href="#linear-gradient"/><linearGradient id="linear-gradient-13" x1="46.31" y1="-61.71" x2="48.04" y2="-61.71" xlink:href="#linear-gradient"/><linearGradient id="linear-gradient-14" x1="48.52" y1="-61.34" x2="52.14" y2="-61.34" xlink:href="#linear-gradient"/><linearGradient id="linear-gradient-15" x1="52.41" y1="-59.04" x2="55.63" y2="-59.04" xlink:href="#linear-gradient"/><linearGradient id="linear-gradient-16" x1="52.29" y1="-55.77" x2="56.62" y2="-55.77" xlink:href="#linear-gradient"/><linearGradient id="linear-gradient-17" x1="26.71" y1="-15.49" x2="52.37" y2="-15.49" xlink:href="#linear-gradient"/><linearGradient id="linear-gradient-18" x1="47.19" y1="-6.27" x2="55.2" y2="-6.27" xlink:href="#linear-gradient"/><linearGradient id="linear-gradient-19" x1="34.82" y1="-0.34" x2="60.38" y2="-0.34" xlink:href="#linear-gradient"/><linearGradient id="linear-gradient-20" x1="-26.18" y1="-40.64" x2="-13.12" y2="-40.64" xlink:href="#linear-gradient"/><linearGradient id="linear-gradient-21" x1="-33.1" y1="-39.68" x2="-24.89" y2="-39.68" xlink:href="#linear-gradient"/><linearGradient id="linear-gradient-22" x1="-38.98" y1="-32.8" x2="-22.09" y2="-32.8" xlink:href="#linear-gradient"/><linearGradient id="linear-gradient-23" x1="-38.52" y1="-10.66" x2="-2.39" y2="-10.66" xlink:href="#linear-gradient"/><linearGradient id="linear-gradient-24" x1="-0.46" y1="-13.37" x2="28.26" y2="-13.37" xlink:href="#linear-gradient"/><linearGradient id="linear-gradient-25" x1="1.76" y1="-13.7" x2="25.23" y2="-13.7" xlink:href="#linear-gradient"/><linearGradient id="linear-gradient-26" x1="0.5" y1="5.64" x2="22.29" y2="5.64" xlink:href="#linear-gradient"/><linearGradient id="linear-gradient-27" x1="13.69" y1="30.01" x2="24.35" y2="30.01" xlink:href="#linear-gradient"/><linearGradient id="linear-gradient-28" x1="16.53" y1="41.2" x2="23.71" y2="41.2" xlink:href="#linear-gradient"/><linearGradient id="linear-gradient-29" x1="38.1" y1="46.15" x2="57.73" y2="46.15" xlink:href="#linear-gradient"/><linearGradient id="linear-gradient-30" x1="-30.01" y1="-8.38" x2="-29.74" y2="-8.38" xlink:href="#linear-gradient"/><linearGradient id="linear-gradient-31" x1="-5.19" y1="-4.36" x2="-4.93" y2="-4.36" xlink:href="#linear-gradient"/><linearGradient id="linear-gradient-32" x1="-29.74" y1="26.9" x2="37.67" y2="26.9" xlink:href="#linear-gradient"/></defs><title>Logo</title><path class="cls-1" d="M-19.58-100.4Q-29.41-98.47-39-95.69q-4.77,1.39-9.47,3l-1.5.51A1.62,1.62,0,0,0-50.73-91q-0.4,1.11-.79,2.22-0.78,2.23-1.51,4.48A222,222,0,0,0-62-45.15a219.4,219.4,0,0,0,4.38,81q1.21,4.94,2.64,9.82,0.73,2.47,1.51,4.93,0.36,1.13.73,2.26c0.28,0.85.38,1.74,1.32,2.07q9.35,3.3,19,5.78a225.53,225.53,0,0,0,39.84,6.5,227.26,227.26,0,0,0,80.66-8.64q4.75-1.41,9.44-3c0.62-.21,2.45-0.52,2.68-1.23s0.51-1.51.75-2.26q0.74-2.27,1.43-4.56,2.93-9.7,5-19.63a220.74,220.74,0,0,0,4.5-40.81A221.35,221.35,0,0,0,98.28-92.11,224.41,224.41,0,0,0,62-101.43,227.88,227.88,0,0,0-19.58-100.4Z" transform="translate(73.64 108.33)"/><path class="cls-2" d="M-47.18,96v3H-73.64V80.49h3.22V96h23.24Z" transform="translate(73.64 108.33)"/><path class="cls-2" d="M-21.28,96a3.2,3.2,0,0,0,3.19-3.19V80.49h3.25V92.84a6.24,6.24,0,0,1-6.23,6.23H-36.43a6.24,6.24,0,0,1-6.23-6.23V80.49h3.25V92.84A3.2,3.2,0,0,0-36.22,96h14.93Z" transform="translate(73.64 108.33)"/><path class="cls-2" d="M-8.77,80.49H13.38a6.26,6.26,0,0,1,6.23,6.26v6.1a6.24,6.24,0,0,1-6.23,6.23H-8.77V80.49Zm3.25,3.09V96H13.19a3.2,3.2,0,0,0,3.19-3.19v-6.1a3.18,3.18,0,0,0-3.19-3.17H-5.52Z" transform="translate(73.64 108.33)"/><path class="cls-2" d="M47.11,96a3.2,3.2,0,0,0,3.19-3.19V80.49h3.25V92.84a6.24,6.24,0,0,1-6.23,6.23H32a6.24,6.24,0,0,1-6.23-6.23V80.49H29V92.84A3.2,3.2,0,0,0,32.17,96H47.11Z" transform="translate(73.64 108.33)"/><path class="cls-2" d="M84.19,99.07V92.79H62.87v6.28H59.62V86.72a6.24,6.24,0,0,1,6.23-6.23H81.21a6.24,6.24,0,0,1,6.23,6.23V99.07H84.19ZM62.87,89.75H84.19v-3A3.2,3.2,0,0,0,81,83.53H66.06a3.2,3.2,0,0,0-3.19,3.19v3Z" transform="translate(73.64 108.33)"/><path class="cls-2" d="M121.64,99.07H118.4L97.07,84.43V99.07H93.83V80.49h3.25L118.4,95.16V80.49h3.25V99.07Z" transform="translate(73.64 108.33)"/><path class="cls-3" d="M18.39-87.12s0.3-11.57,10.45-13.9c0,0,7.68-1.29,5.55,4.77a7.72,7.72,0,0,1-2,1.62,7.41,7.41,0,0,0-3,7.34s-1.56-.61-4.13,1.35C25.29-85.94,25.59-91.62,18.39-87.12Z" transform="translate(73.64 108.33)"/><path class="cls-4" d="M12.33-81.78S10.23-86.52,14-87.5s3.28,3,2.06,3.25A2.93,2.93,0,0,0,13.89-82,0.84,0.84,0,0,1,12.33-81.78Z" transform="translate(73.64 108.33)"/><path class="cls-5" d="M31.17-85.42A8.71,8.71,0,0,1,34-84c0.63,0.71,1.18-1,5.67,4.38a8.69,8.69,0,0,0,3,2.41c1.59,0.6,1.94,3.37-.66,2.14a6.5,6.5,0,0,1-5.48-1.26c-2.79-1.73-2.27-2.71-1.81-3.31s0-.52-0.36-0.66A5.92,5.92,0,0,1,33-82.87c-0.3-.47-0.3-1.23-1.56-1.45C31-84.76,30.84-85.52,31.17-85.42Z" transform="translate(73.64 108.33)"/><path class="cls-6" d="M35.34-70.2s0.29-2.4,1.61-2.47c0,0,1.3-.22.77,0.77C37.35-71.23,37.28-72.48,35.34-70.2Z" transform="translate(73.64 108.33)"/><path class="cls-7" d="M29.82-73.27s0.79-.19.5,1.39a1.33,1.33,0,0,0,.66.43,2.14,2.14,0,0,1,1.42,1c0,0.43,3.45.08,2.33-2.25,0,0-.43-2.59-2.52-2.42,0,0-.34-1.26-2.4,0A1.18,1.18,0,0,0,29.82-73.27Z" transform="translate(73.64 108.33)"/><path class="cls-8" d="M27.74-74.59s1-.67,1,0.36-0.1.7,0.55,1.25-0.07.84,0.29,1.72a4.3,4.3,0,0,0,4.34,1.75c1.92-.43.67,1.87,0,1.85a0.66,0.66,0,0,1,.29.6,6.11,6.11,0,0,1-2.85,1.2c-0.7,0-4.9-.12-4.9-0.12s-3.12-.38-3.88-2.71,0.5-1.53.82-1.94S21.82-70.65,27.74-74.59Z" transform="translate(73.64 108.33)"/><path class="cls-9" d="M56.48-60.57a4.44,4.44,0,0,1-1.34-2.22c0.08-.27.71-2-0.19-2.77s-1.86-4-1.78-3a6.92,6.92,0,0,0,.93,2.38c1.23,2.38-1.15,1.84-1.15,1.84-3.86-4.25,2.41-5.51-.38-9.07-4.44-4.88-11.07-.25-12,2s2.58,3.62,3.1,3.53S45.74-68,46-68.71s-0.19-.52-0.19-0.52c-1.83.75-2.32-.13-2.45-0.77a0.71,0.71,0,0,1,.41-0.67c4.18-1.08,2.26,2.11,3,2.59S46.45-65.8,46-65.75c-2.52.25-1.81,0-3-.47a8.66,8.66,0,0,0-3.38-2.5c-2.34-1.39-6.18,4.17-8.07,4.09s-4.88.19-5.65-.25c-4.61-3.26-5.12-2.36-6.27-2.85,0.05-.93-0.74-0.79-0.85-1.34s-0.47-1,0-1.21a0.88,0.88,0,0,0,.6-0.93,0.67,0.67,0,0,1,.55-0.71,21,21,0,0,1,4-2.89A4.8,4.8,0,0,1,26.35-76a20.33,20.33,0,0,0,2.9-.93c0.66-.16.58,0.3,0.58,0.3,1.31-.16,4.19-3,3.23-3.86s-0.22-1.78-1.4-2.66-0.88-1.45-2-2.26-2.16.56-2.16,0.56a11.43,11.43,0,0,1-3.36,2.43c-4.38,1.41-3.63-.25-2.92-1.16A12.69,12.69,0,0,1,23-85.94c0.6-1.79-1.16-1.89-3.12-.42s-1.71,1.76-3.37,3.63c-2.62,1.46-1.36,1.81-3.58,3.12s-1.66,2.92-3.68,4.81-1.91.43-1.91,0.43c0.71-2,4.44-5.94,4.44-5.94s-4.19,2-7.91,10-1.31,6.45-2,7.2-0.35,2.62,0,2.57A2.81,2.81,0,0,1,3-59.62s0.5,0.81.6-.05S5.5-62.59,5.5-62.59s0.35-.3.05-1.71S4-64.35,4-64.35c-0.45-2.12,2.32-2.57,2.42-.4S6-60.93,3.89-58.46s-0.05,5.14,1,7.2,0.05,4.79.05,4.79c7-1.06,6.15,4.68,6.15,4.68C9-37.61,2.38-36.25,2-40.33s3.58-5.94,5.54-3.43S4.14-39.57,3.89-41s0.4-1.06.4-1.06C7-40.68,7.77-44.86,4.59-44s-1.26,3.73-1.26,3.73a4.38,4.38,0,0,0,4.18-.1c3.58-2.92.45-5,.45-5C3-47.13.92-41.43,0.92-41.43a6.91,6.91,0,0,1-2.27-7c0.45-1,1.81-2.67,3.12-.45S1.17-45.16.41-45.31s-0.25-.6-0.25-0.6a2.19,2.19,0,0,0,.25-2.37c-0.65-1.36-1.21.35-1.21,0.35-0.4,7.45,4.48,1.81,4.48,1.81C5.8-52.36,2.23-52,2.23-52c-5.39.1-5,7.86-5,7.86-8,5.69-7.56,3.88-8.66,5.69a20.21,20.21,0,0,1-4,4c0.05-.4-0.55-0.1-0.55-0.1a2.17,2.17,0,0,0-1.11-2.32c-4.13-2.62-7.3-.76-7.3-0.76-4.79,2.77-.55,6.3,1.54,6.75s5.76-.6,5.26-3.68S-21-37.35-21.75-36s0.81,1.76,1.51,1.46a1.56,1.56,0,0,0,.6-1.46c1.11-.1.71,1.56,0.71,1.56-1.46,2.72-6.8-2-2.12-2.92s4.23,5.19,4.23,5.19c6.25-4.84,5.94-3.63,8-5.59s7.15-4.84,7.15-4.84c0.15,0.3.3,0.65,0.3,0.65-3.07,1.06-10.48,8.06-10.68,8.78s-2.07,2.4-2.37,3.26a41.22,41.22,0,0,1-2.37,4c0.3,1.61,1.26-.55,2.17-1.36s3.22-2.62,3.22-2.62c4.33-6.6,5-4.73,7.1-6.65a18.59,18.59,0,0,1,4-2.82c0,0.59,1.09,2,1.42,2.3-0.33-.13-1.59-0.09-3.69,2.18-2.42,2.62-3,2.22-3.12,2.72A6.86,6.86,0,0,1-7.24-29.5,5,5,0,0,0-8.35-27,36,36,0,0,1-10-19.27c8-6.65,3.73-7.2,5.84-8.11S0-32,2.68-33.53s3-1,3-1c-1,.3-0.81,2.12-0.81,2.12s1.06,1.86-3.32,7S1-19.22,1-19.22A5.64,5.64,0,0,1,4.69-23.5c7.2-3.07,8.36-6.4,9.17-7.51a9.06,9.06,0,0,1,2-1.91,14.59,14.59,0,0,1,0,2.12,1.23,1.23,0,0,0,.45.86c-0.2,4.53-2.87,6.5-4.58,9,0.1,5,2.47,5.25,2.52,5.1S11.8-17,17.84-20.58s8.21-6.2,7.86-8.06a8.24,8.24,0,0,1,.15-3.53,14.46,14.46,0,0,1,1.51,2.62,6.85,6.85,0,0,1,.45,3C37.18,3.14,27.41,15,26.1,16.84s-0.3,2.52-.3,2.52C45.85,14.42,41.92-8.75,39.65-14a36.65,36.65,0,0,1-2.35-14.34c0.19-2.16,1.34-2.22.66-3,1.23-1.53.88-1.92,0.55-2.16,1.78-1.84,2.44-4.6,2.79-5.45s-0.6-2,.36-3.48,0.74-6.11.77-6.27a6.12,6.12,0,0,1,4.66-4.68c3.86-.79,6.27,3.84,6.36,6.19s-1.1,5.62-1,5.86A14,14,0,0,1,52-35.89c-0.77,2.2.6,5.2,1.51,6.08S54.56-29,53.25-33s-0.16-6.44.79-11.15-0.38-6.33-.68-7c-4.11-6.25-10.14-2.16-11.53-1S38-51,35.17-51.75c-6.57-2.14-9.23-.71-9.83-0.27a0.8,0.8,0,0,1-1.07-.05c-12.77,7.26-15-.9-15.18-1.75s0.19-.9.19-0.9c-1.89-4.38,2.25-8.05,6-7.89S18.9-60.46,21-60.35a8.37,8.37,0,0,1,3.78,1.25c3.73,0.32,3.26-.26,5.23-1.38A16.36,16.36,0,0,0,33.83-64c4.6-3.78,6.14-1.81,6.6-1.48A11.45,11.45,0,0,0,43.22-64a16.44,16.44,0,0,1,2.47,1c2.79,0.63,3.4-1.1,4.41-.79s2.6,2.63,3.67,2.9,1.56,1,2.41,1.59S57.22-59.88,56.48-60.57ZM13.3-40.09c1.54-2.19,3.44-4.32,8.51-2.82,0,0,3.87,1.24,3.24,3.7a0.65,0.65,0,0,0,.88.59c0.82-.23.52-1.67,0.43-1.8s5.07-6.38,9.33-3.27a2.25,2.25,0,0,1,.69,2.95c-0.85,2,.2,1.38-2.39,2.72s-4.42.59-5-.85,1.7-5,5.17-3.37a1.18,1.18,0,0,1,.07,1.41,3.4,3.4,0,0,0-1,1c-0.2.43-2-.16-1.08-0.95,0,0,.79.07,0.56-0.59s-1.77-.46-1.93.46,0.72,3.24,3.77,1.64,0.16-4.35-.62-4.35a5.75,5.75,0,0,0-6.22,3.73,12.24,12.24,0,0,0,0,2.49c0.16,0.59-1.51,0-3.18,1.34-1.8.2,0.26,0.69-6.38,0.46,0,0-2.68-.29-1.67-3.54s6-2.32,5.89-.65-2,2-2.59,1.11c0,0,1.21-.29.79-1.11a1.21,1.21,0,0,0-2,0c-0.26.65-.56,3.86,4.78,2.59,0,0,2.59-4.49-3-5.43s-5.76,4.06-7.82,5.11-3,1.51-3,1.51A21.91,21.91,0,0,0,13.3-40.09Z" transform="translate(73.64 108.33)"/><path class="cls-10" d="M40-54.92s0.51,1,1.26.3,7.66-5.82,8.5-2.66S50-54.83,49-55.11s-1.75-1.17-9,3c0,0-2.87.82-2.83-.7,0,0,.07-0.82.56-0.82a2.2,2.2,0,0,1,.54-1.46A1.13,1.13,0,0,1,40-54.92Z" transform="translate(73.64 108.33)"/><path class="cls-11" d="M33.64-62.45s0.6,0.13.37,1-2,1.48-2.28,1,0.47-.87.47-0.87Z" transform="translate(73.64 108.33)"/><path class="cls-12" d="M34.25-63s-0.15,1.33,1,1.06,2.13-.4,1.62-1.92Z" transform="translate(73.64 108.33)"/><path class="cls-13" d="M37.53-64.07s-0.55.29,1.33,2.51,1.87,2.55,2.59,1.69A16.51,16.51,0,0,1,43.3-62c0.67-.62-1-2.06-1.59-2.2A14.66,14.66,0,0,0,37.53-64.07Z" transform="translate(73.64 108.33)"/><path class="cls-14" d="M44.1-62.4a1.06,1.06,0,0,0,.46,1,2.12,2.12,0,0,0,1.13,0s0.13-.73-0.22-0.77S44.19-62.67,44.1-62.4Z" transform="translate(73.64 108.33)"/><path class="cls-15" d="M46.7-62.16s-0.88.57,0,1a1.42,1.42,0,0,0,1.34-1A5.48,5.48,0,0,0,46.7-62.16Z" transform="translate(73.64 108.33)"/><path class="cls-16" d="M48.68-61.43a1.14,1.14,0,0,1,.59.62c0,0.31.51,0.29,0.75,0.11a2.15,2.15,0,0,1,1.43.13c0.44,0.16,1-.37.55-0.64a6.19,6.19,0,0,0-2.86-.92C48.49-62,48.38-61.85,48.68-61.43Z" transform="translate(73.64 108.33)"/><path class="cls-17" d="M54.08-58.48a0.88,0.88,0,0,1,.62.48,0.48,0.48,0,0,0,.93-0.24c0-.9-2.4-2.16-2.58-2.16s-1.08.26-.38,1A4.24,4.24,0,0,0,54.08-58.48Z" transform="translate(73.64 108.33)"/><path class="cls-18" d="M56.57-58.17a14.93,14.93,0,0,1-4.16,2.69S52-55.15,52.67-55a1.13,1.13,0,0,1,1,1.37s0,0.7.62,0,1.79-.9,2.1-2.93S56.57-58.17,56.57-58.17Z" transform="translate(73.64 108.33)"/><path class="cls-19" d="M51.72-43.28a3.15,3.15,0,0,0,.56-2.83c-0.36-1.92-.34-1-0.79-2s-2.37-4.55-6.42-2a6.16,6.16,0,0,0-1.45,1.27c-0.36.57,0.07,2.57,0.27,3.05a3.17,3.17,0,0,1-.06,2.68,13.08,13.08,0,0,0-2,6c-0.14,2.74-3.28,4-3.25,8.56S42.09-9.85,43.63-5c0,0,2.89,21.83-16.92,24.65,0,0,16,3.21,22.77-10.95,5.91-12.29,1-14.32-4.23-37.21,0,0-1-4.32-2-5.55,0,0-1.11-1.78,1.15-4.53s3.64-4.7,6.84-4C51.23-42.57,52.77-41.95,51.72-43.28Z" transform="translate(73.64 108.33)"/><path class="cls-20" d="M47.27-26.88s6.64,18.94,5.79,27-4.6,13-5.79,14.08,11.18-6.12,7.1-22.76S47.27-26.88,47.27-26.88Z" transform="translate(73.64 108.33)"/><path class="cls-21" d="M46.55-37s-1.15-3.2,2.59-4.74,2.67,5.21,2.05,6.2-1.38,5.06.63,7.16,3,2.9,3.62,11.35c0,0-.31,5,2.77,6.66s2.37,13.85.94,16.17-5,7-4.91,12.82,0.43,9-.86,11.79S53.3,40.42,54.46,40.91c0,0-2.23-.49-2-5.54a0.61,0.61,0,0,0-1.07.09c-0.54.8-2.64,0.27-3.48-.54s-2.23-1.56-2-.63,1.25,1.52,1.07,3.17c0,0,.31.85,0.8-0.22s0-1.56.63-.58-1.07,6.12-8.93,4.24A1.6,1.6,0,0,1,39.23,39c0.49-1.25-.09-7.91-1.61-9.87s1.25-1.16-2.72-8.53c0,0-.85-0.8,3.17-0.94S54,12.24,54.24,8c0,0,.27,5-6.43,10.23a8.46,8.46,0,0,0-3.22,7.19C45,30,45.26,28.67,45,30.64a2.79,2.79,0,0,0,.76.85,23.29,23.29,0,0,1,2.32,2.37,3.4,3.4,0,0,0,4-.13s-0.11-2.05.32-2.46c0,0-4.08,2-5.82-2.68,0,0,3.8,3.89,6.21,1.43a13.63,13.63,0,0,1,.54-3s-1.38,2.59-6.83-1.88c0,0,.27-0.13,2.46,1s5.18,0.63,4.74-1.43-0.89-9.43.71-10.9a34.92,34.92,0,0,1-3.66,2.9,42.75,42.75,0,0,0,4.15-5.09c0.67-1.34,5.45-9,4.33-17.29,0,0-1.74-4.38-4.56-6.3,0,0-2.1-5.72-2-9.29a2.4,2.4,0,0,0-.8-1.7" transform="translate(73.64 108.33)"/><path class="cls-22" d="M-26.17-41.35s-0.3,2.67,3,2.67,5.63,0.06,8,2.85c0,0-.14,1,0.64.08a8.78,8.78,0,0,1,1.44-1.34l-2.19-.23a6.44,6.44,0,0,1-1.13-.54,12.42,12.42,0,0,0-3.37-1.43c-0.7,0-1.08-1.91-2.3-3.2s-0.4-2.52-2.8-3.41C-24.91-45.9-26-46.14-26.17-41.35Z" transform="translate(73.64 108.33)"/><path class="cls-23" d="M-32.45-43.23s-1.34,2.85-.17,4.42,4.33,3.29,5.23,2.5,1.74-1.56,2.38-1.56c0,0,.35-0.49-0.14-0.42S-25.9-37.6-32.45-43.23Z" transform="translate(73.64 108.33)"/><path class="cls-24" d="M-39-38.09a2,2,0,0,0,.6,1.54c0.71,0.71,4.2,3.22,4.8,4.47a4.83,4.83,0,0,1,2.62,2.18c0.3,0.44,2.18.64,3,.81s2.89,2.25,4.2,1.38a4.57,4.57,0,0,0,1.68-1.75s0.27-.87-0.84-0.67-4.13-2-4.7-3.87S-29.57-36.35-39-38.09Z" transform="translate(73.64 108.33)"/><path class="cls-25" d="M-18.32-31.51a67.58,67.58,0,0,0-6.31,5.17,1.13,1.13,0,0,1-.87,0c-0.44-.2-1-2-5.27-2.22,0,0-2.22-.77-7.69,1.48,0,0-.37.64,0.84,1.34s6.62,3.32,7.92,3.09c0,0-.36,1.44.71,0.81a19.25,19.25,0,0,0-1,10.26c1.1,5.37,5.13,3.81,7.27,11.08s8.13,10.15,8.48,10.67c0.14,0.21.54-.92-1.9-3.75-1.38-4.21-4.94-11.76-7-12.29a12.28,12.28,0,0,1-5.48-13.85s2.77-5.77,5.6-6.92c0,0-1.21,1.62.06,1.15s1.62-1.44,2.46-.81a2.42,2.42,0,0,1,.9,2.08c0,0.69,0,1.38,0,2.6s-0.74,1.5,0,2.83a5.15,5.15,0,0,1,.74,4.5c-0.63,1.73-1,2.48-2.19,3.12s0.44,1.16-2.42,2.94c0,0-4.67-2.25-4.27-9.58,0,0,.63-2.37,1.47-2.54a9.42,9.42,0,0,0,1.43,10.21,1.68,1.68,0,0,0,2.8-.52A1.31,1.31,0,0,1-21.33-12a3,3,0,0,0,1.69-2.54c0-.92-0.06-3.12-0.9-4.21s-0.14-1.69,0-2.2,0.94-3.86-1.54-3.57-2.94.12-2.47,1.44,2.94,0.73,2.71,2.13a8.69,8.69,0,0,0,.06,4.22c0.46,2.08-1.79,4.07-3.4,4.44s-2-5-1-5.83l1-.69s0.56,0.29.25,1.9c0,0-.65-0.81-0.88-0.12s-1,2.42.88,3.58c0,0,2.4-.17,1.89-3.63,0,0,1-4.27-.52-3.46,0,0-1.9-2.37-2.65-1.67S-32.41-13.54-23.06-7c0,0,2.16-1.38,2.13-3.29,0,0,2,1.15,2.42-2.54,0,0-.35.46,1.15,2.19s1,2.42,2.83,2.65c0,0,1,.23,2.42,2.08s3.35,0.69,4.38.17,1.27-.52,2-0.92-0.35-.17,1-2S-5.58-11.47-3.45-14s0.89-6.88-2.42-6.4a6.18,6.18,0,0,0-2,1.67c-0.58.92-1.5-.06-2.08-0.12s-2.42,1.27-3.52,3.29,1.67,5.83,3.58,4.33-0.29-4.56-1.27-2.6c0,0-.63-1.27.23-1.73s3.4,0.87,2.31,3.87a7.39,7.39,0,0,1-1.38,2c-0.52.29-1,.46-1.21,0.06a4.63,4.63,0,0,0-2.19-2c-0.92-.17-1.56-4.1-0.29-5.37s4.42-4.63,4.42-4.63l0.44-1.92A8.85,8.85,0,0,0-11.7-21c-1,1.51-3.29,3.35-3.81,4.57s-1.15,2-.29,3.29,0.52,1.5,2.13,2.48,1.5,2,2.25,2.54S-9-8.87-8.53-8.87-6-8.87-6-10.66s0-3.4.75-4.21,1.67-2.19-.17-3a3.43,3.43,0,0,0-2.83,1.38s-2-1.21-3.12.29-0.5,3.42.87,3.29c0,0,.46.87-0.87,0.52s-2-2.88-.52-4.33,1.38-2,3.81-1.15A9.06,9.06,0,0,0-6.51-19.2c0.69-.75,2.65,0,2.65,1.21s0.69,1.73-.06,3a10.23,10.23,0,0,0-1.5,4.33,5.44,5.44,0,0,1-1,2.94c-0.35.4-.35-0.35-2.94,1.56,0,0-.81.81-2.13-0.63s-2-3.1-3.75-3.29-1.5-1.9-1.5-3-0.12-1.73-.12-2.65S-15-19-14.12-19.49a5.81,5.81,0,0,0,1.73-2.13c0.17-.29,3.73-2.92,3.76-3.1s0.17-1.15.17-1.15-2.37,1.14-5.6,5.18-2.42,1.44-3.69,4.62a24.75,24.75,0,0,0-.4-3.06,3.93,3.93,0,0,1-.06-3.35c0.69-1.9,1.21-5.25-3.23-4.73,0,0,.62,0,1-1.9Z" transform="translate(73.64 108.33)"/><path class="cls-26" d="M20.21-22.06a6,6,0,0,0,2.3,2.58,16.73,16.73,0,0,0,3.78,3.05c1.89,1-.51,6.07-2.4,6.18s-1.35,1.82-2.18,2.4-2.36,4.33-10,.91-3-1.93-6.29-2.25a5.3,5.3,0,0,1-4.73-6c0.47-2.44,4.25-3.45,7.2-2.54s4.14-.86,4.12-1-0.18-1-.18-1A2.42,2.42,0,0,1,9-18.36c-2.18-.4-6.22-1.2-8,1s-1.85,5.11-.55,6.72a7.66,7.66,0,0,0,6.76,3S7.93-6.53,11-5.52c0,0,.46,1.63,4.16,1.23,0,0,2.72.73,4.24,0.22s2.84,0.36,4.51-4.87c0,0,3.34-.36,4.07-2.36s0.15-6.69-1.85-7.09S21.46-22,21.35-22.85Z" transform="translate(73.64 108.33)"/><path class="cls-27" d="M16-19.41A4.39,4.39,0,0,0,18.22-17c1.85,1.05,1.78,5-.29,5.85S14.51-9,10.29-10.5,8-16.65,9-16a2,2,0,0,0,1.45.91,1.73,1.73,0,0,0-1.16.48c-0.4.47-.47,3.16,3.2,3s4.91-.06,5.64-1.74-0.87-3.5-1.89-4.26c0,0,2.79,4.76-1.27,5.31,0,0,3.71-2.58-.18-4.69,0,0,2.44,2.19-.11,3.64,0,0,1.36-2.83-.43-2.53,0,0,.94.89,0.28,1.29s0.33-.94-1.24,0c0,0,.06-0.71-1.53-0.37,0,0-.69-2.84-6.51-1.93,0,0-3.2.29-3.49,2.8S4-10.25,8.33-10.32c0,0,7.31,6.64,12.87,1.64,0,0-.22-2.69.91-2.91s4.11,0.25,2.8-2.69-1.82-2.62-2.36-2.8,0.65-.75-3.42-1.16c0,0-.43-2-1.29-2.33" transform="translate(73.64 108.33)"/><path class="cls-28" d="M0.5-1.46A19.19,19.19,0,0,0,7.05,1c3.19,0.57,10.56,3.48,13.8,6.79,0.3,0.31.12,0.9,0.48,1.4,0.65,0.92.82,0.35,1,.77v2.8a8.42,8.42,0,0,0-2.07-3.87C18.77,7.65,17.62,4.7,5.6,1.56,5.6,1.56,1.77.18,0.5-1.46Z" transform="translate(73.64 108.33)"/><path class="cls-29" d="M13.69,28.18s3.52,6.56,9.65,4.39c0,0,.31-9.15,0-11.5,0,0,.56,0,0.62-1.06s0.87,15.78,0,18.56A3.13,3.13,0,0,0,23,40.06s0.45-1.55-.74-1.11-4.77-.62-7.15-2.66c0,0,7,2.29,7.83,1.11S22.82,35,23.58,34s-0.23-.43-1.29-0.06S16.35,34.92,13.69,28.18Z" transform="translate(73.64 108.33)"/><path class="cls-30" d="M22.84,41.85s-5.69-1.3-6.31-1.79c0,0,2.92,2.23,5.76,2.29S22.84,41.85,22.84,41.85Z" transform="translate(73.64 108.33)"/><path class="cls-31" d="M55.41,45.89s1-1.67-.39-2.43c0,0,.67-1.24-2-2.58l-3.27-1.46a16.49,16.49,0,0,1-2,1.36c-0.33.09-.31,0.13-0.14,0.52s-0.92-.61-3.38.73H40.34a2.91,2.91,0,0,1-1.64-.52,11.22,11.22,0,0,1-.55,1.88c-0.3.67,0.45,6.52,3.67,8.31a18.31,18.31,0,0,0,2.33.18c1.12,0,2.21.94,4.12,0.82a11.78,11.78,0,0,1,3.94.15s2.43,0.06,2.88-.91c0,0,2.76.73,2.61-.36S58.5,47.17,55.41,45.89ZM39.1,42.81c0.15-.69.42-0.46,0.42-0.46a2.6,2.6,0,0,0,.88.91c0.39,0.12.39-.42,0.39-0.42s2.24-.21,2.24.09a2.53,2.53,0,0,0,.42.91,5.42,5.42,0,0,0-1.18,2.88c-0.12,1.67,1.7,4.37,1.7,4.37C38.92,50.66,38.95,43.5,39.1,42.81Zm10.58,9.05a6.4,6.4,0,0,1-2.43.18c-1-.21-1.94-0.35-2-0.7S46,49.65,46,48.93s0.37,0.84.82,0.59,0.09-1.29-.25-1.5a3.49,3.49,0,0,1-.91-2.82c0.18-1.33-.21-1.82-0.79-1.73a1.28,1.28,0,0,1,.76-1.33c1-.67,3.18-0.21,3.06,1.36a1.36,1.36,0,0,1-.76,1.42c-1,.73.43,0.91,0.67,1.79a22.56,22.56,0,0,1,.3,3.46c0,0.09-1,.44-0.24,1.18a1.55,1.55,0,0,0,1,.16C50.13,51.35,49.68,51.87,49.68,51.87Zm4.61,0a7.38,7.38,0,0,1-2.49.33c-0.45-.09-0.64-0.61,0-0.89s0.45-1.18,0-1.83a4.65,4.65,0,0,1-.49-2c1.36-.76,0-2.3.21-2.12s0.7-.06.61-0.3a8.65,8.65,0,0,0-1.3-1.18A3.47,3.47,0,0,0,50.65,42l0.82-.76a1.22,1.22,0,0,0,.88.36,1.64,1.64,0,0,1,1.06,1.58,1.13,1.13,0,0,0,.45.76,2.84,2.84,0,0,0-.12,1.55,1.2,1.2,0,0,0-.3,1.91C55,49.14,54.29,51.9,54.29,51.9ZM57,50.8a0.78,0.78,0,0,1-.76.49,3.12,3.12,0,0,1-1.18,0s0.3-2.46,0-3a0.62,0.62,0,0,0,.67-0.64A3.43,3.43,0,0,1,57,50.8Z" transform="translate(73.64 108.33)"/><path class="cls-32" d="M-29.91-8.43a3.53,3.53,0,0,0,.17.4A4,4,0,1,0-29.91-8.43Z" transform="translate(73.64 108.33)"/><path class="cls-33" d="M-5.19-4.56c0.14,0.24.27,0.4,0.27,0.4A3.37,3.37,0,0,0-5.19-4.56Z" transform="translate(73.64 108.33)"/><path class="cls-34" d="M37.62,57.37a12,12,0,0,0-.87-4.64c-0.93-1.92-5.63-6-8.66-7.54a0.85,0.85,0,0,0-.49,1.17c0.25,1,3.15,2,3.28,3.34s-0.18,1.6.36,2.09a15.57,15.57,0,0,1-1.85-1.91c-0.43-.68-2.09-0.77-2.72,1.61s-5.32,5.19-9.28,2.72A2.52,2.52,0,0,1,17,51.13s1.48-.62,1.17,1c0,0,.21,1.11.88,0.87s0-.87,0-0.87,1.29,0.06.3-1.55-2.66-.74-3.71.74,1.11,8.1,10,2.91c0,0,2.29-1.79,2.47-2.6s0.62,0.37.62,0.87,0.06,3.24,2.78,3.69c0,0,1.42,3.3,2.54,3.48s-2.66,1.24-4.58,1S25.5,58.79,17.4,59a20.13,20.13,0,0,1-4.14-2c-1-.87-1.3.19-1.67-3.28A49.51,49.51,0,0,0,3.18,32.88S0,14.64-3.57,8.89c0,0,.31-8.29-2-11.75,0,0-.41-2.65.35-1.7a2.18,2.18,0,0,1-.46-1.33c0.17-.49-1.44,1.91-4.28,2a12.7,12.7,0,0,1-3.83-1.63S-7.65-1.07-9,5.64a3.82,3.82,0,0,0,.49,4.56s0.68,4.75-.87,3.76-5.75-1.48-8.29-4.21S-22.86,1-23.91,0a52.59,52.59,0,0,1-5.83-8,41.65,41.65,0,0,0,3.08,6.57c1.95,3.06,9.86,12.52,9.37,16.78,0,0,2.6,3.15,2.54,5.75,0,0-1.05-3.09-3.22-3.65s-6.86-4.7-7.24-6.74c0,0,.19,2.84,3.65,5.81s5.13,2,5.87,6.62c0,0-1.05-2.72-3.46-2.78s-5.69-5.75-5.69-5.75,0.25,3,5,6.62A13,13,0,0,1-14.76,30s0.68,1.26-1.17,1.88a29.55,29.55,0,0,0-4.62,2.35c-1.07.56-1.5-.31-1.94,1.79a6.44,6.44,0,0,1-2.16,4c-0.74.43-.93,3.71,0.12,4.33s1.36,0.19,2.23,1,4.39-.19,4.89-0.19,2,0.74,3.52.43,1.24,0,2-.56,1,0.43,2-.56a4.47,4.47,0,0,0,1.61-3.83C-8.33,38.82-8.95,29-9.81,27.07s1.42-13.61,3.65-12.43,5.32,1.61,5.26,9.65c0,0-2.88,3.15-5.13-2.1,0,0-.62-6,2-2.82,0,0,1.79,2.14,1,3.63s-1.92.19-1.61-.31a0.83,0.83,0,0,1,.56-0.49S-5,20-5.54,20.76s0.12,3.46,2.78,3.83c0,0,.4-1.47,1.11-1.67,0,0,.62-4.21-4.08-7.11,0,0-5-.68.8,9.71s6,1.35,11,15.8c0,0,5.13,4.61,4.75,15.62A14.46,14.46,0,0,0,15,59a12.34,12.34,0,0,0,6.37,1.71,21.56,21.56,0,0,1,8.47,1.14s1.48,0.06,1.36-.37c0,0,3.49-.12,3.63-1.24C34.82,60.22,38.12,60,37.62,57.37Zm-6.34-5.54h0Zm-54.74-7.72c-0.52,0-1-.56-0.52-0.84s0.08-.6-0.18-0.64a0.7,0.7,0,0,1,0-1c0.3-.12.5-1.51,0-1.31s0.2-.27.2-0.27,0.6-.47.8,0a22.59,22.59,0,0,0,0,2.86c0.12,0.44.24,1.19,0.24,1.19h-0.52Zm2.9-7.21c0.08-1.16.32-1.19,0.32-1.19l1.27-.8c0.39-.24.64,0,0.56,0.28s-0.08.36,0.36,1.27,0,1,0,1v0.72c-0.08.76-1.08,0.28-1.08,0.28-0.72-1.16-.4-0.32-1.23-0.28S-20.63,38.06-20.55,36.9Zm3.31,7.65c-0.88-.36-2.71.4-3.56,0.52s-0.74-.44-0.74-0.44a8.73,8.73,0,0,0,.31-2.95,0.51,0.51,0,0,0,.09-0.84,1.05,1.05,0,0,1,0-.79,1.26,1.26,0,0,0,.59-0.88c0.16-.68.64,0,1.2,0s-0.4.52,0,.88a1.73,1.73,0,0,1,.49,1.71C-19,42.44-18.08,42-18.08,42-16.72,41.72-17.24,44.55-17.24,44.55Zm1.71,0.53c-0.72.06-1.12-1.25-.84-1a0.29,0.29,0,0,0,.48,0V39.85a0.62,0.62,0,0,1,1.09-.35,1.22,1.22,0,0,0,.3.56,10.91,10.91,0,0,1,0,1.92c-0.12.53-.72,1.54-0.26,1.58s0.42,1.31.46,1.53S-14.81,45-15.53,45.09Zm1.75-10.28c0.08,0.35-.12.67,0.28,0.78a2.12,2.12,0,0,0-.64,1.35,2.57,2.57,0,0,0-.4.8c-0.12.44-.56,0.68-0.76,0a1.19,1.19,0,0,1-.8-1.05A2.29,2.29,0,0,1-15,34.81a9.91,9.91,0,0,1,1.51-.69A0.87,0.87,0,0,0-13.78,34.81Z" transform="translate(73.64 108.33)"/><path class="cls-35" d="M44.2-62.52a1.06,1.06,0,0,0,.46,1,2.12,2.12,0,0,0,1.13,0s0.13-.73-0.22-0.77S44.29-62.8,44.2-62.52Z" transform="translate(73.64 108.33)"/><path class="cls-35" d="M46.8-62.28s-0.88.57,0,1a1.42,1.42,0,0,0,1.34-1A5.48,5.48,0,0,0,46.8-62.28Z" transform="translate(73.64 108.33)"/><path class="cls-35" d="M48.77-61.55a1.14,1.14,0,0,1,.59.62c0,0.31.51,0.29,0.75,0.11a2.15,2.15,0,0,1,1.43.13c0.44,0.16,1-.37.55-0.64a6.19,6.19,0,0,0-2.86-.92C48.59-62.08,48.48-62,48.77-61.55Z" transform="translate(73.64 108.33)"/><path class="cls-35" d="M54.17-58.6a0.88,0.88,0,0,1,.62.48,0.48,0.48,0,0,0,.93-0.24c0-.9-2.4-2.16-2.58-2.16s-1.08.26-.38,1A4.24,4.24,0,0,0,54.17-58.6Z" transform="translate(73.64 108.33)"/><path class="cls-35" d="M0.6-1.58A19.19,19.19,0,0,0,7.15.87C10.33,1.43,17.71,4.34,21,7.66c0.3,0.31.12,0.9,0.48,1.4,0.65,0.92.82,0.35,1,.77v2.8a8.42,8.42,0,0,0-2.07-3.87c-1.45-1.23-2.6-4.17-14.63-7.31C5.69,1.44,1.86.06,0.6-1.58Z" transform="translate(73.64 108.33)"/><path class="cls-35" d="M13.78,28.06s3.52,6.56,9.65,4.39c0,0,.31-9.15,0-11.5,0,0,.56,0,0.62-1.06s0.87,15.78,0,18.56a3.13,3.13,0,0,0-.93,1.48s0.45-1.55-.74-1.11-4.77-.62-7.15-2.66c0,0,7,2.29,7.83,1.11s-0.15-2.35.62-3.4-0.23-.43-1.29-0.06S16.44,34.8,13.78,28.06Z" transform="translate(73.64 108.33)"/><path class="cls-35" d="M22.94,41.73s-5.69-1.3-6.31-1.79c0,0,2.92,2.23,5.76,2.29S22.94,41.73,22.94,41.73Z" transform="translate(73.64 108.33)"/><path class="cls-35" d="M-29.81-8.55a3.54,3.54,0,0,0,.17.4A4,4,0,1,0-29.81-8.55Z" transform="translate(73.64 108.33)"/><path class="cls-35" d="M-5.1-4.68c0.14,0.24.27,0.4,0.27,0.4A3.37,3.37,0,0,0-5.1-4.68Z" transform="translate(73.64 108.33)"/><path class="cls-35" d="M31-93.36a7.53,7.53,0,0,0-2.81,5.93,2.61,2.61,0,0,1,1.32,0A7.55,7.55,0,0,1,31-93.36Z" transform="translate(73.64 108.33)"/><path class="cls-35" d="M28.93-101.15a12.19,12.19,0,0,0-6.63,3.92,12.34,12.34,0,0,1,5.42-2.71s7.56-1.27,5.59,4.64a7.27,7.27,0,0,0,1.16-1.08C36.61-102.43,28.93-101.15,28.93-101.15Z" transform="translate(73.64 108.33)"/><path class="cls-35" d="M13-81.49a0.77,0.77,0,0,0,1-.61,2.41,2.41,0,0,1,.28-0.79A3,3,0,0,0,13-81.49Z" transform="translate(73.64 108.33)"/><path class="cls-35" d="M14.12-87.62a2.8,2.8,0,0,0-2,1.48,3.74,3.74,0,0,1,.75-0.28c2.59-.67,3.17,1,2.89,2.16a2.69,2.69,0,0,1,.38-0.12C17.4-84.64,17.91-88.6,14.12-87.62Z" transform="translate(73.64 108.33)"/><path class="cls-35" d="M42.8-77.37a8.69,8.69,0,0,1-3-2.41c-4.49-5.42-5-3.67-5.67-4.38a8.71,8.71,0,0,0-2.85-1.37c-0.33-.11-0.19.66,0.3,1.1,1.26,0.22,1.26,1,1.56,1.45a0.85,0.85,0,0,0,0,.21c0.59,0.2,1.52-.49,5.41,4.21a8.69,8.69,0,0,0,3,2.41A2,2,0,0,1,42.73-75C44.67-74.45,44.25-76.82,42.8-77.37Z" transform="translate(73.64 108.33)"/><path class="cls-35" d="M37-72.79a1.65,1.65,0,0,0-1.28,1.22h0.07a1.22,1.22,0,0,1,.77.11c0.83-.6.93,0,1.2-0.55C38.34-73,37-72.79,37-72.79Z" transform="translate(73.64 108.33)"/><path class="cls-35" d="M34.83-72.81s-0.43-2.59-2.52-2.42c0,0-.34-1.26-2.4,0a1.65,1.65,0,0,0-.47.83c1.4-.56,1.66.39,1.66,0.39,2.09-.17,2.52,2.42,2.52,2.42a1.83,1.83,0,0,1,.21,1.06A1.48,1.48,0,0,0,34.83-72.81Z" transform="translate(73.64 108.33)"/><path class="cls-35" d="M34-69.62a4.3,4.3,0,0,1-4.34-1.75c-0.36-.89.36-1.17-0.29-1.72s-0.55-.22-0.55-1.25-1-.36-1-0.36c-3.38,2.24-4.23,3.08-4.39,3.46,0.66-.53,1.67-1.25,3.19-2.26,0,0,1-.67,1,0.36s-0.1.7,0.55,1.25-0.07.84,0.29,1.72a4.3,4.3,0,0,0,4.34,1.75c1.92-.43.67,1.87,0,1.85a1,1,0,0,1,.16.16,3.38,3.38,0,0,0,1.33-.77,0.66,0.66,0,0,0-.29-0.6C34.64-67.75,35.89-70.05,34-69.62Z" transform="translate(73.64 108.33)"/><path class="cls-35" d="M21.25-38.38a1.21,1.21,0,0,1-1.33-.45,1.09,1.09,0,0,0,.88-0.8,3.55,3.55,0,0,0-1.92-.62,0.7,0.7,0,0,0-.2.27,2.08,2.08,0,0,0-.12.68,1.11,1.11,0,0,1,.94.57,0.67,0.67,0,0,1-.38,1,2.27,2.27,0,0,0,1.08.57A1.57,1.57,0,0,0,21.25-38.38Z" transform="translate(73.64 108.33)"/><path class="cls-35" d="M-1.3-42.06l-0.31.12A6.09,6.09,0,0,0-.19-40.35a8.4,8.4,0,0,1,.82-1.54A6.11,6.11,0,0,1-.32-43c-1,.14-1.76-0.65-1.59-3.84a2.09,2.09,0,0,1,.45-0.78,3.15,3.15,0,0,1,.21-0.94l0.14-.27A2.76,2.76,0,0,0-2.4-47.49a13.29,13.29,0,0,0-.29,2,7.62,7.62,0,0,0,.74,2.95l0.34-.19C-1.45-42.41-1.3-42.06-1.3-42.06Z" transform="translate(73.64 108.33)"/><path class="cls-35" d="M5.35-63.67a1.45,1.45,0,0,0-.65-1.26,2.58,2.58,0,0,0-.56.46,2,2,0,0,1,0-.61,1.35,1.35,0,0,0-1.17,1.82s1.21-1.36,1.51.05S4.39-61.5,4.39-61.5a19.19,19.19,0,0,0-1.34,1.73l0,0s0.5,0.81.6-.05a8.17,8.17,0,0,1,1.63-2.58A8.2,8.2,0,0,0,5.35-63.67Z" transform="translate(73.64 108.33)"/><path class="cls-35" d="M-2.74-41.35a51.92,51.92,0,0,0-8.42,7c2.47-2.37,6.55-5.83,8.64-6.55C-2.51-40.85-2.61-41.09-2.74-41.35Z" transform="translate(73.64 108.33)"/><path class="cls-35" d="M2.21-43.62a4.82,4.82,0,0,1,1.42-.75,2.79,2.79,0,0,1,4,.5,1.64,1.64,0,0,1,.4,1.35,2.56,2.56,0,0,1-.53,2.11l0.08,0C9.36-41.87,9.51-43.09,9.2-44c-0.73-1-2.11-1.74-4.66-1.5A5.8,5.8,0,0,0,2.21-43.62Z" transform="translate(73.64 108.33)"/><path class="cls-35" d="M15.11-40.91a5.22,5.22,0,0,1,4.12-.71c0.27,0,.52.1,0.75,0.16,1.35,0,2.55.68,2.52,1.51,0,0,0,.1,0,0.14a3.36,3.36,0,0,1,.17,2.58l0.79-.16A5.2,5.2,0,0,0,24-39c-0.3-1.9-3.29-2.86-3.29-2.86a9.22,9.22,0,0,0-4.22-.41A5.49,5.49,0,0,0,15.11-40.91Z" transform="translate(73.64 108.33)"/><path class="cls-35" d="M0.94-45.49a0.85,0.85,0,0,1-.43.05C-0.25-45.59.26-46,.26-46a2.2,2.2,0,0,0,.47-1.64L0.66-47.8a2.36,2.36,0,0,0-1-1,2.21,2.21,0,0,0-.41.74c0,0.29,0,.56,0,0.81l0,0a2.17,2.17,0,0,1,.13,1.65A2,2,0,0,0,0-44.42,2.26,2.26,0,0,0,.94-45.49Z" transform="translate(73.64 108.33)"/><path class="cls-35" d="M-1-44.33l-0.1-.29A0.22,0.22,0,0,0-1-44.33Z" transform="translate(73.64 108.33)"/><path class="cls-35" d="M4.36-40.72A2.14,2.14,0,0,1,3.18-41l-0.1,0a3.86,3.86,0,0,0,.35.7,3.54,3.54,0,0,0,2.07.51,2.54,2.54,0,0,0,1.29-1.25A3.27,3.27,0,0,1,4.36-40.72Z" transform="translate(73.64 108.33)"/><path class="cls-35" d="M12.6-37.71c-1.37.7-2.26,1.13-2.7,1.34C9-35.54,8.36-35,8.36-35s1-.46,3-1.51A3.42,3.42,0,0,0,12.6-37.71Z" transform="translate(73.64 108.33)"/><path class="cls-35" d="M2.94-42.67a4.19,4.19,0,0,1,.54-0.19c1.46-.42,2.08.25,2.06,0.95a1.27,1.27,0,0,0,1-.6l-0.11-.15A2.76,2.76,0,0,0,4-43.79,1.92,1.92,0,0,0,2.94-42.67Z" transform="translate(73.64 108.33)"/><path class="cls-35" d="M9.28-39.61c-2.21,1.75-5.23,2.2-6.54.73a3.4,3.4,0,0,1-.52-0.26s-1.31-1.94,0-3.12a4.22,4.22,0,0,1,.48-1.13A4.21,4.21,0,0,0,.91-39.24C1.23-35.54,6.69-36.31,9.28-39.61Z" transform="translate(73.64 108.33)"/><path class="cls-35" d="M33.24-63.3l-0.53.42S32.43-62.53,32-62C32.47-62.48,32.91-62.93,33.24-63.3Z" transform="translate(73.64 108.33)"/><path class="cls-35" d="M26-65c-4.61-3.26-5.12-2.36-6.27-2.85,0.05-.93-0.74-0.79-0.85-1.34s-0.47-1,0-1.21a0.88,0.88,0,0,0,.6-0.93c0-.06,0-0.12,0-0.17a7,7,0,0,0-.7.67,0.67,0.67,0,0,0-.55.71,0.88,0.88,0,0,1-.6.93c-0.47.19-.11,0.66,0,1.21s0.9,0.41.85,1.34c1.15,0.49,1.66-.41,6.27,2.85,0.77,0.44,3.76.16,5.65,0.25s5.73-5.47,8.07-4.09a8.66,8.66,0,0,1,3.38,2.5c1.23,0.44.52,0.71,3,.47a2.13,2.13,0,0,0,.91-1.18c-2.17.2-1.56-.07-2.75-0.49l-0.42-.43-0.16,0c-0.41.07-2.71-.78-3.18-2.25-2.36-.67-5.9,4.32-7.7,4.24S26.77-64.55,26-65Z" transform="translate(73.64 108.33)"/><path class="cls-35" d="M51.45-72.28c2.79,3.56-3.48,4.82.38,9.07,0,0,1.9.44,1.43-1.17l-0.22,0c-3.86-4.25,2.41-5.51-.38-9.07-4-4.38-9.75-1.09-11.57,1.26C43.57-74.25,48.13-75.93,51.45-72.28Z" transform="translate(73.64 108.33)"/><path class="cls-35" d="M45.35-69.16c-1.11.3-1.59-.13-1.8-0.6a7.66,7.66,0,0,0-.91.18,0.71,0.71,0,0,0-.41.67,1.57,1.57,0,0,0,.23.57,3.11,3.11,0,0,0,1.27.39l0.75-.11,0.2-.08a0.28,0.28,0,0,1,.17,0,3.91,3.91,0,0,0,.63-0.19A2.11,2.11,0,0,0,45.35-69.16Z" transform="translate(73.64 108.33)"/><path class="cls-35" d="M18.74-85.28c2-1.46,3.73-1.37,3.12.42a12.69,12.69,0,0,0-1.76,2.35c-0.71.91-1.46,2.57,2.92,1.16a11.43,11.43,0,0,0,3.36-2.43s1-1.36,2.16-.56,0.82,1.38,2,2.26,0.44,1.84,1.4,2.66c0.41,0.35.11,1.09-.46,1.82,1.2-1,2.32-2.47,1.67-3-1-.82-0.22-1.78-1.4-2.66s-0.88-1.45-2-2.26S27.59-85,27.59-85a11.43,11.43,0,0,1-3.36,2.43c-4.38,1.41-3.63-.25-2.92-1.16a12.69,12.69,0,0,1,1.76-2.35c0.6-1.79-1.16-1.89-3.12-.42a8.59,8.59,0,0,0-1.81,1.68Z" transform="translate(73.64 108.33)"/><path class="cls-35" d="M-20.14-34.65h0a0.61,0.61,0,0,0-.61-0.25,2.47,2.47,0,0,1,0,.34A1.38,1.38,0,0,0-20.14-34.65Z" transform="translate(73.64 108.33)"/><path class="cls-35" d="M-21.49-36.36a1.51,1.51,0,0,0-.16.24,1.78,1.78,0,0,0-.14.35,2.13,2.13,0,0,1,2.16.49,2.21,2.21,0,0,0,.1-0.6A3,3,0,0,0-21.49-36.36Z" transform="translate(73.64 108.33)"/><path class="cls-35" d="M-20-33.35A3,3,0,0,0-20-33.73a2.15,2.15,0,0,1-1-.11,0.85,0.85,0,0,1-.41.39c-0.71.3-2.22-.1-1.51-1.46a1.54,1.54,0,0,1,.23-0.32,1.48,1.48,0,0,1-.19-0.85C-26.27-34.83-21.42-30.77-20-33.35Z" transform="translate(73.64 108.33)"/><path class="cls-35" d="M15.37-81.65c0.35-.39.61-0.71,0.83-1a4.16,4.16,0,0,0-1.6,1.46C14.81-81.32,15.06-81.48,15.37-81.65Z" transform="translate(73.64 108.33)"/><path class="cls-35" d="M-17.75-35.38a2.22,2.22,0,0,0-3-1.52,9.19,9.19,0,0,1,2.51,1.13A1.56,1.56,0,0,1-17.75-35.38Z" transform="translate(73.64 108.33)"/><path class="cls-35" d="M10.64-79.23S6.91-75.3,6.2-73.29c0,0-.1,1.46,1.91-0.43a6.57,6.57,0,0,0,.7-0.76c-1.49,1.18-1.4,0-1.4,0,0.71-2,4.44-5.94,4.44-5.94a12.1,12.1,0,0,0-3.19,2.67A9.57,9.57,0,0,1,10.64-79.23Z" transform="translate(73.64 108.33)"/><path class="cls-35" d="M11.79-78.53A4,4,0,0,0,13.4-80l-0.4.25a4.21,4.21,0,0,0-1.46,1.37Z" transform="translate(73.64 108.33)"/><path class="cls-35" d="M-2.74-28.37c0.89-.78,1.79-1.88,2.75-2.92C-1-30.4-1.87-29.31-2.74-28.37Z" transform="translate(73.64 108.33)"/><path class="cls-35" d="M-5.23-26.29C-7-25.54-4.3-25-8-21c3.63-3.41,3.36-4.79,3.33-5.58A3.7,3.7,0,0,1-5.23-26.29Z" transform="translate(73.64 108.33)"/><path class="cls-35" d="M0.41-19.7a2.38,2.38,0,0,0,.7.36A5,5,0,0,1,2-21.57,5.45,5.45,0,0,0,.41-19.7Z" transform="translate(73.64 108.33)"/><path class="cls-35" d="M-15.76-26.14a5.4,5.4,0,0,0-.64.73c0.31,0.05.75-.61,1.22-1.23Z" transform="translate(73.64 108.33)"/><path class="cls-35" d="M-12.18-29.3l0.85-.67a31.68,31.68,0,0,1,2.47-3.37A19.16,19.16,0,0,0-12.18-29.3Z" transform="translate(73.64 108.33)"/><path class="cls-35" d="M14.26-17.83a6.7,6.7,0,0,0-1.17,1.15,1.4,1.4,0,0,0,1.27.66A1.16,1.16,0,0,1,14.26-17.83Z" transform="translate(73.64 108.33)"/><path class="cls-35" d="M56.58-60.69a4.44,4.44,0,0,1-1.34-2.22c0.08-.27.71-2-0.19-2.77s-1.86-4-1.78-3a6.92,6.92,0,0,0,.93,2.38c0.69,1.34.24,1.75-.28,1.86C54.7-63.57,54.11-62,54-61.7a1.85,1.85,0,0,0,.34.92,14.38,14.38,0,0,1,1.91,1.41C57.12-58.8,57.32-60,56.58-60.69Z" transform="translate(73.64 108.33)"/><path class="cls-35" d="M53.45-51.27c-4.11-6.25-10.14-2.16-11.53-1s-3.86,1.18-6.66.41C28.69-54,26-52.58,25.43-52.14a0.8,0.8,0,0,1-1.07-.05C11.6-44.94,9.38-53.1,9.19-54s0.19-.9.19-0.9A5.14,5.14,0,0,1,10-60.17a5.3,5.3,0,0,0-1.82,6.52s-0.38.05-.19,0.9,2.41,9,15.18,1.75a0.8,0.8,0,0,0,1.07.05c0.6-.44,3.26-1.86,9.83.27,2.79,0.77,5.26.74,6.66-.41a10.21,10.21,0,0,1,6.07-2.37l0.39-.1c3.86-.79,6.27,3.84,6.36,6.19a14.57,14.57,0,0,1-.5,3.66c0,0.19-.07.39-0.11,0.59-0.13.66-.27,1.27-0.41,1.84A13.86,13.86,0,0,1,52.08-36c-0.77,2.2.6,5.2,1.51,6.08s1.07,0.82-.25-3.23-0.16-6.44.79-11.15S53.76-50.64,53.45-51.27Z" transform="translate(73.64 108.33)"/><path class="cls-35" d="M25.8-28.76a7.15,7.15,0,0,1-.11-0.83,14.68,14.68,0,0,0-1-1.49,8.24,8.24,0,0,0-.15,3.53c0.16,0.86-.21,1.88-1.25,3.07C25.29-26.22,26-27.63,25.8-28.76Z" transform="translate(73.64 108.33)"/><path class="cls-35" d="M-18.76-35.06a3,3,0,0,1-.07.5,1.84,1.84,0,0,1-.17.27,4.15,4.15,0,0,1,.23.84,2.84,2.84,0,0,1-.27,1.85,3.29,3.29,0,0,0,1.08-1A5.86,5.86,0,0,0-18.76-35.06Z" transform="translate(73.64 108.33)"/><path class="cls-35" d="M42.52-48.86a6.53,6.53,0,0,1,1.14-2.46,6.45,6.45,0,0,0-2.35,3.67c0,0.16.19,4.77-.77,6.27s0,2.63-.36,3.48-1,3.62-2.79,5.45c0.33,0.25.68,0.63-.55,2.16,0.68,0.82-.47.88-0.66,3A36.65,36.65,0,0,0,38.54-12.9C40.28-8.86,43,5.8,35,14.58,44.48,6,41.58-9.88,39.75-14.1A36.65,36.65,0,0,1,37.4-28.45c0.19-2.16,1.34-2.22.66-3,1.23-1.53.88-1.92,0.55-2.16,1.78-1.84,2.44-4.6,2.79-5.45s-0.6-2,.36-3.48S42.5-48.69,42.52-48.86Z" transform="translate(73.64 108.33)"/><path class="cls-35" d="M1.12-50.93s3.55-.35,1.49,5.82a10.4,10.4,0,0,0,1.18-1.13A15,15,0,0,0,4.27-48a4.86,4.86,0,0,0-.48-2.19c-0.31-.6-0.7-1.26-1-1.94a1.8,1.8,0,0,0-.42,0,4.25,4.25,0,0,0-3.59,1.91A4.34,4.34,0,0,1,1.12-50.93Z" transform="translate(73.64 108.33)"/><path class="cls-35" d="M30.92-41.06a1.46,1.46,0,0,0,0,.36,0.72,0.72,0,0,1,.74.39,0.4,0.4,0,0,1-.41.59,1.76,1.76,0,0,0,1,.78,6.53,6.53,0,0,1,.89-0.81l0.1-.12c-0.45.18-1.8-.36-1-1.05,0,0,.55,0,0.59-0.32a3.91,3.91,0,0,0-1.65-.34A0.9,0.9,0,0,0,30.92-41.06Z" transform="translate(73.64 108.33)"/><path class="cls-35" d="M28.72-41.58a5.28,5.28,0,0,1,2.54-1,3.59,3.59,0,0,1,3,.18,1.38,1.38,0,0,1,.22,1.2,2,2,0,0,1,.22,1.72,3.52,3.52,0,0,0,.63-0.43,2.21,2.21,0,0,0-.77-2.73,4.4,4.4,0,0,0-3.67-.75A5.39,5.39,0,0,0,28.72-41.58Z" transform="translate(73.64 108.33)"/><path class="cls-35" d="M26.63-36.35a3.39,3.39,0,0,1-.07-0.75,4.4,4.4,0,0,0-1.9.88c-1.8.2,0.26,0.69-6.38,0.46,0,0-2.68-.29-1.67-3.54a3.2,3.2,0,0,1,.22-0.54,2.9,2.9,0,0,0-1.43,1.74c-1,3.24,1.67,3.54,1.67,3.54,6.65,0.23,4.58-.26,6.38-0.46C25.12-36.35,26.79-35.76,26.63-36.35Z" transform="translate(73.64 108.33)"/><path class="cls-35" d="M0-35.93a8.1,8.1,0,0,1-.58-0.69A9.9,9.9,0,0,0-2.46-35l-0.25.27C-1.19-36-.26-36,0-35.93Z" transform="translate(73.64 108.33)"/><path class="cls-35" d="M14-31.13l0.17-.22a8.23,8.23,0,0,0-1.38,1.43,20.29,20.29,0,0,1-1.83,2.62A15.12,15.12,0,0,0,14-31.13Z" transform="translate(73.64 108.33)"/><path class="cls-35" d="M25.26-39.33a1.44,1.44,0,0,1,.12.48,0.64,0.64,0,0,0,.67.11c0.82-.23.52-1.67,0.43-1.8a2,2,0,0,1,.41-0.55A7.81,7.81,0,0,0,25.26-39.33Z" transform="translate(73.64 108.33)"/><path class="cls-35" d="M-3.92-43.07s0-.13,0-0.35c-6.71,4.65-6.4,3.12-7.45,4.84l-0.07.11A39.06,39.06,0,0,0-3.92-43.07Z" transform="translate(73.64 108.33)"/><path class="cls-35" d="M-3.69-33.72c-1.39,1.26-1.77,1.08-1.89,1.49,0,0.11-.08.24-0.14,0.4A14.32,14.32,0,0,0-3.69-33.72Z" transform="translate(73.64 108.33)"/><path class="cls-35" d="M12.19-39a16.81,16.81,0,0,1-1.43,1.75,19.69,19.69,0,0,0,2.64-3c0.23-.33.47-0.65,0.72-1A9.81,9.81,0,0,0,12.19-39Z" transform="translate(73.64 108.33)"/><path class="cls-35" d="M34.09-38.15c-2.59,1.34-4.42.59-5-.85a2.54,2.54,0,0,1,.44-2.09c-1.32.82-2,2.44-1.65,3.3,0.56,1.44,2.39,2.19,5,.85,1.94-1,1.84-.89,2-1.63Z" transform="translate(73.64 108.33)"/><path class="cls-35" d="M-25.58-36.52a6.29,6.29,0,0,1,3.58-.6,4,4,0,0,1,1.05-.35c3.3-.67,4.05,2.18,4.21,3.92a0.15,0.15,0,0,1,.13.21,26,26,0,0,0,3.05-2.77c-1,.9-1.84,1.56-1.84,1.56,0.05-.4-0.55-0.1-0.55-0.1A2.17,2.17,0,0,0-17.07-37c-4.13-2.62-7.3-.76-7.3-0.76a5,5,0,0,0-1.79,1.58C-26-36.27-25.79-36.4-25.58-36.52Z" transform="translate(73.64 108.33)"/><path class="cls-35" d="M49.82-57.4c-0.84-3.15-7.75,1.94-8.5,2.66S40.06-55,40.06-55a1.13,1.13,0,0,0-1.73-.18,1.8,1.8,0,0,0-.46.88,1.64,1.64,0,0,1,1,.51s0.51,1,1.26.3,7.66-5.82,8.5-2.66c0.09,0.34.17,0.64,0.22,0.9L49-55.23C50.08-54.95,50.66-54.25,49.82-57.4Z" transform="translate(73.64 108.33)"/><path class="cls-35" d="M33.74-62.57L32.3-61.51a0.84,0.84,0,0,0-.54.71l0.76-.56a0.61,0.61,0,0,1,.41.76,1.88,1.88,0,0,0,1.17-1C34.34-62.44,33.74-62.57,33.74-62.57Z" transform="translate(73.64 108.33)"/><path class="cls-35" d="M37-64l-2.66.86a1.42,1.42,0,0,0,.14.77l1.31-.42a2.65,2.65,0,0,1,.14.59C36.85-62.46,37.44-62.75,37-64Z" transform="translate(73.64 108.33)"/><path class="cls-35" d="M41.81-64.27a14.66,14.66,0,0,0-4.18.08s-0.28.15,0.24,1a13.76,13.76,0,0,1,2.74.09c0.58,0.14,2.26,1.58,1.59,2.2A11.54,11.54,0,0,0,41-59.56,0.87,0.87,0,0,0,41.53-60a16.52,16.52,0,0,1,1.86-2.08C44.06-62.69,42.39-64.13,41.81-64.27Z" transform="translate(73.64 108.33)"/><path class="cls-35" d="M43-61.31a1.06,1.06,0,0,0,.46,1,2.12,2.12,0,0,0,1.13,0s0.13-.73-0.22-0.77S43.08-61.59,43-61.31Z" transform="translate(73.64 108.33)"/><path class="cls-35" d="M45.59-61.08s-0.88.57,0,1a1.42,1.42,0,0,0,1.34-1A5.48,5.48,0,0,0,45.59-61.08Z" transform="translate(73.64 108.33)"/><path class="cls-35" d="M47.57-60.34a1.14,1.14,0,0,1,.59.62c0,0.31.51,0.29,0.75,0.11a2.15,2.15,0,0,1,1.43.13c0.44,0.16,1-.37.55-0.64A6.19,6.19,0,0,0,48-61C47.38-60.87,47.27-60.76,47.57-60.34Z" transform="translate(73.64 108.33)"/><path class="cls-35" d="M53-57.4a0.88,0.88,0,0,1,.62.48,0.48,0.48,0,0,0,.93-0.24c0-.9-2.4-2.16-2.58-2.16s-1.08.26-.38,1A4.24,4.24,0,0,0,53-57.4Z" transform="translate(73.64 108.33)"/><path class="cls-35" d="M56.66-58.29A14.93,14.93,0,0,1,52.5-55.6s-0.4.33,0.26,0.48h0a15,15,0,0,0,2.69-2s0.18-.42-0.13,1.61a3.75,3.75,0,0,1-.42,1.3,3.31,3.31,0,0,0,1.63-2.51C56.84-58.71,56.66-58.29,56.66-58.29Z" transform="translate(73.64 108.33)"/><path class="cls-35" d="M44-49c4-2.54,6,1,6.42,2s0.42,0.06.79,2a3.68,3.68,0,0,1-.2,2.27l0.35,0.06s1.55,0.63.5-.71a3.15,3.15,0,0,0,.56-2.83c-0.36-1.92-.34-1-0.79-2s-2.37-4.55-6.42-2a6.16,6.16,0,0,0-1.45,1.27,0.67,0.67,0,0,0-.07.15Z" transform="translate(73.64 108.33)"/><path class="cls-35" d="M43.32-34.13s-1.11-1.78,1.15-4.53c0.55-.66,1-1.28,1.52-1.83a23.54,23.54,0,0,0-2.73,3c-2.26,2.75-1.15,4.53-1.15,4.53,1,1.23,2,5.55,2,5.55C49.4-4.48,54.27-2.45,48.36,9.84a20.43,20.43,0,0,1-3.29,4.94,19.83,19.83,0,0,0,4.5-6.15c5.91-12.29,1-14.32-4.23-37.21C45.34-28.58,44.33-32.9,43.32-34.13Z" transform="translate(73.64 108.33)"/><path class="cls-35" d="M37.36,15A19.37,19.37,0,0,1,26.8,19.58a20,20,0,0,0,2.81.29A17.5,17.5,0,0,0,37.36,15Z" transform="translate(73.64 108.33)"/><path class="cls-35" d="M54.47-8.65C50.39-25.29,47.37-27,47.37-27s1.32,3.76,2.71,8.65a108.91,108.91,0,0,1,3.19,10.9C55.83,3,51.89,9.76,48.91,13.05,51.83,10.42,57.4,3.32,54.47-8.65Z" transform="translate(73.64 108.33)"/><path class="cls-35" d="M54.33,7.91a5.33,5.33,0,0,1-1.43,2.87,13.8,13.8,0,0,1-3.43,6C54.56,12.13,54.33,7.91,54.33,7.91Z" transform="translate(73.64 108.33)"/><path class="cls-35" d="M46.65,28.46c1.11,2.95,3.15,3.23,4.5,3a2.89,2.89,0,0,0,.5-0.41s0-.2,0-0.5C49.39,31.26,46.65,28.46,46.65,28.46Z" transform="translate(73.64 108.33)"/><path class="cls-35" d="M48.17,33.73a23.29,23.29,0,0,0-2.32-2.37,2.79,2.79,0,0,1-.76-0.85c0.27-2,0-.67-0.4-5.18a8,8,0,0,1,1.92-5.91,8.41,8.41,0,0,0-3.12,7.12c0.45,4.51.67,3.22,0.4,5.18a2.79,2.79,0,0,0,.76.85A10.49,10.49,0,0,1,46,33.88c0.12-.44,1.25.22,2,0.92a3.57,3.57,0,0,0,1.24.7,3.06,3.06,0,0,0,1.71-.7s0-.25,0-0.59A3.44,3.44,0,0,1,48.17,33.73Z" transform="translate(73.64 108.33)"/><path class="cls-35" d="M49,26c-2.19-1.16-2.46-1-2.46-1,2.32,1.9,3.91,2.52,5,2.61a1.55,1.55,0,0,0,1-1.15A4.83,4.83,0,0,1,49,26Z" transform="translate(73.64 108.33)"/><path class="cls-35" d="M35,20.51l0.21,0.4c0.44-.06,1-0.11,1.75-0.13,3.08-.1,10.82-4.43,14.36-8.34-3.86,3.54-10.39,7-13.15,7.13C34.14,19.7,35,20.51,35,20.51Z" transform="translate(73.64 108.33)"/><path class="cls-35" d="M58.31-10.54c-3.08-1.65-2.77-6.66-2.77-6.66-0.63-8.44-1.61-9.25-3.62-11.35s-1.25-6.16-.63-7.16,1.69-7.73-2.05-6.2A4.54,4.54,0,0,0,47-40.15a6,6,0,0,1,1-.54c3.74-1.53,2.67,5.21,2.05,6.2s-1.38,5.06.63,7.16,3,2.9,3.62,11.35a10.79,10.79,0,0,0,.62,4,11.9,11.9,0,0,1,2.76,3.14,4,4,0,0,1,.56.93,19.21,19.21,0,0,1,1,2.08,20.41,20.41,0,0,1,0,5.52C59.17,2.85,58.67,5.81,58,6.84a36.88,36.88,0,0,0-3.88,7.1l0.3-.27a2,2,0,0,0-.44.64c-0.15.43-.28,0.87-0.4,1.32a29.24,29.24,0,0,0,.12,8.93,1.42,1.42,0,0,1-.52,1.53q0,0.52,0,1a1.12,1.12,0,0,0,.2-0.24,5.57,5.57,0,0,0-.23.82,13.67,13.67,0,0,1-.28,1.95c0,0.17,0,.27,0,0.27l-0.06.06a9.16,9.16,0,0,1-.41,1.23l0.08,0c-0.44.4-.32,2.46-0.32,2.46a3.09,3.09,0,0,1-.39.28c0,0.39,0,.79,0,1.2a0.61,0.61,0,0,1,.83.18c-0.22,5,2,5.54,2,5.54-1.16-.49-2.37-7.73-1.08-10.54s0.94-6,.86-11.79S57.82,8,59.25,5.63,61.39-8.89,58.31-10.54Z" transform="translate(73.64 108.33)"/><path class="cls-35" d="M48.05,36.72a3.18,3.18,0,0,1-.15.4c-0.49,1.07-.8.22-0.8,0.22A3,3,0,0,0,47,36.2L46.78,36c-0.85-.8-2.23-1.56-2-0.63s1.25,1.52,1.07,3.17c0,0,.31.85,0.8-0.22s0-1.56.63-.58a2.65,2.65,0,0,1-.55,2.34,3.92,3.92,0,0,0,1.85-3.22A4.42,4.42,0,0,1,48.05,36.72Z" transform="translate(73.64 108.33)"/><path class="cls-35" d="M-15.21-37.44A6.44,6.44,0,0,1-16.34-38a12.42,12.42,0,0,0-3.37-1.43c-0.7,0-1.08-1.91-2.3-3.2s-0.4-2.52-2.8-3.41c0,0-.53-0.11-0.9,1.33,2,0.88,1.33,2.06,2.49,3.28a13.12,13.12,0,0,1,1.64,2.61c2.46,0.07,4.4.48,6.34,2.67L-14.34-36A8.58,8.58,0,0,1-13-37.22Z" transform="translate(73.64 108.33)"/><path class="cls-35" d="M-25.05-38.42c-0.49.07-.75,0.7-7.3-4.94a8.16,8.16,0,0,0-.55,1.77c5.18,4.4,6,4.5,6.47,4.42A2.88,2.88,0,0,1-24.92-38S-24.57-38.49-25.05-38.42Z" transform="translate(73.64 108.33)"/><path class="cls-35" d="M-22.86-30.26c-1.11.2-4.13-2-4.7-3.87s-1.91-2.34-11.32-4.08a2,2,0,0,0,.6,1.54h0c7.76,1.48,9,2,9.5,3.74s3.59,4.08,4.7,3.87,0.84,0.67.84,0.67a2.32,2.32,0,0,1-.21.35A4.34,4.34,0,0,0-22-29.58S-21.75-30.46-22.86-30.26Z" transform="translate(73.64 108.33)"/><path class="cls-35" d="M-28.33-15.22a8.84,8.84,0,0,1,.89-4,0.89,0.89,0,0,0-.46.32A9.75,9.75,0,0,0-28.33-15.22Z" transform="translate(73.64 108.33)"/><path class="cls-35" d="M-24.73-7.2a12.25,12.25,0,0,1-4.11-7C-28.28-9.39-25.29-7.51-24.73-7.2Z" transform="translate(73.64 108.33)"/><path class="cls-35" d="M-21.66-19.91c-0.06.22-.23,0.46-0.33,0.74a7.56,7.56,0,0,0,.07,1,2.38,2.38,0,0,0,.26.41c0.84,1.1.89,3.29,0.9,4.21a2.8,2.8,0,0,1-.38,1.3A2.5,2.5,0,0,0-20-13.3a5.19,5.19,0,0,0-.77-4.41,2.16,2.16,0,0,1-.1-2.11,1.32,1.32,0,0,1,.09-0.61s0-.07,0-0.11c0-1.21,0-1.9,0-2.6a3.06,3.06,0,0,0-.34-1.46,1.8,1.8,0,0,0-.9-0.09c-0.93.11-1.57,0.15-2,.23l-0.13.05-0.27.07c-0.3.16-.3,0.43-0.11,1l1.3-.14C-20.73-23.76-21.52-20.42-21.66-19.91Z" transform="translate(73.64 108.33)"/><path class="cls-35" d="M-26.86-21.29c0.87,0.11,2.23,1.79,2.23,1.79,1.56-.81.52,3.46,0.52,3.46a4.25,4.25,0,0,1-.17,2.3,2.28,2.28,0,0,0,1.4-1.88v-0.07A8.69,8.69,0,0,1-23-19.91a0.72,0.72,0,0,0-.4-0.83l-0.06,0-0.09-.1c-0.71-.31-1.86-0.36-2.16-1.23a3.56,3.56,0,0,1-.13-0.46,0.47,0.47,0,0,0-.27.12A5.61,5.61,0,0,0-26.86-21.29Z" transform="translate(73.64 108.33)"/><path class="cls-35" d="M-21.18-9.07A1.44,1.44,0,0,1-22-9.23a3.2,3.2,0,0,1-.69,1.91A5.59,5.59,0,0,0-21.18-9.07Z" transform="translate(73.64 108.33)"/><path class="cls-35" d="M-22.92-8.69l-0.51.34A4.43,4.43,0,0,1-24-8.71a1.39,1.39,0,0,1-.67.22c0.28,0.25.58,0.5,0.89,0.75A3.09,3.09,0,0,0-22.92-8.69Z" transform="translate(73.64 108.33)"/><path class="cls-35" d="M-26.31-11.24h0a10.87,10.87,0,0,1-1.42-5C-28.15-14.51-27.64-10.93-26.31-11.24Z" transform="translate(73.64 108.33)"/><path class="cls-35" d="M-27.06-15.47c0.06-.2.13-0.37,0.17-0.51a0.35,0.35,0,0,1,.24-0.27,5.37,5.37,0,0,1,.2-1.38l-0.65.43A9.26,9.26,0,0,0-27.06-15.47Z" transform="translate(73.64 108.33)"/><path class="cls-35" d="M-23.52-13.22a4.56,4.56,0,0,1-1.58.77,0.66,0.66,0,0,1-.46-0.05,1.83,1.83,0,0,1-.44.11l-0.22-.15a10.63,10.63,0,0,0,.58,1.08A5.45,5.45,0,0,0-23.52-13.22Z" transform="translate(73.64 108.33)"/><path class="cls-35" d="M-9.58-24.79l-0.13.95a8.86,8.86,0,0,0,1.18-1C-8.5-25-8.37-26-8.37-26a15.69,15.69,0,0,0-4,3.31A12.94,12.94,0,0,1-9.58-24.79Z" transform="translate(73.64 108.33)"/><path class="cls-35" d="M-19.27-10.64a2.18,2.18,0,0,1-.37-0.9A5.87,5.87,0,0,1-20-10.28,1.24,1.24,0,0,0-19.27-10.64Z" transform="translate(73.64 108.33)"/><path class="cls-35" d="M-20.81-11.41L-21-11.3a0.84,0.84,0,0,0-.52.74A3.38,3.38,0,0,0-20.81-11.41Z" transform="translate(73.64 108.33)"/><path class="cls-35" d="M-22-10.78a2,2,0,0,1,0-.41,1.44,1.44,0,0,1-.47.23,1.19,1.19,0,0,0-.76,1.22A2.08,2.08,0,0,0-22-10.78Z" transform="translate(73.64 108.33)"/><path class="cls-35" d="M-26-15.86a5.47,5.47,0,0,0,.08-0.55,3.55,3.55,0,0,0-.09.53Z" transform="translate(73.64 108.33)"/><path class="cls-35" d="M-9.29-6.28s-0.81.81-2.13-.63L-11.5-7a1.1,1.1,0,0,1-1,0c-0.75-.58-0.63-1.56-2.25-2.54a5.15,5.15,0,0,1-1.11-.83,1.56,1.56,0,0,1-.76-1.24c-0.07-.12-0.16-0.26-0.26-0.41-0.78-1.15-.34-1.92.14-3,0-.27,0-0.54,0-0.85a5.41,5.41,0,0,1,1.34-2.4c-0.93.68-2.55,2.76-2.55,3.61s0.12,1.56.12,2.65c0,0.13,0,.26,0,0.41a9.93,9.93,0,0,0,.64.81A12.07,12.07,0,0,1-16-8.92a3,3,0,0,1,1.31.76l0.25,0S-13.39-7.89-12-6a2.32,2.32,0,0,0,1.5,1c2.6-1.9,2.6-1.15,2.94-1.56a4.39,4.39,0,0,0,.57-1A7.9,7.9,0,0,0-9.29-6.28Z" transform="translate(73.64 108.33)"/><path class="cls-35" d="M-9.87-19A4.88,4.88,0,0,0-12.47-17a2.63,2.63,0,0,1,1.39-.72l0.11,0c0.63-.65,1-0.85,2.4-0.43,0.11-.11.23-0.22,0.35-0.32C-8.76-18.32-9.42-18.93-9.87-19Z" transform="translate(73.64 108.33)"/><path class="cls-35" d="M-8.2-16.61A3.59,3.59,0,0,0-9-16.94l-0.24.16c-0.32-.11-0.59-0.2-0.84-0.27a1.82,1.82,0,0,0-1.25.73,3,3,0,0,0-.34.57,2.34,2.34,0,0,1,1.37,0,2.07,2.07,0,0,1,.89.35,3.43,3.43,0,0,1,2.82-1.37c1.85,0.81.92,2.19,0.17,3s-0.75,2.42-.75,4.21a2,2,0,0,1,0,.43,2.05,2.05,0,0,0,.68-0.34s0-.06,0-0.09A7.23,7.23,0,0,1-5.94-12a4.65,4.65,0,0,1,.74-3,5.32,5.32,0,0,0,.46-0.56A5.66,5.66,0,0,1-5-16.9,1.38,1.38,0,0,0-5.59-18,3.28,3.28,0,0,0-8.2-16.61Z" transform="translate(73.64 108.33)"/><path class="cls-35" d="M-13.5-20.53c-0.08.14-.29,0.53-0.58,1l0.05,0a4.84,4.84,0,0,0,1.54-1.79A8.85,8.85,0,0,0-13.5-20.53Z" transform="translate(73.64 108.33)"/><path class="cls-35" d="M-5.78-20.53a6.18,6.18,0,0,0-2,1.67l0,0.07A8,8,0,0,1-7-19.32a3.39,3.39,0,0,1,.61,0,1.77,1.77,0,0,1,2.62,1.25c0,0.94.42,1.46,0.25,2.25a4.57,4.57,0,0,1-1.06,2.94,5.44,5.44,0,0,0-.52.73,5.4,5.4,0,0,0-.23,1.41,4.19,4.19,0,0,1-.15,1.05,2.48,2.48,0,0,1-.37,2.18,4,4,0,0,0-.66,1.17A8.33,8.33,0,0,0-5.6-6.8c0.75-.4-0.35-0.17,1-2s-0.87-2.83,1.27-5.37S-2.46-21-5.78-20.53Z" transform="translate(73.64 108.33)"/><path class="cls-35" d="M-23.08-6s-0.21-.12-0.56-0.36a5.47,5.47,0,0,1-.54.41c-6.31-4.4-5.86-9.48-4.67-12.54,0.07-.44.16-0.9,0.28-1.36a26.39,26.39,0,0,1,3.17-5c-2.35,1.94-4.38,6.16-4.38,6.16a15.23,15.23,0,0,0-.32,1.6,18.43,18.43,0,0,0-.09,3,11.68,11.68,0,0,0,2.66,6.44A21.1,21.1,0,0,1-24.9-5.17c0.37,0.26.6,0.39,0.6,0.39,2.1,0.53,5.65,8.08,7,12.29L-16.81,8c1.41,1.17,2.53,1.8,2.67,2S-13.6,9.12-16,6.3C-17.43,2.09-21-5.46-23.08-6Z" transform="translate(73.64 108.33)"/><path class="cls-35" d="M-31.89-27.47c4.23,0.24,4.84,2,5.27,2.22a1.13,1.13,0,0,0,.87,0,67.57,67.57,0,0,1,6.31-5.17L-21.57-28c-0.32,1.68-.83,1.88-1,1.9l0.66,0c0.53-.37.87-0.65,1.41-0.23a2.16,2.16,0,0,1,.59.66c1.44,0.89,1,3,.54,4.36a3.8,3.8,0,0,0-.24,2.45l0,0a6.26,6.26,0,0,1,1,3.16A2.15,2.15,0,0,1-17.73-17a16.83,16.83,0,0,0-.33-2.26,3.93,3.93,0,0,1-.06-3.35c0.69-1.9,1.2-5.23-3.2-4.73,0.13,0,.64-0.22,1-1.9l2.13-2.39a67.56,67.56,0,0,0-6.31,5.17,1.13,1.13,0,0,1-.87,0c-0.44-.2-1-2-5.27-2.22,0,0-2.22-.77-7.69,1.48a0.69,0.69,0,0,0,.1.7C-33.76-28.12-31.89-27.47-31.89-27.47Z" transform="translate(73.64 108.33)"/><path class="cls-35" d="M-16.07-18.54a2.37,2.37,0,0,0-1.05,1.08A11.8,11.8,0,0,0-16.07-18.54Z" transform="translate(73.64 108.33)"/><path class="cls-35" d="M-10.31-9.61a0.58,0.58,0,0,1-.83-0.13L-11.29-10a1.53,1.53,0,0,1-1.21.08c0.48,0.57.63,1.09,1,1.49l0.36-.18A3.33,3.33,0,0,0-10.31-9.61Z" transform="translate(73.64 108.33)"/><path class="cls-35" d="M-13.12-11.64a1.4,1.4,0,0,0,.58.33A2.37,2.37,0,0,0-13.12-11.64Z" transform="translate(73.64 108.33)"/><path class="cls-35" d="M-8.76-23.62a9.3,9.3,0,0,0-2.59,2.15A9.81,9.81,0,0,1-10-22.41l-0.44,1.92s-3.16,3.36-4.42,4.63a3.89,3.89,0,0,0-.7,2.86A4.17,4.17,0,0,0-14-11a3.4,3.4,0,0,1-.63-3.44c0.09-.16.18-0.31,0.27-0.46a3.26,3.26,0,0,1,.71-2.13c1.27-1.27,4.42-4.63,4.42-4.63Z" transform="translate(73.64 108.33)"/><path class="cls-35" d="M-12.1-13.05a2.47,2.47,0,0,1-.41-0.77,2.18,2.18,0,0,0,.21,1.08A1.67,1.67,0,0,1-12.1-13.05Z" transform="translate(73.64 108.33)"/><path class="cls-35" d="M-13-15.63a2.75,2.75,0,0,0-.6.89,4.17,4.17,0,0,0,1.93,3.45,0.43,0.43,0,0,0,0-.54c-1.31.13-2-1.64-1-3.1a2.85,2.85,0,0,1,.82-1.91l0.1-.1A14.62,14.62,0,0,0-13-15.63Z" transform="translate(73.64 108.33)"/><path class="cls-35" d="M-11.9-14.53a1.76,1.76,0,0,0,.47,1.15,1,1,0,0,1,.63.34,1.29,1.29,0,0,0,.35,0,0.47,0.47,0,0,1,0,.51,2,2,0,0,1,.1,1.45,1.59,1.59,0,0,0,.55-0.29,2.14,2.14,0,0,0,.31-0.3,2.6,2.6,0,0,0-1.32-2.68,1.53,1.53,0,0,0-.26.38,2.51,2.51,0,0,1-.19-0.56A1.29,1.29,0,0,0-11.9-14.53Z" transform="translate(73.64 108.33)"/><path class="cls-35" d="M5.52-9.32a5.3,5.3,0,0,1-4.73-6,2.61,2.61,0,0,1,.29-0.79A3.25,3.25,0,0,0-.28-14.54a4.72,4.72,0,0,0,.81,3.76A8.48,8.48,0,0,0,4.36-8.1C6.62-7.89,5-8.54,6.53-7.77A6.49,6.49,0,0,0,7.3-7.82a3.81,3.81,0,0,0,1.15,1l2.15,1c7.5,3.36,9.1-.19,10-0.87-1.26,1-3.64,2-8.74-.33C4.17-10.48,8.83-9,5.52-9.32Z" transform="translate(73.64 108.33)"/><path class="cls-35" d="M20.56-6.73l0,0a0.93,0.93,0,0,0,.16-0.14Z" transform="translate(73.64 108.33)"/><path class="cls-35" d="M24.66-10.6a1.52,1.52,0,0,1-.68.23,1.55,1.55,0,0,0-1.57,1.25l0.36,0A2.94,2.94,0,0,0,24.66-10.6Z" transform="translate(73.64 108.33)"/><path class="cls-35" d="M10.86-17.79a2.21,2.21,0,0,0,1.25-1c0-.1-0.18-1-0.18-1a2.38,2.38,0,0,1-1.21,1.21Z" transform="translate(73.64 108.33)"/><path class="cls-35" d="M26.2-18.51c-2-.4-4.65-3.61-4.76-4.46l-1.14.79a6,6,0,0,0,2.3,2.58,19,19,0,0,0,2.76,2.43,1.72,1.72,0,0,1,.34.23c0.23,0.15.46,0.28,0.69,0.4,0.7,0.36.81,1.28,0.58,2.3a8.44,8.44,0,0,1-.12,4,2.26,2.26,0,0,1-.12.26,2.94,2.94,0,0,0,1.32-1.47C28.79-13.42,28.2-18.11,26.2-18.51Z" transform="translate(73.64 108.33)"/><path class="cls-35" d="M22.78-7.85A13.77,13.77,0,0,1,21.43-4.7c0.7-.37,1.41-1.19,2.19-3.31A7.63,7.63,0,0,1,22.78-7.85Z" transform="translate(73.64 108.33)"/><path class="cls-35" d="M3.24-17.73A7.7,7.7,0,0,1,8-17.82a5.14,5.14,0,0,0,1.83.25,2.38,2.38,0,0,0,.9-1,2.77,2.77,0,0,1-1.64.14c-2.18-.4-6.22-1.2-8,1C1-17.34.84-17.19,0.74-17A5.49,5.49,0,0,1,3.24-17.73Z" transform="translate(73.64 108.33)"/><path class="cls-35" d="M16-12.66a3.73,3.73,0,0,1-.87.22,5.13,5.13,0,0,0,1-1,4.61,4.61,0,0,0-.18-1.32,1.69,1.69,0,0,1-.45.75,2.65,2.65,0,0,1-.88,2.14l0.91-.06A1.85,1.85,0,0,0,16-12.66Z" transform="translate(73.64 108.33)"/><path class="cls-35" d="M17.12-15.88a3.51,3.51,0,0,1,0,2.08,2.33,2.33,0,0,1-.1,1.52l0,0.08a2.17,2.17,0,0,0,1.24-1.29,2.22,2.22,0,0,0,.12-0.37A2.85,2.85,0,0,0,17.12-15.88Z" transform="translate(73.64 108.33)"/><path class="cls-35" d="M14.57-14.69c-0.49.24,0.27-.86-1-0.13,1.15,0.19,0,2.54,0,2.54A1.77,1.77,0,0,0,14.57-14.69Z" transform="translate(73.64 108.33)"/><path class="cls-35" d="M9.36-14L9.22-14s0,0,0,0H9.36Z" transform="translate(73.64 108.33)"/><path class="cls-35" d="M16.82-10A2.45,2.45,0,0,0,18-11.25h0c-2,.86-3.37,2.07-7.43.69-2-.15-2.53-1.28-2.58-2.12a3.47,3.47,0,0,1-.12-2.23C7-15.42,5.61-12.37,7.49-10.45H8.43a15.42,15.42,0,0,0,1.83,1.36C13.65-8.15,14.93-9.24,16.82-10Z" transform="translate(73.64 108.33)"/><path class="cls-35" d="M15.7-16.06a6.15,6.15,0,0,1,1,1.19c0-.72-0.41-1.52-1.78-2.26A4,4,0,0,1,15.7-16.06Z" transform="translate(73.64 108.33)"/><path class="cls-35" d="M25-14.41c-1.31-2.94-1.82-2.62-2.36-2.8s0.65-.75-3.42-1.16c0,0-.43-2-1.29-2.33l-1.82,1.17a2.11,2.11,0,0,0,.13.34l0.48-.31c0.72,0.3,1.14,1.74,1.25,2.2l0.26,0.16c3.79,0.41,2.65,1,3.19,1.14s1.05-.15,2.36,2.8a3.1,3.1,0,0,1,.32,1.28C25.06-12.13,25.77-12.68,25-14.41Z" transform="translate(73.64 108.33)"/><path class="cls-35" d="M21.39-10.56l-0.39,0c-0.89.17-.94,1.9-0.92,2.6a7.7,7.7,0,0,0,1.22-.9A7.17,7.17,0,0,1,21.39-10.56Z" transform="translate(73.64 108.33)"/><path class="cls-35" d="M14.87-15.06a2.52,2.52,0,0,1,.33.42c0.18-.75.16-1.55-0.84-1.38A1.57,1.57,0,0,1,14.87-15.06Z" transform="translate(73.64 108.33)"/><path class="cls-35" d="M4.16-15.82a10.08,10.08,0,0,1,4.13.06,0.64,0.64,0,0,1,.83-0.35,2,2,0,0,0,1.45.91,2.07,2.07,0,0,0-.75.17,2.34,2.34,0,0,1,.85,1.14c1.59-.34,1.53.37,1.53,0.37,1.56-.94.58,0.4,1.24,0s-0.28-1.29-.28-1.29l0.24,0c-0.06-.18-0.32-0.52-1.51-0.26,0,0-.69-2.84-6.51-1.93,0,0-2.35.22-3.2,1.85A5.48,5.48,0,0,1,4.16-15.82Z" transform="translate(73.64 108.33)"/><path class="cls-35" d="M-0.61-.38A19.19,19.19,0,0,0,5.94,2.07C9.13,2.64,16.5,5.55,19.74,8.87c0.3,0.31.12,0.9,0.48,1.4,0.65,0.92.82,0.35,1,.77v2.8A8.42,8.42,0,0,0,19.11,10c-1.46-1.23-2.6-4.17-14.63-7.31C4.48,2.65.66,1.27-.61-0.38Z" transform="translate(73.64 108.33)"/><path class="cls-35" d="M12.58,29.27s3.52,6.56,9.65,4.39c0,0,.31-9.15,0-11.5,0,0,.56,0,0.62-1.06s0.87,15.78,0,18.56a3.13,3.13,0,0,0-.93,1.48s0.45-1.55-.74-1.11-4.77-.62-7.15-2.66c0,0,7,2.29,7.83,1.11s-0.15-2.35.62-3.4-0.23-.43-1.29-0.06S15.24,36,12.58,29.27Z" transform="translate(73.64 108.33)"/><path class="cls-35" d="M21.73,42.94s-5.69-1.3-6.31-1.79c0,0,2.92,2.23,5.76,2.29S21.73,42.94,21.73,42.94Z" transform="translate(73.64 108.33)"/><path class="cls-35" d="M50.36,42.28L49.54,43A3.47,3.47,0,0,1,49.69,45,8.64,8.64,0,0,1,51,46.16c0.09,0.24-.39.49-0.61,0.3s1.15,1.36-.21,2.12a4.65,4.65,0,0,0,.49,2c0.45,0.66.61,1.55,0,1.83l-0.14.08c0.4,0,.91.1,1.81,0.23a7.81,7.81,0,0,0,.91,0c0-.16.06-0.39,0.08-0.66-0.68.07-1.42,0.07-1.42,0.07-0.45-.09-0.64-0.61,0-0.89s0.45-1.18,0-1.83a4.65,4.65,0,0,1-.49-2c1.36-.76,0-2.3.21-2.12s0.7-.06.61-0.3a8.64,8.64,0,0,0-1.3-1.18,3.15,3.15,0,0,0,0-1.2A0.89,0.89,0,0,1,50.36,42.28Z" transform="translate(73.64 108.33)"/><path class="cls-35" d="M54.45,49.25a6.72,6.72,0,0,1-.07,2.53,0.91,0.91,0,0,1-.37.16c0,0.27,0,.45,0,0.45a2.47,2.47,0,0,0,.5.05,1.31,1.31,0,0,0,.74-0.59s0.29,0.08.67,0.14a0.3,0.3,0,0,0,0-.09,5,5,0,0,0,0-.67,2.76,2.76,0,0,1-.72-0.05s0.11-.88.13-1.69a2.51,2.51,0,0,0-.67-0.71A0.51,0.51,0,0,1,54.45,49.25Z" transform="translate(73.64 108.33)"/><path class="cls-35" d="M39.19,44.3a3.06,3.06,0,0,1-.78-0.86,0.17,0.17,0,0,0-.19,0c-0.18,1.11.66,6.47,3.71,8.17l0.64,0.08a14.75,14.75,0,0,1-.82-1.57C39.89,48.73,39.32,46,39.19,44.3Z" transform="translate(73.64 108.33)"/><path class="cls-35" d="M55.5,45.77s1-1.67-.39-2.43c0,0,.67-1.24-2-2.58L49.8,39.32a16.49,16.49,0,0,1-2,1.36c-0.33.09-.31,0.13-0.14,0.52h0c0.47-.34.9-0.68,0.9-0.68L51,41.59l0.56-.52a1.22,1.22,0,0,0,.88.36A1.64,1.64,0,0,1,53.5,43a0.62,0.62,0,0,0,0,.13,2,2,0,0,1,.35.55L54,43.77l0,0a1,1,0,0,1,0,.74C55.3,45.31,54.3,47,54.3,47a3.69,3.69,0,0,1,1.43,1,0.53,0.53,0,0,0,.12-0.41,3.43,3.43,0,0,1,1.27,3.12,0.65,0.65,0,0,1-.49.42c0,0.35,0,.68,0,1,0.66,0,1.29-.05,1.22-0.59C57.66,50.38,58.6,47,55.5,45.77Z" transform="translate(73.64 108.33)"/><path class="cls-35" d="M39.16,43.13a2.88,2.88,0,0,1,0-.44c0.15-.69.42-0.46,0.42-0.46a2.65,2.65,0,0,0,.87.9H40.7a0.52,0.52,0,0,0,.19-0.42s2.24-.21,2.24.09a0.8,0.8,0,0,0,.07.28,5.42,5.42,0,0,1,2-.66A2.32,2.32,0,0,1,45.71,42a2,2,0,0,1,1.23-.29c0.18-.11.41-0.27,0.63-0.43a4.41,4.41,0,0,0-3.26.64H40.44a2.91,2.91,0,0,1-1.64-.52A13.16,13.16,0,0,1,38.37,43,2.81,2.81,0,0,0,39.16,43.13Z" transform="translate(73.64 108.33)"/><path class="cls-35" d="M48.6,52.58h0.14A0.22,0.22,0,0,0,48.6,52.58Z" transform="translate(73.64 108.33)"/><path class="cls-35" d="M48,52.6a2,2,0,0,1-.5-0.17,0.75,0.75,0,0,1-.28-0.52c-0.94-.2-1.85-0.34-1.93-0.68a1.33,1.33,0,0,1,.16-0.62c-0.36-.18-0.64-1.2-0.61-0.59a5.35,5.35,0,0,1-.58,1.76C45.33,51.79,46.35,52.6,48,52.6Z" transform="translate(73.64 108.33)"/><path class="cls-35" d="M44.5,43.22a1.28,1.28,0,0,0-.76,1.33c0.58-.09,1,0.39.79,1.73a3.49,3.49,0,0,0,.91,2.82,1.25,1.25,0,0,1,.4.66,2.58,2.58,0,0,0,.24-1c0-.73.37,0.84,0.82,0.59s0.09-1.29-.25-1.5a3.49,3.49,0,0,1-.91-2.82c0.18-1.33-.21-1.82-0.79-1.73A0.75,0.75,0,0,1,45,43,1.59,1.59,0,0,0,44.5,43.22Z" transform="translate(73.64 108.33)"/><path class="cls-35" d="M-16.41,38.83c0.2,0.68.64,0.44,0.76,0a2.58,2.58,0,0,1,.4-0.8,3.37,3.37,0,0,1,.07-0.35l0-.06a1.19,1.19,0,0,1-.8-1.05,1.81,1.81,0,0,1,.18-0.85l-0.31.17a2.29,2.29,0,0,0-1.08,1.88A1.19,1.19,0,0,0-16.41,38.83Z" transform="translate(73.64 108.33)"/><path class="cls-35" d="M-25.12,10.56s0.19,2.84,3.65,5.81c3,2.61,4.7,2.16,5.56,5.15a10.55,10.55,0,0,0-1.81-4.18l-0.16,0C-20,16.74-24.75,12.6-25.12,10.56Z" transform="translate(73.64 108.33)"/><path class="cls-35" d="M-24.29,41.14c-0.2-.47-0.8,0-0.8,0h0c0,0.08,0,.17,0,0.26a1.13,1.13,0,0,1,0,1.2,2.16,2.16,0,0,0,.71,1.66l0.24,0.13c0-.14-0.06-0.27-0.09-0.39A22.6,22.6,0,0,1-24.29,41.14Z" transform="translate(73.64 108.33)"/><path class="cls-35" d="M-21.47,39.23c0.72,0,.59-0.65,1-0.1l0-.07c0.16-.68.64,0,1.2,0h0.1V38.51A0.23,0.23,0,0,0-19,38.32l-0.05,0c-0.72-1.16-.4-0.32-1.23-0.28s-0.28-.08-0.2-1.23a5.52,5.52,0,0,1,.07-0.58l-1,.59s-0.25,0-.32,1.19S-22.3,39.27-21.47,39.23Z" transform="translate(73.64 108.33)"/><path class="cls-35" d="M-18,11.55c2.55,2.11,6.14,2.6,7.54,3.5,0.73,0.47,1-.34,1-1.32-1.68-.92-5.65-1.48-8.09-4.09S-22.77.91-23.82-.14a52.6,52.6,0,0,1-5.83-8,41.65,41.65,0,0,0,3.08,6.57C-25.08.76-20.05,6.9-18,11.55Z" transform="translate(73.64 108.33)"/><path class="cls-35" d="M-18.3,45.23a6.32,6.32,0,0,0,0-.86c-0.87.13-1.88,0.49-2.45,0.57-0.85.12-.74-0.44-0.74-0.44a8.73,8.73,0,0,0,.31-2.95,0.51,0.51,0,0,0,.09-0.84,0.81,0.81,0,0,1,0-.66c-0.27-.13-0.48-0.21-0.58.2a1.26,1.26,0,0,1-.59.88,1.05,1.05,0,0,0,0,.79,0.51,0.51,0,0,1-.09.84A9.54,9.54,0,0,1-22.48,45l0.27,0.22C-21.59,45.84-19.56,45.48-18.3,45.23Z" transform="translate(73.64 108.33)"/><path class="cls-35" d="M-19.74,21.07q0.44,0.34.83,0.69a5.06,5.06,0,0,1,2.09,2.4h0c-0.38-2.34-1-3.24-2-4l-0.29,0c-1.06,0-2.29-1.15-3.34-2.39l-0.28-.24a13.63,13.63,0,0,1-1.53-1.53A14.8,14.8,0,0,0-19.74,21.07Z" transform="translate(73.64 108.33)"/><path class="cls-35" d="M-19.31,39.55a0.42,0.42,0,0,0,.13-0.22A1.45,1.45,0,0,0-19.31,39.55Z" transform="translate(73.64 108.33)"/><path class="cls-35" d="M-17.05,33a1.56,1.56,0,0,0,1.29-1.24l-0.08,0a29.54,29.54,0,0,0-4.62,2.35c-1,.52-1.45-0.2-1.85,1.42a2.09,2.09,0,0,0,.65-0.21A29.55,29.55,0,0,1-17.05,33Z" transform="translate(73.64 108.33)"/><path class="cls-35" d="M31.37,51.71h0Z" transform="translate(73.64 108.33)"/><path class="cls-35" d="M-2,25.37c0-.14,0-0.28,0-0.42a2.16,2.16,0,0,1-1.58,0,5,5,0,0,0-.28.73,3.78,3.78,0,0,1-.94-0.26l0.5,0.86A2.91,2.91,0,0,0-2,25.37Z" transform="translate(73.64 108.33)"/><path class="cls-35" d="M-4.53,22.56a1.31,1.31,0,0,1,.39-0.43,6.52,6.52,0,0,0-.95-1.64,0.3,0.3,0,0,0-.37.15c-0.43.63-.1,2.43,1.37,3.34a1.72,1.72,0,0,0,.13-0.44A0.79,0.79,0,0,1-4.53,22.56Z" transform="translate(73.64 108.33)"/><path class="cls-35" d="M-4.39,24.45a5,5,0,0,1-.92-1.14,1.2,1.2,0,0,0-.41.43q0.24,0.47.51,1A0.74,0.74,0,0,0-4.39,24.45Z" transform="translate(73.64 108.33)"/><path class="cls-35" d="M-16.28,44a0.35,0.35,0,0,0,.25.12c0.06-.19.14-0.4,0.22-0.61V40.88a1,1,0,0,1-.11-0.3,0.62,0.62,0,0,0-1.09.35v4.19c0.36,0.09.89,0.26,1.5,0.37A2.4,2.4,0,0,0-15.62,45C-16.22,44.81-16.53,43.74-16.28,44Z" transform="translate(73.64 108.33)"/><path class="cls-35" d="M3.26,32.76s-3.15-18.24-6.74-24c0,0,.31-8.29-2-11.75,0,0-.41-2.65.35-1.7A2.18,2.18,0,0,1-5.56-6C-5.39-6.51-7-4.11-9.85-4a12.7,12.7,0,0,1-3.83-1.63A14,14,0,0,1-11-2.81c2.78-.15,4.35-2.49,4.18-2a2.18,2.18,0,0,0,.46,1.33c-0.76-1-.35,1.7-0.35,1.7,2.29,3.46,2,11.75,2,11.75C-1.75,14.68.9,27.75,1.76,32.34c1.1,0.95,2.28,2.81,4.15,8.1l0.45,0.93c0.85,0.89,4.42,5.11,4.59,13.7l0.9-.16c-0.06-.35-0.11-0.78-0.17-1.32A49.51,49.51,0,0,0,3.26,32.76Z" transform="translate(73.64 108.33)"/><path class="cls-35" d="M-6,19.66c-0.68-.41-1,0.11-1.15.87q0.2,0.59.49,1.27c0.19-.23.44-0.11,0.66,0.14A12.47,12.47,0,0,1-6,19.66Z" transform="translate(73.64 108.33)"/><path class="cls-35" d="M-9.72,26.95c-0.47-1,0-5,.88-8.2a2.34,2.34,0,0,1,.34-1.11,12.46,12.46,0,0,1,.83-2c-2.09.26-4.06,10.7-3.25,12.51s1.48,11.75,1.55,13.6a4.41,4.41,0,0,1-.8,2.93,2.29,2.29,0,0,0,.4-0.31,4.47,4.47,0,0,0,1.61-3.83C-8.24,38.7-8.86,28.87-9.72,26.95Z" transform="translate(73.64 108.33)"/><path class="cls-35" d="M-6.85,16.9A10.11,10.11,0,0,1-5,18.33a2.59,2.59,0,0,1,1.11.91s1.59,1.9,1.1,3.37a5.38,5.38,0,0,1,0,1.41,1,1,0,0,0-.47.34,3.93,3.93,0,0,0,.56.12,4.38,4.38,0,0,1,.58-1.25C-2.52,17.69-4.88,16.89-6.82,16a1.68,1.68,0,0,0-.71,1A2,2,0,0,1-6.85,16.9Z" transform="translate(73.64 108.33)"/><path class="cls-36" d="M98.34-95.83a227.32,227.32,0,0,0-120.27-7.83c-6.53,1.34-13,3-19.38,4.92q-2.28.69-4.55,1.43l-2.26.75c-0.37.12-2.18,0.49-2.3,0.84q-1.69,4.62-3.18,9.32A233.5,233.5,0,0,0-64.11-6.58,232.66,232.66,0,0,0-59,33.66q2.09,9.64,5,19.08,0.7,2.27,1.46,4.52l0.38,1.12a1.92,1.92,0,0,0,.8.33l2.61,0.91q4.69,1.6,9.44,3a227.31,227.31,0,0,0,80.65,8.33,225.46,225.46,0,0,0,39.84-6.65q9.6-2.5,19-5.86a6.2,6.2,0,0,0,.69-2q0.37-1.13.74-2.27,0.79-2.47,1.51-5,1.38-4.7,2.55-9.46A236.35,236.35,0,0,0,111-41.71,226.87,226.87,0,0,0,98.39-95.76a4.83,4.83,0,0,0-.25,1.3,6.53,6.53,0,0,0,.14,2.29,221.36,221.36,0,0,1,13.59,79.29,220.75,220.75,0,0,1-4.5,40.81q-2,9.92-5,19.63-0.69,2.29-1.43,4.56-0.37,1.13-.75,2.26c-0.24.7-2.06,1-2.68,1.23q-4.68,1.62-9.44,3A227.26,227.26,0,0,1,7.44,67.26a225.54,225.54,0,0,1-39.84-6.5q-9.6-2.46-19-5.78c-0.94-.33-1-1.22-1.32-2.07s-0.49-1.51-.73-2.26q-0.79-2.46-1.51-4.93-1.44-4.88-2.64-9.82a219.41,219.41,0,0,1-4.38-81A222,222,0,0,1-53-84.32q0.73-2.25,1.51-4.48,0.39-1.11.79-2.22A1.62,1.62,0,0,1-50-92.2l1.5-.51q4.7-1.6,9.47-3,9.61-2.8,19.46-4.72a227.88,227.88,0,0,1,81.59-1A224.43,224.43,0,0,1,98.34-92.1C98.25-92.13,99-95.61,98.34-95.83Z" transform="translate(73.64 108.33)"/><path class="cls-2" d="M-1,156.62a1.68,1.68,0,0,1-.47,1.23,1.64,1.64,0,0,1-1.23.48H-8.75a1.7,1.7,0,0,1-1.24-.48,1.66,1.66,0,0,1-.49-1.23V150.5h2.14v5.94h5.21v-5.75l-6.66-8a2.8,2.8,0,0,1-.69-1.83v-4.89a1.66,1.66,0,0,1,.49-1.23,1.7,1.7,0,0,1,1.24-.48h6.08a1.64,1.64,0,0,1,1.23.48A1.68,1.68,0,0,1-1,135.91v5.61H-3.12V136.1H-8.33v5.09l6.69,8A2.76,2.76,0,0,1-1,151v5.58Z" transform="translate(73.64 108.33)"/><path class="cls-2" d="M10.74,158.33H2.81V134.2h7.83v1.9H5v9h5.18V147H5v9.41h5.78v1.9Z" transform="translate(73.64 108.33)"/><path class="cls-2" d="M22,158.33H14.09V134.2h7.83v1.9H16.23v9h5.18V147H16.23v9.41H22v1.9Z" transform="translate(73.64 108.33)"/><path class="cls-2" d="M35.43,158.33H33.07l-5.57-11.6v11.6H25.36V134.2H27.5V145l5.06-10.84h2.33v0.14l-5.46,11.49Z" transform="translate(73.64 108.33)"/><path class="cls-2" d="M45.43,158.33H37.51V134.2h7.83v1.9H39.65v9h5.18V147H39.65v9.41h5.78v1.9Z" transform="translate(73.64 108.33)"/><path class="cls-2" d="M59,158.33H56.8l-4.49-12.92L52.6,145h3.82V136.1h-5.5v22.23H48.78V134.2h8.08a1.64,1.64,0,0,1,1.71,1.71v9.16q0,1.74-2.34,1.74l-0.68,0-0.65,0Q57,152.54,59,158.33Z" transform="translate(73.64 108.33)"/><line class="cls-37" x1="32.5" y1="222.04" x2="162.8" y2="222.04"/></svg>