<svg id="Layer_1" data-name="Layer 1" xmlns="http://www.w3.org/2000/svg" xmlns:xlink="http://www.w3.org/1999/xlink" viewBox="0 0 474.7 450.26"><defs><style>.cls-1,.cls-2,.cls-3{fill:#232625;stroke-width:5px;}.cls-1,.cls-2,.cls-3,.cls-4{stroke:#1d2120;stroke-linecap:round;stroke-linejoin:round;}.cls-1{opacity:0.6;}.cls-2{opacity:0.8;}.cls-4{fill:none;}.cls-5{fill:#5e5e5e;}.cls-6{fill:url(#linear-gradient);}.cls-7{fill:url(#linear-gradient-2);}.cls-8{fill:url(#linear-gradient-3);}.cls-9{fill:url(#linear-gradient-4);}.cls-10{fill:url(#linear-gradient-5);}.cls-11{fill:url(#linear-gradient-6);}.cls-12{fill:url(#linear-gradient-7);}.cls-13{fill:url(#linear-gradient-8);}.cls-14{fill:url(#linear-gradient-9);}.cls-15{fill:url(#linear-gradient-10);}.cls-16{fill:url(#linear-gradient-11);}.cls-17{fill:url(#linear-gradient-12);}.cls-18{fill:url(#linear-gradient-13);}.cls-19{fill:url(#linear-gradient-14);}.cls-20{fill:url(#linear-gradient-15);}.cls-21{fill:url(#linear-gradient-16);}.cls-22{fill:url(#linear-gradient-17);}.cls-23{fill:url(#linear-gradient-18);}.cls-24{fill:url(#linear-gradient-19);}.cls-25{fill:url(#linear-gradient-20);}.cls-26{fill:url(#linear-gradient-21);}.cls-27{fill:url(#linear-gradient-22);}.cls-28{fill:url(#linear-gradient-23);}.cls-29{fill:url(#linear-gradient-24);}.cls-30{fill:url(#linear-gradient-25);}.cls-31{fill:url(#linear-gradient-26);}.cls-32{fill:url(#linear-gradient-27);}.cls-33{fill:url(#linear-gradient-28);}.cls-34{fill:url(#linear-gradient-29);}.cls-35{fill:url(#linear-gradient-30);}.cls-36{fill:url(#linear-gradient-31);}.cls-37{fill:url(#linear-gradient-32);}.cls-38{fill:#f3f2e5;}.cls-39{fill:#93928b;}</style><linearGradient id="linear-gradient" x1="-14.59" y1="30.27" x2="-7.06" y2="30.27" gradientUnits="userSpaceOnUse"><stop offset="0" stop-color="#d2d1c6"/><stop offset="1" stop-color="#92928a"/></linearGradient><linearGradient id="linear-gradient-2" x1="-17.64" y1="34.43" x2="-15.24" y2="34.43" xlink:href="#linear-gradient"/><linearGradient id="linear-gradient-3" x1="-8.79" y1="36.44" x2="-2.83" y2="36.44" xlink:href="#linear-gradient"/><linearGradient id="linear-gradient-4" x1="-6.79" y1="40.43" x2="-5.64" y2="40.43" xlink:href="#linear-gradient"/><linearGradient id="linear-gradient-5" x1="-9.55" y1="39.73" x2="-6.96" y2="39.73" xlink:href="#linear-gradient"/><linearGradient id="linear-gradient-6" x1="-12.79" y1="40.95" x2="-6.99" y2="40.95" xlink:href="#linear-gradient"/><linearGradient id="linear-gradient-7" x1="-35.32" y1="57.66" x2="3.15" y2="57.66" xlink:href="#linear-gradient"/><linearGradient id="linear-gradient-8" x1="-5.96" y1="47.95" x2="0.01" y2="47.95" xlink:href="#linear-gradient"/><linearGradient id="linear-gradient-9" x1="-8.48" y1="45.06" x2="-7.38" y2="45.06" xlink:href="#linear-gradient"/><linearGradient id="linear-gradient-10" x1="-7.29" y1="44.35" x2="-6" y2="44.35" xlink:href="#linear-gradient"/><linearGradient id="linear-gradient-11" x1="-5.82" y1="44.85" x2="-3.06" y2="44.85" xlink:href="#linear-gradient"/><linearGradient id="linear-gradient-12" x1="-2.76" y1="44.82" x2="-2.02" y2="44.82" xlink:href="#linear-gradient"/><linearGradient id="linear-gradient-13" x1="-1.74" y1="44.91" x2="-0.95" y2="44.91" xlink:href="#linear-gradient"/><linearGradient id="linear-gradient-14" x1="-0.72" y1="45.08" x2="0.94" y2="45.08" xlink:href="#linear-gradient"/><linearGradient id="linear-gradient-15" x1="1.06" y1="46.14" x2="2.55" y2="46.14" xlink:href="#linear-gradient"/><linearGradient id="linear-gradient-16" x1="1.01" y1="47.65" x2="3" y2="47.65" xlink:href="#linear-gradient"/><linearGradient id="linear-gradient-17" x1="-10.76" y1="66.17" x2="1.05" y2="66.17" xlink:href="#linear-gradient"/><linearGradient id="linear-gradient-18" x1="-1.34" y1="70.42" x2="2.35" y2="70.42" xlink:href="#linear-gradient"/><linearGradient id="linear-gradient-19" x1="-7.03" y1="73.15" x2="4.73" y2="73.15" xlink:href="#linear-gradient"/><linearGradient id="linear-gradient-20" x1="-35.09" y1="54.6" x2="-29.09" y2="54.6" xlink:href="#linear-gradient"/><linearGradient id="linear-gradient-21" x1="-38.28" y1="55.05" x2="-34.5" y2="55.05" xlink:href="#linear-gradient"/><linearGradient id="linear-gradient-22" x1="-40.98" y1="58.21" x2="-33.21" y2="58.21" xlink:href="#linear-gradient"/><linearGradient id="linear-gradient-23" x1="-40.77" y1="68.4" x2="-24.15" y2="68.4" xlink:href="#linear-gradient"/><linearGradient id="linear-gradient-24" x1="-23.26" y1="67.15" x2="-10.05" y2="67.15" xlink:href="#linear-gradient"/><linearGradient id="linear-gradient-25" x1="-22.24" y1="67" x2="-11.44" y2="67" xlink:href="#linear-gradient"/><linearGradient id="linear-gradient-26" x1="-22.82" y1="75.9" x2="-12.79" y2="75.9" xlink:href="#linear-gradient"/><linearGradient id="linear-gradient-27" x1="-16.75" y1="87.11" x2="-11.85" y2="87.11" xlink:href="#linear-gradient"/><linearGradient id="linear-gradient-28" x1="-15.44" y1="92.26" x2="-12.14" y2="92.26" xlink:href="#linear-gradient"/><linearGradient id="linear-gradient-29" x1="-5.52" y1="94.54" x2="3.51" y2="94.54" xlink:href="#linear-gradient"/><linearGradient id="linear-gradient-30" x1="-36.86" y1="69.45" x2="-36.73" y2="69.45" xlink:href="#linear-gradient"/><linearGradient id="linear-gradient-31" x1="-25.44" y1="71.3" x2="-25.32" y2="71.3" xlink:href="#linear-gradient"/><linearGradient id="linear-gradient-32" x1="-36.73" y1="85.68" x2="-5.72" y2="85.68" xlink:href="#linear-gradient"/></defs><title>LuduanProcess</title><polygon class="cls-1" points="237.35 447.56 2.5 379 2.5 78.72 237.35 141.56 237.35 447.56"/><polygon class="cls-2" points="237.35 447.56 472.2 379 472.2 78.72 237.35 141.56 237.35 447.56"/><polygon class="cls-2" points="237.35 141.56 472.2 78.73 234.64 2.5 2.5 78.72 237.35 141.56"/><polyline class="cls-3" points="339.62 139.23 339.62 115.31 339.62 139.83 464.09 230.22"/><polyline class="cls-3" points="329.42 141.99 329.42 118.04 329.42 142.59 453.89 233.17"/><polyline class="cls-3" points="319.94 144.55 319.94 120.56 319.94 145.15 444.42 235.91"/><polyline class="cls-3" points="309.74 147.31 309.74 123.29 309.74 147.91 434.22 238.86"/><polyline class="cls-3" points="300.27 149.87 300.27 125.82 300.27 150.48 424.75 241.6"/><polyline class="cls-3" points="290.07 152.63 290.07 128.54 290.07 153.24 414.55 244.55"/><polyline class="cls-3" points="279.87 155.39 279.87 131.26 279.87 156 404.35 247.5"/><polyline class="cls-3" points="270.4 157.95 270.4 133.79 270.4 158.56 394.87 250.24"/><polyline class="cls-3" points="260.2 160.71 260.2 136.51 260.2 161.32 384.67 253.19"/><polyline class="cls-3" points="250.73 163.27 250.73 139.04 250.73 163.88 375.2 255.93"/><polyline class="cls-3" points="240.53 166.03 240.53 141.77 240.53 166.64 365 258.88"/><polyline class="cls-3" points="365.12 132.33 365.12 108.51 365.12 132.93 240.64 294.85"/><polyline class="cls-3" points="374.59 129.77 374.59 105.98 374.59 130.37 250.11 292.11"/><polyline class="cls-3" points="384.79 127.01 384.79 103.25 384.79 127.61 260.31 289.16"/><polyline class="cls-3" points="394.99 124.25 394.99 100.53 394.99 124.85 270.51 286.21"/><polyline class="cls-3" points="404.46 121.69 404.46 98 404.46 122.28 279.99 283.47"/><polyline class="cls-3" points="414.66 118.93 414.66 95.28 414.66 119.53 290.19 280.52"/><polyline class="cls-3" points="424.13 116.37 424.13 92.75 424.13 116.96 299.66 277.78"/><polyline class="cls-3" points="434.33 113.61 434.33 90.03 434.33 114.2 309.86 274.83"/><polyline class="cls-3" points="444.53 110.85 444.53 87.31 444.53 111.44 320.06 271.88"/><polyline class="cls-3" points="454 108.29 454 84.78 454 108.88 329.53 269.14"/><polyline class="cls-3" points="464.2 105.53 464.2 82.05 464.2 106.12 339.73 266.19"/><polyline class="cls-3" points="365.12 384.68 365.12 408.95 365.12 384.53 240.64 294.38"/><polyline class="cls-3" points="374.59 381.76 374.59 406 374.59 381.61 250.11 291.64"/><polyline class="cls-3" points="384.79 378.62 384.79 402.82 384.79 378.47 260.31 288.69"/><polyline class="cls-3" points="394.99 375.48 394.99 399.65 394.99 375.33 270.51 285.74"/><polyline class="cls-3" points="404.46 372.56 404.46 396.7 404.46 372.42 279.99 283"/><polyline class="cls-3" points="414.66 369.42 414.66 393.52 414.66 369.28 290.19 280.05"/><polyline class="cls-3" points="424.13 366.51 424.13 390.57 424.13 366.36 299.66 277.31"/><polyline class="cls-3" points="434.33 363.37 434.33 387.39 434.33 363.22 309.86 274.37"/><polyline class="cls-3" points="444.53 360.23 444.53 384.22 444.53 360.08 320.06 271.42"/><polyline class="cls-3" points="454 357.31 454 381.27 454 357.16 329.53 268.68"/><polyline class="cls-3" points="464.2 354.17 464.2 378.09 464.2 354.02 339.73 265.73"/><polyline class="cls-3" points="339.62 392.53 339.62 416.89 339.62 392.38 464.09 229.77"/><polyline class="cls-3" points="329.42 395.67 329.42 420.07 329.42 395.52 453.89 232.72"/><polyline class="cls-3" points="319.94 398.58 319.94 423.02 319.94 398.43 444.42 235.46"/><polyline class="cls-3" points="309.74 401.72 309.74 426.2 309.74 401.57 434.22 238.4"/><polyline class="cls-3" points="300.27 404.64 300.27 429.15 300.27 404.49 424.75 241.14"/><polyline class="cls-3" points="290.07 407.78 290.07 432.33 290.07 407.63 414.55 244.09"/><polyline class="cls-3" points="279.87 410.92 279.87 435.5 279.87 410.77 404.35 247.04"/><polyline class="cls-3" points="270.4 413.83 270.4 438.45 270.4 413.69 394.87 249.78"/><polyline class="cls-3" points="260.2 416.98 260.2 441.63 260.2 416.82 384.67 252.73"/><polyline class="cls-3" points="250.73 419.89 250.73 444.58 250.73 419.74 375.2 255.47"/><polyline class="cls-3" points="240.53 423.03 240.53 447.76 240.53 422.88 365 258.42"/><polyline class="cls-3" points="134.62 139.19 134.62 115.27 134.62 139.79 10.14 230.18"/><polyline class="cls-3" points="144.82 141.94 144.82 117.99 144.82 142.55 20.34 233.13"/><polyline class="cls-3" points="154.29 144.51 154.29 120.52 154.29 145.11 29.82 235.87"/><polyline class="cls-3" points="164.49 147.27 164.49 123.24 164.49 147.87 40.02 238.82"/><polyline class="cls-3" points="173.96 149.83 173.96 125.77 173.96 150.43 49.49 241.56"/><polyline class="cls-3" points="184.16 152.59 184.16 128.5 184.16 153.19 59.69 244.51"/><polyline class="cls-3" points="194.36 155.35 194.36 131.22 194.36 155.95 69.89 247.46"/><polyline class="cls-3" points="203.83 157.91 203.83 133.75 203.83 158.51 79.36 250.2"/><polyline class="cls-3" points="214.03 160.67 214.03 136.47 214.03 161.27 89.56 253.15"/><polyline class="cls-3" points="223.5 163.23 223.5 139 223.5 163.84 99.03 255.89"/><polyline class="cls-3" points="233.7 165.99 233.7 141.72 233.7 166.6 109.23 258.84"/><polyline class="cls-3" points="109.12 132.29 109.12 108.46 109.12 132.89 233.59 294.81"/><polyline class="cls-3" points="99.65 129.73 99.65 105.93 99.65 130.32 224.12 292.06"/><polyline class="cls-3" points="89.45 126.97 89.45 103.21 89.45 127.56 213.92 289.12"/><polyline class="cls-3" points="79.25 124.21 79.25 100.49 79.25 124.8 203.72 286.17"/><polyline class="cls-3" points="69.77 121.65 69.77 97.96 69.77 122.24 194.25 283.43"/><polyline class="cls-3" points="59.57 118.89 59.57 95.24 59.57 119.48 184.05 280.48"/><polyline class="cls-3" points="50.1 116.33 50.1 92.71 50.1 116.92 174.57 277.74"/><polyline class="cls-3" points="39.9 113.57 39.9 89.98 39.9 114.16 164.38 274.79"/><polyline class="cls-3" points="29.7 110.81 29.7 87.26 29.7 111.4 154.18 271.83"/><polyline class="cls-3" points="20.23 108.25 20.23 84.73 20.23 108.84 144.7 269.1"/><polyline class="cls-3" points="10.03 105.49 10.03 82.01 10.03 106.08 134.5 266.15"/><polyline class="cls-3" points="109.12 384.63 109.12 408.91 109.12 384.48 233.59 294.33"/><polyline class="cls-3" points="99.65 381.71 99.65 405.96 99.65 381.57 224.12 291.6"/><polyline class="cls-3" points="89.45 378.57 89.45 402.78 89.45 378.43 213.92 288.65"/><polyline class="cls-3" points="79.25 375.44 79.25 399.6 79.25 375.29 203.72 285.7"/><polyline class="cls-3" points="69.77 372.52 69.77 396.65 69.77 372.37 194.25 282.96"/><polyline class="cls-3" points="59.57 369.38 59.57 393.48 59.57 369.23 184.05 280.01"/><polyline class="cls-3" points="50.1 366.46 50.1 390.53 50.1 366.32 174.57 277.27"/><polyline class="cls-3" points="39.9 363.32 39.9 387.35 39.9 363.18 164.38 274.32"/><polyline class="cls-3" points="29.7 360.18 29.7 384.17 29.7 360.04 154.18 271.37"/><polyline class="cls-3" points="20.23 357.27 20.23 381.22 20.23 357.12 144.7 268.63"/><polyline class="cls-3" points="10.03 354.13 10.03 378.05 10.03 353.98 134.5 265.68"/><polyline class="cls-3" points="134.62 392.48 134.62 416.85 134.62 392.33 10.14 229.72"/><polyline class="cls-3" points="144.82 395.62 144.82 420.03 144.82 395.47 20.34 232.67"/><polyline class="cls-3" points="154.29 398.54 154.29 422.98 154.29 398.39 29.82 235.41"/><polyline class="cls-3" points="164.49 401.68 164.49 426.15 164.49 401.53 40.02 238.36"/><polyline class="cls-3" points="173.96 404.6 173.96 429.1 173.96 404.44 49.49 241.1"/><polyline class="cls-3" points="184.16 407.74 184.16 432.28 184.16 407.58 59.69 244.05"/><polyline class="cls-3" points="194.36 410.88 194.36 435.46 194.36 410.73 69.89 247"/><polyline class="cls-3" points="203.83 413.79 203.83 438.41 203.83 413.64 79.36 249.74"/><polyline class="cls-3" points="214.03 416.93 214.03 441.58 214.03 416.78 89.56 252.69"/><polyline class="cls-3" points="223.5 419.85 223.5 444.54 223.5 419.7 99.03 255.43"/><polyline class="cls-3" points="233.7 422.99 233.7 447.71 233.7 422.84 109.23 258.37"/><path class="cls-4" d="M-12.68-26" transform="translate(250.03 200.03)"/><path class="cls-4" d="M10.5-65" transform="translate(250.03 200.03)"/><path class="cls-4" d="M-1.68-14.78" transform="translate(250.03 200.03)"/><path class="cls-4" d="M21.5-68" transform="translate(250.03 200.03)"/><polygon class="cls-3" points="110.23 264.84 238.35 433.66 366 264.88 238.37 168.58 110.23 264.84"/><path class="cls-5" d="M-32.06,27.11q-4.52.89-9,2.17-2.19.64-4.36,1.37l-0.69.24a0.75,0.75,0,0,0-.33.54l-0.36,1q-0.36,1-.69,2.06a102.15,102.15,0,0,0-4.11,18,101,101,0,0,0,2,37.29q0.56,2.27,1.21,4.52,0.34,1.14.7,2.27l0.34,1a1.18,1.18,0,0,0,.61,1q4.3,1.52,8.72,2.66a103.76,103.76,0,0,0,18.33,3,104.56,104.56,0,0,0,37.11-4q2.19-.65,4.34-1.39a2.26,2.26,0,0,0,1.23-.56l0.35-1q0.34-1,.66-2.1,1.35-4.46,2.29-9a101.56,101.56,0,0,0,2.07-18.78,101.84,101.84,0,0,0-6.24-36.45A103.25,103.25,0,0,0,5.48,26.64,104.84,104.84,0,0,0-32.06,27.11Z" transform="translate(250.03 200.03)"/><path class="cls-6" d="M-14.59,33.22s0.14-5.32,4.81-6.4c0,0,3.53-.59,2.55,2.19a3.55,3.55,0,0,1-.92.75,3.41,3.41,0,0,0-1.37,3.38,2.12,2.12,0,0,0-1.9.62S-11.28,31.15-14.59,33.22Z" transform="translate(250.03 200.03)"/><path class="cls-7" d="M-17.38,35.68s-1-2.18.78-2.63,1.51,1.37.95,1.49a1.35,1.35,0,0,0-1,1A0.39,0.39,0,0,1-17.38,35.68Z" transform="translate(250.03 200.03)"/><path class="cls-8" d="M-8.71,34a4,4,0,0,1,1.31.63c0.29,0.33.54-.48,2.61,2A4,4,0,0,0-3.4,37.76c0.73,0.28.89,1.55-.3,1a3,3,0,0,1-2.52-.58c-1.29-.79-1-1.25-0.83-1.53s0-.24-0.16-0.3a2.72,2.72,0,0,1-.63-1.16,0.88,0.88,0,0,0-.72-0.67C-8.8,34.31-8.86,34-8.71,34Z" transform="translate(250.03 200.03)"/><path class="cls-9" d="M-6.79,41s0.13-1.1.74-1.14c0,0,.6-0.1.35,0.35S-5.9,40-6.79,41Z" transform="translate(250.03 200.03)"/><path class="cls-10" d="M-9.33,39.59s0.36-.09.23,0.64a0.61,0.61,0,0,0,.3.2,1,1,0,0,1,.66.46c0,0.2,1.59,0,1.07-1a1.25,1.25,0,0,0-1.16-1.12s-0.15-.58-1.1,0A0.54,0.54,0,0,0-9.33,39.59Z" transform="translate(250.03 200.03)"/><path class="cls-11" d="M-10.29,39s0.44-.31.44,0.17,0,0.32.25,0.57,0,0.39.13,0.79a2,2,0,0,0,2,.81c0.88-.2.31,0.86,0,0.85a0.31,0.31,0,0,1,.13.28A2.81,2.81,0,0,1-8.64,43l-2.25-.06a2.27,2.27,0,0,1-1.79-1.25c-0.35-1.07.23-.71,0.38-0.89S-13,40.8-10.29,39Z" transform="translate(250.03 200.03)"/><path class="cls-12" d="M2.94,45.44a2,2,0,0,1-.62-1,1.3,1.3,0,0,0-.09-1.27c-0.42-.37-0.86-1.83-0.82-1.36a3.18,3.18,0,0,0,.43,1.1c0.57,1.1-.53.84-0.53,0.84-1.78-2,1.11-2.53-.18-4.17-2-2.24-5.09-.11-5.53.92S-3.21,42.13-3,42.1a1.58,1.58,0,0,0,1.08-.4C-1.78,41.39-2,41.45-2,41.45c-0.84.34-1.07-.06-1.13-0.35a0.33,0.33,0,0,1,.19-0.31c1.93-.5,1,1,1.4,1.19s-0.16,1-.35,1.07a1.62,1.62,0,0,1-1.4-.21,4,4,0,0,0-1.56-1.15c-1.08-.64-2.84,1.92-3.71,1.88a11.91,11.91,0,0,1-2.6-.11A5.37,5.37,0,0,0-14,42.15a1.14,1.14,0,0,0-.39-0.62c-0.05-.25-0.21-0.47,0-0.55a0.4,0.4,0,0,0,.28-0.43,0.31,0.31,0,0,1,.25-0.33A9.67,9.67,0,0,1-12,38.89a2.21,2.21,0,0,1,1.1-.56,9.35,9.35,0,0,0,1.34-.43c0.3-.08.26,0.14,0.26,0.14,0.6-.08,1.93-1.4,1.49-1.78s-0.1-.82-0.64-1.22-0.4-.67-0.92-1a0.77,0.77,0,0,0-1,.26,5.26,5.26,0,0,1-1.55,1.12c-2,.65-1.67-0.12-1.34-0.53a5.84,5.84,0,0,1,.81-1.08c0.28-.82-0.53-0.87-1.44-0.2a7.63,7.63,0,0,0-1.55,1.67c-1.21.67-.63,0.83-1.65,1.44S-17.88,38-18.8,38.89s-0.88.2-.88,0.2a12.68,12.68,0,0,1,2-2.73s-1.93.93-3.64,4.61-0.6,3-.93,3.31a1,1,0,0,0,0,1.18,1.29,1.29,0,0,1,.53.42s0.23,0.37.28,0a4.76,4.76,0,0,1,.88-1.34,0.88,0.88,0,0,0,0-.79c-0.14-.65-0.7,0-0.7,0-0.21-1,1.07-1.18,1.11-.19a3.86,3.86,0,0,1-1.18,2.9c-1,1.14,0,2.36.46,3.31a3.14,3.14,0,0,1,0,2.2c3.22-.49,2.83,2.16,2.83,2.16-1,1.92-4,2.55-4.17.67s1.65-2.73,2.55-1.58-1.58,1.92-1.69,1.25,0.19-.49.19-0.49c1.23,0.65,1.6-1.27.14-.86a1,1,0,0,0-.58,1.71,2,2,0,0,0,1.92,0c1.65-1.34.21-2.29,0.21-2.29-2.27-.83-3.24,1.78-3.24,1.78a3.18,3.18,0,0,1-1-3.22c0.21-.46.83-1.23,1.44-0.21a1,1,0,0,1-.63,1.65c-0.35-.07-0.12-0.28-0.12-0.28a1,1,0,0,0,.12-1.09c-0.3-.63-0.56.16-0.56,0.16-0.19,3.43,2.06.83,2.06,0.83,1-2.87-.67-2.71-0.67-2.71-2.48,0-2.32,3.62-2.32,3.62-3.66,2.62-3.48,1.78-4,2.62a9.3,9.3,0,0,1-1.85,1.85c0-.19-0.25,0-0.25,0a1,1,0,0,0-.51-1.07A3.31,3.31,0,0,0-34.31,56c-2.2,1.27-.25,2.9.71,3.11s2.65-.28,2.42-1.69-1.55-1.3-1.88-.67,0.37,0.81.7,0.67a0.72,0.72,0,0,0,.28-0.67c0.51,0,.32.72,0.32,0.72-0.67,1.25-3.13-.9-1-1.34s1.95,2.39,1.95,2.39c2.87-2.22,2.73-1.67,3.66-2.57a21.63,21.63,0,0,1,3.29-2.22c0.07,0.14.14,0.3,0.14,0.3-1.41.49-4.82,3.71-4.91,4s-1,1.11-1.09,1.5a19,19,0,0,1-1.09,1.85c0.14,0.74.58-.25,1-0.63s1.48-1.21,1.48-1.21c2-3,2.29-2.18,3.27-3.06a8.55,8.55,0,0,1,1.85-1.3,2.51,2.51,0,0,0,.65,1.06c-0.15-.06-0.73,0-1.7,1a16.92,16.92,0,0,1-1.44,1.25,3.16,3.16,0,0,1-.72,1.21,2.28,2.28,0,0,0-.51,1.16,16.56,16.56,0,0,1-.74,3.55c3.68-3.06,1.71-3.31,2.69-3.73s1.9-2.13,3.13-2.83,1.39-.46,1.39-0.46a1,1,0,0,0-.37,1s0.49,0.86-1.53,3.22-0.25,2.85-.25,2.85a2.6,2.6,0,0,1,1.69-2c3.31-1.41,3.85-2.94,4.22-3.45a4.17,4.17,0,0,1,.93-0.88,6.71,6.71,0,0,1,0,1,0.57,0.57,0,0,0,.21.39c-0.09,2.09-1.32,3-2.11,4.12,0,2.29,1.14,2.41,1.16,2.34s-1.14-.51,1.65-2.16,3.78-2.85,3.62-3.71a3.79,3.79,0,0,1,.07-1.62,6.65,6.65,0,0,1,.7,1.21,3.15,3.15,0,0,1,.21,1.37c4.31,13.67-.19,19.14-0.79,20s-0.14,1.16-.14,1.16C-2,79.94-3.76,69.28-4.81,66.87a16.86,16.86,0,0,1-1.08-6.6c0.09-1,.62-1,0.3-1.4,0.57-.71.4-0.88,0.25-1A6.87,6.87,0,0,0-4,55.37c0.16-.39-0.28-0.91.16-1.6a7.88,7.88,0,0,0,.35-2.89,2.81,2.81,0,0,1,2.14-2.16c1.78-.37,2.89,1.76,2.92,2.85a12.84,12.84,0,0,1-.48,2.7,6.43,6.43,0,0,1-.19,2.52,3.24,3.24,0,0,0,.69,2.8C2,60,2.05,60,1.45,58.1s-0.08-3,.37-5.13-0.18-2.91-.32-3.2c-1.89-2.87-4.66-1-5.31-.47a3.52,3.52,0,0,1-3.06.19c-3-1-4.25-.33-4.52-0.13a0.37,0.37,0,0,1-.49,0c-5.87,3.34-6.89-.42-7-0.81s0.09-.42.09-0.42c-0.87-2,1-3.71,2.75-3.63s1.68,1,2.63,1a3.85,3.85,0,0,1,1.74.57c1.71,0.15,1.5-.12,2.41-0.64a7.53,7.53,0,0,0,1.76-1.6c2.12-1.74,2.82-.83,3-0.68a5.27,5.27,0,0,0,1.29.67A7.56,7.56,0,0,1-2,44.34c1.29,0.29,1.56-.5,2-0.37s1.2,1.21,1.69,1.34A3.47,3.47,0,0,1,2.8,46C3.19,46.31,3.28,45.75,2.94,45.44Zm-19.87,9.42c0.71-1,1.58-2,3.92-1.3,0,0,1.78.57,1.49,1.7a0.3,0.3,0,0,0,.41.27c0.38-.11.24-0.77,0.2-0.83s2.33-2.94,4.29-1.51a1,1,0,0,1,.32,1.36c-0.39.93,0.09,0.63-1.1,1.25s-2,.27-2.29-0.39a1.61,1.61,0,0,1,2.38-1.55,0.55,0.55,0,0,1,0,.65,1.57,1.57,0,0,0-.45.45c-0.09.2-.93-0.08-0.5-0.44,0,0,.36,0,0.26-0.27s-0.81-.21-0.89.21,0.33,1.49,1.73.75,0.08-2-.29-2a2.65,2.65,0,0,0-2.86,1.72,5.63,5.63,0,0,0,0,1.14c0.08,0.27-.69,0-1.46.62-0.83.09,0.12,0.32-2.94,0.21,0,0-1.24-.14-0.77-1.63s2.74-1.07,2.71-.3a0.69,0.69,0,0,1-1.19.51s0.56-.14.36-0.51a0.56,0.56,0,0,0-.93,0c-0.12.3-.26,1.78,2.2,1.19,0,0,1.19-2.06-1.39-2.5s-2.65,1.87-3.6,2.35-1.4.69-1.4,0.69A10.08,10.08,0,0,0-16.93,54.86Z" transform="translate(250.03 200.03)"/><path class="cls-13" d="M-4.66,48s0.24,0.47.58,0.14,3.52-2.68,3.91-1.22,0.12,1.13-.35,1-0.81-.54-4.14,1.38c0,0-1.32.38-1.3-.32,0,0,0-.38.26-0.38A1,1,0,0,1-5.46,48,0.52,0.52,0,0,1-4.66,48Z" transform="translate(250.03 200.03)"/><path class="cls-14" d="M-7.57,44.57S-7.3,44.63-7.4,45a0.84,0.84,0,0,1-1,.45c-0.14-.24.22-0.4,0.22-0.4Z" transform="translate(250.03 200.03)"/><path class="cls-15" d="M-7.29,44.3s-0.07.61,0.48,0.49,1-.18.74-0.88Z" transform="translate(250.03 200.03)"/><path class="cls-16" d="M-5.78,43.82S-6,44-5.17,45s0.86,1.17,1.19.78a7.6,7.6,0,0,1,.86-1c0.31-.28-0.46-0.95-0.73-1A6.75,6.75,0,0,0-5.78,43.82Z" transform="translate(250.03 200.03)"/><path class="cls-17" d="M-2.76,44.59a0.49,0.49,0,0,0,.21.46,1,1,0,0,0,.52,0s0.06-.34-0.1-0.35A1.13,1.13,0,0,0-2.76,44.59Z" transform="translate(250.03 200.03)"/><path class="cls-18" d="M-1.56,44.7s-0.4.26,0,.44A0.66,0.66,0,0,0-.95,44.7,2.52,2.52,0,0,0-1.56,44.7Z" transform="translate(250.03 200.03)"/><path class="cls-19" d="M-0.65,45a0.52,0.52,0,0,1,.27.29c0,0.14.24,0.13,0.35,0.05a1,1,0,0,1,.66.06c0.2,0.07.44-.17,0.25-0.3a2.85,2.85,0,0,0-1.31-.42C-0.74,44.8-.79,44.85-0.65,45Z" transform="translate(250.03 200.03)"/><path class="cls-20" d="M1.83,46.4a0.41,0.41,0,0,1,.29.22,0.22,0.22,0,0,0,.43-0.11,2.18,2.18,0,0,0-1.19-1c-0.08,0-.5.12-0.18,0.44A2,2,0,0,0,1.83,46.4Z" transform="translate(250.03 200.03)"/><path class="cls-21" d="M3,46.54a6.87,6.87,0,0,1-1.91,1.24S0.88,47.93,1.18,48a0.52,0.52,0,0,1,.48.63s0,0.32.29,0a2,2,0,0,0,1-1.35C3.06,46.34,3,46.54,3,46.54Z" transform="translate(250.03 200.03)"/><path class="cls-22" d="M0.75,53.39A1.45,1.45,0,0,0,1,52.09a1.58,1.58,0,0,0-.36-0.91,1.87,1.87,0,0,0-3-.92,2.83,2.83,0,0,0-.67.59,2.62,2.62,0,0,0,.12,1.4,1.46,1.46,0,0,1,0,1.24,6,6,0,0,0-.9,2.74c-0.07,1.26-1.51,1.86-1.5,3.94S-3.69,68.77-3,71c0,0,1.33,10-7.79,11.34,0,0,7.34,1.48,10.47-5,2.72-5.65.48-6.59-1.95-17.12a9.83,9.83,0,0,0-.93-2.55s-0.51-.82.53-2.08S-1,53.41.52,53.72C0.52,53.72,1.23,54,.75,53.39Z" transform="translate(250.03 200.03)"/><path class="cls-23" d="M-1.3,60.94s3.06,8.72,2.66,12.44A11.16,11.16,0,0,1-1.3,79.85C-1.85,80.36,3.84,77,2,69.38S-1.3,60.94-1.3,60.94Z" transform="translate(250.03 200.03)"/><path class="cls-24" d="M-1.63,56.26A1.73,1.73,0,0,1-.44,54.08c1.72-.71,1.23,2.4.94,2.85A3.3,3.3,0,0,0,.8,60.23c0.92,1,1.38,1.34,1.66,5.22,0,0-.14,2.3,1.27,3.06s1.09,6.37.43,7.44-2.3,3.23-2.26,5.9S2.1,86,1.51,87.27s0,4.62.5,4.85c0,0-1-.23-0.92-2.55a0.28,0.28,0,0,0-.49,0C0.34,90-.62,89.74-1,89.37s-1-.72-0.9-0.29a2.66,2.66,0,0,1,.49,1.46s0.14,0.39.37-.1,0-.72.29-0.27-0.49,2.82-4.11,2A0.74,0.74,0,0,1-5,91.26a8.32,8.32,0,0,0-.74-4.54c-0.7-.9.58-0.53-1.25-3.93,0,0-.39-0.37,1.46-0.43S1.81,78.93,1.9,77c0,0,.12,2.32-3,4.71A3.89,3.89,0,0,0-2.54,85c0.21,2.08.31,1.48,0.18,2.38a1.28,1.28,0,0,0,.35.39A10.72,10.72,0,0,1-.93,88.88,1.56,1.56,0,0,0,.9,88.82,2.47,2.47,0,0,1,1,87.69a1.9,1.9,0,0,1-2.68-1.23s1.75,1.79,2.86.66a6.27,6.27,0,0,1,.25-1.4s-0.64,1.19-3.14-.86a2.53,2.53,0,0,1,1.13.47c1,0.53,2.38.29,2.18-.66s-0.41-4.34.33-5A16.07,16.07,0,0,1,.28,81a19.67,19.67,0,0,0,1.91-2.34c0.31-.62,2.51-4.15,2-8a7.38,7.38,0,0,0-2.1-2.9,14.78,14.78,0,0,1-.9-4.27,1.1,1.1,0,0,0-.37-0.78" transform="translate(250.03 200.03)"/><path class="cls-25" d="M-35.09,54.28a1.15,1.15,0,0,0,1.37,1.23c1.51,0,2.59,0,3.68,1.31,0,0-.07.44,0.29,0a4,4,0,0,1,.66-0.62l-1-.1a3,3,0,0,1-.52-0.25,5.71,5.71,0,0,0-1.55-.66c-0.32,0-.5-0.88-1.06-1.47s-0.18-1.16-1.29-1.57C-34.51,52.19-35,52.08-35.09,54.28Z" transform="translate(250.03 200.03)"/><path class="cls-26" d="M-38,53.41s-0.62,1.31-.08,2,2,1.51,2.41,1.15a2.41,2.41,0,0,1,1.1-.72s0.16-.22-0.06-0.19S-35,56-38,53.41Z" transform="translate(250.03 200.03)"/><path class="cls-27" d="M-41,55.78a0.92,0.92,0,0,0,.28.71,14.3,14.3,0,0,1,2.21,2.05,2.22,2.22,0,0,1,1.21,1,3.76,3.76,0,0,0,1.36.37c0.36,0.08,1.33,1,1.93.63a2.1,2.1,0,0,0,.77-0.8s0.12-.4-0.39-0.31a3.11,3.11,0,0,1-2.16-1.78C-36,56.81-36.66,56.58-41,55.78Z" transform="translate(250.03 200.03)"/><path class="cls-28" d="M-31.48,58.8a31.09,31.09,0,0,0-2.9,2.38,0.52,0.52,0,0,1-.4,0,2.93,2.93,0,0,0-2.43-1s-1-.36-3.54.68c0,0-.17.29,0.39,0.62s3,1.53,3.65,1.42c0,0-.17.66,0.33,0.37A8.86,8.86,0,0,0-36.85,68c0.5,2.47,2.36,1.75,3.34,5.1A9.23,9.23,0,0,0-29.6,78c0.07,0.1.25-.42-0.88-1.73-0.64-1.94-2.27-5.41-3.24-5.65a5.65,5.65,0,0,1-2.52-6.37S-35,61.58-33.66,61c0,0-.56.74,0,0.53s0.75-.66,1.13-0.37a1.11,1.11,0,0,1,.42,1c0,0.32,0,.64,0,1.19s-0.34.69,0,1.3a2.37,2.37,0,0,1,.34,2.07,2.17,2.17,0,0,1-1,1.43c-0.53.29,0.2,0.53-1.11,1.35,0,0-2.15-1-2-4.41a2.08,2.08,0,0,1,.68-1.17,4.33,4.33,0,0,0,.66,4.7,0.77,0.77,0,0,0,1.29-.24,0.6,0.6,0,0,1,.35-0.64,1.37,1.37,0,0,0,.78-1.17,3.73,3.73,0,0,0-.42-1.94,0.82,0.82,0,0,1,0-1c0.06-.24.43-1.77-0.71-1.64s-1.35.05-1.14,0.66,1.35,0.34,1.25,1a4,4,0,0,0,0,1.94,2,2,0,0,1-1.57,2c-0.74.17-.93-2.28-0.45-2.68l0.48-.32s0.26,0.13.11,0.88c0,0-.3-0.37-0.41-0.05a1.21,1.21,0,0,0,.41,1.65s1.11-.08.87-1.67c0,0,.48-2-0.24-1.59,0,0-.87-1.09-1.22-0.77s-2.87,4,1.43,7a2.13,2.13,0,0,0,1-1.51s0.9,0.53,1.11-1.17c0,0-.16.21,0.53,1s0.45,1.12,1.3,1.22a2.32,2.32,0,0,1,1.11,1c0.64,0.85,1.54.32,2,.08s0.58-.24.93-0.42-0.16-.08.45-0.9-0.4-1.3.58-2.47,0.41-3.16-1.11-2.95a2.84,2.84,0,0,0-.93.77c-0.27.42-.69,0-1-0.05a2.94,2.94,0,0,0-1.62,1.51c-0.5.93,0.77,2.68,1.65,2s-0.13-2.1-.58-1.19c0,0-.29-0.58.11-0.8s1.57,0.4,1.06,1.78a3.4,3.4,0,0,1-.64.93c-0.24.13-.45,0.21-0.56,0a2.13,2.13,0,0,0-1-.9c-0.42-.08-0.72-1.88-0.13-2.47s2-2.13,2-2.13l0.2-.88a4.07,4.07,0,0,0-1.31,1.15c-0.45.69-1.51,1.54-1.75,2.1a1.33,1.33,0,0,0-.13,1.51,2.23,2.23,0,0,0,1,1.14,4.51,4.51,0,0,1,1,1.17c0.35,0.27,1.09-.35,1.33-0.35a1,1,0,0,0,1.14-.82,3.1,3.1,0,0,1,.35-1.94c0.35-.37.77-1-0.08-1.38a1.58,1.58,0,0,0-1.3.64,1.12,1.12,0,0,0-1.43.13c-0.53.69-.23,1.57,0.4,1.51,0,0,.21.4-0.4,0.24a1.25,1.25,0,0,1-.24-2c0.66-.66.64-0.93,1.75-0.53A4.17,4.17,0,0,0-26,64.47a0.81,0.81,0,0,1,1.22.56c0,0.56.32,0.8,0,1.38a4.71,4.71,0,0,0-.69,2A2.5,2.5,0,0,1-26,69.75a4,4,0,0,0-1.35.72s-0.37.37-1-.29-0.92-1.43-1.73-1.51-0.69-.88-0.69-1.38-0.05-.8-0.05-1.22a3.52,3.52,0,0,1,1.27-1.73,2.67,2.67,0,0,0,.8-1C-28.67,63.22-27,62-27,61.93s0.08-.53.08-0.53a8.74,8.74,0,0,0-2.58,2.38c-1.49,1.86-1.11.66-1.7,2.12a11.39,11.39,0,0,0-.19-1.41,1.81,1.81,0,0,1,0-1.54c0.32-.88.55-2.42-1.49-2.18,0,0,.29,0,0.46-0.88Z" transform="translate(250.03 200.03)"/><path class="cls-29" d="M-13.75,63.15a2.76,2.76,0,0,0,1.06,1.19A7.7,7.7,0,0,0-11,65.74c0.87,0.45-.23,2.79-1.1,2.84s-0.62.84-1,1.1-1.09,2-4.6.42-1.37-.89-2.89-1a2.44,2.44,0,0,1-2.17-2.74c0.22-1.12,2-1.59,3.31-1.17a1.51,1.51,0,0,0,1.9-.44s-0.08-.48-0.08-0.48a1.12,1.12,0,0,1-1.31.62c-1-.18-2.86-0.55-3.68.45a2.54,2.54,0,0,0-.25,3.09,3.53,3.53,0,0,0,3.11,1.36,3.29,3.29,0,0,0,1.74,1s0.21,0.75,1.91.57a4.45,4.45,0,0,0,2,.1c0.7-.23,1.3.17,2.07-2.24,0,0,1.54-.17,1.87-1.09S-10.12,65-11,64.84a4.12,4.12,0,0,1-2.19-2.05Z" transform="translate(250.03 200.03)"/><path class="cls-30" d="M-15.68,64.37a2,2,0,0,0,1,1.12,1.68,1.68,0,0,1-.13,2.69,3.66,3.66,0,0,1-3.51.28c-1.94-.69-1.07-2.83-0.59-2.53a0.91,0.91,0,0,0,.67.42,0.8,0.8,0,0,0-.54.22C-18.95,66.8-19,68-17.29,68s2.26,0,2.59-.8-0.4-1.61-.87-2c0,0,1.29,2.19-.59,2.44,0,0,1.71-1.19-.08-2.16,0,0,1.12,1-.05,1.68,0,0,.63-1.3-0.2-1.16,0,0,.43.41,0.13,0.59s0.15-.43-0.57,0c0,0,0-.33-0.7-0.17,0,0-.32-1.3-3-0.89a1.76,1.76,0,0,0-1.61,1.29c-0.13,1.15,1,1.77,3,1.74,0,0,3.36,3.06,5.92.75,0,0-.1-1.24.42-1.34s1.89,0.12,1.29-1.24-0.84-1.2-1.09-1.29,0.3-.35-1.57-0.54a1.85,1.85,0,0,0-.59-1.07" transform="translate(250.03 200.03)"/><path class="cls-31" d="M-22.82,72.63a8.83,8.83,0,0,0,3,1.13,15,15,0,0,1,6.35,3.13c0.14,0.14.06,0.41,0.22,0.64a2.62,2.62,0,0,0,.44.35v1.29a3.87,3.87,0,0,0-1-1.78c-0.67-.56-1.2-1.92-6.73-3.36A6.64,6.64,0,0,1-22.82,72.63Z" transform="translate(250.03 200.03)"/><path class="cls-32" d="M-16.75,86.27s1.62,3,4.44,2c0,0,.14-4.21,0-5.29,0,0,.26,0,0.28-0.49s0.4,7.26,0,8.54a1.44,1.44,0,0,0-.43.68s0.21-.71-0.34-0.51A4.69,4.69,0,0,1-16.08,90s3.23,1.05,3.6.51-0.07-1.08.28-1.56-0.11-.2-0.59,0S-15.53,89.37-16.75,86.27Z" transform="translate(250.03 200.03)"/><path class="cls-33" d="M-12.54,92.56a21.38,21.38,0,0,1-2.9-.83,5.43,5.43,0,0,0,2.65,1.05C-11.49,92.81-12.54,92.56-12.54,92.56Z" transform="translate(250.03 200.03)"/><path class="cls-34" d="M2.44,94.42a0.8,0.8,0,0,0-.18-1.12s0.31-.57-0.93-1.19l-1.51-.67a7.59,7.59,0,0,1-.91.63c-0.15,0-.14.06-0.06,0.24a3.23,3.23,0,0,0-1.55.33H-4.49a1.34,1.34,0,0,1-.75-0.24,5.16,5.16,0,0,1-.25.86c-0.14.31,0.21,3,1.69,3.82a8.43,8.43,0,0,0,1.07.08,9.79,9.79,0,0,0,1.9.38A5.42,5.42,0,0,1,1,97.63a1.79,1.79,0,0,0,1.33-.42S3.57,97.54,3.5,97,3.87,95,2.44,94.42ZM-5.06,93c0.07-.32.2-0.21,0.2-0.21a1.19,1.19,0,0,0,.4.42c0.18,0.06.18-.2,0.18-0.2a2.58,2.58,0,0,1,1,0,1.17,1.17,0,0,0,.2.42,2.5,2.5,0,0,0-.54,1.33,4.49,4.49,0,0,0,.78,2C-5.14,96.61-5.13,93.32-5.06,93Zm4.87,4.17a3,3,0,0,1-1.12.08,1.59,1.59,0,0,1-.93-0.32c0-.16.36-0.78,0.35-1.11s0.17,0.39.38,0.27,0-.59-0.11-0.69A1.61,1.61,0,0,1-2,94.1c0.08-.61-0.1-0.84-0.36-0.8a0.59,0.59,0,0,1,.35-0.61c0.45-.31,1.46-0.1,1.41.63A0.63,0.63,0,0,1-1,94c-0.46.33,0.2,0.42,0.31,0.82a10.38,10.38,0,0,1,.14,1.59s-0.46.2-.11,0.54A0.71,0.71,0,0,0-.19,97C0,96.93-.19,97.17-0.19,97.17Zm2.12,0a3.39,3.39,0,0,1-1.14.15c-0.21,0-.29-0.28,0-0.41s0.21-.54,0-0.84a2.14,2.14,0,0,1-.22-0.93c0.63-.35,0-1.06.1-1S1,94.15.92,94a4,4,0,0,0-.6-0.54A1.59,1.59,0,0,0,.25,92.6l0.38-.35a0.56,0.56,0,0,0,.4.17,0.75,0.75,0,0,1,.49.73,0.52,0.52,0,0,0,.21.35,1.31,1.31,0,0,0-.06.71,0.55,0.55,0,0,0-.14.88A2.58,2.58,0,0,1,1.93,97.18Zm1.26-.5a0.36,0.36,0,0,1-.35.22,1.44,1.44,0,0,1-.54,0,4.42,4.42,0,0,0,0-1.37,0.28,0.28,0,0,0,.31-0.29A1.58,1.58,0,0,1,3.18,96.68Z" transform="translate(250.03 200.03)"/><path class="cls-35" d="M-36.81,69.43a1.62,1.62,0,0,0,.08.18A1.83,1.83,0,1,0-36.81,69.43Z" transform="translate(250.03 200.03)"/><path class="cls-36" d="M-25.44,71.2l0.12,0.19Z" transform="translate(250.03 200.03)"/><path class="cls-37" d="M-5.74,99.7a5.5,5.5,0,0,0-.4-2.13,12.23,12.23,0,0,0-4-3.47,0.39,0.39,0,0,0-.23.54c0.11,0.46,1.45.91,1.51,1.54s-0.08.74,0.17,1a7.16,7.16,0,0,1-.85-0.88c-0.2-.31-1-0.35-1.25.74A3,3,0,0,1-15,98.25a1.16,1.16,0,0,1-.2-1.42s0.68-.28.54,0.46c0,0,.1.51,0.4,0.4s0-.4,0-0.4,0.59,0,.14-0.71-1.22-.34-1.71.34,0.51,3.73,4.61,1.34a4.63,4.63,0,0,0,1.14-1.19c0.09-.37.28,0.17,0.28,0.4a1.6,1.6,0,0,0,1.28,1.7s0.65,1.52,1.17,1.6-1.22.57-2.11,0.46a15.08,15.08,0,0,0-5.55-.74A9.26,9.26,0,0,1-17,99.53c-0.46-.4-0.6.09-0.77-1.51a22.78,22.78,0,0,0-3.87-9.59s-1.45-8.39-3.1-11c0,0,.14-3.81-0.91-5.41,0,0-.19-1.22.16-0.78a1,1,0,0,1-.21-0.61,3.68,3.68,0,0,1-2,.92,5.84,5.84,0,0,1-1.76-.75s2.82,2,2.19,5.13A1.76,1.76,0,0,0-27,78s0.31,2.19-.4,1.73S-30,79-31.18,77.79s-2.39-4-2.87-4.5a24.2,24.2,0,0,1-2.68-3.69,19.16,19.16,0,0,0,1.42,3c0.9,1.41,4.54,5.76,4.31,7.72A5.17,5.17,0,0,1-29.84,83a2.78,2.78,0,0,0-1.48-1.68c-1-.26-3.16-2.16-3.33-3.1A4.31,4.31,0,0,0-33,80.89c1.59,1.37,2.36.91,2.7,3a2,2,0,0,0-1.59-1.28C-33,82.63-34.48,80-34.48,80s0.11,1.37,2.3,3a6,6,0,0,1,2.33,4.06s0.31,0.58-.54.87a13.59,13.59,0,0,0-2.12,1.08c-0.49.26-.69-0.14-0.89,0.83a3,3,0,0,1-1,1.85,1.76,1.76,0,0,0,.06,2,3.74,3.74,0,0,1,1,.46c0.4,0.37,2-.09,2.25-0.09a4.38,4.38,0,0,0,1.62.2A1.44,1.44,0,0,0-28.53,94c0.34-.26.46,0.2,0.94-0.26A2.06,2.06,0,0,0-26.85,92c0-.85-0.31-5.38-0.71-6.26s0.65-6.26,1.68-5.72,2.45,0.74,2.42,4.44c0,0-1.32,1.45-2.36-1,0,0-.28-2.77.94-1.3,0,0,.83,1,0.46,1.67s-0.88.09-.74-0.14a0.38,0.38,0,0,1,.26-0.23s-0.43-1-.68-0.65a1.41,1.41,0,0,0,1.28,1.76,1.27,1.27,0,0,1,.51-0.77,3.48,3.48,0,0,0-1.88-3.27s-2.3-.31.37,4.47,2.77,0.62,5.07,7.27c0,0,2.36,2.12,2.19,7.19a6.65,6.65,0,0,0,1.91.94,5.68,5.68,0,0,0,2.93.79,9.92,9.92,0,0,1,3.9.52s0.68,0,.63-0.17c0,0,1.6-.06,1.67-0.57C-7,101-5.51,100.92-5.74,99.7Zm-2.92-2.55h0ZM-33.84,93.6c-0.24,0-.44-0.26-0.24-0.38s0-.27-0.08-0.29a0.32,0.32,0,0,1,0-.46c0.14-.06.23-0.7,0-0.6s0.09-.13.09-0.13,0.27-.22.37,0a10.39,10.39,0,0,0,0,1.32c0.05,0.2.11,0.55,0.11,0.55h-0.24Zm1.34-3.32c0-.53.15-0.55,0.15-0.55l0.59-.37c0.18-.11.29,0,0.26,0.13a0.71,0.71,0,0,0,.16.59c0.2,0.42,0,.44,0,0.44v0.33c0,0.35-.49.13-0.49,0.13-0.33-.53-0.18-0.15-0.57-0.13S-32.54,90.81-32.5,90.28ZM-31,93.8a4.21,4.21,0,0,0-1.64.24c-0.39.05-.34-0.2-0.34-0.2a4,4,0,0,0,.14-1.36,0.24,0.24,0,0,0,0-.38,0.48,0.48,0,0,1,0-.36,0.58,0.58,0,0,0,.27-0.41c0.07-.31.29,0,0.55,0s-0.19.24,0,.41a0.8,0.8,0,0,1,.22.79c-0.07.31,0.35,0.1,0.35,0.1C-30.74,92.5-31,93.8-31,93.8ZM-30.19,94c-0.33,0-.51-0.58-0.38-0.45a0.13,0.13,0,0,0,.22,0v-2a0.29,0.29,0,0,1,.5-0.16,0.56,0.56,0,0,0,.14.26,5,5,0,0,1,0,.89c-0.05.25-.33,0.71-0.12,0.73a0.91,0.91,0,0,1,.21.7A1.09,1.09,0,0,1-30.19,94Zm0.81-4.73c0,0.16-.05.31,0.13,0.36a1,1,0,0,0-.29.62,1.18,1.18,0,0,0-.18.37c-0.05.2-.26,0.31-0.35,0a0.55,0.55,0,0,1-.37-0.49A1.05,1.05,0,0,1-30,89.32a4.56,4.56,0,0,1,.7-0.32A0.4,0.4,0,0,0-29.39,89.32Z" transform="translate(250.03 200.03)"/><path class="cls-38" d="M-2.72,44.54A0.49,0.49,0,0,0-2.5,45,1,1,0,0,0-2,45s0.06-.34-0.1-0.35A1.13,1.13,0,0,0-2.72,44.54Z" transform="translate(250.03 200.03)"/><path class="cls-38" d="M-1.52,44.65s-0.4.26,0,.44A0.66,0.66,0,0,0-.9,44.65,2.52,2.52,0,0,0-1.52,44.65Z" transform="translate(250.03 200.03)"/><path class="cls-38" d="M-0.61,45a0.52,0.52,0,0,1,.27.29c0,0.14.24,0.13,0.35,0.05a1,1,0,0,1,.66.06c0.2,0.07.44-.17,0.25-0.3A2.85,2.85,0,0,0-.4,44.66C-0.69,44.74-.74,44.79-0.61,45Z" transform="translate(250.03 200.03)"/><path class="cls-38" d="M1.87,46.34a0.41,0.41,0,0,1,.29.22,0.22,0.22,0,0,0,.43-0.11,2.18,2.18,0,0,0-1.19-1c-0.08,0-.5.12-0.18,0.44A2,2,0,0,0,1.87,46.34Z" transform="translate(250.03 200.03)"/><path class="cls-38" d="M-22.77,72.57a8.83,8.83,0,0,0,3,1.13,15,15,0,0,1,6.35,3.13c0.14,0.14.06,0.41,0.22,0.64a2.62,2.62,0,0,0,.44.35v1.29a3.87,3.87,0,0,0-1-1.78c-0.67-.56-1.2-1.92-6.73-3.36A6.64,6.64,0,0,1-22.77,72.57Z" transform="translate(250.03 200.03)"/><path class="cls-38" d="M-16.71,86.21s1.62,3,4.44,2c0,0,.14-4.21,0-5.29,0,0,.26,0,0.28-0.49s0.4,7.26,0,8.54a1.44,1.44,0,0,0-.43.68s0.21-.71-0.34-0.51A4.69,4.69,0,0,1-16,89.94s3.23,1.05,3.6.51-0.07-1.08.28-1.56-0.11-.2-0.59,0S-15.48,89.32-16.71,86.21Z" transform="translate(250.03 200.03)"/><path class="cls-38" d="M-12.5,92.5a21.38,21.38,0,0,1-2.9-.83,5.43,5.43,0,0,0,2.65,1.05C-11.44,92.76-12.5,92.5-12.5,92.5Z" transform="translate(250.03 200.03)"/><path class="cls-38" d="M-36.77,69.37a1.63,1.63,0,0,0,.08.18A1.83,1.83,0,1,0-36.77,69.37Z" transform="translate(250.03 200.03)"/><path class="cls-38" d="M-25.39,71.15l0.12,0.19Z" transform="translate(250.03 200.03)"/><path class="cls-38" d="M-8.79,30.35a3.46,3.46,0,0,0-1.29,2.73,1.2,1.2,0,0,1,.61,0A3.47,3.47,0,0,1-8.79,30.35Z" transform="translate(250.03 200.03)"/><path class="cls-38" d="M-9.74,26.77a5.61,5.61,0,0,0-3.05,1.8,5.68,5.68,0,0,1,2.5-1.25s3.48-.58,2.57,2.13A3.34,3.34,0,0,0-7.19,29C-6.21,26.18-9.74,26.77-9.74,26.77Z" transform="translate(250.03 200.03)"/><path class="cls-38" d="M-17.09,35.81a0.35,0.35,0,0,0,.47-0.28,1.11,1.11,0,0,1,.13-0.36A1.4,1.4,0,0,0-17.09,35.81Z" transform="translate(250.03 200.03)"/><path class="cls-38" d="M-16.55,33a1.29,1.29,0,0,0-.9.68,1.72,1.72,0,0,1,.34-0.13c1.19-.31,1.46.44,1.33,1l0.17-.05C-15,34.36-14.81,32.54-16.55,33Z" transform="translate(250.03 200.03)"/><path class="cls-38" d="M-3.36,37.7A4,4,0,0,1-4.75,36.6c-2.07-2.5-2.32-1.69-2.61-2a4,4,0,0,0-1.31-.63c-0.15,0-.09.3,0.14,0.5a0.88,0.88,0,0,1,.72.67,0.39,0.39,0,0,0,0,.09c0.27,0.09.7-.23,2.49,1.94a4,4,0,0,0,1.39,1.11,0.93,0.93,0,0,1,.52.53C-2.5,39-2.69,38-3.36,37.7Z" transform="translate(250.03 200.03)"/><path class="cls-38" d="M-6,39.81a0.76,0.76,0,0,0-.59.56h0a0.56,0.56,0,0,1,.36,0,1.78,1.78,0,0,0,.55-0.25C-5.41,39.71-6,39.81-6,39.81Z" transform="translate(250.03 200.03)"/><path class="cls-38" d="M-7,39.8a1.25,1.25,0,0,0-1.16-1.12s-0.15-.58-1.1,0a0.76,0.76,0,0,0-.21.38c0.65-.26.76,0.18,0.76,0.18a1.25,1.25,0,0,1,1.16,1.12,0.84,0.84,0,0,1,.1.49A0.68,0.68,0,0,0-7,39.8Z" transform="translate(250.03 200.03)"/><path class="cls-38" d="M-7.42,41.27a2,2,0,0,1-2-.81c-0.17-.41.17-0.54-0.13-0.79s-0.25-.1-0.25-0.57-0.44-.17-0.44-0.17a7,7,0,0,0-2,1.59c0.31-.24.77-0.57,1.47-1,0,0,.44-0.31.44,0.17s0,0.32.25,0.57,0,0.39.13,0.79a2,2,0,0,0,2,.81c0.88-.2.31,0.86,0,0.85l0.08,0.08a1.56,1.56,0,0,0,.61-0.36,0.31,0.31,0,0,0-.13-0.28C-7.11,42.13-6.54,41.07-7.42,41.27Z" transform="translate(250.03 200.03)"/><path class="cls-38" d="M-13.27,55.64a0.56,0.56,0,0,1-.61-0.21,0.5,0.5,0,0,0,.4-0.37,1.63,1.63,0,0,0-.88-0.28,0.32,0.32,0,0,0-.09.12,1,1,0,0,0-.05.31,0.51,0.51,0,0,1,.43.26,0.31,0.31,0,0,1-.17.44,1,1,0,0,0,.5.26A0.72,0.72,0,0,0-13.27,55.64Z" transform="translate(250.03 200.03)"/><path class="cls-38" d="M-23.65,54l-0.14.06a2.8,2.8,0,0,0,.65.73A3.86,3.86,0,0,1-22.76,54a2.81,2.81,0,0,1-.43-0.51c-0.44.06-.81-0.3-0.73-1.77a1,1,0,0,1,.21-0.36A1.45,1.45,0,0,1-23.63,51l0.06-.13a1.27,1.27,0,0,0-.59.62,6.12,6.12,0,0,0-.13.93,3.51,3.51,0,0,0,.34,1.36l0.15-.09C-23.72,53.79-23.65,54-23.65,54Z" transform="translate(250.03 200.03)"/><path class="cls-38" d="M-20.59,44a0.67,0.67,0,0,0-.3-0.58,1.19,1.19,0,0,0-.26.21,0.93,0.93,0,0,1,0-.28,0.62,0.62,0,0,0-.54.84s0.56-.63.7,0A0.88,0.88,0,0,1-21,45a8.83,8.83,0,0,0-.62.8h0s0.23,0.37.28,0a3.76,3.76,0,0,1,.75-1.19A3.77,3.77,0,0,0-20.59,44Z" transform="translate(250.03 200.03)"/><path class="cls-38" d="M-24.31,54.28a23.89,23.89,0,0,0-3.87,3.24,16.56,16.56,0,0,1,4-3Z" transform="translate(250.03 200.03)"/><path class="cls-38" d="M-22,53.24a2.22,2.22,0,0,1,.65-0.35,1.28,1.28,0,0,1,1.86.23,0.75,0.75,0,0,1,.19.62,1.18,1.18,0,0,1-.25,1l0,0a1.46,1.46,0,0,0,.73-1.62A2.21,2.21,0,0,0-21,52.38,2.67,2.67,0,0,0-22,53.24Z" transform="translate(250.03 200.03)"/><path class="cls-38" d="M-16.1,54.48a2.4,2.4,0,0,1,1.9-.33l0.34,0.07a1,1,0,0,1,1.16.7s0,0,0,.06a1.55,1.55,0,0,1,.08,1.18l0.36-.07A2.39,2.39,0,0,0-12,55.38c-0.14-.88-1.51-1.32-1.51-1.32a4.24,4.24,0,0,0-1.94-.19A2.53,2.53,0,0,0-16.1,54.48Z" transform="translate(250.03 200.03)"/><path class="cls-38" d="M-22.62,52.38a0.39,0.39,0,0,1-.2,0c-0.35-.07-0.12-0.28-0.12-0.28a1,1,0,0,0,.22-0.76l0-.06a1.08,1.08,0,0,0-.44-0.46,1,1,0,0,0-.19.34c0,0.13,0,.26,0,0.37v0a1,1,0,0,1,.06.76,0.91,0.91,0,0,0,.27.52A1,1,0,0,0-22.62,52.38Z" transform="translate(250.03 200.03)"/><path class="cls-38" d="M-23.51,52.91l0-.13A0.1,0.1,0,0,0-23.51,52.91Z" transform="translate(250.03 200.03)"/><path class="cls-38" d="M-21,54.57a1,1,0,0,1-.54-0.13l0,0a1.78,1.78,0,0,0,.16.32,1.63,1.63,0,0,0,1,.23,1.17,1.17,0,0,0,.59-0.58A1.5,1.5,0,0,1-21,54.57Z" transform="translate(250.03 200.03)"/><path class="cls-38" d="M-17.25,56l-1.24.62c-0.4.38-.71,0.63-0.71,0.63s0.45-.21,1.4-0.69A1.58,1.58,0,0,0-17.25,56Z" transform="translate(250.03 200.03)"/><path class="cls-38" d="M-21.7,53.67l0.25-.09c0.67-.19,1,0.11.95,0.43A0.59,0.59,0,0,0-20,53.74l0-.07a1.27,1.27,0,0,0-1.14-.52A0.88,0.88,0,0,0-21.7,53.67Z" transform="translate(250.03 200.03)"/><path class="cls-38" d="M-18.78,55.08c-1,.81-2.41,1-3,0.34L-22,55.3a1.15,1.15,0,0,1,0-1.43,1.94,1.94,0,0,1,.22-0.52,1.94,1.94,0,0,0-.84,1.91C-22.48,57-20,56.6-18.78,55.08Z" transform="translate(250.03 200.03)"/><path class="cls-38" d="M-7.75,44.18L-8,44.37s-0.13.16-.34,0.39C-8.11,44.56-7.91,44.35-7.75,44.18Z" transform="translate(250.03 200.03)"/><path class="cls-38" d="M-11.09,43.4A5.37,5.37,0,0,0-14,42.09a1.14,1.14,0,0,0-.39-0.62c-0.05-.25-0.21-0.47,0-0.55a0.4,0.4,0,0,0,.28-0.43l0-.08a3.2,3.2,0,0,0-.32.31,0.31,0.31,0,0,0-.25.33,0.4,0.4,0,0,1-.28.43c-0.21.09-.05,0.3,0,0.55a1.14,1.14,0,0,1,.39.62A5.37,5.37,0,0,1-11.64,44a11.91,11.91,0,0,0,2.6.11c0.87,0,2.64-2.52,3.71-1.88a4,4,0,0,1,1.56,1.15,1.62,1.62,0,0,0,1.4.21A1,1,0,0,0-2,43a1.52,1.52,0,0,1-1.26-.23l-0.19-.2H-3.49a2,2,0,0,1-1.46-1c-1.08-.31-2.72,2-3.54,2A11.91,11.91,0,0,1-11.09,43.4Z" transform="translate(250.03 200.03)"/><path class="cls-38" d="M0.62,40C1.91,41.69-1,42.27.8,44.22c0,0,.87.2,0.66-0.54l-0.1,0c-1.78-2,1.11-2.53-.18-4.17-1.84-2-4.48-.5-5.32.58C-3,39.14-.91,38.37.62,40Z" transform="translate(250.03 200.03)"/><path class="cls-38" d="M-2.18,41.48A0.61,0.61,0,0,1-3,41.21l-0.42.08a0.33,0.33,0,0,0-.19.31,0.72,0.72,0,0,0,.11.26,1.43,1.43,0,0,0,.58.18L-2.58,42l0.09,0a0.13,0.13,0,0,1,.08,0l0.29-.09A1,1,0,0,0-2.18,41.48Z" transform="translate(250.03 200.03)"/><path class="cls-38" d="M-14.43,34.07c0.9-.67,1.71-0.63,1.44.2a5.84,5.84,0,0,0-.81,1.08c-0.32.42-.67,1.18,1.34,0.53a5.26,5.26,0,0,0,1.55-1.12,0.77,0.77,0,0,1,1-.26c0.52,0.37.38,0.63,0.92,1s0.2,0.84.64,1.22c0.19,0.16.05,0.5-.21,0.84,0.55-.44,1.07-1.14.77-1.39S-7.9,35.39-8.44,35s-0.4-.67-0.92-1a0.77,0.77,0,0,0-1,.26,5.26,5.26,0,0,1-1.55,1.12c-2,.65-1.67-0.12-1.34-0.53a5.84,5.84,0,0,1,.81-1.08c0.28-.82-0.53-0.87-1.44-0.2a4,4,0,0,0-.83.77Z" transform="translate(250.03 200.03)"/><path class="cls-38" d="M-32.32,57.36h0a0.28,0.28,0,0,0-.28-0.11,1.14,1.14,0,0,1,0,.16A0.64,0.64,0,0,0-32.32,57.36Z" transform="translate(250.03 200.03)"/><path class="cls-38" d="M-32.94,56.57l-0.07.11a0.82,0.82,0,0,0-.07.16,1,1,0,0,1,1,.23,1,1,0,0,0,0-.28A1.36,1.36,0,0,0-32.94,56.57Z" transform="translate(250.03 200.03)"/><path class="cls-38" d="M-32.27,58a1.36,1.36,0,0,0,0-.18,1,1,0,0,1-.44-0.05,0.39,0.39,0,0,1-.19.18c-0.32.14-1,0-.7-0.67a0.71,0.71,0,0,1,.1-0.15,0.68,0.68,0,0,1-.09-0.39C-35.14,57.28-32.91,59.14-32.27,58Z" transform="translate(250.03 200.03)"/><path class="cls-38" d="M-16,35.74c0.16-.18.28-0.33,0.38-0.45a1.92,1.92,0,0,0-.74.67Z" transform="translate(250.03 200.03)"/><path class="cls-38" d="M-31.22,57a1,1,0,0,0-1.39-.7,4.23,4.23,0,0,1,1.15.52A0.72,0.72,0,0,1-31.22,57Z" transform="translate(250.03 200.03)"/><path class="cls-38" d="M-18.15,36.85a12.68,12.68,0,0,0-2,2.73s0,0.67.88-.2A3,3,0,0,0-19,39c-0.68.54-.65,0-0.65,0a12.68,12.68,0,0,1,2-2.73,5.57,5.57,0,0,0-1.47,1.23A4.4,4.4,0,0,1-18.15,36.85Z" transform="translate(250.03 200.03)"/><path class="cls-38" d="M-17.62,37.17a1.84,1.84,0,0,0,.74-0.67l-0.18.11a1.94,1.94,0,0,0-.67.63Z" transform="translate(250.03 200.03)"/><path class="cls-38" d="M-24.31,60.25c0.41-.36.82-0.86,1.27-1.34C-23.49,59.32-23.91,59.82-24.31,60.25Z" transform="translate(250.03 200.03)"/><path class="cls-38" d="M-25.46,61.21c-0.81.35,0.43,0.58-1.29,2.44,1.67-1.57,1.55-2.21,1.53-2.57Z" transform="translate(250.03 200.03)"/><path class="cls-38" d="M-22.86,64.24a1.09,1.09,0,0,0,.32.17,2.32,2.32,0,0,1,.42-1A2.51,2.51,0,0,0-22.86,64.24Z" transform="translate(250.03 200.03)"/><path class="cls-38" d="M-30.3,61.27a2.48,2.48,0,0,0-.29.34A1.25,1.25,0,0,0-30,61Z" transform="translate(250.03 200.03)"/><path class="cls-38" d="M-28.65,59.82l0.39-.31A14.58,14.58,0,0,1-27.12,58,8.82,8.82,0,0,0-28.65,59.82Z" transform="translate(250.03 200.03)"/><path class="cls-38" d="M-16.49,65.1a3.08,3.08,0,0,0-.54.53,0.64,0.64,0,0,0,.58.3A0.54,0.54,0,0,1-16.49,65.1Z" transform="translate(250.03 200.03)"/><path class="cls-38" d="M3,45.38a2,2,0,0,1-.62-1,1.3,1.3,0,0,0-.09-1.27c-0.42-.37-0.86-1.83-0.82-1.36a3.18,3.18,0,0,0,.43,1.1c0.32,0.62.11,0.81-.13,0.85a1.36,1.36,0,0,1,.05,1.24,0.85,0.85,0,0,0,.16.42,6.62,6.62,0,0,1,.88.65C3.23,46.25,3.32,45.7,3,45.38Z" transform="translate(250.03 200.03)"/><path class="cls-38" d="M1.54,49.72c-1.89-2.87-4.66-1-5.31-.47a3.52,3.52,0,0,1-3.06.19c-3-1-4.25-.33-4.52-0.13a0.37,0.37,0,0,1-.49,0c-5.87,3.34-6.89-.42-7-0.81s0.09-.42.09-0.42a2.36,2.36,0,0,1,.28-2.45,2.44,2.44,0,0,0-.84,3s-0.18,0-.09.42,1.11,4.15,7,.81a0.37,0.37,0,0,0,.49,0c0.28-.2,1.5-0.86,4.52.13a3.52,3.52,0,0,0,3.06-.19,4.7,4.7,0,0,1,2.79-1.09l0.18,0c1.78-.37,2.89,1.76,2.92,2.85a6.7,6.7,0,0,1-.23,1.68l-0.05.27c-0.06.3-.12,0.58-0.19,0.85a6.38,6.38,0,0,1-.2,2.41,3.24,3.24,0,0,0,.69,2.8C2,59.94,2.1,59.91,1.49,58s-0.08-3,.37-5.13S1.68,50,1.54,49.72Z" transform="translate(250.03 200.03)"/><path class="cls-38" d="M-11.18,60.07a3.29,3.29,0,0,1,0-.38A6.75,6.75,0,0,0-11.67,59a3.79,3.79,0,0,0-.07,1.62A1.75,1.75,0,0,1-12.31,62C-11.41,61.24-11.08,60.59-11.18,60.07Z" transform="translate(250.03 200.03)"/><path class="cls-38" d="M-31.68,57.17a1.39,1.39,0,0,1,0,.23l-0.08.12a1.91,1.91,0,0,1,.1.39,1.31,1.31,0,0,1-.13.85,1.51,1.51,0,0,0,.5-0.46A2.7,2.7,0,0,0-31.68,57.17Z" transform="translate(250.03 200.03)"/><path class="cls-38" d="M-3.49,50.82A3,3,0,0,1-3,49.69,3,3,0,0,0-4,51.38a7.88,7.88,0,0,1-.35,2.89c-0.44.69,0,1.21-.16,1.6a6.87,6.87,0,0,1-1.29,2.51c0.15,0.11.32,0.29-.25,1,0.32,0.38-.21.4-0.3,1.4a16.86,16.86,0,0,0,1.08,6.6C-4.52,69.22-3.26,76-6.93,80c4.35-3.95,3-11.26,2.17-13.2a16.86,16.86,0,0,1-1.08-6.6c0.09-1,.62-1,0.3-1.4,0.57-.71.4-0.88,0.25-1A6.87,6.87,0,0,0-4,55.31c0.16-.39-0.28-0.91.16-1.6A7.88,7.88,0,0,0-3.49,50.82Z" transform="translate(250.03 200.03)"/><path class="cls-38" d="M-22.54,49.87s1.63-.16.68,2.68A4.78,4.78,0,0,0-21.31,52a6.9,6.9,0,0,0,.22-0.8,2.24,2.24,0,0,0-.22-1c-0.14-.28-0.32-0.58-0.48-0.89a0.83,0.83,0,0,0-.19,0,2,2,0,0,0-1.65.88A2,2,0,0,1-22.54,49.87Z" transform="translate(250.03 200.03)"/><path class="cls-38" d="M-8.83,54.41a0.67,0.67,0,0,0,0,.17,0.33,0.33,0,0,1,.34.18,0.19,0.19,0,0,1-.19.27,0.81,0.81,0,0,0,.47.36A3,3,0,0,1-7.8,55l0-.06C-8,55-8.58,54.79-8.19,54.47c0,0,.25,0,0.27-0.15a1.8,1.8,0,0,0-.76-0.16A0.41,0.41,0,0,0-8.83,54.41Z" transform="translate(250.03 200.03)"/><path class="cls-38" d="M-9.84,54.17a2.43,2.43,0,0,1,1.17-.45,1.65,1.65,0,0,1,1.39.08,0.64,0.64,0,0,1,.1.55,0.91,0.91,0,0,1,.1.79A1.62,1.62,0,0,0-6.78,55a1,1,0,0,0-.35-1.25,2,2,0,0,0-1.69-.34A2.48,2.48,0,0,0-9.84,54.17Z" transform="translate(250.03 200.03)"/><path class="cls-38" d="M-10.8,56.58a1.56,1.56,0,0,1,0-.35,2,2,0,0,0-.87.41c-0.83.09,0.12,0.32-2.94,0.21,0,0-1.24-.14-0.77-1.63a1.47,1.47,0,0,1,.1-0.25,1.33,1.33,0,0,0-.66.8c-0.47,1.49.77,1.63,0.77,1.63,3.06,0.11,2.11-.12,2.94-0.21C-11.49,56.58-10.72,56.85-10.8,56.58Z" transform="translate(250.03 200.03)"/><path class="cls-38" d="M-23,56.77a3.73,3.73,0,0,1-.27-0.32,4.56,4.56,0,0,0-.87.76l-0.12.12A1.5,1.5,0,0,1-23,56.77Z" transform="translate(250.03 200.03)"/><path class="cls-38" d="M-16.63,59l0.08-.1a3.78,3.78,0,0,0-.63.66A9.34,9.34,0,0,1-18,60.74,7,7,0,0,0-16.63,59Z" transform="translate(250.03 200.03)"/><path class="cls-38" d="M-11.43,55.21a0.66,0.66,0,0,1,.05.22,0.3,0.3,0,0,0,.31.05c0.38-.11.24-0.77,0.2-0.83a0.93,0.93,0,0,1,.19-0.26A3.59,3.59,0,0,0-11.43,55.21Z" transform="translate(250.03 200.03)"/><path class="cls-38" d="M-24.85,53.49s0-.06,0-0.16c-3.09,2.14-2.95,1.44-3.43,2.23l0,0A18,18,0,0,0-24.85,53.49Z" transform="translate(250.03 200.03)"/><path class="cls-38" d="M-24.75,57.79a6.22,6.22,0,0,0-.87.68l-0.07.18A6.59,6.59,0,0,0-24.75,57.79Z" transform="translate(250.03 200.03)"/><path class="cls-38" d="M-17.44,55.36a7.73,7.73,0,0,1-.66.8,9.06,9.06,0,0,0,1.21-1.36c0.11-.15.22-0.3,0.33-0.44A4.52,4.52,0,0,0-17.44,55.36Z" transform="translate(250.03 200.03)"/><path class="cls-38" d="M-7.36,55.75c-1.19.62-2,.27-2.29-0.39a1.17,1.17,0,0,1,.2-1,1.5,1.5,0,0,0-.76,1.52c0.26,0.66,1.1,1,2.29.39C-7,55.84-7.08,55.9-7,55.56Z" transform="translate(250.03 200.03)"/><path class="cls-38" d="M-34.82,56.5a2.89,2.89,0,0,1,1.65-.28,1.83,1.83,0,0,1,.49-0.16c1.52-.31,1.86,1,1.94,1.81a0.07,0.07,0,0,1,.06.09,12,12,0,0,0,1.4-1.27c-0.45.41-.85,0.72-0.85,0.72,0-.19-0.25,0-0.25,0a1,1,0,0,0-.51-1.07,3.31,3.31,0,0,0-3.36-.35,2.32,2.32,0,0,0-.83.73Z" transform="translate(250.03 200.03)"/><path class="cls-38" d="M-0.13,46.89c-0.39-1.45-3.57.89-3.91,1.22S-4.62,48-4.62,48a0.52,0.52,0,0,0-.8-0.08,0.83,0.83,0,0,0-.21.4,0.75,0.75,0,0,1,.45.23s0.24,0.47.58,0.14S-1.07,46-.68,47.45c0,0.16.08,0.29,0.1,0.41l0.1,0C0,48,.26,48.34-0.13,46.89Z" transform="translate(250.03 200.03)"/><path class="cls-38" d="M-7.53,44.52L-8.19,45a0.38,0.38,0,0,0-.25.33l0.35-.26a0.28,0.28,0,0,1,.19.35A0.86,0.86,0,0,0-7.36,45C-7.25,44.57-7.53,44.52-7.53,44.52Z" transform="translate(250.03 200.03)"/><path class="cls-38" d="M-6,43.84l-1.23.4a0.66,0.66,0,0,0,.07.35l0.6-.2a1.22,1.22,0,0,1,.06.27C-6.1,44.57-5.82,44.43-6,43.84Z" transform="translate(250.03 200.03)"/><path class="cls-38" d="M-3.82,43.73a6.75,6.75,0,0,0-1.93,0s-0.13.07,0.11,0.48a6.33,6.33,0,0,1,1.26,0c0.27,0.06,1,.73.73,1a5.31,5.31,0,0,0-.57.6,0.4,0.4,0,0,0,.27-0.2,7.6,7.6,0,0,1,.86-1C-2.78,44.46-3.55,43.8-3.82,43.73Z" transform="translate(250.03 200.03)"/><path class="cls-38" d="M-3.27,45.09a0.49,0.49,0,0,0,.21.46,1,1,0,0,0,.52,0s0.06-.34-0.1-0.35A1.13,1.13,0,0,0-3.27,45.09Z" transform="translate(250.03 200.03)"/><path class="cls-38" d="M-2.07,45.2s-0.4.26,0,.44a0.66,0.66,0,0,0,.61-0.44A2.52,2.52,0,0,0-2.07,45.2Z" transform="translate(250.03 200.03)"/><path class="cls-38" d="M-1.17,45.54a0.52,0.52,0,0,1,.27.29c0,0.14.24,0.13,0.35,0.05a1,1,0,0,1,.66.06c0.2,0.07.44-.17,0.25-0.3A2.85,2.85,0,0,0-1,45.22C-1.25,45.3-1.3,45.35-1.17,45.54Z" transform="translate(250.03 200.03)"/><path class="cls-38" d="M1.32,46.9a0.41,0.41,0,0,1,.29.22A0.22,0.22,0,0,0,2,47,2.18,2.18,0,0,0,.85,46c-0.08,0-.5.12-0.18,0.44A2,2,0,0,0,1.32,46.9Z" transform="translate(250.03 200.03)"/><path class="cls-38" d="M3,46.48a6.87,6.87,0,0,1-1.91,1.24s-0.18.15,0.12,0.22h0A6.92,6.92,0,0,0,2.46,47s0.08-.19-0.06.74a1.73,1.73,0,0,1-.19.6A1.52,1.52,0,0,0,3,47.22C3.1,46.29,3,46.48,3,46.48Z" transform="translate(250.03 200.03)"/><path class="cls-38" d="M-2.82,50.76a1.87,1.87,0,0,1,3,.92,1.58,1.58,0,0,1,.36.91,1.7,1.7,0,0,1-.09,1l0.16,0s0.71,0.29.23-.33A1.45,1.45,0,0,0,1.05,52a1.58,1.58,0,0,0-.36-0.91,1.87,1.87,0,0,0-3-.92,2.83,2.83,0,0,0-.67.59l0,0.07Z" transform="translate(250.03 200.03)"/><path class="cls-38" d="M-3.12,57.6s-0.51-.82.53-2.08c0.25-.31.48-0.59,0.7-0.84a10.83,10.83,0,0,0-1.26,1.4c-1,1.27-.53,2.08-0.53,2.08a9.83,9.83,0,0,1,.93,2.55C-0.32,71.24,1.92,72.17-.8,77.83A9.4,9.4,0,0,1-2.31,80.1,9.12,9.12,0,0,0-.24,77.27c2.72-5.65.48-6.59-1.95-17.12A9.83,9.83,0,0,0-3.12,57.6Z" transform="translate(250.03 200.03)"/><path class="cls-38" d="M-5.86,80.18a8.91,8.91,0,0,1-4.86,2.13,9.21,9.21,0,0,0,1.29.13A8.05,8.05,0,0,0-5.86,80.18Z" transform="translate(250.03 200.03)"/><path class="cls-38" d="M2,69.32c-1.88-7.66-3.27-8.44-3.27-8.44s0.61,1.73,1.25,4a50.11,50.11,0,0,1,1.47,5c1.18,4.81-.63,7.92-2,9.43C0.8,78.1,3.36,74.83,2,69.32Z" transform="translate(250.03 200.03)"/><path class="cls-38" d="M1.95,76.94a2.45,2.45,0,0,1-.66,1.32A6.35,6.35,0,0,1-.29,81C2.05,78.88,1.95,76.94,1.95,76.94Z" transform="translate(250.03 200.03)"/><path class="cls-38" d="M-1.59,86.4A1.84,1.84,0,0,0,.48,87.8a1.33,1.33,0,0,0,.23-0.19s0-.09,0-0.23C-0.33,87.69-1.59,86.4-1.59,86.4Z" transform="translate(250.03 200.03)"/><path class="cls-38" d="M-0.89,88.82A10.72,10.72,0,0,0-2,87.73a1.29,1.29,0,0,1-.35-0.39c0.12-.9,0-0.31-0.18-2.38a3.67,3.67,0,0,1,.88-2.72A3.87,3.87,0,0,0-3,85.51c0.21,2.08.31,1.48,0.18,2.38a1.29,1.29,0,0,0,.35.39,4.83,4.83,0,0,1,.63.6c0.06-.2.58,0.1,0.91,0.42a1.64,1.64,0,0,0,.57.32,1.41,1.41,0,0,0,.79-0.32s0-.11,0-0.27A1.58,1.58,0,0,1-.89,88.82Z" transform="translate(250.03 200.03)"/><path class="cls-38" d="M-0.5,85.27a2.53,2.53,0,0,0-1.13-.47A4.51,4.51,0,0,0,.65,86a0.71,0.71,0,0,0,.48-0.53A2.22,2.22,0,0,1-.5,85.27Z" transform="translate(250.03 200.03)"/><path class="cls-38" d="M-7,82.74l0.1,0.18c0.2,0,.47,0,0.81-0.06,1.42,0,5-2,6.61-3.84-1.78,1.63-4.78,3.24-6.05,3.28C-7.34,82.37-7,82.74-7,82.74Z" transform="translate(250.03 200.03)"/><path class="cls-38" d="M3.78,68.45c-1.42-.76-1.27-3.06-1.27-3.06-0.29-3.88-.74-4.25-1.66-5.22a3.3,3.3,0,0,1-.29-3.29c0.29-.46.78-3.56-0.94-2.85a2.09,2.09,0,0,0-1,.8A2.74,2.74,0,0,1-1,54.58C0.77,53.88.28,57,0,57.43a3.3,3.3,0,0,0,.29,3.29c0.92,1,1.38,1.34,1.66,5.22a5,5,0,0,0,.28,1.86A5.48,5.48,0,0,1,3.5,69.25a1.86,1.86,0,0,1,.26.43,8.84,8.84,0,0,1,.47,1,9.39,9.39,0,0,1,0,2.54,8.68,8.68,0,0,1-.56,3.28,17,17,0,0,0-1.78,3.27L2,79.59a0.93,0.93,0,0,0-.2.3c-0.07.2-.13,0.4-0.18,0.61a13.45,13.45,0,0,0,.06,4.11,0.65,0.65,0,0,1-.24.7q0,0.24,0,.46a0.51,0.51,0,0,0,.09-0.11,2.56,2.56,0,0,0-.11.38,6.29,6.29,0,0,1-.13.9v0.12l0,0a4.21,4.21,0,0,1-.19.57l0,0a2.47,2.47,0,0,0-.15,1.13l-0.18.13c0,0.18,0,.36,0,0.55a0.28,0.28,0,0,1,.38.08c-0.1,2.32.92,2.55,0.92,2.55-0.53-.23-1.09-3.56-0.5-4.85s0.43-2.75.39-5.43,1.6-4.83,2.26-5.9S5.2,69.21,3.78,68.45Z" transform="translate(250.03 200.03)"/><path class="cls-38" d="M-0.94,90.2a1.46,1.46,0,0,1-.07.18c-0.23.49-.37,0.1-0.37,0.1a1.4,1.4,0,0,0,0-.53l-0.11-.09c-0.39-.37-1-0.72-0.9-0.29A2.66,2.66,0,0,1-1.94,91s0.14,0.39.37-.1,0-.72.29-0.27a1.22,1.22,0,0,1-.25,1.08,1.8,1.8,0,0,0,.85-1.48Z" transform="translate(250.03 200.03)"/><path class="cls-38" d="M-30,56.08a3,3,0,0,1-.52-0.25,5.71,5.71,0,0,0-1.55-.66c-0.32,0-.5-0.88-1.06-1.47s-0.18-1.16-1.29-1.57c0,0-.24-0.05-0.41.61,0.93,0.4.61,0.95,1.15,1.51a6,6,0,0,1,.75,1.2,3.55,3.55,0,0,1,2.92,1.23l0.42,0A4,4,0,0,1-29,56.18Z" transform="translate(250.03 200.03)"/><path class="cls-38" d="M-34.58,55.63c-0.22,0-.34.32-3.36-2.27a3.75,3.75,0,0,0-.25.81c2.38,2,2.77,2.07,3,2a1.32,1.32,0,0,1,.7-0.38S-34.35,55.6-34.58,55.63Z" transform="translate(250.03 200.03)"/><path class="cls-38" d="M-33.57,59.38a3.11,3.11,0,0,1-2.16-1.78c-0.26-.84-0.88-1.08-5.21-1.88a0.92,0.92,0,0,0,.28.71h0c3.57,0.68,4.13.94,4.37,1.72a3.11,3.11,0,0,0,2.16,1.78c0.51-.09.39,0.31,0.39,0.31a1.07,1.07,0,0,1-.1.16,2,2,0,0,0,.65-0.72S-33.06,59.29-33.57,59.38Z" transform="translate(250.03 200.03)"/><path class="cls-38" d="M-36.08,66.3a4.07,4.07,0,0,1,.41-1.86,0.41,0.41,0,0,0-.21.15A4.49,4.49,0,0,0-36.08,66.3Z" transform="translate(250.03 200.03)"/><path class="cls-38" d="M-34.43,70a5.63,5.63,0,0,1-1.89-3.24A4.12,4.12,0,0,0-34.43,70Z" transform="translate(250.03 200.03)"/><path class="cls-38" d="M-33,64.14c0,0.1-.1.21-0.15,0.34a3.48,3.48,0,0,0,0,.48,1.09,1.09,0,0,0,.12.19,3.73,3.73,0,0,1,.42,1.94,1.29,1.29,0,0,1-.17.6,1.15,1.15,0,0,0,.53-0.51,2.39,2.39,0,0,0-.35-2,1,1,0,0,1,0-1,0.61,0.61,0,0,1,0-.28V63.86c0-.56,0-0.88,0-1.19A1.41,1.41,0,0,0-32.76,62a0.83,0.83,0,0,0-.41,0c-0.43,0-.72.07-0.92,0.11l-0.06,0-0.12,0c-0.14.07-.14,0.2-0.05,0.45l0.6-.06C-32.59,62.37-33,63.91-33,64.14Z" transform="translate(250.03 200.03)"/><path class="cls-38" d="M-35.41,63.51a2.64,2.64,0,0,1,1,.83c0.72-.37.24,1.59,0.24,1.59A2,2,0,0,1-34.23,67a1,1,0,0,0,.64-0.86v0a4,4,0,0,1,0-1.94,0.33,0.33,0,0,0-.19-0.38h0l0,0a1.45,1.45,0,0,1-1-.56A1.64,1.64,0,0,1-34.92,63,0.22,0.22,0,0,0-35,63,2.58,2.58,0,0,0-35.41,63.51Z" transform="translate(250.03 200.03)"/><path class="cls-38" d="M-32.8,69.13a0.66,0.66,0,0,1-.4-0.07,1.47,1.47,0,0,1-.32.88A2.57,2.57,0,0,0-32.8,69.13Z" transform="translate(250.03 200.03)"/><path class="cls-38" d="M-33.6,69.3l-0.23.16a2,2,0,0,1-.26-0.16,0.64,0.64,0,0,1-.31.1L-34,69.74A1.42,1.42,0,0,0-33.6,69.3Z" transform="translate(250.03 200.03)"/><path class="cls-38" d="M-35.15,68.13h0a5,5,0,0,1-.65-2.3C-36,66.63-35.77,68.27-35.15,68.13Z" transform="translate(250.03 200.03)"/><path class="cls-38" d="M-35.5,66.19l0.08-.23a0.16,0.16,0,0,1,.11-0.13,2.47,2.47,0,0,1,.09-0.64l-0.3.2A4.26,4.26,0,0,0-35.5,66.19Z" transform="translate(250.03 200.03)"/><path class="cls-38" d="M-33.87,67.22a2.1,2.1,0,0,1-.73.35,0.3,0.3,0,0,1-.21,0,0.84,0.84,0,0,1-.2,0l-0.1-.07a4.89,4.89,0,0,0,.27.49A2.51,2.51,0,0,0-33.87,67.22Z" transform="translate(250.03 200.03)"/><path class="cls-38" d="M-27.46,61.9l-0.06.44A4.08,4.08,0,0,0-27,61.87c0-.09.08-0.53,0.08-0.53a7.22,7.22,0,0,0-1.84,1.52A6,6,0,0,1-27.46,61.9Z" transform="translate(250.03 200.03)"/><path class="cls-38" d="M-31.92,68.41A1,1,0,0,1-32.09,68a2.7,2.7,0,0,1-.14.58A0.57,0.57,0,0,0-31.92,68.41Z" transform="translate(250.03 200.03)"/><path class="cls-38" d="M-32.63,68.05l-0.09.05a0.39,0.39,0,0,0-.24.34A1.55,1.55,0,0,0-32.63,68.05Z" transform="translate(250.03 200.03)"/><path class="cls-38" d="M-33.17,68.34a0.92,0.92,0,0,1,0-.19,0.66,0.66,0,0,1-.21.11,0.55,0.55,0,0,0-.35.56A1,1,0,0,0-33.17,68.34Z" transform="translate(250.03 200.03)"/><path class="cls-38" d="M-35,66a2.51,2.51,0,0,0,0-.25A1.63,1.63,0,0,0-35,66h0Z" transform="translate(250.03 200.03)"/><path class="cls-38" d="M-27.33,70.41s-0.37.37-1-.29l0,0a0.51,0.51,0,0,1-.47,0,4.51,4.51,0,0,0-1-1.17,2.37,2.37,0,0,1-.51-0.38,0.72,0.72,0,0,1-.35-0.57l-0.12-.19a1.17,1.17,0,0,1,.06-1.36c0-.12,0-0.25,0-0.39a2.49,2.49,0,0,1,.62-1.1,3.54,3.54,0,0,0-1.17,1.66c0,0.42.05,0.72,0.05,1.22,0,0.06,0,.12,0,0.19a4.57,4.57,0,0,0,.29.37,5.55,5.55,0,0,1,.58.85,1.36,1.36,0,0,1,.6.35l0.12,0a2.32,2.32,0,0,1,1.11,1,1.07,1.07,0,0,0,.69.45,4,4,0,0,1,1.35-.72,2,2,0,0,0,.26-0.46A3.64,3.64,0,0,0-27.33,70.41Z" transform="translate(250.03 200.03)"/><path class="cls-38" d="M-27.59,64.57a2.24,2.24,0,0,0-1.2.89,1.21,1.21,0,0,1,.64-0.33h0a0.85,0.85,0,0,1,1.1-.2l0.16-.15A2,2,0,0,1-27.59,64.57Z" transform="translate(250.03 200.03)"/><path class="cls-38" d="M-26.82,65.66a1.65,1.65,0,0,0-.36-0.16l-0.11.07-0.38-.12a0.84,0.84,0,0,0-.57.34,1.38,1.38,0,0,0-.16.26,1.08,1.08,0,0,1,.63,0,1,1,0,0,1,.41.16,1.58,1.58,0,0,1,1.3-.63c0.85,0.37.42,1,.08,1.38a3.1,3.1,0,0,0-.35,1.94,0.94,0.94,0,0,1,0,.2,0.94,0.94,0,0,0,.31-0.16v0a3.33,3.33,0,0,1,.27-1.12,2.14,2.14,0,0,1,.34-1.37,2.45,2.45,0,0,0,.21-0.26,2.6,2.6,0,0,1-.1-0.62,0.64,0.64,0,0,0-.29-0.5A1.51,1.51,0,0,0-26.82,65.66Z" transform="translate(250.03 200.03)"/><path class="cls-38" d="M-29.26,63.86c0,0.06-.13.25-0.26,0.44h0a2.22,2.22,0,0,0,.71-0.82A4.07,4.07,0,0,0-29.26,63.86Z" transform="translate(250.03 200.03)"/><path class="cls-38" d="M-25.71,63.86a2.84,2.84,0,0,0-.93.77l0,0a3.67,3.67,0,0,1,.4-0.25l0.28,0a0.82,0.82,0,0,1,1.2.57,5.36,5.36,0,0,1,.12,1,2.1,2.1,0,0,1-.49,1.35,2.5,2.5,0,0,0-.24.33,2.49,2.49,0,0,0-.11.65,1.93,1.93,0,0,1-.07.48,1.14,1.14,0,0,1-.17,1,1.82,1.82,0,0,0-.31.54,3.83,3.83,0,0,0,.41-0.19c0.35-.19-0.16-0.08.45-0.9s-0.4-1.3.58-2.47S-24.18,63.64-25.71,63.86Z" transform="translate(250.03 200.03)"/><path class="cls-38" d="M-33.67,70.55l-0.26-.16a2.52,2.52,0,0,1-.25.19c-2.9-2-2.7-4.36-2.15-5.77,0-.2.08-0.41,0.13-0.63a12.14,12.14,0,0,1,1.46-2.28,10.19,10.19,0,0,0-2,2.83,7,7,0,0,0-.15.74,8.48,8.48,0,0,0,0,1.36,5.38,5.38,0,0,0,1.22,3,9.71,9.71,0,0,1,1.21,1.13l0.28,0.18c1,0.24,2.6,3.72,3.24,5.65l0.2,0.24c0.65,0.54,1.16.83,1.23,0.93s0.25-.42-0.88-1.73C-31.07,74.26-32.7,70.79-33.67,70.55Z" transform="translate(250.03 200.03)"/><path class="cls-38" d="M-37.72,60.66a2.93,2.93,0,0,1,2.43,1,0.52,0.52,0,0,0,.4,0A31.09,31.09,0,0,1-32,59.3l-1,1.1a0.93,0.93,0,0,1-.44.87l0.3,0c0.24-.17.4-0.3,0.65-0.11a1,1,0,0,1,.27.3c0.66,0.41.47,1.38,0.25,2a1.75,1.75,0,0,0-.11,1.13v0a2.88,2.88,0,0,1,.46,1.45,1,1,0,0,1,.38-0.57,7.74,7.74,0,0,0-.15-1,1.81,1.81,0,0,1,0-1.54c0.32-.87.55-2.41-1.47-2.18a0.93,0.93,0,0,0,.44-0.87l1-1.1a31.08,31.08,0,0,0-2.9,2.38,0.52,0.52,0,0,1-.4,0,2.93,2.93,0,0,0-2.43-1s-1-.36-3.54.68a0.32,0.32,0,0,0,0,.32C-38.58,60.37-37.72,60.66-37.72,60.66Z" transform="translate(250.03 200.03)"/><path class="cls-38" d="M-30.44,64.77a1.09,1.09,0,0,0-.48.5A5.43,5.43,0,0,0-30.44,64.77Z" transform="translate(250.03 200.03)"/><path class="cls-38" d="M-27.79,68.88a0.27,0.27,0,0,1-.38-0.06l-0.07-.11a0.7,0.7,0,0,1-.55,0c0.22,0.26.29,0.5,0.46,0.68l0.17-.08A1.53,1.53,0,0,0-27.79,68.88Z" transform="translate(250.03 200.03)"/><path class="cls-38" d="M-29.08,67.95a0.65,0.65,0,0,0,.27.15A1.09,1.09,0,0,0-29.08,67.95Z" transform="translate(250.03 200.03)"/><path class="cls-38" d="M-27.08,62.44a4.28,4.28,0,0,0-1.19,1A4.51,4.51,0,0,1-27.63,63l-0.2.88s-1.45,1.55-2,2.13a1.79,1.79,0,0,0-.32,1.32,1.92,1.92,0,0,0,.72.9,1.56,1.56,0,0,1-.29-1.58l0.12-.21a1.5,1.5,0,0,1,.32-1c0.58-.58,2-2.13,2-2.13Z" transform="translate(250.03 200.03)"/><path class="cls-38" d="M-28.62,67.3a1.14,1.14,0,0,1-.19-0.36,1,1,0,0,0,.1.5A0.77,0.77,0,0,1-28.62,67.3Z" transform="translate(250.03 200.03)"/><path class="cls-38" d="M-29,66.11a1.26,1.26,0,0,0-.27.41,1.92,1.92,0,0,0,.89,1.59,0.2,0.2,0,0,0,0-.25c-0.6.06-.9-0.75-0.46-1.43a1.31,1.31,0,0,1,.38-0.88l0,0A6.73,6.73,0,0,0-29,66.11Z" transform="translate(250.03 200.03)"/><path class="cls-38" d="M-28.53,66.62a0.81,0.81,0,0,0,.22.53,0.46,0.46,0,0,1,.29.15h0.16a0.22,0.22,0,0,1,0,.23,0.93,0.93,0,0,1,0,.67,0.73,0.73,0,0,0,.25-0.13l0.14-.14A1.19,1.19,0,0,0-28,66.71a0.71,0.71,0,0,0-.12.18,1.16,1.16,0,0,1-.09-0.26A0.6,0.6,0,0,0-28.53,66.62Z" transform="translate(250.03 200.03)"/><path class="cls-38" d="M-20.51,69a2.44,2.44,0,0,1-2.17-2.74,1.2,1.2,0,0,1,.13-0.36,1.49,1.49,0,0,0-.62.7,2.17,2.17,0,0,0,.37,1.73A3.9,3.9,0,0,0-21,69.58c1,0.1.31-.2,1,0.15l0.35,0a1.75,1.75,0,0,0,.53.45l1,0.45c3.45,1.54,4.19-.09,4.58-0.4-0.58.48-1.67,0.9-4-.15C-21.13,68.48-19,69.17-20.51,69Z" transform="translate(250.03 200.03)"/><path class="cls-38" d="M-13.59,70.2h0l0.07-.07Z" transform="translate(250.03 200.03)"/><path class="cls-38" d="M-11.7,68.43a0.7,0.7,0,0,1-.31.11,0.71,0.71,0,0,0-.72.58l0.17,0A1.35,1.35,0,0,0-11.7,68.43Z" transform="translate(250.03 200.03)"/><path class="cls-38" d="M-18.05,65.12a1,1,0,0,0,.57-0.45s-0.08-.48-0.08-0.48a1.09,1.09,0,0,1-.56.56Z" transform="translate(250.03 200.03)"/><path class="cls-38" d="M-11,64.79a4.12,4.12,0,0,1-2.19-2.05l-0.52.36a2.76,2.76,0,0,0,1.06,1.19,8.75,8.75,0,0,0,1.27,1.12l0.15,0.1,0.32,0.19a0.9,0.9,0,0,1,.27,1.06,3.88,3.88,0,0,1-.05,1.85l-0.05.12A1.35,1.35,0,0,0-10.14,68C-9.81,67.13-10.07,65-11,64.79Z" transform="translate(250.03 200.03)"/><path class="cls-38" d="M-12.57,69.69a6.34,6.34,0,0,1-.62,1.45,2.56,2.56,0,0,0,1-1.52A3.51,3.51,0,0,1-12.57,69.69Z" transform="translate(250.03 200.03)"/><path class="cls-38" d="M-21.56,65.15a3.54,3.54,0,0,1,2.19,0,2.36,2.36,0,0,0,.84.12,1.1,1.1,0,0,0,.42-0.48,1.28,1.28,0,0,1-.75.07c-1-.18-2.86-0.55-3.68.45l-0.16.21A2.52,2.52,0,0,1-21.56,65.15Z" transform="translate(250.03 200.03)"/><path class="cls-38" d="M-15.71,67.48a1.72,1.72,0,0,1-.4.1,2.36,2.36,0,0,0,.46-0.45,2.12,2.12,0,0,0-.08-0.61,0.78,0.78,0,0,1-.21.35,1.22,1.22,0,0,1-.41,1l0.42,0A0.85,0.85,0,0,0-15.71,67.48Z" transform="translate(250.03 200.03)"/><path class="cls-38" d="M-15.17,66a1.61,1.61,0,0,1,0,1,1.07,1.07,0,0,1,0,.7l0,0a1,1,0,0,0,.57-0.59,1,1,0,0,0,.06-0.17A1.31,1.31,0,0,0-15.17,66Z" transform="translate(250.03 200.03)"/><path class="cls-38" d="M-16.35,66.54c-0.22.11,0.13-.39-0.46-0.06,0.53,0.09,0,1.17,0,1.17A0.81,0.81,0,0,0-16.35,66.54Z" transform="translate(250.03 200.03)"/><path class="cls-38" d="M-18.74,66.86l-0.06,0s0,0,0,0h0.06Z" transform="translate(250.03 200.03)"/><path class="cls-38" d="M-15.31,68.69a1.13,1.13,0,0,0,.56-0.56h0a3.64,3.64,0,0,1-3.42.32,1.09,1.09,0,0,1-1.19-1,1.6,1.6,0,0,1-.05-1c-0.4-.24-1.05,1.17-0.19,2.05h0.43a7.1,7.1,0,0,0,.84.63A3.61,3.61,0,0,0-15.31,68.69Z" transform="translate(250.03 200.03)"/><path class="cls-38" d="M-15.82,65.91a2.83,2.83,0,0,1,.45.55,1.22,1.22,0,0,0-.82-1A1.86,1.86,0,0,1-15.82,65.91Z" transform="translate(250.03 200.03)"/><path class="cls-38" d="M-11.55,66.68c-0.6-1.35-.84-1.2-1.09-1.29s0.3-.35-1.57-0.54a1.85,1.85,0,0,0-.59-1.07l-0.84.54a1,1,0,0,0,.06.16l0.22-.14a1.67,1.67,0,0,1,.58,1l0.12,0.07c1.74,0.19,1.22.44,1.47,0.52s0.49-.07,1.09,1.29a1.43,1.43,0,0,1,.15.59C-11.52,67.72-11.19,67.47-11.55,66.68Z" transform="translate(250.03 200.03)"/><path class="cls-38" d="M-13.21,68.45l-0.18,0c-0.41.08-.43,0.87-0.42,1.2a3.54,3.54,0,0,0,.56-0.42A3.3,3.3,0,0,1-13.21,68.45Z" transform="translate(250.03 200.03)"/><path class="cls-38" d="M-16.21,66.38a1.16,1.16,0,0,1,.15.19c0.08-.34.08-0.71-0.38-0.64A0.72,0.72,0,0,1-16.21,66.38Z" transform="translate(250.03 200.03)"/><path class="cls-38" d="M-21.13,66a4.64,4.64,0,0,1,1.9,0,0.3,0.3,0,0,1,.38-0.16,0.91,0.91,0,0,0,.67.42,1,1,0,0,0-.34.08,1.08,1.08,0,0,1,.39.53c0.73-.16.7,0.17,0.7,0.17,0.72-.43.27,0.18,0.57,0S-17,66.49-17,66.49h0.11c0-.08-0.15-0.24-0.7-0.12,0,0-.32-1.3-3-0.89a2,2,0,0,0-1.47.85A2.52,2.52,0,0,1-21.13,66Z" transform="translate(250.03 200.03)"/><path class="cls-38" d="M-23.33,73.13a8.83,8.83,0,0,0,3,1.13A15,15,0,0,1-14,77.38c0.14,0.14.06,0.41,0.22,0.64a2.62,2.62,0,0,0,.44.35v1.29a3.87,3.87,0,0,0-1-1.78c-0.67-.56-1.2-1.92-6.73-3.36A6.64,6.64,0,0,1-23.33,73.13Z" transform="translate(250.03 200.03)"/><path class="cls-38" d="M-17.26,86.77s1.62,3,4.44,2c0,0,.14-4.21,0-5.29,0,0,.26,0,0.28-0.49s0.4,7.26,0,8.54a1.44,1.44,0,0,0-.43.68s0.21-.71-0.34-0.51A4.69,4.69,0,0,1-16.6,90.5s3.23,1.05,3.6.51-0.07-1.08.28-1.56-0.11-.2-0.59,0S-16,89.87-17.26,86.77Z" transform="translate(250.03 200.03)"/><path class="cls-38" d="M-13.05,93.06a21.38,21.38,0,0,1-2.9-.83,5.43,5.43,0,0,0,2.65,1.05C-12,93.31-13.05,93.06-13.05,93.06Z" transform="translate(250.03 200.03)"/><path class="cls-38" d="M0.12,92.76l-0.38.35A1.6,1.6,0,0,1-.19,94a4,4,0,0,1,.6.54c0,0.11-.18.22-0.28,0.14s0.53,0.63-.1,1a2.14,2.14,0,0,0,.22.93c0.21,0.3.28,0.71,0,.84l-0.07,0c0.19,0,.42,0,0.83.11a3.59,3.59,0,0,0,.42,0c0-.08,0-0.18,0-0.3-0.31,0-.65,0-0.65,0-0.21,0-.29-0.28,0-0.41S1,96.33.81,96A2.14,2.14,0,0,1,.59,95.1c0.63-.35,0-1.06.1-1S1,94.1,1,94a4,4,0,0,0-.6-0.54,1.45,1.45,0,0,0,0-.55A0.41,0.41,0,0,1,.12,92.76Z" transform="translate(250.03 200.03)"/><path class="cls-38" d="M2,96a3.09,3.09,0,0,1,0,1.16,0.42,0.42,0,0,1-.17.07c0,0.12,0,.2,0,0.2a1.14,1.14,0,0,0,.23,0,0.6,0.6,0,0,0,.34-0.27l0.31,0.06,0,0a2.32,2.32,0,0,0,0-.31,1.27,1.27,0,0,1-.33,0s0-.4.06-0.78a1.16,1.16,0,0,0-.31-0.33A0.23,0.23,0,0,1,2,96Z" transform="translate(250.03 200.03)"/><path class="cls-38" d="M-5,93.68a1.41,1.41,0,0,1-.36-0.4,0.08,0.08,0,0,0-.09,0c-0.08.51,0.3,3,1.7,3.76l0.29,0a6.79,6.79,0,0,1-.38-0.72A3.73,3.73,0,0,1-5,93.68Z" transform="translate(250.03 200.03)"/><path class="cls-38" d="M2.49,94.36a0.8,0.8,0,0,0-.18-1.12s0.31-.57-0.93-1.19l-1.51-.67A7.59,7.59,0,0,1-1,92c-0.15,0-.14.06-0.06,0.24h0l0.42-.31,1.11,0.49,0.26-.24a0.56,0.56,0,0,0,.4.17,0.75,0.75,0,0,1,.49.73,0.29,0.29,0,0,0,0,.06,0.94,0.94,0,0,1,.16.25l0,0,0,0a0.46,0.46,0,0,1,0,.34,0.8,0.8,0,0,1,.18,1.12,1.7,1.7,0,0,1,.66.46,0.24,0.24,0,0,0,.05-0.19,1.58,1.58,0,0,1,.59,1.44,0.3,0.3,0,0,1-.22.19c0,0.16,0,.31,0,0.44,0.3,0,.6,0,0.56-0.27C3.48,96.48,3.91,94.95,2.49,94.36Z" transform="translate(250.03 200.03)"/><path class="cls-38" d="M-5,93.15a1.32,1.32,0,0,1,0-.2c0.07-.32.2-0.21,0.2-0.21a1.22,1.22,0,0,0,.4.42h0.1A0.24,0.24,0,0,0-4.24,93a2.58,2.58,0,0,1,1,0,0.37,0.37,0,0,0,0,.13,2.49,2.49,0,0,1,.94-0.3A1.07,1.07,0,0,1-2,92.63a0.94,0.94,0,0,1,.57-0.13l0.29-.2a2,2,0,0,0-1.5.29H-4.45a1.34,1.34,0,0,1-.75-0.24,6.06,6.06,0,0,1-.2.73A1.29,1.29,0,0,0-5,93.15Z" transform="translate(250.03 200.03)"/><path class="cls-38" d="M-0.69,97.49h0Z" transform="translate(250.03 200.03)"/><path class="cls-38" d="M-0.95,97.51a0.91,0.91,0,0,1-.23-0.08,0.34,0.34,0,0,1-.13-0.24,1.47,1.47,0,0,1-.89-0.31,0.61,0.61,0,0,1,.07-0.29C-2.29,96.5-2.42,96-2.41,96.31a2.46,2.46,0,0,1-.27.81A14.72,14.72,0,0,0-.95,97.51Z" transform="translate(250.03 200.03)"/><path class="cls-38" d="M-2.57,93.19a0.59,0.59,0,0,0-.35.61c0.26,0,.45.18,0.36,0.8a1.61,1.61,0,0,0,.42,1.3,0.58,0.58,0,0,1,.18.3,1.19,1.19,0,0,0,.11-0.44c0-.33.17,0.39,0.38,0.27s0-.59-0.11-0.69A1.61,1.61,0,0,1-2,94c0.08-.61-0.1-0.84-0.36-0.8a0.34,0.34,0,0,1,0-.15A0.73,0.73,0,0,0-2.57,93.19Z" transform="translate(250.03 200.03)"/><path class="cls-38" d="M-30.6,91.17c0.09,0.31.29,0.2,0.35,0a1.18,1.18,0,0,1,.18-0.37,1.55,1.55,0,0,1,0-.16v0a0.55,0.55,0,0,1-.37-0.49,0.83,0.83,0,0,1,.08-0.39l-0.14.08a1.05,1.05,0,0,0-.49.87A0.55,0.55,0,0,0-30.6,91.17Z" transform="translate(250.03 200.03)"/><path class="cls-38" d="M-34.61,78.16a4.31,4.31,0,0,0,1.68,2.67c1.4,1.2,2.16,1,2.56,2.37a4.85,4.85,0,0,0-.83-1.92l-0.08,0C-32.27,81-34.44,79.1-34.61,78.16Z" transform="translate(250.03 200.03)"/><path class="cls-38" d="M-34.23,92.23c-0.09-.22-0.37,0-0.37,0h0l0,0.12a0.52,0.52,0,0,1,0,.55,1,1,0,0,0,.33.76l0.11,0.06,0-.18A10.4,10.4,0,0,1-34.23,92.23Z" transform="translate(250.03 200.03)"/><path class="cls-38" d="M-32.93,91.35c0.33,0,.27-0.3.45,0v0c0.07-.31.29,0,0.55,0h0V91a0.1,0.1,0,0,0,.08-0.09h0c-0.33-.53-0.18-0.15-0.57-0.13s-0.13,0-.09-0.57a2.54,2.54,0,0,1,0-.27l-0.44.27s-0.11,0-.15.55S-33.31,91.37-32.93,91.35Z" transform="translate(250.03 200.03)"/><path class="cls-38" d="M-31.35,78.61c1.17,1,2.82,1.2,3.47,1.61,0.33,0.21.44-.16,0.46-0.61-0.77-.42-2.6-0.68-3.72-1.88s-2.39-4-2.87-4.5a24.2,24.2,0,0,1-2.68-3.69,19.16,19.16,0,0,0,1.42,3C-34.59,73.65-32.28,76.48-31.35,78.61Z" transform="translate(250.03 200.03)"/><path class="cls-38" d="M-31.47,94.11a2.91,2.91,0,0,0,0-.39c-0.4.06-.86,0.23-1.13,0.26s-0.34-.2-0.34-0.2a4,4,0,0,0,.14-1.36,0.24,0.24,0,0,0,0-.38,0.37,0.37,0,0,1,0-.3c-0.13-.06-0.22-0.1-0.27.09a0.58,0.58,0,0,1-.27.41,0.48,0.48,0,0,0,0,.36,0.24,0.24,0,0,1,0,.38,4.39,4.39,0,0,1-.06,1l0.12,0.1A2.88,2.88,0,0,0-31.47,94.11Z" transform="translate(250.03 200.03)"/><path class="cls-38" d="M-32.13,83l0.38,0.32a2.33,2.33,0,0,1,1,1.1h0a2.39,2.39,0,0,0-.9-1.82h-0.13a2.63,2.63,0,0,1-1.53-1.1l-0.13-.11a6.27,6.27,0,0,1-.7-0.7A6.81,6.81,0,0,0-32.13,83Z" transform="translate(250.03 200.03)"/><path class="cls-38" d="M-31.93,91.5a0.19,0.19,0,0,0,.06-0.1Z" transform="translate(250.03 200.03)"/><path class="cls-38" d="M-30.9,88.48a0.72,0.72,0,0,0,.59-0.57h0A13.59,13.59,0,0,0-32.46,89c-0.46.24-.67-0.09-0.85,0.65a1,1,0,0,0,.3-0.1A13.59,13.59,0,0,1-30.9,88.48Z" transform="translate(250.03 200.03)"/><path class="cls-38" d="M-8.62,97.09h0Z" transform="translate(250.03 200.03)"/><path class="cls-38" d="M-24,85c0-.06,0-0.13,0-0.19a1,1,0,0,1-.73,0,2.32,2.32,0,0,0-.13.34A1.74,1.74,0,0,1-25.27,85L-25,85.4A1.34,1.34,0,0,0-24,85Z" transform="translate(250.03 200.03)"/><path class="cls-38" d="M-25.13,83.68a0.6,0.6,0,0,1,.18-0.2,3,3,0,0,0-.44-0.76,0.14,0.14,0,0,0-.17.07,1.31,1.31,0,0,0,.63,1.54,0.79,0.79,0,0,0,.06-0.2A0.36,0.36,0,0,1-25.13,83.68Z" transform="translate(250.03 200.03)"/><path class="cls-38" d="M-25.07,84.55A2.3,2.3,0,0,1-25.49,84a0.55,0.55,0,0,0-.19.2l0.24,0.45A0.34,0.34,0,0,0-25.07,84.55Z" transform="translate(250.03 200.03)"/><path class="cls-38" d="M-30.54,93.54a0.16,0.16,0,0,0,.12.06c0-.09.07-0.19,0.1-0.28V92.11A0.47,0.47,0,0,1-30.37,92a0.29,0.29,0,0,0-.5.16v1.93c0.17,0,.41.12,0.69,0.17A1.11,1.11,0,0,0-30.24,94C-30.51,93.92-30.66,93.43-30.54,93.54Z" transform="translate(250.03 200.03)"/><path class="cls-38" d="M-21.55,88.38s-1.45-8.39-3.1-11c0,0,.14-3.81-0.91-5.41,0,0-.19-1.22.16-0.78a1,1,0,0,1-.21-0.61,3.68,3.68,0,0,1-2,.92,5.84,5.84,0,0,1-1.76-.75A6.42,6.42,0,0,1-28.09,72a3.76,3.76,0,0,0,1.92-.92,1,1,0,0,0,.21.61c-0.35-.44-0.16.78-0.16,0.78,1.05,1.59.91,5.41,0.91,5.41,1.35,2.16,2.57,8.18,3,10.29,0.5,0.44,1,1.29,1.91,3.73l0.2,0.43c0.39,0.41,2,2.35,2.11,6.3l0.41-.07c0-.16-0.05-0.36-0.08-0.61A22.78,22.78,0,0,0-21.55,88.38Z" transform="translate(250.03 200.03)"/><path class="cls-38" d="M-25.79,82.35c-0.31-.19-0.46,0-0.53.4q0.09,0.27.22,0.59c0.09-.11.2-0.05,0.31,0.07A5.74,5.74,0,0,1-25.79,82.35Z" transform="translate(250.03 200.03)"/><path class="cls-38" d="M-27.52,85.7a9,9,0,0,1,.41-3.77A1.08,1.08,0,0,1-27,81.42a5.73,5.73,0,0,1,.38-0.92c-1,.12-1.87,4.92-1.5,5.75s0.68,5.41.71,6.26a2,2,0,0,1-.37,1.35,1.06,1.06,0,0,0,.18-0.14A2.06,2.06,0,0,0-26.81,92C-26.84,91.11-27.12,86.58-27.52,85.7Z" transform="translate(250.03 200.03)"/><path class="cls-38" d="M-26.2,81.08a4.65,4.65,0,0,1,.84.66,1.19,1.19,0,0,1,.51.42,2,2,0,0,1,.51,1.55,2.48,2.48,0,0,1,0,.65,0.45,0.45,0,0,0-.22.16l0.26,0.06A2,2,0,0,1-24,84c-0.2-2.55-1.28-2.92-2.17-3.34a0.77,0.77,0,0,0-.33.46A0.91,0.91,0,0,1-26.2,81.08Z" transform="translate(250.03 200.03)"/><path class="cls-39" d="M22.2,29.21a104.68,104.68,0,0,0-36.68-5.73,104.28,104.28,0,0,0-18.66,2.13c-3,.62-6,1.38-8.91,2.26l-2.09.66-1,.34a3.2,3.2,0,0,0-1.06.39q-0.78,2.13-1.47,4.29a109,109,0,0,0-2.5,55.24q1,4.44,2.32,8.78,0.32,1,.67,2.08l0.17,0.52a0.88,0.88,0,0,0,.37.15l1.2,0.42q2.16,0.74,4.34,1.37A104.58,104.58,0,0,0-4,105.94a103.73,103.73,0,0,0,18.33-3.06q4.42-1.15,8.72-2.69a2.85,2.85,0,0,0,.32-0.9l0.34-1Q24,97.1,24.38,96,25,93.8,25.55,91.61A108.74,108.74,0,0,0,28,54.11a104.38,104.38,0,0,0-5.78-24.87,2.22,2.22,0,0,0-.12.6,3,3,0,0,0,.07,1.05,101.84,101.84,0,0,1,6.25,36.48,101.57,101.57,0,0,1-2.07,18.78q-0.93,4.57-2.29,9-0.32,1.05-.66,2.1l-0.35,1a2.26,2.26,0,0,1-1.23.56q-2.15.74-4.34,1.39a104.56,104.56,0,0,1-37.11,4,103.77,103.77,0,0,1-18.33-3q-4.42-1.13-8.72-2.66a1.18,1.18,0,0,1-.61-1l-0.34-1q-0.36-1.13-.7-2.27-0.66-2.24-1.21-4.52a101,101,0,0,1-2-37.29,102.15,102.15,0,0,1,4.11-18q0.34-1,.69-2.06l0.36-1A0.75,0.75,0,0,1-46,30.88l0.69-.24q2.16-.74,4.36-1.37,4.42-1.29,9-2.17a104.85,104.85,0,0,1,37.54-.47A103.26,103.26,0,0,1,22.2,30.93S22.49,29.32,22.2,29.21Z" transform="translate(250.03 200.03)"/></svg>