<svg id="Layer_1" data-name="Layer 1" xmlns="http://www.w3.org/2000/svg" xmlns:xlink="http://www.w3.org/1999/xlink" viewBox="0 0 9.67 9.88"><defs><style>.cls-1{fill:#3b3b3b;}.cls-2{fill:#5e5e5e;}.cls-3{fill:url(#linear-gradient);}.cls-4{fill:url(#linear-gradient-2);}.cls-5{fill:url(#linear-gradient-3);}.cls-6{fill:url(#linear-gradient-4);}.cls-7{fill:url(#linear-gradient-5);}.cls-8{fill:url(#linear-gradient-6);}.cls-9{fill:url(#linear-gradient-7);}.cls-10{fill:url(#linear-gradient-8);}.cls-11{fill:url(#linear-gradient-9);}.cls-12{fill:url(#linear-gradient-10);}.cls-13{fill:url(#linear-gradient-11);}.cls-14{fill:url(#linear-gradient-12);}.cls-15{fill:url(#linear-gradient-13);}.cls-16{fill:url(#linear-gradient-14);}.cls-17{fill:url(#linear-gradient-15);}.cls-18{fill:url(#linear-gradient-16);}.cls-19{fill:url(#linear-gradient-17);}.cls-20{fill:url(#linear-gradient-18);}.cls-21{fill:url(#linear-gradient-19);}.cls-22{fill:url(#linear-gradient-20);}.cls-23{fill:url(#linear-gradient-21);}.cls-24{fill:url(#linear-gradient-22);}.cls-25{fill:url(#linear-gradient-23);}.cls-26{fill:url(#linear-gradient-24);}.cls-27{fill:url(#linear-gradient-25);}.cls-28{fill:url(#linear-gradient-26);}.cls-29{fill:url(#linear-gradient-27);}.cls-30{fill:url(#linear-gradient-28);}.cls-31{fill:url(#linear-gradient-29);}.cls-32{fill:url(#linear-gradient-30);}.cls-33{fill:url(#linear-gradient-31);}.cls-34{fill:url(#linear-gradient-32);}.cls-35{fill:#f3f2e5;}.cls-36{fill:#93928b;}</style><linearGradient id="linear-gradient" x1="4.63" y1="0.86" x2="5.52" y2="0.86" gradientUnits="userSpaceOnUse"><stop offset="0" stop-color="#d2d1c6"/><stop offset="1" stop-color="#92928a"/></linearGradient><linearGradient id="linear-gradient-2" x1="4.27" y1="1.35" x2="4.56" y2="1.35" xlink:href="#linear-gradient"/><linearGradient id="linear-gradient-3" x1="5.31" y1="1.58" x2="6.01" y2="1.58" xlink:href="#linear-gradient"/><linearGradient id="linear-gradient-4" x1="5.55" y1="2.05" x2="5.68" y2="2.05" xlink:href="#linear-gradient"/><linearGradient id="linear-gradient-5" x1="5.22" y1="1.97" x2="5.53" y2="1.97" xlink:href="#linear-gradient"/><linearGradient id="linear-gradient-6" x1="4.84" y1="2.11" x2="5.52" y2="2.11" xlink:href="#linear-gradient"/><linearGradient id="linear-gradient-7" x1="2.2" y1="4.07" x2="6.72" y2="4.07" xlink:href="#linear-gradient"/><linearGradient id="linear-gradient-8" x1="5.65" y1="2.93" x2="6.35" y2="2.93" xlink:href="#linear-gradient"/><linearGradient id="linear-gradient-9" x1="5.35" y1="2.59" x2="5.48" y2="2.59" xlink:href="#linear-gradient"/><linearGradient id="linear-gradient-10" x1="5.49" y1="2.51" x2="5.64" y2="2.51" xlink:href="#linear-gradient"/><linearGradient id="linear-gradient-11" x1="5.66" y1="2.57" x2="5.99" y2="2.57" xlink:href="#linear-gradient"/><linearGradient id="linear-gradient-12" x1="6.02" y1="2.57" x2="6.11" y2="2.57" xlink:href="#linear-gradient"/><linearGradient id="linear-gradient-13" x1="6.14" y1="2.58" x2="6.23" y2="2.58" xlink:href="#linear-gradient"/><linearGradient id="linear-gradient-14" x1="6.26" y1="2.6" x2="6.46" y2="2.6" xlink:href="#linear-gradient"/><linearGradient id="linear-gradient-15" x1="6.47" y1="2.72" x2="6.65" y2="2.72" xlink:href="#linear-gradient"/><linearGradient id="linear-gradient-16" x1="6.46" y1="2.9" x2="6.7" y2="2.9" xlink:href="#linear-gradient"/><linearGradient id="linear-gradient-17" x1="5.08" y1="5.07" x2="6.47" y2="5.07" xlink:href="#linear-gradient"/><linearGradient id="linear-gradient-18" x1="6.19" y1="5.57" x2="6.62" y2="5.57" xlink:href="#linear-gradient"/><linearGradient id="linear-gradient-19" x1="5.52" y1="5.89" x2="6.9" y2="5.89" xlink:href="#linear-gradient"/><linearGradient id="linear-gradient-20" x1="2.22" y1="3.72" x2="2.93" y2="3.72" xlink:href="#linear-gradient"/><linearGradient id="linear-gradient-21" x1="1.85" y1="3.77" x2="2.29" y2="3.77" xlink:href="#linear-gradient"/><linearGradient id="linear-gradient-22" x1="1.53" y1="4.14" x2="2.45" y2="4.14" xlink:href="#linear-gradient"/><linearGradient id="linear-gradient-23" x1="1.56" y1="5.34" x2="3.51" y2="5.34" xlink:href="#linear-gradient"/><linearGradient id="linear-gradient-24" x1="3.61" y1="5.19" x2="5.17" y2="5.19" xlink:href="#linear-gradient"/><linearGradient id="linear-gradient-25" x1="3.73" y1="5.17" x2="5" y2="5.17" xlink:href="#linear-gradient"/><linearGradient id="linear-gradient-26" x1="3.67" y1="6.22" x2="4.84" y2="6.22" xlink:href="#linear-gradient"/><linearGradient id="linear-gradient-27" x1="4.38" y1="7.53" x2="4.96" y2="7.53" xlink:href="#linear-gradient"/><linearGradient id="linear-gradient-28" x1="4.53" y1="8.14" x2="4.92" y2="8.14" xlink:href="#linear-gradient"/><linearGradient id="linear-gradient-29" x1="5.7" y1="8.41" x2="6.76" y2="8.41" xlink:href="#linear-gradient"/><linearGradient id="linear-gradient-30" x1="2.02" y1="5.46" x2="2.03" y2="5.46" xlink:href="#linear-gradient"/><linearGradient id="linear-gradient-31" x1="3.36" y1="5.68" x2="3.37" y2="5.68" xlink:href="#linear-gradient"/><linearGradient id="linear-gradient-32" x1="2.03" y1="7.37" x2="5.67" y2="7.37" xlink:href="#linear-gradient"/></defs><title>LogoTab</title><path class="cls-1" d="M2.71,0.65Q2.18,0.75,1.66.9l-0.51.16-0.08,0a0.09,0.09,0,0,0,0,.06L1,1.28,0.9,1.52A12,12,0,0,0,.42,3.63,11.85,11.85,0,0,0,.65,8Q0.72,8.28.8,8.54L0.88,8.81l0,0.12A0.14,0.14,0,0,0,1,9q0.51,0.18,1,.31a12.19,12.19,0,0,0,2.15.35,12.28,12.28,0,0,0,4.36-.47L9,9.08A0.27,0.27,0,0,0,9.18,9l0-.12L9.3,8.64q0.16-.52.27-1.06a11.93,11.93,0,0,0,.24-2.21A12,12,0,0,0,9.08,1.1a12.13,12.13,0,0,0-2-.5A12.31,12.31,0,0,0,2.71.65Z" transform="translate(-0.17 -0.06)"/><path class="cls-1" d="M4.76,1.37A0.8,0.8,0,0,1,5.32.62s0.41-.07.3,0.26A0.42,0.42,0,0,1,5.52,1a0.4,0.4,0,0,0-.16.4,0.25,0.25,0,0,0-.22.07S5.15,1.12,4.76,1.37Z" transform="translate(-0.17 -0.06)"/><path class="cls-1" d="M4.43,1.66s-0.11-.26.09-0.31,0.18,0.16.11,0.18a0.16,0.16,0,0,0-.12.12A0,0,0,0,1,4.43,1.66Z" transform="translate(-0.17 -0.06)"/><path class="cls-1" d="M5.45,1.46a0.47,0.47,0,0,1,.15.07,0.45,0.45,0,0,1,.31.24,0.47,0.47,0,0,0,.16.13c0.09,0,.11.18,0,0.12a0.35,0.35,0,0,1-.3-0.07C5.59,1.85,5.62,1.8,5.64,1.77s0,0,0,0A0.32,0.32,0,0,1,5.55,1.6a0.1,0.1,0,0,0-.08-0.08S5.43,1.45,5.45,1.46Z" transform="translate(-0.17 -0.06)"/><path class="cls-1" d="M5.67,2.28a0.15,0.15,0,0,1,.09-0.13s0.07,0,0,0A0.28,0.28,0,0,0,5.67,2.28Z" transform="translate(-0.17 -0.06)"/><path class="cls-1" d="M5.38,2.12s0,0,0,.08l0,0a0.12,0.12,0,0,1,.08.05s0.19,0,.13-0.12A0.15,0.15,0,0,0,5.51,2s0-.07-0.13,0A0.06,0.06,0,0,0,5.38,2.12Z" transform="translate(-0.17 -0.06)"/><path class="cls-1" d="M5.26,2s0.05,0,.05,0,0,0,0,.07a0.16,0.16,0,0,1,0,.09,0.23,0.23,0,0,0,.23.09c0.1,0,0,.1,0,0.1a0,0,0,0,1,0,0,0.33,0.33,0,0,1-.15.06H5.19A0.27,0.27,0,0,1,5,2.36c0-.13,0-0.08,0-0.1S4.94,2.26,5.26,2Z" transform="translate(-0.17 -0.06)"/><path class="cls-1" d="M6.82,2.8a0.24,0.24,0,0,1-.07-0.12,0.15,0.15,0,0,0,0-.15s-0.1-.21-0.1-0.16a0.37,0.37,0,0,0,.05.13c0.07,0.13-.06.1-0.06,0.1a1.43,1.43,0,0,1,0-.49A0.42,0.42,0,0,0,6,2.22c-0.05.12,0.14,0.2,0.17,0.19a0.19,0.19,0,0,0,.13,0s0,0,0,0-0.13,0-.13,0a0,0,0,0,1,0,0c0.23-.06.12,0.11,0.16,0.14s0,0.12,0,.13a0.19,0.19,0,0,1-.16,0,0.47,0.47,0,0,0-.18-0.13,1.09,1.09,0,0,0-.44.22,1.4,1.4,0,0,1-.31,0,0.63,0.63,0,0,0-.34-0.15,0.13,0.13,0,0,0,0-.07s0-.05,0-0.07a0,0,0,0,0,0-.05,0,0,0,0,1,0,0A1.14,1.14,0,0,1,5.06,2,0.26,0.26,0,0,1,5.19,2a1.1,1.1,0,0,0,.16-0.05s0,0,0,0,0.23-.16.17-0.21a1,1,0,0,0-.08-0.14c-0.06,0,0-.08-0.11-0.12a0.09,0.09,0,0,0-.12,0,0.62,0.62,0,0,1-.18.13c-0.24.08-.2,0-0.16-0.06A0.69,0.69,0,0,1,5,1.43c0-.1-0.06-0.1-0.17,0a0.9,0.9,0,0,0-.18.2c-0.14.08-.07,0.1-0.19,0.17a1.29,1.29,0,0,0-.2.26c-0.11.1-.1,0-0.1,0A1.49,1.49,0,0,1,4.4,1.73,1.11,1.11,0,0,0,4,2.28c-0.2.43-.07,0.35-0.11,0.39a0.12,0.12,0,0,0,0,.14,0.15,0.15,0,0,1,.06,0s0,0,0,0a0.56,0.56,0,0,1,.1-0.16,0.1,0.1,0,0,0,0-.09C4,2.52,4,2.6,4,2.6s0.13-.14.13,0A0.45,0.45,0,0,1,4,2.92,0.33,0.33,0,0,0,4,3.3a0.37,0.37,0,0,1,0,.26c0.38-.06.33,0.25,0.33,0.25C4.25,4,3.89,4.12,3.87,3.9s0.19-.32.3-0.19S4,3.94,4,3.86,4,3.8,4,3.8s0.19-.15,0-0.1a0.12,0.12,0,0,0-.07.2,0.24,0.24,0,0,0,.23,0c0.19-.16,0-0.27,0-0.27a0.31,0.31,0,0,0-.38.21,0.37,0.37,0,0,1-.12-0.38c0-.05.1-0.14,0.17,0a0.12,0.12,0,0,1-.07.19s0,0,0,0a0.12,0.12,0,0,0,0-.13c0-.07-0.07,0-0.07,0,0,0.4.24,0.1,0.24,0.1,0.11-.34-0.08-0.32-0.08-0.32-0.29,0-.27.42-0.27,0.42A2.53,2.53,0,0,0,3.15,4a1.09,1.09,0,0,1-.22.22s0,0,0,0a0.12,0.12,0,0,0-.06-0.13,0.39,0.39,0,0,0-.39,0c-0.26.15,0,.34,0.08,0.36a0.21,0.21,0,0,0,.28-0.2c0-.17-0.18-0.15-0.22-0.08s0,0.1.08,0.08a0.08,0.08,0,0,0,0-.08c0.06,0,0,.08,0,0.08S2.38,4.11,2.63,4.06s0.23,0.28.23,0.28c0.34-.26.32-0.2,0.43-0.3a2.54,2.54,0,0,1,.39-0.26l0,0a2.18,2.18,0,0,0-.58.47S3,4.41,3,4.46a2.23,2.23,0,0,1-.13.22c0,0.09.07,0,.12-0.07l0.17-.14A0.8,0.8,0,0,1,3.53,4.1a1,1,0,0,1,.22-0.15,0.29,0.29,0,0,0,.08.12,0.24,0.24,0,0,0-.2.12,2,2,0,0,1-.17.15,0.37,0.37,0,0,1-.08.14,0.27,0.27,0,0,0-.06.14A1.94,1.94,0,0,1,3.23,5a0.83,0.83,0,0,0,.32-0.44c0.11,0,.22-0.25.37-0.33s0.16-.05.16-0.05a0.11,0.11,0,0,0,0,.11,0.41,0.41,0,0,1-.18.38C3.61,5,3.82,5,3.82,5A0.3,0.3,0,0,1,4,4.8a0.88,0.88,0,0,0,.5-0.41,0.49,0.49,0,0,1,.11-0.1,0.79,0.79,0,0,1,0,.11,0.07,0.07,0,0,0,0,0,0.81,0.81,0,0,1-.25.48c0,0.27.13,0.28,0.14,0.28S4.4,5.16,4.73,5a0.62,0.62,0,0,0,.42-0.44,0.45,0.45,0,0,1,0-.19,0.78,0.78,0,0,1,.08.14,0.37,0.37,0,0,1,0,.16c0.51,1.61,0,2.25-.09,2.35s0,0.14,0,.14a1.32,1.32,0,0,0,.75-1.8,2,2,0,0,1-.13-0.78,0.27,0.27,0,0,0,0-.16c0.07-.08,0-0.1,0-0.12A0.81,0.81,0,0,0,6,4a0.41,0.41,0,0,1,0-.19,0.92,0.92,0,0,0,0-.34,0.33,0.33,0,0,1,.25-0.25,0.34,0.34,0,0,1,.34.33,1.51,1.51,0,0,1-.06.32,0.75,0.75,0,0,1,0,.3,0.38,0.38,0,0,0,.08.33s0.06,0,0-.17a1,1,0,0,1,0-.6,0.46,0.46,0,0,0,0-.38A0.4,0.4,0,0,0,6,3.26a0.41,0.41,0,0,1-.36,0,0.61,0.61,0,0,0-.53,0,0,0,0,0,1-.06,0c-0.69.39-.81,0-0.82-0.09s0,0,0,0a0.32,0.32,0,0,1,.32-0.43,1.19,1.19,0,0,1,.31.12,0.45,0.45,0,0,1,.2.07,0.3,0.3,0,0,0,.28-0.07,0.88,0.88,0,0,0,.21-0.19c0.25-.2.33-0.1,0.36-0.08a0.62,0.62,0,0,0,.15.08L6.23,2.67a0.53,0.53,0,0,0,.24,0c0.05,0,.14.14,0.2,0.16a0.41,0.41,0,0,1,.13.09S6.86,2.84,6.82,2.8ZM4.48,3.91a0.35,0.35,0,0,1,.46-0.15S5.15,3.82,5.12,4a0,0,0,0,0,0,0s0-.09,0-0.1,0.27-.34.5-0.18a0.12,0.12,0,0,1,0,.16c0,0.11,0,.07-0.13.15s-0.24,0-.27,0a0.19,0.19,0,0,1,.28-0.18,0.06,0.06,0,0,1,0,.08,0.18,0.18,0,0,0-.05.05s-0.11,0-.06-0.05,0,0,0,0-0.1,0-.1,0S5.47,4,5.63,4s0-.24,0-0.24a0.31,0.31,0,0,0-.34.2,0.66,0.66,0,0,0,0,.13s-0.08,0-.17.07a0.67,0.67,0,0,1-.34,0S4.6,4.13,4.66,4,5,3.83,5,3.92A0.08,0.08,0,0,1,4.84,4s0.07,0,0-.06a0.07,0.07,0,0,0-.11,0s0,0.21.26,0.14a0.19,0.19,0,0,0-.16-0.29C4.56,3.72,4.55,4,4.44,4l-0.16.08A1.18,1.18,0,0,0,4.48,3.91Z" transform="translate(-0.17 -0.06)"/><path class="cls-1" d="M5.92,3.11s0,0.06.07,0S6.41,2.81,6.45,3s0,0.13,0,.12S6.32,3,5.92,3.26c0,0-.16,0-0.15,0s0,0,0,0a0.12,0.12,0,0,1,0-.08A0.06,0.06,0,0,1,5.92,3.11Z" transform="translate(-0.17 -0.06)"/><path class="cls-1" d="M5.58,2.7s0,0,0,.05a0.1,0.1,0,0,1-.12.05s0,0,0,0Z" transform="translate(-0.17 -0.06)"/><path class="cls-1" d="M5.62,2.67s0,0.07.06,0.06,0.12,0,.09-0.1Z" transform="translate(-0.17 -0.06)"/><path class="cls-1" d="M5.79,2.61s0,0,.07.14S6,2.89,6,2.84l0.1-.11S6.05,2.62,6,2.61A0.79,0.79,0,0,0,5.79,2.61Z" transform="translate(-0.17 -0.06)"/><path class="cls-1" d="M6.15,2.7a0.06,0.06,0,0,0,0,.05H6.23s0,0,0,0A0.13,0.13,0,0,0,6.15,2.7Z" transform="translate(-0.17 -0.06)"/><path class="cls-1" d="M6.29,2.72s0,0,0,.05a0.08,0.08,0,0,0,.07-0.05H6.29Z" transform="translate(-0.17 -0.06)"/><path class="cls-1" d="M6.4,2.75a0.06,0.06,0,0,1,0,0s0,0,0,0a0.12,0.12,0,0,1,.08,0s0.05,0,0,0a0.33,0.33,0,0,0-.15,0S6.38,2.73,6.4,2.75Z" transform="translate(-0.17 -0.06)"/><path class="cls-1" d="M6.69,2.91a0,0,0,0,1,0,0,0,0,0,0,0,.05,0,0.26,0.26,0,0,0-.14-0.12s-0.06,0,0,.05A0.23,0.23,0,0,0,6.69,2.91Z" transform="translate(-0.17 -0.06)"/><path class="cls-1" d="M6.82,2.93a0.81,0.81,0,0,1-.22.15s0,0,0,0a0.06,0.06,0,0,1,.06.07s0,0,0,0A0.23,0.23,0,0,0,6.81,3C6.83,2.91,6.82,2.93,6.82,2.93Z" transform="translate(-0.17 -0.06)"/><path class="cls-1" d="M6.56,3.74a0.17,0.17,0,0,0,0-.15,0.19,0.19,0,0,0,0-.11A0.22,0.22,0,0,0,6.2,3.37a0.33,0.33,0,0,0-.08.07,0.31,0.31,0,0,0,0,.16,0.17,0.17,0,0,1,0,.15A0.71,0.71,0,0,0,6,4.07a1.89,1.89,0,0,0-.18.46,7.48,7.48,0,0,0,.27,1.28,1.15,1.15,0,0,1-.91,1.33,1.14,1.14,0,0,0,1.23-.59c0.32-.66.06-0.77-0.23-2a1.15,1.15,0,0,0-.11-0.3A0.22,0.22,0,0,1,6.16,4a0.36,0.36,0,0,1,.37-0.22S6.62,3.81,6.56,3.74Z" transform="translate(-0.17 -0.06)"/><path class="cls-1" d="M6.32,4.62a5.23,5.23,0,0,1,.31,1.46,1.31,1.31,0,0,1-.31.76A1.08,1.08,0,0,0,6.7,5.61,1.89,1.89,0,0,0,6.32,4.62Z" transform="translate(-0.17 -0.06)"/><path class="cls-1" d="M6.28,4.07a0.2,0.2,0,0,1,.14-0.26c0.2-.08.14,0.28,0.11,0.34a0.39,0.39,0,0,0,0,.39,0.73,0.73,0,0,1,.2.61,0.42,0.42,0,0,0,.15.36A1.09,1.09,0,0,1,7,6.38a1.27,1.27,0,0,0-.27.69,1.55,1.55,0,0,1,0,.64,0.77,0.77,0,0,0,.06.57S6.59,8.26,6.6,8a0,0,0,0,0-.06,0,0.16,0.16,0,0,1-.19,0s-0.12-.08-0.11,0a0.31,0.31,0,0,1,.06.17s0,0,0,0,0-.08,0,0-0.06.33-.48,0.23a0.09,0.09,0,0,1,0-.1A1,1,0,0,0,5.8,7.65a1.58,1.58,0,0,0-.15-0.46s0,0,.17-0.05A1.35,1.35,0,0,0,6.7,6.51a0.73,0.73,0,0,1-.35.55,0.46,0.46,0,0,0-.17.39,0.82,0.82,0,0,1,0,.28,0.15,0.15,0,0,0,0,0,1.26,1.26,0,0,1,.13.13,0.18,0.18,0,0,0,.21,0,0.29,0.29,0,0,1,0-.13,0.22,0.22,0,0,1-.31-0.14s0.21,0.21.34,0.08a0.74,0.74,0,0,1,0-.16s-0.07.14-.37-0.1a0.3,0.3,0,0,1,.13.06c0.12,0.06.28,0,.26-0.08a1,1,0,0,1,0-.59,1.89,1.89,0,0,1-.2.16A2.31,2.31,0,0,0,6.73,6.7,1.6,1.6,0,0,0,7,5.77a0.87,0.87,0,0,0-.25-0.34,1.74,1.74,0,0,1-.11-0.5,0.13,0.13,0,0,0,0-.09" transform="translate(-0.17 -0.06)"/><path class="cls-1" d="M2.35,3.84A0.14,0.14,0,0,0,2.51,4a0.47,0.47,0,0,1,.43.15s0,0.05,0,0l0.08-.07H2.94L2.88,4A0.67,0.67,0,0,0,2.69,4a0.8,0.8,0,0,1-.12-0.17,0.31,0.31,0,0,0-.15-0.18S2.36,3.58,2.35,3.84Z" transform="translate(-0.17 -0.06)"/><path class="cls-1" d="M2,3.74A0.28,0.28,0,0,0,2,4a0.32,0.32,0,0,0,.28.14A0.28,0.28,0,0,1,2.41,4s0,0,0,0S2.37,4,2,3.74Z" transform="translate(-0.17 -0.06)"/><path class="cls-1" d="M1.66,4a0.11,0.11,0,0,0,0,.08A1.68,1.68,0,0,1,2,4.34a0.26,0.26,0,0,1,.14.12,0.44,0.44,0,0,0,.16,0,0.32,0.32,0,0,0,.23.07,0.25,0.25,0,0,0,.09-0.09s0,0,0,0a0.37,0.37,0,0,1-.25-0.21C2.24,4.14,2.17,4.11,1.66,4Z" transform="translate(-0.17 -0.06)"/><path class="cls-1" d="M2.78,4.37a3.65,3.65,0,0,0-.34.28,0.06,0.06,0,0,1,0,0A0.34,0.34,0,0,0,2.1,4.53a0.67,0.67,0,0,0-.42.08s0,0,0,.07a1.44,1.44,0,0,0,.43.17s0,0.08,0,0a1,1,0,0,0-.05.55C2.2,5.74,2.42,5.65,2.54,6A1.08,1.08,0,0,0,3,6.62s0,0-.1-0.2a1.47,1.47,0,0,0-.38-0.66A0.66,0.66,0,0,1,2.22,5a0.94,0.94,0,0,1,.3-0.37s-0.07.09,0,.06,0.09-.08.13,0a0.13,0.13,0,0,1,0,.11s0,0.07,0,.14a0.2,0.2,0,0,0,0,.15,0.28,0.28,0,0,1,0,.24,0.26,0.26,0,0,1-.12.17,0.39,0.39,0,0,1-.13.16,0.51,0.51,0,0,1-.23-0.52A0.24,0.24,0,0,1,2.34,5a0.51,0.51,0,0,0,.08.55,0.09,0.09,0,0,0,.15,0,0.07,0.07,0,0,1,0-.07A0.16,0.16,0,0,0,2.7,5.29a0.44,0.44,0,0,0,0-.23,0.1,0.1,0,0,1,0-.12s0.05-.21-0.08-0.19-0.16,0-.13.08a0.45,0.45,0,0,1,.15.11,0.47,0.47,0,0,0,0,.23,0.24,0.24,0,0,1-.18.24c-0.09,0-.11-0.27-0.05-0.31l0.06,0s0,0,0,.1,0,0,0,0a0.14,0.14,0,0,0,0,.19s0.13,0,.1-0.2c0,0,.06-0.23,0-0.19s-0.1-.13-0.14-0.09a0.54,0.54,0,0,0,.17.82,0.25,0.25,0,0,0,.12-0.18s0.11,0.06.13-.14c0,0,0,0,.06.12S2.88,5.63,3,5.64a0.27,0.27,0,0,1,.13.11,0.17,0.17,0,0,0,.24,0l0.11,0a0.62,0.62,0,0,0,.05-0.11,0.89,0.89,0,0,1,.07-0.29c0.12-.14,0-0.37-0.13-0.35a0.33,0.33,0,0,0-.11.09s-0.08,0-.11,0A0.34,0.34,0,0,0,3,5.23C3,5.34,3.13,5.55,3.23,5.47s0-.25-0.07-0.14,0-.07,0-0.09,0.18,0,.12.21a0.4,0.4,0,0,1-.07.11s-0.05,0-.07,0A0.25,0.25,0,0,0,3,5.45a0.25,0.25,0,0,1,0-.29l0.24-.25,0-.1a0.48,0.48,0,0,0-.15.14C3.08,5,3,5.12,2.93,5.19a0.16,0.16,0,0,0,0,.18A0.26,0.26,0,0,0,3,5.5a0.53,0.53,0,0,1,.12.14,0.27,0.27,0,0,0,.16,0,0.11,0.11,0,0,0,.13-0.1,0.36,0.36,0,0,1,0-.23s0.09-.12,0-0.16a0.19,0.19,0,0,0-.15.07,0.13,0.13,0,0,0-.17,0c-0.06.08,0,.18,0,0.18s0,0,0,0a0.15,0.15,0,0,1,0-.23c0.08-.08.07-0.11,0.21-0.06L3.41,5a0.09,0.09,0,0,1,.14.07,0.22,0.22,0,0,1,0,.16,0.55,0.55,0,0,0-.08.23,0.29,0.29,0,0,1-.06.16,0.47,0.47,0,0,0-.16.08s0,0-.12,0a0.38,0.38,0,0,0-.2-0.18c-0.1,0-.08-0.1-0.08-0.16s0-.09,0-0.14A0.41,0.41,0,0,1,3,5,0.31,0.31,0,0,0,3.1,4.91l0.2-.17V4.68A1,1,0,0,0,3,5a0.61,0.61,0,0,0-.2.25,1.34,1.34,0,0,0,0-.17,0.21,0.21,0,0,1,0-.18c0-.1.07-0.28-0.17-0.26,0,0,0,0,.05-0.1Z" transform="translate(-0.17 -0.06)"/><path class="cls-1" d="M4.86,4.88A0.32,0.32,0,0,0,5,5a0.9,0.9,0,0,0,.2.17c0.1,0.05,0,.33-0.13.33S5,5.62,4.94,5.65s-0.13.23-.54,0-0.16-.1-0.34-0.12A0.29,0.29,0,0,1,3.8,5.26a0.3,0.3,0,0,1,.39-0.14,0.18,0.18,0,0,0,.22-0.05V5a0.13,0.13,0,0,1-.15.07,0.47,0.47,0,0,0-.43.05,0.3,0.3,0,0,0,0,.36,0.41,0.41,0,0,0,.37.16,0.39,0.39,0,0,0,.2.12s0,0.09.22,0.07a0.52,0.52,0,0,0,.23,0c0.08,0,.15,0,0.24-0.26a0.29,0.29,0,0,0,.22-0.13,0.35,0.35,0,0,0-.1-0.38,0.48,0.48,0,0,1-.26-0.24Z" transform="translate(-0.17 -0.06)"/><path class="cls-1" d="M4.63,5a0.24,0.24,0,0,0,.12.13,0.2,0.2,0,0,1,0,.32,0.43,0.43,0,0,1-.41,0C4.09,5.43,4.2,5.17,4.25,5.21a0.11,0.11,0,0,0,.08,0,0.09,0.09,0,0,0-.06,0s0,0.17.17,0.16,0.27,0,.3-0.09a0.22,0.22,0,0,0-.1-0.23s0.15,0.26-.07.29c0,0,.2-0.14,0-0.25,0,0,.13.12,0,0.2s0.07-.15,0-0.14,0.05,0,0,.07,0-.05-0.07,0,0,0-.08,0,0-.15-0.35-0.1a0.21,0.21,0,0,0-.19.15c0,0.14.12,0.21,0.35,0.2a0.56,0.56,0,0,0,.7.09,0.17,0.17,0,0,1,0-.16c0.06,0,.22,0,0.15-0.15S5,5.16,5,5.15s0,0-.18-0.06A0.22,0.22,0,0,0,4.73,5" transform="translate(-0.17 -0.06)"/><path class="cls-1" d="M3.79,6a1,1,0,0,0,.35.13,1.76,1.76,0,0,1,.75.37s0,0,0,.08a0.31,0.31,0,0,0,.05,0V6.76a0.45,0.45,0,0,0-.11-0.21,1.29,1.29,0,0,0-.79-0.4A0.78,0.78,0,0,1,3.79,6Z" transform="translate(-0.17 -0.06)"/><path class="cls-1" d="M4.5,7.6A0.46,0.46,0,0,0,5,7.83s0-.49,0-0.62,0,0,0-.06a6.54,6.54,0,0,1,0,1A0.17,0.17,0,0,0,5,8.24s0-.08,0-0.06A0.55,0.55,0,0,1,4.58,8,0.89,0.89,0,0,0,5,8.09C5,8,5,8,5,7.91s0,0-.07,0A0.39,0.39,0,0,1,4.5,7.6Z" transform="translate(-0.17 -0.06)"/><path class="cls-1" d="M5,8.34a2.51,2.51,0,0,1-.34-0.1A0.64,0.64,0,0,0,5,8.36C5.12,8.37,5,8.34,5,8.34Z" transform="translate(-0.17 -0.06)"/><path class="cls-1" d="M6.76,8.55a0.09,0.09,0,0,0,0-.13s0-.07-0.11-0.14L6.45,8.2l-0.11.07s0,0,0,0a0.38,0.38,0,0,0-.18,0H5.95a0.16,0.16,0,0,1-.09,0,0.61,0.61,0,0,1,0,.1,0.55,0.55,0,0,0,.2.45H6.15a1.15,1.15,0,0,0,.22,0,0.64,0.64,0,0,1,.21,0,0.21,0.21,0,0,0,.16,0s0.15,0,.14,0A0.28,0.28,0,0,0,6.76,8.55ZM5.88,8.39s0,0,0,0a0.14,0.14,0,0,0,0,0s0,0,0,0a0.3,0.3,0,0,1,.12,0,0.14,0.14,0,0,0,0,0A0.29,0.29,0,0,0,6,8.6a0.53,0.53,0,0,0,.09.24A0.4,0.4,0,0,1,5.88,8.39ZM6.45,8.88a0.35,0.35,0,0,1-.13,0,0.19,0.19,0,0,1-.11,0s0-.09,0-0.13,0,0,0,0,0-.07,0-0.08a0.19,0.19,0,0,1,0-.15c0-.07,0-0.1,0-0.09a0.07,0.07,0,0,1,0-.07c0.05,0,.17,0,0.17.07a0.07,0.07,0,0,1,0,.08c-0.05,0,0,0,0,.1a1.22,1.22,0,0,1,0,.19s-0.05,0,0,.06a0.08,0.08,0,0,0,.06,0S6.45,8.88,6.45,8.88Zm0.25,0a0.4,0.4,0,0,1-.13,0s0,0,0,0,0-.06,0-0.1a0.25,0.25,0,0,1,0-.11c0.07,0,0-.12,0-0.11s0,0,0,0L6.51,8.45a0.19,0.19,0,0,0,0-.1l0,0,0,0a0.09,0.09,0,0,1,.06.09,0.06,0.06,0,0,0,0,0,0.15,0.15,0,0,0,0,.08,0.06,0.06,0,0,0,0,.1A0.3,0.3,0,0,1,6.7,8.88Zm0.15-.06a0,0,0,0,1,0,0H6.74a0.52,0.52,0,0,0,0-.16,0,0,0,0,0,0,0A0.19,0.19,0,0,1,6.85,8.82Z" transform="translate(-0.17 -0.06)"/><path class="cls-1" d="M2.15,5.62v0Z" transform="translate(-0.17 -0.06)"/><path class="cls-1" d="M3.48,5.83v0Z" transform="translate(-0.17 -0.06)"/><path class="cls-1" d="M5.8,9.17a0.65,0.65,0,0,0,0-.25,1.44,1.44,0,0,0-.47-0.41,0,0,0,0,0,0,.06,1.14,1.14,0,0,1,.18.18,0.14,0.14,0,0,0,0,.11l-0.1-.1s-0.11,0-.15.09a0.35,0.35,0,0,1-.5.15,0.14,0.14,0,0,1,0-.17s0.08,0,.06.05,0,0.06,0,0,0,0,0,0,0.07,0,0-.08-0.14,0-.2,0S4.67,9.28,5.15,9a0.54,0.54,0,0,0,.13-0.14s0,0,0,0a0.19,0.19,0,0,0,.15.2,0.42,0.42,0,0,0,.14.19,0.31,0.31,0,0,1-.25.05,1.77,1.77,0,0,0-.65-0.09,1.09,1.09,0,0,1-.22-0.11c-0.05,0-.07,0-0.09-0.18a2.68,2.68,0,0,0-.45-1.13,5.69,5.69,0,0,0-.36-1.3,1.45,1.45,0,0,0-.11-0.63s0-.14,0-0.09a0.12,0.12,0,0,1,0-.07,0.43,0.43,0,0,1-.23.11A0.69,0.69,0,0,1,3,5.78a0.65,0.65,0,0,1,.26.6,0.21,0.21,0,0,0,0,.25s0,0.26,0,.2A1.4,1.4,0,0,1,2.81,6.6C2.67,6.45,2.53,6.13,2.47,6.07a2.84,2.84,0,0,1-.32-0.43A2.25,2.25,0,0,0,2.32,6a2.47,2.47,0,0,1,.51.91A0.61,0.61,0,0,1,3,7.21,0.33,0.33,0,0,0,2.79,7,0.79,0.79,0,0,1,2.4,6.65,0.51,0.51,0,0,0,2.6,7a0.48,0.48,0,0,1,.32.36,0.24,0.24,0,0,0-.19-0.15,0.7,0.7,0,0,1-.31-0.31,0.59,0.59,0,0,0,.27.36A0.7,0.7,0,0,1,3,7.7s0,0.07-.06.1a1.6,1.6,0,0,0-.25.13c-0.06,0-.08,0-0.1.1a0.35,0.35,0,0,1-.12.22,0.21,0.21,0,0,0,0,.23,0.44,0.44,0,0,1,.12.05,0.53,0.53,0,0,0,.26,0,0.51,0.51,0,0,0,.19,0,0.17,0.17,0,0,0,.11,0,0.24,0.24,0,0,0,.11,0,0.24,0.24,0,0,0,.09-0.21,4.27,4.27,0,0,0-.08-0.74,0.82,0.82,0,0,1,.2-0.67,0.43,0.43,0,0,1,.28.52s-0.16.17-.28-0.11c0,0,0-.33.11-0.15a0.22,0.22,0,0,1,.05.2c0,0.08-.1,0-0.09,0a0,0,0,0,1,0,0S3.49,7.15,3.47,7.2a0.17,0.17,0,0,0,.15.21,0.15,0.15,0,0,1,.06-0.09,0.41,0.41,0,0,0-.22-0.38s-0.27,0,0,.52,0.32,0.07.6,0.85a1.1,1.1,0,0,1,.26.84,0.78,0.78,0,0,0,.22.11,0.67,0.67,0,0,0,.34.09,1.17,1.17,0,0,1,.46.06s0.08,0,.07,0a0.27,0.27,0,0,0,.2-0.07S5.82,9.32,5.8,9.17Zm-0.34-.3h0Zm-3-.42s-0.05,0,0,0,0,0,0,0a0,0,0,0,1,0-.05s0-.08,0-0.07,0,0,0,0,0,0,0,0a1.22,1.22,0,0,0,0,.15V8.46h0Zm0.16-.39c0-.06,0-0.06,0-0.06L2.74,8s0,0,0,0a0.08,0.08,0,0,0,0,.07s0,0.05,0,.05v0s-0.06,0-.06,0,0,0-.07,0S2.65,8.13,2.65,8.07ZM2.83,8.48a0.49,0.49,0,0,0-.19,0s0,0,0,0a0.47,0.47,0,0,0,0-.16,0,0,0,0,0,0,0,0.06,0.06,0,0,1,0,0,0.07,0.07,0,0,0,0,0s0,0,.07,0,0,0,0,0a0.09,0.09,0,0,1,0,.09s0,0,0,0S2.83,8.48,2.83,8.48Zm0.09,0s-0.06-.07,0-0.05a0,0,0,0,0,0,0V8.23a0,0,0,0,1,.06,0,0.07,0.07,0,0,0,0,0,0.59,0.59,0,0,1,0,.1s0,0.08,0,.09a0.11,0.11,0,0,1,0,.08A0.13,0.13,0,0,1,2.93,8.51ZM3,8S3,8,3,8a0.11,0.11,0,0,0,0,.07,0.14,0.14,0,0,0,0,0s0,0,0,0a0.06,0.06,0,0,1,0-.06A0.12,0.12,0,0,1,3,8L3,7.92A0,0,0,0,0,3,8Z" transform="translate(-0.17 -0.06)"/><path class="cls-1" d="M6.15,2.7a0.06,0.06,0,0,0,0,.05H6.24s0,0,0,0A0.13,0.13,0,0,0,6.15,2.7Z" transform="translate(-0.17 -0.06)"/><path class="cls-1" d="M6.29,2.71s0,0,0,.05a0.08,0.08,0,0,0,.07-0.05H6.29Z" transform="translate(-0.17 -0.06)"/><path class="cls-1" d="M6.4,2.75a0.06,0.06,0,0,1,0,0s0,0,0,0a0.12,0.12,0,0,1,.08,0s0.05,0,0,0a0.33,0.33,0,0,0-.15,0S6.38,2.73,6.4,2.75Z" transform="translate(-0.17 -0.06)"/><path class="cls-1" d="M6.69,2.91a0,0,0,0,1,0,0,0,0,0,0,0,.05,0A0.26,0.26,0,0,0,6.64,2.8s-0.06,0,0,.05A0.23,0.23,0,0,0,6.69,2.91Z" transform="translate(-0.17 -0.06)"/><path class="cls-1" d="M3.8,6a1,1,0,0,0,.35.13,1.76,1.76,0,0,1,.75.37s0,0,0,.08A0.31,0.31,0,0,0,5,6.6V6.76a0.45,0.45,0,0,0-.11-0.21,1.29,1.29,0,0,0-.79-0.4A0.78,0.78,0,0,1,3.8,6Z" transform="translate(-0.17 -0.06)"/><path class="cls-1" d="M4.51,7.59A0.46,0.46,0,0,0,5,7.83s0-.49,0-0.62,0,0,0-.06a6.54,6.54,0,0,1,0,1A0.17,0.17,0,0,0,5,8.23s0-.08,0-0.06A0.55,0.55,0,0,1,4.59,8,0.89,0.89,0,0,0,5,8.09C5.05,8,5,8,5,7.9s0,0-.07,0A0.39,0.39,0,0,1,4.51,7.59Z" transform="translate(-0.17 -0.06)"/><path class="cls-1" d="M5,8.33a2.51,2.51,0,0,1-.34-0.1A0.64,0.64,0,0,0,5,8.36C5.13,8.36,5,8.33,5,8.33Z" transform="translate(-0.17 -0.06)"/><path class="cls-1" d="M2.15,5.61v0Z" transform="translate(-0.17 -0.06)"/><path class="cls-1" d="M3.49,5.82v0Z" transform="translate(-0.17 -0.06)"/><path class="cls-1" d="M5.44,1a0.41,0.41,0,0,0-.15.32H5.36A0.41,0.41,0,0,1,5.44,1Z" transform="translate(-0.17 -0.06)"/><path class="cls-1" d="M5.33,0.61A0.66,0.66,0,0,0,5,.82,0.67,0.67,0,0,1,5.26.67s0.41-.07.3,0.25l0.06-.06C5.74,0.54,5.33.61,5.33,0.61Z" transform="translate(-0.17 -0.06)"/><path class="cls-1" d="M4.47,1.67a0,0,0,0,0,.06,0v0A0.16,0.16,0,0,0,4.47,1.67Z" transform="translate(-0.17 -0.06)"/><path class="cls-1" d="M4.53,1.34a0.15,0.15,0,0,0-.11.08h0c0.14,0,.17.05,0.16,0.12h0C4.71,1.5,4.73,1.29,4.53,1.34Z" transform="translate(-0.17 -0.06)"/><path class="cls-1" d="M6.08,1.89a0.47,0.47,0,0,1-.16-0.13,0.45,0.45,0,0,0-.31-0.24,0.47,0.47,0,0,0-.15-0.07s0,0,0,.06a0.1,0.1,0,0,1,.08.08h0a0.39,0.39,0,0,1,.29.23A0.47,0.47,0,0,0,6,2,0.11,0.11,0,0,1,6.07,2C6.18,2.05,6.16,1.92,6.08,1.89Z" transform="translate(-0.17 -0.06)"/><path class="cls-1" d="M5.77,2.14a0.09,0.09,0,0,0-.07.07h0a0.21,0.21,0,0,0,.06,0C5.84,2.13,5.77,2.14,5.77,2.14Z" transform="translate(-0.17 -0.06)"/><path class="cls-1" d="M5.65,2.14A0.15,0.15,0,0,0,5.51,2s0-.07-0.13,0a0.09,0.09,0,0,0,0,0c0.08,0,.09,0,0.09,0a0.15,0.15,0,0,1,.14.13,0.1,0.1,0,0,1,0,.06A0.08,0.08,0,0,0,5.65,2.14Z" transform="translate(-0.17 -0.06)"/><path class="cls-1" d="M5.6,2.31a0.23,0.23,0,0,1-.23-0.09,0.16,0.16,0,0,0,0-.09s0,0,0-.07S5.27,2,5.27,2A0.82,0.82,0,0,0,5,2.22L5.2,2.1s0.05,0,.05,0,0,0,0,.07a0.16,0.16,0,0,1,0,.09,0.23,0.23,0,0,0,.23.09c0.1,0,0,.1,0,0.1h0l0.07,0a0,0,0,0,0,0,0S5.7,2.29,5.6,2.31Z" transform="translate(-0.17 -0.06)"/><path class="cls-1" d="M4.91,4a0.07,0.07,0,0,1-.07,0,0.06,0.06,0,0,0,0,0,0.19,0.19,0,0,0-.1,0h0a0.11,0.11,0,0,0,0,0,0.06,0.06,0,0,1,.05,0A0,0,0,0,1,4.8,4l0.06,0A0.08,0.08,0,0,0,4.91,4Z" transform="translate(-0.17 -0.06)"/><path class="cls-1" d="M3.69,3.8h0a0.33,0.33,0,0,0,.08.09,0.45,0.45,0,0,1,0-.08L3.75,3.75c-0.05,0-.1,0-0.09-0.21a0.11,0.11,0,0,1,0,0,0.17,0.17,0,0,1,0-.05h0a0.15,0.15,0,0,0-.07.07,0.72,0.72,0,0,0,0,.11,0.41,0.41,0,0,0,0,.16h0Z" transform="translate(-0.17 -0.06)"/><path class="cls-1" d="M4.05,2.63a0.08,0.08,0,0,0,0-.07l0,0a0.11,0.11,0,0,1,0,0,0.07,0.07,0,0,0-.06.1S4,2.58,4,2.66a0.1,0.1,0,0,1,0,.09l-0.07.09h0s0,0,0,0A0.44,0.44,0,0,1,4.05,2.7,0.44,0.44,0,0,0,4.05,2.63Z" transform="translate(-0.17 -0.06)"/><path class="cls-1" d="M3.62,3.84a2.81,2.81,0,0,0-.45.38,1.94,1.94,0,0,1,.47-0.35v0Z" transform="translate(-0.17 -0.06)"/><path class="cls-1" d="M3.88,3.72L4,3.68a0.15,0.15,0,0,1,.22,0,0.09,0.09,0,0,1,0,.07,0.14,0.14,0,0,1,0,.11h0A0.17,0.17,0,0,0,4.26,3.7,0.26,0.26,0,0,0,4,3.62,0.31,0.31,0,0,0,3.88,3.72Z" transform="translate(-0.17 -0.06)"/><path class="cls-1" d="M4.58,3.86a0.28,0.28,0,0,1,.22,0h0A0.12,0.12,0,0,1,5,3.92H5a0.18,0.18,0,0,1,0,.14H5a0.28,0.28,0,0,0,0-.08,0.27,0.27,0,0,0-.18-0.15,0.5,0.5,0,0,0-.23,0Z" transform="translate(-0.17 -0.06)"/><path class="cls-1" d="M3.82,3.62h0s0,0,0,0a0.12,0.12,0,0,0,0-.09h0a0.13,0.13,0,0,0-.05-0.05,0.12,0.12,0,0,0,0,0v0h0a0.12,0.12,0,0,1,0,.09,0.11,0.11,0,0,0,0,.06A0.12,0.12,0,0,0,3.82,3.62Z" transform="translate(-0.17 -0.06)"/><path class="cls-1" d="M3.71,3.68v0A0,0,0,0,0,3.71,3.68Z" transform="translate(-0.17 -0.06)"/><path class="cls-1" d="M4,3.87l-0.06,0h0l0,0a0.19,0.19,0,0,0,.11,0,0.14,0.14,0,0,0,.07-0.07A0.18,0.18,0,0,1,4,3.87Z" transform="translate(-0.17 -0.06)"/><path class="cls-1" d="M4.45,4L4.3,4.11l-0.08.07L4.38,4.1A0.19,0.19,0,0,0,4.45,4Z" transform="translate(-0.17 -0.06)"/><path class="cls-1" d="M3.92,3.77H4c0.08,0,.11,0,0.11.05a0.07,0.07,0,0,0,.06,0h0A0.15,0.15,0,0,0,4,3.71,0.1,0.1,0,0,0,3.92,3.77Z" transform="translate(-0.17 -0.06)"/><path class="cls-1" d="M4.27,3.93a0.28,0.28,0,0,1-.35,0h0a0.14,0.14,0,0,1,0-.17l0-.06a0.23,0.23,0,0,0-.1.22C3.83,4.15,4.13,4.11,4.27,3.93Z" transform="translate(-0.17 -0.06)"/><path class="cls-1" d="M5.56,2.65l0,0,0,0Z" transform="translate(-0.17 -0.06)"/><path class="cls-1" d="M5.17,2.56a0.63,0.63,0,0,0-.34-0.15,0.13,0.13,0,0,0,0-.07s0-.05,0-0.07a0,0,0,0,0,0-.05h0l0,0a0,0,0,0,0,0,0,0,0,0,0,1,0,.05s0,0,0,.07a0.13,0.13,0,0,1,0,.07,0.63,0.63,0,0,1,.34.15,1.4,1.4,0,0,0,.31,0,1.09,1.09,0,0,1,.44-0.22A0.47,0.47,0,0,1,6,2.56a0.19,0.19,0,0,0,.16,0,0.12,0.12,0,0,0,0-.06,0.18,0.18,0,0,1-.15,0l0,0h0a0.23,0.23,0,0,1-.17-0.12,1.76,1.76,0,0,0-.42.23A1.4,1.4,0,0,1,5.17,2.56Z" transform="translate(-0.17 -0.06)"/><path class="cls-1" d="M6.55,2.17a1.43,1.43,0,0,0,0,.49s0.1,0,.08-0.06h0a1.43,1.43,0,0,1,0-.49A0.42,0.42,0,0,0,6,2.17,0.4,0.4,0,0,1,6.55,2.17Z" transform="translate(-0.17 -0.06)"/><path class="cls-1" d="M6.22,2.34a0.07,0.07,0,0,1-.1,0h0a0,0,0,0,0,0,0v0l0.07,0H6.22A0.11,0.11,0,0,0,6.22,2.34Z" transform="translate(-0.17 -0.06)"/><path class="cls-1" d="M4.78,1.47c0.11-.08.2-0.07,0.17,0a0.69,0.69,0,0,0-.1.13S4.77,1.75,5,1.68a0.62,0.62,0,0,0,.18-0.13,0.09,0.09,0,0,1,.12,0c0.06,0,0,.07.11,0.12a1,1,0,0,1,.08.14s0,0.06,0,.1,0.13-.13.09-0.16a1,1,0,0,0-.08-0.14c-0.06,0,0-.08-0.11-0.12a0.09,0.09,0,0,0-.12,0,0.62,0.62,0,0,1-.18.13c-0.24.08-.2,0-0.16-0.06A0.69,0.69,0,0,1,5,1.42c0-.1-0.06-0.1-0.17,0l-0.1.09Z" transform="translate(-0.17 -0.06)"/><path class="cls-1" d="M2.68,4.2h0a0.13,0.13,0,0,1,0,0h0Z" transform="translate(-0.17 -0.06)"/><path class="cls-1" d="M2.6,4.11h0v0a0.11,0.11,0,0,1,.12,0,0.12,0.12,0,0,0,0,0A0.16,0.16,0,0,0,2.6,4.11Z" transform="translate(-0.17 -0.06)"/><path class="cls-1" d="M2.68,4.27v0H2.63l0,0s-0.12,0-.08-0.08v0a0.08,0.08,0,0,1,0,0C2.35,4.19,2.61,4.41,2.68,4.27Z" transform="translate(-0.17 -0.06)"/><path class="cls-1" d="M4.6,1.66l0-.05a0.22,0.22,0,0,0-.09.08Z" transform="translate(-0.17 -0.06)"/><path class="cls-1" d="M2.81,4.16a0.12,0.12,0,0,0-.16-0.08L2.78,4.14Z" transform="translate(-0.17 -0.06)"/><path class="cls-1" d="M4.34,1.79a1.49,1.49,0,0,0-.24.32s0,0.08.1,0l0,0c-0.08.06-.08,0-0.08,0a1.49,1.49,0,0,1,.24-0.32,0.65,0.65,0,0,0-.17.14A0.52,0.52,0,0,1,4.34,1.79Z" transform="translate(-0.17 -0.06)"/><path class="cls-1" d="M4.4,1.83a0.22,0.22,0,0,0,.09-0.08h0a0.23,0.23,0,0,0-.08.07h0Z" transform="translate(-0.17 -0.06)"/><path class="cls-1" d="M3.62,4.54l0.15-.16Z" transform="translate(-0.17 -0.06)"/><path class="cls-1" d="M3.48,4.65a2.41,2.41,0,0,1-.15.29,0.35,0.35,0,0,0,.18-0.3Z" transform="translate(-0.17 -0.06)"/><path class="cls-1" d="M3.79,5l0,0a0.27,0.27,0,0,1,0-.12A0.29,0.29,0,0,0,3.79,5Z" transform="translate(-0.17 -0.06)"/><path class="cls-1" d="M2.91,4.66l0,0a0.15,0.15,0,0,0,.07-0.07Z" transform="translate(-0.17 -0.06)"/><path class="cls-1" d="M3.11,4.49l0,0,0.13-.18A1,1,0,0,0,3.11,4.49Z" transform="translate(-0.17 -0.06)"/><path class="cls-1" d="M4.54,5.11l-0.06.06a0.08,0.08,0,0,0,.07,0A0.06,0.06,0,0,1,4.54,5.11Z" transform="translate(-0.17 -0.06)"/><path class="cls-1" d="M6.82,2.79a0.24,0.24,0,0,1-.07-0.12,0.15,0.15,0,0,0,0-.15s-0.1-.21-0.1-0.16a0.37,0.37,0,0,0,.05.13c0,0.07,0,.09,0,0.1a0.16,0.16,0,0,1,0,.15,0.1,0.1,0,0,0,0,0,0.78,0.78,0,0,1,.1.08S6.86,2.83,6.82,2.79Z" transform="translate(-0.17 -0.06)"/><path class="cls-1" d="M6.65,3.3A0.4,0.4,0,0,0,6,3.25a0.41,0.41,0,0,1-.36,0,0.61,0.61,0,0,0-.53,0,0,0,0,0,1-.06,0c-0.69.39-.81,0-0.82-0.09s0,0,0,0a0.28,0.28,0,0,1,0-.29,0.29,0.29,0,0,0-.1.35s0,0,0,0S4.33,3.71,5,3.32a0,0,0,0,0,.06,0,0.61,0.61,0,0,1,.53,0,0.41,0.41,0,0,0,.36,0,0.55,0.55,0,0,1,.33-0.13h0a0.34,0.34,0,0,1,.34.33,0.79,0.79,0,0,1,0,.2v0l0,0.1a0.75,0.75,0,0,1,0,.28,0.38,0.38,0,0,0,.08.33s0.06,0,0-.17a1,1,0,0,1,0-.6A0.46,0.46,0,0,0,6.65,3.3Z" transform="translate(-0.17 -0.06)"/><path class="cls-1" d="M5.16,4.52v0L5.1,4.39a0.45,0.45,0,0,0,0,.19A0.21,0.21,0,0,1,5,4.75,0.28,0.28,0,0,0,5.16,4.52Z" transform="translate(-0.17 -0.06)"/><path class="cls-1" d="M2.75,4.18v0h0v0a0.15,0.15,0,0,1,0,.1l0.06-.05A0.32,0.32,0,0,0,2.75,4.18Z" transform="translate(-0.17 -0.06)"/><path class="cls-1" d="M6.06,3.43A0.35,0.35,0,0,1,6.12,3.3,0.35,0.35,0,0,0,6,3.5a0.92,0.92,0,0,1,0,.34,0.41,0.41,0,0,0,0,.19,0.81,0.81,0,0,1-.15.29s0,0,0,.12a0.27,0.27,0,0,1,0,.16,2,2,0,0,0,.13.78,1.58,1.58,0,0,1-.19,1.48,1.53,1.53,0,0,0,.25-1.55,2,2,0,0,1-.13-0.77,0.27,0.27,0,0,0,0-.16c0.07-.08,0-0.1,0-0.12A0.81,0.81,0,0,0,6,4a0.41,0.41,0,0,1,0-.19A0.92,0.92,0,0,0,6.06,3.43Z" transform="translate(-0.17 -0.06)"/><path class="cls-1" d="M3.83,3.32s0.19,0,.08.31L4,3.58l0-.09a0.26,0.26,0,0,0,0-.12l-0.06-.1h0a0.23,0.23,0,0,0-.19.1A0.23,0.23,0,0,1,3.83,3.32Z" transform="translate(-0.17 -0.06)"/><path class="cls-1" d="M5.44,3.86a0.08,0.08,0,0,0,0,0,0,0,0,0,1,0,0,0,0,0,0,1,0,0,0.1,0.1,0,0,0,.06,0l0,0h0s-0.1,0-.05-0.06,0,0,0,0l-0.09,0Z" transform="translate(-0.17 -0.06)"/><path class="cls-1" d="M5.32,3.83a0.29,0.29,0,0,1,.14-0.05,0.19,0.19,0,0,1,.16,0,0.07,0.07,0,0,1,0,.07,0.11,0.11,0,0,1,0,.09l0,0a0.12,0.12,0,0,0,0-.15,0.24,0.24,0,0,0-.2,0A0.29,0.29,0,0,0,5.32,3.83Z" transform="translate(-0.17 -0.06)"/><path class="cls-1" d="M5.2,4.11a0.18,0.18,0,0,1,0,0,0.24,0.24,0,0,0-.1,0,0.67,0.67,0,0,1-.34,0S4.61,4.13,4.66,4v0A0.16,0.16,0,0,0,4.6,4c-0.05.18,0.09,0.19,0.09,0.19a0.67,0.67,0,0,0,.34,0C5.12,4.11,5.21,4.14,5.2,4.11Z" transform="translate(-0.17 -0.06)"/><path class="cls-1" d="M3.77,4.13l0,0-0.1.09h0A0.18,0.18,0,0,1,3.77,4.13Z" transform="translate(-0.17 -0.06)"/><path class="cls-1" d="M4.52,4.39h0l-0.07.08a1.1,1.1,0,0,1-.1.14A0.82,0.82,0,0,0,4.52,4.39Z" transform="translate(-0.17 -0.06)"/><path class="cls-1" d="M5.13,3.95V4h0s0-.09,0-0.1l0,0A0.42,0.42,0,0,0,5.13,3.95Z" transform="translate(-0.17 -0.06)"/><path class="cls-1" d="M3.55,3.75s0,0,0,0a1.65,1.65,0,0,0-.4.26h0A2.11,2.11,0,0,0,3.55,3.75Z" transform="translate(-0.17 -0.06)"/><path class="cls-1" d="M3.57,4.25a0.73,0.73,0,0,0-.1.08v0Z" transform="translate(-0.17 -0.06)"/><path class="cls-1" d="M4.42,4l-0.08.09A1.06,1.06,0,0,0,4.49,3.9l0-.05A0.53,0.53,0,0,0,4.42,4Z" transform="translate(-0.17 -0.06)"/><path class="cls-1" d="M5.61,4c-0.14.07-.24,0-0.27,0a0.14,0.14,0,0,1,0-.11A0.18,0.18,0,0,0,5.27,4c0,0.08.13,0.12,0.27,0S5.64,4,5.65,4Z" transform="translate(-0.17 -0.06)"/><path class="cls-1" d="M2.38,4.1a0.34,0.34,0,0,1,.19,0L2.63,4a0.19,0.19,0,0,1,.23.21h0A1.41,1.41,0,0,0,3,4.12l-0.1.08s0,0,0,0a0.12,0.12,0,0,0-.06-0.13,0.39,0.39,0,0,0-.39,0,0.27,0.27,0,0,0-.1.09Z" transform="translate(-0.17 -0.06)"/><path class="cls-1" d="M6.46,3C6.41,2.8,6,3.08,6,3.12s-0.07,0-.07,0a0.06,0.06,0,0,0-.09,0,0.1,0.1,0,0,0,0,0l0.05,0s0,0.06.07,0S6.35,2.87,6.39,3v0h0C6.47,3.1,6.5,3.14,6.46,3Z" transform="translate(-0.17 -0.06)"/><path class="cls-1" d="M5.59,2.69l-0.08.06a0,0,0,0,0,0,0l0,0a0,0,0,0,1,0,0,0.1,0.1,0,0,0,.06-0.05S5.59,2.69,5.59,2.69Z" transform="translate(-0.17 -0.06)"/><path class="cls-1" d="M5.77,2.61l-0.14,0a0.08,0.08,0,0,0,0,0l0.07,0v0S5.79,2.68,5.77,2.61Z" transform="translate(-0.17 -0.06)"/><path class="cls-1" d="M6,2.6a0.79,0.79,0,0,0-.23,0s0,0,0,.06H6S6.08,2.75,6,2.79L6,2.86l0,0,0.1-.11S6.06,2.61,6,2.6Z" transform="translate(-0.17 -0.06)"/><path class="cls-1" d="M6.09,2.76a0.06,0.06,0,0,0,0,.05H6.17s0,0,0,0A0.13,0.13,0,0,0,6.09,2.76Z" transform="translate(-0.17 -0.06)"/><path class="cls-1" d="M6.23,2.77s0,0,0,.05A0.08,0.08,0,0,0,6.3,2.77H6.23Z" transform="translate(-0.17 -0.06)"/><path class="cls-1" d="M6.34,2.81a0.06,0.06,0,0,1,0,0s0,0,0,0a0.12,0.12,0,0,1,.08,0s0.05,0,0,0a0.33,0.33,0,0,0-.15,0S6.32,2.79,6.34,2.81Z" transform="translate(-0.17 -0.06)"/><path class="cls-1" d="M6.63,3a0,0,0,0,1,0,0,0,0,0,0,0,.05,0,0.26,0.26,0,0,0-.14-0.12s-0.06,0,0,.05A0.23,0.23,0,0,0,6.63,3Z" transform="translate(-0.17 -0.06)"/><path class="cls-1" d="M6.83,2.92a0.81,0.81,0,0,1-.22.15s0,0,0,0h0A0.81,0.81,0,0,0,6.76,3s0,0,0,.09a0.2,0.2,0,0,1,0,.07A0.18,0.18,0,0,0,6.82,3C6.84,2.9,6.83,2.92,6.83,2.92Z" transform="translate(-0.17 -0.06)"/><path class="cls-1" d="M6.14,3.43a0.22,0.22,0,0,1,.35.11,0.19,0.19,0,0,1,0,.11,0.2,0.2,0,0,1,0,.12h0s0.08,0,0,0a0.17,0.17,0,0,0,0-.15,0.19,0.19,0,0,0,0-.11,0.22,0.22,0,0,0-.35-0.11,0.33,0.33,0,0,0-.08.07h0Z" transform="translate(-0.17 -0.06)"/><path class="cls-1" d="M6.11,4.23A0.22,0.22,0,0,1,6.17,4l0.08-.1a1.27,1.27,0,0,0-.15.16A0.22,0.22,0,0,0,6,4.3a1.15,1.15,0,0,1,.11.3c0.28,1.24.55,1.35,0.23,2a1.1,1.1,0,0,1-.18.27,1.07,1.07,0,0,0,.24-0.33c0.32-.66.06-0.77-0.23-2A1.15,1.15,0,0,0,6.11,4.23Z" transform="translate(-0.17 -0.06)"/><path class="cls-1" d="M5.78,6.88a1,1,0,0,1-.57.25l0.15,0A1,1,0,0,0,5.78,6.88Z" transform="translate(-0.17 -0.06)"/><path class="cls-1" d="M6.71,5.61a1.89,1.89,0,0,0-.38-1s0.07,0.2.15,0.47a5.88,5.88,0,0,1,.17.59,1.17,1.17,0,0,1-.24,1.11A1.15,1.15,0,0,0,6.71,5.61Z" transform="translate(-0.17 -0.06)"/><path class="cls-1" d="M6.7,6.5a0.29,0.29,0,0,1-.08.16A0.75,0.75,0,0,1,6.44,7,0.68,0.68,0,0,0,6.7,6.5Z" transform="translate(-0.17 -0.06)"/><path class="cls-1" d="M6.29,7.61a0.22,0.22,0,0,0,.24.16l0,0v0A0.35,0.35,0,0,1,6.29,7.61Z" transform="translate(-0.17 -0.06)"/><path class="cls-1" d="M6.37,7.9a1.26,1.26,0,0,0-.13-0.13,0.15,0.15,0,0,1,0,0,0.82,0.82,0,0,0,0-.28,0.43,0.43,0,0,1,.1-0.32,0.45,0.45,0,0,0-.17.38,0.82,0.82,0,0,1,0,.28,0.15,0.15,0,0,0,0,0L6.25,7.9s0.07,0,.11,0L6.43,8a0.17,0.17,0,0,0,.09,0s0,0,0,0A0.19,0.19,0,0,1,6.37,7.9Z" transform="translate(-0.17 -0.06)"/><path class="cls-1" d="M6.41,7.48a0.3,0.3,0,0,0-.13-0.06,0.53,0.53,0,0,0,.27.14A0.08,0.08,0,0,0,6.61,7.5,0.26,0.26,0,0,1,6.41,7.48Z" transform="translate(-0.17 -0.06)"/><path class="cls-1" d="M5.66,7.18v0H5.76a1.64,1.64,0,0,0,.78-0.45,1.61,1.61,0,0,1-.71.39C5.61,7.14,5.66,7.18,5.66,7.18Z" transform="translate(-0.17 -0.06)"/><path class="cls-1" d="M6.92,5.5a0.42,0.42,0,0,1-.15-0.36,0.73,0.73,0,0,0-.2-0.61,0.39,0.39,0,0,1,0-.39c0-.05.09-0.42-0.11-0.34a0.25,0.25,0,0,0-.12.09l0.06,0c0.2-.08.14,0.28,0.11,0.34a0.39,0.39,0,0,0,0,.39,0.73,0.73,0,0,1,.2.61,0.58,0.58,0,0,0,0,.22,0.64,0.64,0,0,1,.15.17l0,0.05L7,5.76a1.1,1.1,0,0,1,0,.3,1,1,0,0,1-.07.38,2,2,0,0,0-.21.38h0l0,0,0,0.07a1.58,1.58,0,0,0,0,.48,0.08,0.08,0,0,1,0,.08V7.54h0v0a0.74,0.74,0,0,1,0,.11h0l0,0.07h0a0.29,0.29,0,0,0,0,.13h0s0,0,0,.06a0,0,0,0,1,0,0c0,0.27.11,0.3,0.11,0.3a0.77,0.77,0,0,1-.06-0.57,1.55,1.55,0,0,0,0-.64A1.27,1.27,0,0,1,7,6.38,1.09,1.09,0,0,0,6.92,5.5Z" transform="translate(-0.17 -0.06)"/><path class="cls-1" d="M6.36,8.06v0c0,0.06,0,0,0,0a0.16,0.16,0,0,0,0-.06h0S6.17,7.94,6.19,8a0.31,0.31,0,0,1,.06.17s0,0,0,0,0-.08,0,0a0.14,0.14,0,0,1,0,.13,0.21,0.21,0,0,0,.1-0.17h0Z" transform="translate(-0.17 -0.06)"/><path class="cls-1" d="M2.94,4.05L2.88,4A0.67,0.67,0,0,0,2.7,3.94a0.8,0.8,0,0,1-.12-0.17,0.31,0.31,0,0,0-.15-0.18s0,0,0,.07a0.35,0.35,0,0,1,.13.18A0.71,0.71,0,0,1,2.6,4a0.42,0.42,0,0,1,.34.14H3l0.07-.06H2.94Z" transform="translate(-0.17 -0.06)"/><path class="cls-1" d="M2.41,4s0,0-.39-0.27a0.44,0.44,0,0,0,0,.1,0.68,0.68,0,0,0,.35.24,0.16,0.16,0,0,1,.08,0S2.44,4,2.41,4Z" transform="translate(-0.17 -0.06)"/><path class="cls-1" d="M2.53,4.44a0.37,0.37,0,0,1-.25-0.21c0-.1-0.1-0.13-0.61-0.22a0.11,0.11,0,0,0,0,.08h0c0.42,0.08.48,0.11,0.51,0.2a0.37,0.37,0,0,0,.25.21c0.06,0,0,0,0,0v0a0.23,0.23,0,0,0,.08-0.08S2.59,4.43,2.53,4.44Z" transform="translate(-0.17 -0.06)"/><path class="cls-1" d="M2.23,5.25a0.48,0.48,0,0,1,0-.22l0,0A0.53,0.53,0,0,0,2.23,5.25Z" transform="translate(-0.17 -0.06)"/><path class="cls-1" d="M2.43,5.69A0.66,0.66,0,0,1,2.21,5.3,0.48,0.48,0,0,0,2.43,5.69Z" transform="translate(-0.17 -0.06)"/><path class="cls-1" d="M2.59,5l0,0a0.41,0.41,0,0,0,0,.06v0a0.44,0.44,0,0,1,0,.23,0.15,0.15,0,0,1,0,.07,0.14,0.14,0,0,0,.06-0.06,0.28,0.28,0,0,0,0-.24,0.12,0.12,0,0,1,0-.11,0.07,0.07,0,0,1,0,0h0c0-.07,0-0.1,0-0.14a0.17,0.17,0,0,0,0-.08H2.45s0,0,0,.05H2.51C2.65,4.79,2.6,5,2.59,5Z" transform="translate(-0.17 -0.06)"/><path class="cls-1" d="M2.31,4.92a0.31,0.31,0,0,1,.12.1c0.08,0,0,.19,0,0.19a0.23,0.23,0,0,1,0,.12,0.12,0.12,0,0,0,.08-0.1h0a0.47,0.47,0,0,1,0-.23,0,0,0,0,0,0,0h0a0.17,0.17,0,0,1-.12-0.07v0h0Z" transform="translate(-0.17 -0.06)"/><path class="cls-1" d="M2.62,5.58h0a0.17,0.17,0,0,1,0,.1A0.3,0.3,0,0,0,2.62,5.58Z" transform="translate(-0.17 -0.06)"/><path class="cls-1" d="M2.53,5.6l0,0,0,0h0l0,0Z" transform="translate(-0.17 -0.06)"/><path class="cls-1" d="M2.34,5.47h0A0.59,0.59,0,0,1,2.27,5.2C2.24,5.29,2.27,5.48,2.34,5.47Z" transform="translate(-0.17 -0.06)"/><path class="cls-1" d="M2.3,5.24v0h0a0.29,0.29,0,0,1,0-.07l0,0A0.5,0.5,0,0,0,2.3,5.24Z" transform="translate(-0.17 -0.06)"/><path class="cls-1" d="M2.49,5.36l-0.09,0H2.35l0,0.06A0.29,0.29,0,0,0,2.49,5.36Z" transform="translate(-0.17 -0.06)"/><path class="cls-1" d="M3.25,4.73V4.79L3.3,4.73V4.67a0.85,0.85,0,0,0-.22.18A0.7,0.7,0,0,1,3.25,4.73Z" transform="translate(-0.17 -0.06)"/><path class="cls-1" d="M2.72,5.5a0.12,0.12,0,0,1,0,0,0.32,0.32,0,0,1,0,.07Z" transform="translate(-0.17 -0.06)"/><path class="cls-1" d="M2.64,5.46h0a0,0,0,0,0,0,0Z" transform="translate(-0.17 -0.06)"/><path class="cls-1" d="M2.58,5.49a0.11,0.11,0,0,1,0,0h0a0.06,0.06,0,0,0,0,.07A0.11,0.11,0,0,0,2.58,5.49Z" transform="translate(-0.17 -0.06)"/><path class="cls-1" d="M2.36,5.22v0h0Z" transform="translate(-0.17 -0.06)"/><path class="cls-1" d="M3.26,5.73s0,0-.12,0h0a0.06,0.06,0,0,1-.06,0A0.53,0.53,0,0,0,3,5.56l-0.06,0a0.08,0.08,0,0,1,0-.07v0a0.14,0.14,0,0,1,0-.16s0,0,0,0a0.29,0.29,0,0,1,.07-0.13,0.42,0.42,0,0,0-.14.19s0,0.08,0,.14v0l0,0a0.65,0.65,0,0,1,.07.1L3,5.63H3a0.27,0.27,0,0,1,.13.11,0.13,0.13,0,0,0,.08.05,0.47,0.47,0,0,1,.16-0.08l0-.05A0.43,0.43,0,0,0,3.26,5.73Z" transform="translate(-0.17 -0.06)"/><path class="cls-1" d="M3.23,5a0.26,0.26,0,0,0-.14.1l0.08,0h0a0.1,0.1,0,0,1,.13,0l0,0A0.23,0.23,0,0,1,3.23,5Z" transform="translate(-0.17 -0.06)"/><path class="cls-1" d="M3.32,5.18l0,0H3.22a0.1,0.1,0,0,0-.07,0l0,0H3.21l0,0a0.19,0.19,0,0,1,.15-0.07c0.1,0,0,.12,0,0.16a0.36,0.36,0,0,0,0,.23v0l0,0h0a0.39,0.39,0,0,1,0-.13,0.25,0.25,0,0,1,0-.16l0,0a0.31,0.31,0,0,1,0-.07,0.07,0.07,0,0,0,0-.06A0.18,0.18,0,0,0,3.32,5.18Z" transform="translate(-0.17 -0.06)"/><path class="cls-1" d="M3,5L3,5H3a0.26,0.26,0,0,0,.08-0.1Z" transform="translate(-0.17 -0.06)"/><path class="cls-1" d="M3.45,5a0.33,0.33,0,0,0-.11.09h0l0,0h0a0.1,0.1,0,0,1,.14.07,0.63,0.63,0,0,1,0,.12,0.25,0.25,0,0,1-.06.16l0,0a0.29,0.29,0,0,0,0,.08,0.23,0.23,0,0,1,0,.06,0.13,0.13,0,0,1,0,.12l0,0.06,0,0A0.62,0.62,0,0,0,3.52,5.6a0.89,0.89,0,0,1,.07-0.29C3.7,5.17,3.63,4.94,3.45,5Z" transform="translate(-0.17 -0.06)"/><path class="cls-1" d="M2.52,5.75l0,0,0,0a0.54,0.54,0,0,1-.25-0.68l0-.07a1.43,1.43,0,0,1,.17-0.27,1.2,1.2,0,0,0-.24.33l0,0.09a1,1,0,0,0,0,.16,0.63,0.63,0,0,0,.14.35,1.14,1.14,0,0,1,.14.13l0,0a1.47,1.47,0,0,1,.38.66l0,0L3,6.62s0,0-.1-0.2A1.47,1.47,0,0,0,2.52,5.75Z" transform="translate(-0.17 -0.06)"/><path class="cls-1" d="M2,4.59a0.34,0.34,0,0,1,.28.12,0.06,0.06,0,0,0,0,0,3.65,3.65,0,0,1,.34-0.28L2.6,4.56a0.11,0.11,0,0,1-.05.1h0s0,0,.08,0l0,0a0.2,0.2,0,0,1,0,.24,0.21,0.21,0,0,0,0,.13h0a0.34,0.34,0,0,1,.05.17,0.12,0.12,0,0,1,0-.07,0.91,0.91,0,0,0,0-.12,0.21,0.21,0,0,1,0-.18c0-.1.06-0.28-0.17-0.26a0.11,0.11,0,0,0,.05-0.1l0.12-.13a3.65,3.65,0,0,0-.34.28,0.06,0.06,0,0,1,0,0,0.34,0.34,0,0,0-.28-0.12,0.67,0.67,0,0,0-.42.08,0,0,0,0,0,0,0A0.59,0.59,0,0,1,2,4.59Z" transform="translate(-0.17 -0.06)"/><path class="cls-1" d="M2.9,5.07a0.13,0.13,0,0,0-.06.06Z" transform="translate(-0.17 -0.06)"/><path class="cls-1" d="M3.21,5.55a0,0,0,0,1,0,0H3.09L3.14,5.62h0Z" transform="translate(-0.17 -0.06)"/><path class="cls-1" d="M3.06,5.45l0,0Z" transform="translate(-0.17 -0.06)"/><path class="cls-1" d="M3.29,4.8a0.5,0.5,0,0,0-.14.12l0.07-.05L3.2,5,3,5.22a0.21,0.21,0,0,0,0,.15A0.23,0.23,0,0,0,3,5.48a0.18,0.18,0,0,1,0-.19v0a0.18,0.18,0,0,1,0-.12L3.27,4.9Z" transform="translate(-0.17 -0.06)"/><path class="cls-1" d="M3.11,5.37l0,0a0.12,0.12,0,0,0,0,.06v0Z" transform="translate(-0.17 -0.06)"/><path class="cls-1" d="M3.06,5.23l0,0a0.23,0.23,0,0,0,.1.19,0,0,0,0,0,0,0C3.06,5.44,3,5.35,3.08,5.27a0.15,0.15,0,0,1,0-.1h0Z" transform="translate(-0.17 -0.06)"/><path class="cls-1" d="M3.12,5.29a0.1,0.1,0,0,0,0,.06l0,0h0a0,0,0,0,1,0,0,0.11,0.11,0,0,1,0,.08l0,0,0,0A0.14,0.14,0,0,0,3.18,5.3v0h0Z" transform="translate(-0.17 -0.06)"/><path class="cls-1" d="M4.06,5.57a0.29,0.29,0,0,1-.26-0.32l0,0a0.18,0.18,0,0,0-.07.08,0.26,0.26,0,0,0,0,.2A0.46,0.46,0,0,0,4,5.64c0.12,0,0,0,.12,0h0a0.21,0.21,0,0,0,.06.05L4.34,5.76c0.41,0.18.49,0,.54,0a0.42,0.42,0,0,1-.47,0C4,5.51,4.24,5.59,4.06,5.57Z" transform="translate(-0.17 -0.06)"/><polygon class="cls-1" points="4.71 5.65 4.71 5.65 4.72 5.64 4.71 5.65"/><path class="cls-1" d="M5.1,5.5h0A0.08,0.08,0,0,0,5,5.58H5A0.16,0.16,0,0,0,5.1,5.5Z" transform="translate(-0.17 -0.06)"/><path class="cls-1" d="M4.35,5.11a0.12,0.12,0,0,0,.07-0.05V5a0.13,0.13,0,0,1-.07.07v0Z" transform="translate(-0.17 -0.06)"/><path class="cls-1" d="M5.18,5.07a0.48,0.48,0,0,1-.26-0.24l-0.06,0A0.32,0.32,0,0,0,5,5a1,1,0,0,0,.15.13h0l0,0a0.11,0.11,0,0,1,0,.12,0.46,0.46,0,0,1,0,.22h0a0.16,0.16,0,0,0,.07-0.08A0.35,0.35,0,0,0,5.18,5.07Z" transform="translate(-0.17 -0.06)"/><path class="cls-1" d="M5,5.65a0.74,0.74,0,0,1-.07.17A0.3,0.3,0,0,0,5,5.64H5Z" transform="translate(-0.17 -0.06)"/><path class="cls-1" d="M3.94,5.12a0.42,0.42,0,0,1,.26,0H4.3a0.13,0.13,0,0,0,0-.06,0.15,0.15,0,0,1-.09,0,0.47,0.47,0,0,0-.43.05l0,0A0.3,0.3,0,0,1,3.94,5.12Z" transform="translate(-0.17 -0.06)"/><path class="cls-1" d="M4.63,5.39h0l0.05-.05a0.25,0.25,0,0,0,0-.07l0,0a0.14,0.14,0,0,1,0,.12h0Z" transform="translate(-0.17 -0.06)"/><path class="cls-1" d="M4.69,5.22a0.19,0.19,0,0,1,0,.11,0.13,0.13,0,0,1,0,.08h0a0.12,0.12,0,0,0,.07-0.07v0A0.15,0.15,0,0,0,4.69,5.22Z" transform="translate(-0.17 -0.06)"/><path class="cls-1" d="M4.55,5.28s0,0-.05,0,0,0.14,0,.14A0.1,0.1,0,0,0,4.55,5.28Z" transform="translate(-0.17 -0.06)"/><path class="cls-1" d="M4.27,5.32h0Z" transform="translate(-0.17 -0.06)"/><path class="cls-1" d="M4.67,5.53a0.13,0.13,0,0,0,.07-0.07h0a0.43,0.43,0,0,1-.4,0A0.13,0.13,0,0,1,4.2,5.39a0.19,0.19,0,0,1,0-.12s-0.12.14,0,.24H4.22l0.1,0.07A0.42,0.42,0,0,0,4.67,5.53Z" transform="translate(-0.17 -0.06)"/><path class="cls-1" d="M4.61,5.21L4.67,5.27a0.14,0.14,0,0,0-.1-0.12A0.22,0.22,0,0,1,4.61,5.21Z" transform="translate(-0.17 -0.06)"/><path class="cls-1" d="M5.12,5.3C5,5.14,5,5.15,5,5.14s0,0-.18-0.06A0.22,0.22,0,0,0,4.73,5L4.64,5V5l0,0a0.2,0.2,0,0,1,.07.12h0c0.2,0,.14.05,0.17,0.06s0.06,0,.13.15a0.17,0.17,0,0,1,0,.07C5.12,5.42,5.16,5.39,5.12,5.3Z" transform="translate(-0.17 -0.06)"/><path class="cls-1" d="M4.92,5.5h0a0.14,0.14,0,0,0,0,.14l0.07,0A0.39,0.39,0,0,1,4.92,5.5Z" transform="translate(-0.17 -0.06)"/><path class="cls-1" d="M4.57,5.26l0,0s0-.08,0-0.07A0.08,0.08,0,0,1,4.57,5.26Z" transform="translate(-0.17 -0.06)"/><path class="cls-1" d="M4,5.22a0.54,0.54,0,0,1,.22,0,0,0,0,0,1,0,0,0.11,0.11,0,0,0,.08,0h0a0.13,0.13,0,0,1,0,.06c0.09,0,.08,0,0.08,0s0,0,.07,0,0-.07,0-0.07h0s0,0-.08,0,0-.15-0.35-0.1a0.24,0.24,0,0,0-.17.1A0.3,0.3,0,0,1,4,5.22Z" transform="translate(-0.17 -0.06)"/><path class="cls-1" d="M3.73,6.05a1,1,0,0,0,.35.13,1.76,1.76,0,0,1,.75.37s0,0,0,.08a0.31,0.31,0,0,0,.05,0V6.82A0.45,0.45,0,0,0,4.8,6.61,1.29,1.29,0,0,0,4,6.22,0.78,0.78,0,0,1,3.73,6.05Z" transform="translate(-0.17 -0.06)"/><path class="cls-1" d="M4.44,7.66A0.46,0.46,0,0,0,5,7.89S5,7.4,5,7.27s0,0,0-.06a6.54,6.54,0,0,1,0,1,0.17,0.17,0,0,0-.05.08s0-.08,0-0.06a0.55,0.55,0,0,1-.39-0.14,0.89,0.89,0,0,0,.42.06C5,8.09,4.94,8,5,8s0,0-.07,0A0.39,0.39,0,0,1,4.44,7.66Z" transform="translate(-0.17 -0.06)"/><path class="cls-1" d="M4.94,8.39A2.51,2.51,0,0,1,4.6,8.3a0.64,0.64,0,0,0,.31.12C5.06,8.42,4.94,8.39,4.94,8.39Z" transform="translate(-0.17 -0.06)"/><path class="cls-1" d="M6.49,8.36l0,0a0.19,0.19,0,0,1,0,.1L6.52,8.57s0,0,0,0,0.06,0.07,0,.11a0.25,0.25,0,0,0,0,.11s0,0.08,0,.1H6.64v0H6.57s0,0,0,0,0-.06,0-0.1a0.25,0.25,0,0,1,0-.11c0.07,0,0-.12,0-0.11s0,0,0,0L6.52,8.44a0.17,0.17,0,0,0,0-.06Z" transform="translate(-0.17 -0.06)"/><path class="cls-1" d="M6.71,8.73a0.36,0.36,0,0,1,0,.14h0v0h0l0,0h0a0.27,0.27,0,0,0,0,0h0s0,0,0-.09l0,0A0,0,0,0,1,6.71,8.73Z" transform="translate(-0.17 -0.06)"/><path class="cls-1" d="M5.88,8.47a0.17,0.17,0,0,1,0,0h0a0.55,0.55,0,0,0,.2.44h0l0-.08A0.44,0.44,0,0,1,5.88,8.47Z" transform="translate(-0.17 -0.06)"/><path class="cls-1" d="M6.76,8.55a0.09,0.09,0,0,0,0-.13s0-.07-0.11-0.14L6.46,8.2l-0.11.07s0,0,0,0h0l0,0L6.52,8.32l0,0,0,0a0.09,0.09,0,0,1,.06.09h0l0,0h0a0.05,0.05,0,0,1,0,0,0.09,0.09,0,0,1,0,.13L6.78,8.67a0,0,0,0,0,0,0,0.19,0.19,0,0,1,.07.17,0,0,0,0,1,0,0s0,0,0,.05,0.07,0,.07,0A0.28,0.28,0,0,0,6.76,8.55Z" transform="translate(-0.17 -0.06)"/><path class="cls-1" d="M5.88,8.4v0s0,0,0,0a0.14,0.14,0,0,0,0,0H6a0,0,0,0,0,0,0,0.3,0.3,0,0,1,.12,0v0l0.11,0,0,0,0.07,0,0,0a0.24,0.24,0,0,0-.18,0H6a0.16,0.16,0,0,1-.09,0,0.71,0.71,0,0,1,0,.09h0Z" transform="translate(-0.17 -0.06)"/><path class="cls-1" d="M6.39,8.91h0Z" transform="translate(-0.17 -0.06)"/><path class="cls-1" d="M6.36,8.92h0a0,0,0,0,1,0,0,0.17,0.17,0,0,1-.1,0,0.07,0.07,0,0,1,0,0s0-.06,0,0a0.29,0.29,0,0,1,0,.1A1.73,1.73,0,0,0,6.36,8.92Z" transform="translate(-0.17 -0.06)"/><path class="cls-1" d="M6.17,8.41a0.07,0.07,0,0,0,0,.07s0.05,0,0,.09a0.19,0.19,0,0,0,0,.15l0,0a0.14,0.14,0,0,0,0-.05s0,0,0,0,0-.07,0-0.08a0.19,0.19,0,0,1,0-.15c0-.07,0-0.1,0-0.09a0,0,0,0,1,0,0h0Z" transform="translate(-0.17 -0.06)"/><path class="cls-1" d="M2.88,8.17s0,0,0,0a0.14,0.14,0,0,1,0,0v0h0A0.06,0.06,0,0,1,2.9,8a0.1,0.1,0,0,1,0,0h0a0.12,0.12,0,0,0-.06.1A0.06,0.06,0,0,0,2.88,8.17Z" transform="translate(-0.17 -0.06)"/><path class="cls-1" d="M2.41,6.64a0.51,0.51,0,0,0,.2.31,0.6,0.6,0,0,1,.3.28A0.57,0.57,0,0,0,2.81,7h0A0.79,0.79,0,0,1,2.41,6.64Z" transform="translate(-0.17 -0.06)"/><path class="cls-1" d="M2.45,8.3s0,0,0,0h0a0.06,0.06,0,0,1,0,.06,0.12,0.12,0,0,0,0,.09h0v0A1.22,1.22,0,0,1,2.45,8.3Z" transform="translate(-0.17 -0.06)"/><path class="cls-1" d="M2.61,8.19s0,0,.05,0h0s0,0,.07,0h0v0h0c0-.06,0,0-0.07,0s0,0,0-.07V8l-0.05,0s0,0,0,.06S2.56,8.2,2.61,8.19Z" transform="translate(-0.17 -0.06)"/><path class="cls-1" d="M2.79,6.7a2,2,0,0,0,.41.19s0.05,0,.05-0.07a1.25,1.25,0,0,1-.44-0.22C2.68,6.45,2.53,6.12,2.48,6.07a2.84,2.84,0,0,1-.32-0.43A2.25,2.25,0,0,0,2.33,6,5.36,5.36,0,0,1,2.79,6.7Z" transform="translate(-0.17 -0.06)"/><path class="cls-1" d="M2.78,8.52a0.34,0.34,0,0,0,0,0l-0.13,0s0,0,0,0a0.47,0.47,0,0,0,0-.16,0,0,0,0,0,0,0,0,0,0,0,1,0,0s0,0,0,0a0.07,0.07,0,0,1,0,0,0.06,0.06,0,0,0,0,0,0,0,0,0,1,0,0,0.52,0.52,0,0,1,0,.12h0A0.34,0.34,0,0,0,2.78,8.52Z" transform="translate(-0.17 -0.06)"/><path class="cls-1" d="M2.7,7.21l0,0a0.27,0.27,0,0,1,.11.13h0a0.28,0.28,0,0,0-.11-0.21h0A0.31,0.31,0,0,1,2.56,7h0L2.46,6.94A0.8,0.8,0,0,0,2.7,7.21Z" transform="translate(-0.17 -0.06)"/><path class="cls-1" d="M2.72,8.21h0Z" transform="translate(-0.17 -0.06)"/><path class="cls-1" d="M2.84,7.86a0.08,0.08,0,0,0,.07-0.07h0a1.6,1.6,0,0,0-.25.13c-0.05,0-.08,0-0.1.08h0A1.6,1.6,0,0,1,2.84,7.86Z" transform="translate(-0.17 -0.06)"/><path class="cls-1" d="M5.46,8.87h0Z" transform="translate(-0.17 -0.06)"/><path class="cls-1" d="M3.66,7.44s0,0,0,0a0.12,0.12,0,0,1-.09,0v0H3.5l0,0A0.16,0.16,0,0,0,3.66,7.44Z" transform="translate(-0.17 -0.06)"/><path class="cls-1" d="M3.52,7.29l0,0a0.35,0.35,0,0,0-.05-0.09h0a0.15,0.15,0,0,0,.07.18v0A0,0,0,0,1,3.52,7.29Z" transform="translate(-0.17 -0.06)"/><path class="cls-1" d="M3.53,7.4l0-.06,0,0,0,0.05A0,0,0,0,0,3.53,7.4Z" transform="translate(-0.17 -0.06)"/><path class="cls-1" d="M2.89,8.45h0V8.27a0,0,0,0,0-.06,0V8.51l0.08,0v0S2.87,8.44,2.89,8.45Z" transform="translate(-0.17 -0.06)"/><path class="cls-1" d="M3.94,7.84a5.69,5.69,0,0,0-.36-1.3,1.45,1.45,0,0,0-.11-0.63s0-.14,0-0.09a0.12,0.12,0,0,1,0-.07,0.43,0.43,0,0,1-.23.11A0.69,0.69,0,0,1,3,5.77a0.75,0.75,0,0,1,.15.15A0.44,0.44,0,0,0,3.4,5.81a0.12,0.12,0,0,0,0,.07c0-.05,0,0.09,0,0.09a1.45,1.45,0,0,1,.11.63,5,5,0,0,1,.35,1.21,1,1,0,0,1,.22.44l0,0.05a1.09,1.09,0,0,1,.25.74h0V9A2.68,2.68,0,0,0,3.94,7.84Z" transform="translate(-0.17 -0.06)"/><path class="cls-1" d="M3.44,7.14s-0.05,0-.06,0l0,0.07s0,0,0,0A0.67,0.67,0,0,1,3.44,7.14Z" transform="translate(-0.17 -0.06)"/><path class="cls-1" d="M3.24,7.53a1.06,1.06,0,0,1,0-.44,0.13,0.13,0,0,1,0-.06l0-.11a1,1,0,0,0-.18.68,4.27,4.27,0,0,1,.08.74,0.24,0.24,0,0,1,0,.16l0,0a0.24,0.24,0,0,0,.09-0.21A4.27,4.27,0,0,0,3.24,7.53Z" transform="translate(-0.17 -0.06)"/><path class="cls-1" d="M3.4,7l0.1,0.08,0.06,0a0.24,0.24,0,0,1,.06.18,0.29,0.29,0,0,1,0,.08l0,0h0a0.24,0.24,0,0,1,0-.07A0.38,0.38,0,0,0,3.4,6.94a0.09,0.09,0,0,0,0,.05h0Z" transform="translate(-0.17 -0.06)"/><path class="cls-1" d="M9.08,0.9A12.28,12.28,0,0,0,2.58.47c-0.35.07-.7,0.16-1,0.27l-0.25.08-0.12,0A0.38,0.38,0,0,0,1,.9q-0.09.25-.17,0.5A12.62,12.62,0,0,0,.3,5.72,12.57,12.57,0,0,0,.58,7.89q0.11,0.52.27,1L0.93,9.17l0,0.06,0,0,0.14,0L1.64,9.46A12.28,12.28,0,0,0,6,9.91a12.18,12.18,0,0,0,2.15-.36q0.52-.14,1-0.32a0.34,0.34,0,0,0,0-.11l0-.12,0.08-.27q0.07-.25.14-0.51a12.77,12.77,0,0,0,.29-4.4A12.26,12.26,0,0,0,9.08.9a0.26,0.26,0,0,0,0,.07,0.35,0.35,0,0,0,0,.12,12,12,0,0,1,.73,4.28,11.93,11.93,0,0,1-.24,2.21q-0.11.54-.27,1.06l-0.08.25L9.18,9A0.27,0.27,0,0,1,9,9.08l-0.51.16a12.28,12.28,0,0,1-4.36.47A12.19,12.19,0,0,1,2,9.36Q1.5,9.22,1,9A0.14,0.14,0,0,1,.92,8.93l0-.12L0.8,8.54Q0.72,8.28.66,8A11.86,11.86,0,0,1,.42,3.63,12,12,0,0,1,.9,1.52L1,1.28l0-.12a0.09,0.09,0,0,1,0-.06l0.08,0L1.66,0.9Q2.18,0.75,2.71.65A12.31,12.31,0,0,1,7.12.59a12.13,12.13,0,0,1,2,.5A0.46,0.46,0,0,0,9.08.9Z" transform="translate(-0.17 -0.06)"/><path class="cls-2" d="M2.58,0.49Q2.05,0.59,1.53.74L1,0.9l-0.08,0A0.09,0.09,0,0,0,.9,1l0,0.12-0.08.24A12,12,0,0,0,.29,3.47,11.85,11.85,0,0,0,.53,7.85Q0.59,8.12.67,8.38L0.75,8.65l0,0.12a0.14,0.14,0,0,0,.07.11q0.51,0.18,1,.31A12.19,12.19,0,0,0,4,9.55,12.28,12.28,0,0,0,8.4,9.08l0.51-.16a0.27,0.27,0,0,0,.14-0.07l0-.12,0.08-.25Q9.33,8,9.44,7.42a11.93,11.93,0,0,0,.24-2.21A12,12,0,0,0,8.95.93a12.13,12.13,0,0,0-2-.5A12.31,12.31,0,0,0,2.58.49Z" transform="translate(-0.17 -0.06)"/><path class="cls-3" d="M4.63,1.2A0.8,0.8,0,0,1,5.2.45s0.41-.07.3,0.26A0.42,0.42,0,0,1,5.39.8a0.4,0.4,0,0,0-.16.4A0.25,0.25,0,0,0,5,1.27S5,1,4.63,1.2Z" transform="translate(-0.17 -0.06)"/><path class="cls-4" d="M4.31,1.49s-0.11-.26.09-0.31,0.18,0.16.11,0.18a0.16,0.16,0,0,0-.12.12A0,0,0,0,1,4.31,1.49Z" transform="translate(-0.17 -0.06)"/><path class="cls-5" d="M5.32,1.3a0.47,0.47,0,0,1,.15.07,0.45,0.45,0,0,1,.31.24,0.47,0.47,0,0,0,.16.13c0.09,0,.11.18,0,0.12a0.35,0.35,0,0,1-.3-0.07c-0.15-.09-0.12-0.15-0.1-0.18s0,0,0,0a0.32,0.32,0,0,1-.07-0.14,0.1,0.1,0,0,0-.08-0.08S5.31,1.29,5.32,1.3Z" transform="translate(-0.17 -0.06)"/><path class="cls-6" d="M5.55,2.12A0.15,0.15,0,0,1,5.64,2s0.07,0,0,0A0.28,0.28,0,0,0,5.55,2.12Z" transform="translate(-0.17 -0.06)"/><path class="cls-7" d="M5.25,2s0,0,0,.08l0,0a0.12,0.12,0,0,1,.08.05s0.19,0,.13-0.12a0.15,0.15,0,0,0-.14-0.13s0-.07-0.13,0A0.06,0.06,0,0,0,5.25,2Z" transform="translate(-0.17 -0.06)"/><path class="cls-8" d="M5.14,1.88s0.05,0,.05,0,0,0,0,.07a0.16,0.16,0,0,1,0,.09,0.23,0.23,0,0,0,.23.09c0.1,0,0,.1,0,0.1a0,0,0,0,1,0,0,0.33,0.33,0,0,1-.15.06H5.07A0.27,0.27,0,0,1,4.86,2.2c0-.13,0-0.08,0-0.1S4.82,2.09,5.14,1.88Z" transform="translate(-0.17 -0.06)"/><path class="cls-9" d="M6.69,2.64a0.24,0.24,0,0,1-.07-0.12,0.15,0.15,0,0,0,0-.15s-0.1-.21-0.1-0.16a0.37,0.37,0,0,0,.05.13c0.07,0.13-.06.1-0.06,0.1a1.43,1.43,0,0,1,0-.49,0.42,0.42,0,0,0-.65.11C5.78,2.18,6,2.25,6,2.25a0.19,0.19,0,0,0,.13,0s0,0,0,0S6,2.16,6,2.13a0,0,0,0,1,0,0C6.23,2,6.13,2.21,6.17,2.23s0,0.12,0,.13a0.19,0.19,0,0,1-.16,0A0.47,0.47,0,0,0,5.78,2.2a1.09,1.09,0,0,0-.44.22,1.4,1.4,0,0,1-.31,0A0.63,0.63,0,0,0,4.7,2.25a0.13,0.13,0,0,0,0-.07s0-.05,0-0.07a0,0,0,0,0,0-.05,0,0,0,0,1,0,0,1.14,1.14,0,0,1,.22-0.16A0.26,0.26,0,0,1,5.06,1.8a1.1,1.1,0,0,0,.16-0.05s0,0,0,0,0.23-.16.17-0.21a1,1,0,0,0-.08-0.14c-0.06,0,0-.08-0.11-0.12a0.09,0.09,0,0,0-.12,0,0.62,0.62,0,0,1-.18.13c-0.24.08-.2,0-0.16-0.06a0.69,0.69,0,0,1,.1-0.13c0-.1-0.06-0.1-0.17,0a0.9,0.9,0,0,0-.18.2c-0.14.08-.07,0.1-0.19,0.17a1.29,1.29,0,0,0-.2.26C4,2,4,1.89,4,1.89a1.49,1.49,0,0,1,.24-0.32,1.11,1.11,0,0,0-.43.54c-0.2.43-.07,0.35-0.11,0.39a0.12,0.12,0,0,0,0,.14,0.15,0.15,0,0,1,.06,0s0,0,0,0a0.56,0.56,0,0,1,.1-0.16,0.1,0.1,0,0,0,0-.09c0-.08-0.08,0-0.08,0S4,2.3,4,2.41a0.45,0.45,0,0,1-.14.34,0.33,0.33,0,0,0,.05.39,0.37,0.37,0,0,1,0,.26c0.38-.06.33,0.25,0.33,0.25C4.12,3.88,3.77,4,3.75,3.73s0.19-.32.3-0.19-0.19.23-.2,0.15,0-.06,0-0.06,0.19-.15,0-0.1a0.12,0.12,0,0,0-.07.2,0.24,0.24,0,0,0,.23,0c0.19-.16,0-0.27,0-0.27a0.31,0.31,0,0,0-.38.21,0.37,0.37,0,0,1-.12-0.38c0-.05.1-0.14,0.17,0a0.12,0.12,0,0,1-.07.19s0,0,0,0a0.12,0.12,0,0,0,0-.13c0-.07-0.07,0-0.07,0,0,0.4.24,0.1,0.24,0.1C4,3.08,3.76,3.1,3.76,3.1c-0.29,0-.27.42-0.27,0.42A2.53,2.53,0,0,0,3,3.83a1.09,1.09,0,0,1-.22.22s0,0,0,0a0.12,0.12,0,0,0-.06-0.13,0.39,0.39,0,0,0-.39,0c-0.26.15,0,.34,0.08,0.36A0.21,0.21,0,0,0,2.68,4C2.66,3.88,2.5,3.89,2.46,4s0,0.1.08,0.08a0.08,0.08,0,0,0,0-.08c0.06,0,0,.08,0,0.08S2.25,3.95,2.5,3.89s0.23,0.28.23,0.28c0.34-.26.32-0.2,0.43-0.3a2.54,2.54,0,0,1,.39-0.26l0,0A2.18,2.18,0,0,0,3,4.12s-0.11.13-.13,0.18a2.23,2.23,0,0,1-.13.22c0,0.09.07,0,.12-0.07L3,4.3a0.8,0.8,0,0,1,.38-0.36,1,1,0,0,1,.22-0.15,0.29,0.29,0,0,0,.08.12A0.24,0.24,0,0,0,3.5,4a2,2,0,0,1-.17.15,0.37,0.37,0,0,1-.08.14,0.27,0.27,0,0,0-.06.14,1.94,1.94,0,0,1-.09.42,0.83,0.83,0,0,0,.32-0.44c0.11,0,.22-0.25.37-0.33S3.95,4,3.95,4a0.11,0.11,0,0,0,0,.11,0.41,0.41,0,0,1-.18.38c-0.24.28,0,.33,0,0.33a0.3,0.3,0,0,1,.2-0.23,0.88,0.88,0,0,0,.5-0.41,0.49,0.49,0,0,1,.11-0.1,0.79,0.79,0,0,1,0,.11,0.07,0.07,0,0,0,0,0,0.81,0.81,0,0,1-.25.48c0,0.27.13,0.28,0.14,0.28S4.28,5,4.6,4.8A0.62,0.62,0,0,0,5,4.36a0.45,0.45,0,0,1,0-.19,0.78,0.78,0,0,1,.08.14,0.37,0.37,0,0,1,0,.16c0.51,1.61,0,2.25-.09,2.35S5,7,5,7a1.32,1.32,0,0,0,.75-1.8,2,2,0,0,1-.13-0.78,0.27,0.27,0,0,0,0-.16c0.07-.08,0-0.1,0-0.12a0.81,0.81,0,0,0,.15-0.29,0.41,0.41,0,0,1,0-.19,0.92,0.92,0,0,0,0-.34A0.33,0.33,0,0,1,6.18,3a0.34,0.34,0,0,1,.34.33,1.51,1.51,0,0,1-.06.32,0.75,0.75,0,0,1,0,.3,0.38,0.38,0,0,0,.08.33s0.06,0,0-.17a1,1,0,0,1,0-.6,0.46,0.46,0,0,0,0-.38A0.4,0.4,0,0,0,5.9,3.09a0.41,0.41,0,0,1-.36,0A0.61,0.61,0,0,0,5,3.1,0,0,0,0,1,5,3.1C4.26,3.49,4.14,3,4.13,3s0,0,0,0a0.32,0.32,0,0,1,.32-0.43,1.19,1.19,0,0,1,.31.12,0.45,0.45,0,0,1,.2.07,0.3,0.3,0,0,0,.28-0.07,0.88,0.88,0,0,0,.21-0.19c0.25-.2.33-0.1,0.36-0.08A0.62,0.62,0,0,0,6,2.45L6.11,2.51a0.53,0.53,0,0,0,.24,0c0.05,0,.14.14,0.2,0.16a0.41,0.41,0,0,1,.13.09S6.73,2.68,6.69,2.64ZM4.36,3.75a0.35,0.35,0,0,1,.46-0.15S5,3.66,5,3.79a0,0,0,0,0,0,0s0-.09,0-0.1,0.27-.34.5-0.18a0.12,0.12,0,0,1,0,.16c0,0.11,0,.07-0.13.15s-0.24,0-.27,0a0.19,0.19,0,0,1,.28-0.18,0.06,0.06,0,0,1,0,.08,0.18,0.18,0,0,0-.05.05s-0.11,0-.06-0.05,0,0,0,0-0.1,0-.1,0,0,0.18.2,0.09,0-.24,0-0.24a0.31,0.31,0,0,0-.34.2,0.66,0.66,0,0,0,0,.13S5.06,3.89,5,4a0.67,0.67,0,0,1-.34,0S4.48,4,4.53,3.8s0.32-.13.32,0a0.08,0.08,0,0,1-.14.06s0.07,0,0-.06a0.07,0.07,0,0,0-.11,0S4.61,4,4.9,3.9A0.19,0.19,0,0,0,4.74,3.6c-0.3-.05-0.31.22-0.42,0.28L4.15,4A1.18,1.18,0,0,0,4.36,3.75Z" transform="translate(-0.17 -0.06)"/><path class="cls-10" d="M5.8,2.94s0,0.06.07,0,0.41-.31.46-0.14,0,0.13,0,.12S6.19,2.87,5.8,3.1c0,0-.16,0-0.15,0s0,0,0,0a0.12,0.12,0,0,1,0-.08A0.06,0.06,0,0,1,5.8,2.94Z" transform="translate(-0.17 -0.06)"/><path class="cls-11" d="M5.46,2.54s0,0,0,.05a0.1,0.1,0,0,1-.12.05s0,0,0,0Z" transform="translate(-0.17 -0.06)"/><path class="cls-12" d="M5.49,2.51s0,0.07.06,0.06,0.12,0,.09-0.1Z" transform="translate(-0.17 -0.06)"/><path class="cls-13" d="M5.67,2.45s0,0,.07.14,0.1,0.14.14,0.09L6,2.56S5.92,2.45,5.89,2.45A0.79,0.79,0,0,0,5.67,2.45Z" transform="translate(-0.17 -0.06)"/><path class="cls-14" d="M6,2.54a0.06,0.06,0,0,0,0,.05H6.11s0,0,0,0A0.13,0.13,0,0,0,6,2.54Z" transform="translate(-0.17 -0.06)"/><path class="cls-15" d="M6.16,2.55s0,0,0,.05a0.08,0.08,0,0,0,.07-0.05H6.16Z" transform="translate(-0.17 -0.06)"/><path class="cls-16" d="M6.27,2.59a0.06,0.06,0,0,1,0,0s0,0,0,0a0.12,0.12,0,0,1,.08,0s0.05,0,0,0a0.33,0.33,0,0,0-.15,0S6.25,2.57,6.27,2.59Z" transform="translate(-0.17 -0.06)"/><path class="cls-17" d="M6.56,2.75a0,0,0,0,1,0,0,0,0,0,0,0,.05,0,0.26,0.26,0,0,0-.14-0.12s-0.06,0,0,.05A0.23,0.23,0,0,0,6.56,2.75Z" transform="translate(-0.17 -0.06)"/><path class="cls-18" d="M6.7,2.77a0.81,0.81,0,0,1-.22.15s0,0,0,0A0.06,0.06,0,0,1,6.54,3s0,0,0,0a0.23,0.23,0,0,0,.11-0.16C6.71,2.75,6.7,2.77,6.7,2.77Z" transform="translate(-0.17 -0.06)"/><path class="cls-19" d="M6.43,3.57a0.17,0.17,0,0,0,0-.15,0.19,0.19,0,0,0,0-.11,0.22,0.22,0,0,0-.35-0.11A0.33,0.33,0,0,0,6,3.27a0.31,0.31,0,0,0,0,.16,0.17,0.17,0,0,1,0,.15,0.71,0.71,0,0,0-.11.32,1.89,1.89,0,0,0-.18.46A7.48,7.48,0,0,0,6,5.64,1.15,1.15,0,0,1,5.08,7a1.14,1.14,0,0,0,1.23-.59c0.32-.66.06-0.77-0.23-2A1.15,1.15,0,0,0,6,4.07,0.22,0.22,0,0,1,6,3.83a0.36,0.36,0,0,1,.37-0.22S6.49,3.65,6.43,3.57Z" transform="translate(-0.17 -0.06)"/><path class="cls-20" d="M6.19,4.46a5.23,5.23,0,0,1,.31,1.46,1.31,1.31,0,0,1-.31.76,1.08,1.08,0,0,0,.38-1.23A1.89,1.89,0,0,0,6.19,4.46Z" transform="translate(-0.17 -0.06)"/><path class="cls-21" d="M6.15,3.91a0.2,0.2,0,0,1,.14-0.26C6.5,3.57,6.44,3.94,6.41,4a0.39,0.39,0,0,0,0,.39,0.73,0.73,0,0,1,.2.61,0.42,0.42,0,0,0,.15.36,1.09,1.09,0,0,1,.05.87,1.27,1.27,0,0,0-.27.69,1.55,1.55,0,0,1,0,.64,0.77,0.77,0,0,0,.06.57s-0.12,0-.11-0.3a0,0,0,0,0-.06,0,0.16,0.16,0,0,1-.19,0s-0.12-.08-0.11,0a0.31,0.31,0,0,1,.06.17s0,0,0,0,0-.08,0,0-0.06.33-.48,0.23a0.09,0.09,0,0,1,0-.1,1,1,0,0,0-.09-0.53A1.58,1.58,0,0,0,5.52,7S5.48,7,5.7,7a1.35,1.35,0,0,0,.87-0.63,0.73,0.73,0,0,1-.35.55A0.46,0.46,0,0,0,6,7.29a0.82,0.82,0,0,1,0,.28,0.15,0.15,0,0,0,0,0,1.26,1.26,0,0,1,.13.13,0.18,0.18,0,0,0,.21,0,0.29,0.29,0,0,1,0-.13,0.22,0.22,0,0,1-.31-0.14s0.21,0.21.34,0.08a0.74,0.74,0,0,1,0-.16s-0.07.14-.37-0.1a0.3,0.3,0,0,1,.13.06c0.12,0.06.28,0,.26-0.08a1,1,0,0,1,0-.59,1.89,1.89,0,0,1-.2.16A2.31,2.31,0,0,0,6.6,6.54,1.6,1.6,0,0,0,6.84,5.6a0.87,0.87,0,0,0-.25-0.34,1.74,1.74,0,0,1-.11-0.5,0.13,0.13,0,0,0,0-.09" transform="translate(-0.17 -0.06)"/><path class="cls-22" d="M2.23,3.68a0.14,0.14,0,0,0,.16.14A0.47,0.47,0,0,1,2.82,4s0,0.05,0,0l0.08-.07H2.81l-0.06,0a0.67,0.67,0,0,0-.18-0.08,0.8,0.8,0,0,1-.12-0.17,0.31,0.31,0,0,0-.15-0.18S2.23,3.42,2.23,3.68Z" transform="translate(-0.17 -0.06)"/><path class="cls-23" d="M1.89,3.58a0.28,0.28,0,0,0,0,.24,0.32,0.32,0,0,0,.28.14,0.28,0.28,0,0,1,.13-0.08s0,0,0,0S2.24,3.88,1.89,3.58Z" transform="translate(-0.17 -0.06)"/><path class="cls-24" d="M1.53,3.85a0.11,0.11,0,0,0,0,.08,1.68,1.68,0,0,1,.26.24A0.26,0.26,0,0,1,2,4.3a0.44,0.44,0,0,0,.16,0,0.32,0.32,0,0,0,.23.07,0.25,0.25,0,0,0,.09-0.09s0,0,0,0a0.37,0.37,0,0,1-.25-0.21C2.11,4,2,3.95,1.53,3.85Z" transform="translate(-0.17 -0.06)"/><path class="cls-25" d="M2.65,4.21a3.65,3.65,0,0,0-.34.28,0.06,0.06,0,0,1,0,0A0.34,0.34,0,0,0,2,4.37a0.67,0.67,0,0,0-.42.08s0,0,0,.07A1.44,1.44,0,0,0,2,4.69s0,0.08,0,0A1,1,0,0,0,2,5.29c0.06,0.29.28,0.21,0.39,0.6a1.08,1.08,0,0,0,.46.58s0,0-.1-0.2a1.47,1.47,0,0,0-.38-0.66,0.66,0.66,0,0,1-.3-0.75,0.94,0.94,0,0,1,.3-0.37s-0.07.09,0,.06,0.09-.08.13,0a0.13,0.13,0,0,1,0,.11s0,0.07,0,.14a0.2,0.2,0,0,0,0,.15,0.28,0.28,0,0,1,0,.24,0.26,0.26,0,0,1-.12.17,0.39,0.39,0,0,1-.13.16,0.51,0.51,0,0,1-.23-0.52,0.24,0.24,0,0,1,.08-0.14,0.51,0.51,0,0,0,.08.55,0.09,0.09,0,0,0,.15,0,0.07,0.07,0,0,1,0-.07,0.16,0.16,0,0,0,.09-0.14,0.44,0.44,0,0,0,0-.23,0.1,0.1,0,0,1,0-.12s0.05-.21-0.08-0.19-0.16,0-.13.08a0.45,0.45,0,0,1,.15.11,0.47,0.47,0,0,0,0,.23,0.24,0.24,0,0,1-.18.24C2.19,5.27,2.17,5,2.22,4.93l0.06,0s0,0,0,.1,0,0,0,0a0.14,0.14,0,0,0,0,.19s0.13,0,.1-0.2c0,0,.06-0.23,0-0.19s-0.1-.13-0.14-0.09a0.54,0.54,0,0,0,.17.82,0.25,0.25,0,0,0,.12-0.18s0.11,0.06.13-.14c0,0,0,0,.06.12s0.05,0.13.15,0.14A0.27,0.27,0,0,1,3,5.59a0.17,0.17,0,0,0,.24,0l0.11,0a0.62,0.62,0,0,0,.05-0.11,0.89,0.89,0,0,1,.07-0.29C3.57,5,3.5,4.78,3.32,4.81a0.33,0.33,0,0,0-.11.09s-0.08,0-.11,0a0.34,0.34,0,0,0-.19.18C2.85,5.18,3,5.39,3.1,5.3s0-.25-0.07-0.14S3,5.1,3,5.07s0.18,0,.12.21a0.4,0.4,0,0,1-.07.11S3,5.41,3,5.39a0.25,0.25,0,0,0-.12-0.11A0.25,0.25,0,0,1,2.9,5l0.24-.25,0-.1A0.48,0.48,0,0,0,3,4.78C3,4.86,2.83,5,2.8,5a0.16,0.16,0,0,0,0,.18,0.26,0.26,0,0,0,.12.13A0.53,0.53,0,0,1,3,5.47a0.27,0.27,0,0,0,.16,0,0.11,0.11,0,0,0,.13-0.1,0.36,0.36,0,0,1,0-.23s0.09-.12,0-0.16A0.19,0.19,0,0,0,3.19,5,0.13,0.13,0,0,0,3,5c-0.06.08,0,.18,0,0.18s0,0,0,0A0.15,0.15,0,0,1,3,5c0.08-.08.07-0.11,0.21-0.06l0.09-.07a0.09,0.09,0,0,1,.14.07,0.22,0.22,0,0,1,0,.16,0.55,0.55,0,0,0-.08.23,0.29,0.29,0,0,1-.06.16,0.47,0.47,0,0,0-.16.08s0,0-.12,0a0.38,0.38,0,0,0-.2-0.18c-0.1,0-.08-0.1-0.08-0.16s0-.09,0-0.14a0.41,0.41,0,0,1,.15-0.2A0.31,0.31,0,0,0,3,4.74l0.2-.17V4.51a1,1,0,0,0-.3.28,0.61,0.61,0,0,0-.2.25,1.34,1.34,0,0,0,0-.17,0.21,0.21,0,0,1,0-.18c0-.1.07-0.28-0.17-0.26,0,0,0,0,.05-0.1Z" transform="translate(-0.17 -0.06)"/><path class="cls-26" d="M4.73,4.72a0.32,0.32,0,0,0,.12.14,0.9,0.9,0,0,0,.2.17c0.1,0.05,0,.33-0.13.33s-0.07.1-.12,0.13-0.13.23-.54,0-0.16-.1-0.34-0.12a0.29,0.29,0,0,1-.26-0.32A0.3,0.3,0,0,1,4.07,5,0.18,0.18,0,0,0,4.29,4.9V4.85a0.13,0.13,0,0,1-.15.07A0.47,0.47,0,0,0,3.69,5a0.3,0.3,0,0,0,0,.36A0.41,0.41,0,0,0,4,5.5a0.39,0.39,0,0,0,.2.12s0,0.09.22,0.07a0.52,0.52,0,0,0,.23,0c0.08,0,.15,0,0.24-0.26A0.29,0.29,0,0,0,5.15,5.3a0.35,0.35,0,0,0-.1-0.38,0.48,0.48,0,0,1-.26-0.24Z" transform="translate(-0.17 -0.06)"/><path class="cls-27" d="M4.51,4.86A0.24,0.24,0,0,0,4.62,5a0.2,0.2,0,0,1,0,.32,0.43,0.43,0,0,1-.41,0C4,5.26,4.07,5,4.13,5a0.11,0.11,0,0,0,.08,0,0.09,0.09,0,0,0-.06,0s0,0.17.17,0.16,0.27,0,.3-0.09A0.22,0.22,0,0,0,4.52,5s0.15,0.26-.07.29c0,0,.2-0.14,0-0.25,0,0,.13.12,0,0.2s0.07-.15,0-0.14,0.05,0,0,.07,0-.05-0.07,0,0,0-.08,0,0-.15-0.35-0.1a0.21,0.21,0,0,0-.19.15c0,0.14.12,0.21,0.35,0.2a0.56,0.56,0,0,0,.7.09,0.17,0.17,0,0,1,0-.16c0.06,0,.22,0,0.15-0.15S4.89,5,4.86,5s0,0-.18-0.06A0.22,0.22,0,0,0,4.6,4.8" transform="translate(-0.17 -0.06)"/><path class="cls-28" d="M3.67,5.83A1,1,0,0,0,4,6a1.76,1.76,0,0,1,.75.37s0,0,0,.08a0.31,0.31,0,0,0,.05,0V6.6a0.45,0.45,0,0,0-.11-0.21A1.29,1.29,0,0,0,3.94,6,0.78,0.78,0,0,1,3.67,5.83Z" transform="translate(-0.17 -0.06)"/><path class="cls-29" d="M4.38,7.43a0.46,0.46,0,0,0,.52.24s0-.49,0-0.62,0,0,0-.06a6.54,6.54,0,0,1,0,1,0.17,0.17,0,0,0-.05.08s0-.08,0-0.06a0.55,0.55,0,0,1-.39-0.14,0.89,0.89,0,0,0,.42.06c0-.06,0-0.13,0-0.18s0,0-.07,0A0.39,0.39,0,0,1,4.38,7.43Z" transform="translate(-0.17 -0.06)"/><path class="cls-30" d="M4.87,8.17a2.51,2.51,0,0,1-.34-0.1,0.64,0.64,0,0,0,.31.12C5,8.2,4.87,8.17,4.87,8.17Z" transform="translate(-0.17 -0.06)"/><path class="cls-31" d="M6.63,8.39a0.09,0.09,0,0,0,0-.13s0-.07-0.11-0.14L6.33,8l-0.11.07s0,0,0,0a0.38,0.38,0,0,0-.18,0H5.82a0.16,0.16,0,0,1-.09,0,0.61,0.61,0,0,1,0,.1,0.55,0.55,0,0,0,.2.45H6a1.15,1.15,0,0,0,.22,0,0.64,0.64,0,0,1,.21,0,0.21,0.21,0,0,0,.16,0s0.15,0,.14,0A0.28,0.28,0,0,0,6.63,8.39ZM5.75,8.23s0,0,0,0a0.14,0.14,0,0,0,0,0s0,0,0,0a0.3,0.3,0,0,1,.12,0,0.14,0.14,0,0,0,0,0,0.29,0.29,0,0,0-.06.16A0.53,0.53,0,0,0,6,8.67,0.4,0.4,0,0,1,5.75,8.23ZM6.32,8.71a0.35,0.35,0,0,1-.13,0,0.19,0.19,0,0,1-.11,0s0-.09,0-0.13,0,0,0,0,0-.07,0-0.08a0.19,0.19,0,0,1,0-.15c0-.07,0-0.1,0-0.09a0.07,0.07,0,0,1,0-.07c0.05,0,.17,0,0.17.07a0.07,0.07,0,0,1,0,.08c-0.05,0,0,0,0,.1a1.22,1.22,0,0,1,0,.19s-0.05,0,0,.06a0.08,0.08,0,0,0,.06,0S6.32,8.71,6.32,8.71Zm0.25,0a0.4,0.4,0,0,1-.13,0s0,0,0,0,0-.06,0-0.1a0.25,0.25,0,0,1,0-.11c0.07,0,0-.12,0-0.11s0,0,0,0L6.38,8.28a0.19,0.19,0,0,0,0-.1l0,0,0,0a0.09,0.09,0,0,1,.06.09,0.06,0.06,0,0,0,0,0,0.15,0.15,0,0,0,0,.08,0.06,0.06,0,0,0,0,.1A0.3,0.3,0,0,1,6.57,8.72Zm0.15-.06a0,0,0,0,1,0,0H6.62a0.52,0.52,0,0,0,0-.16,0,0,0,0,0,0,0A0.19,0.19,0,0,1,6.72,8.66Z" transform="translate(-0.17 -0.06)"/><path class="cls-32" d="M2,5.46v0Z" transform="translate(-0.17 -0.06)"/><path class="cls-33" d="M3.36,5.67v0Z" transform="translate(-0.17 -0.06)"/><path class="cls-34" d="M5.67,9a0.65,0.65,0,0,0,0-.25,1.44,1.44,0,0,0-.47-0.41,0,0,0,0,0,0,.06,1.14,1.14,0,0,1,.18.18,0.14,0.14,0,0,0,0,.11l-0.1-.1s-0.11,0-.15.09a0.35,0.35,0,0,1-.5.15,0.14,0.14,0,0,1,0-.17s0.08,0,.06.05,0,0.06,0,0,0,0,0,0,0.07,0,0-.08-0.14,0-.2,0S4.54,9.12,5,8.84A0.54,0.54,0,0,0,5.16,8.7s0,0,0,0a0.19,0.19,0,0,0,.15.2,0.42,0.42,0,0,0,.14.19,0.31,0.31,0,0,1-.25.05A1.77,1.77,0,0,0,4.58,9.1,1.09,1.09,0,0,1,4.36,9c-0.05,0-.07,0-0.09-0.18a2.68,2.68,0,0,0-.45-1.13,5.69,5.69,0,0,0-.36-1.3,1.45,1.45,0,0,0-.11-0.63s0-.14,0-0.09a0.12,0.12,0,0,1,0-.07,0.43,0.43,0,0,1-.23.11A0.69,0.69,0,0,1,2.9,5.61a0.65,0.65,0,0,1,.26.6,0.21,0.21,0,0,0,0,.25s0,0.26,0,.2a1.4,1.4,0,0,1-.45-0.23C2.55,6.29,2.4,6,2.35,5.91A2.84,2.84,0,0,1,2,5.48a2.25,2.25,0,0,0,.17.35,2.47,2.47,0,0,1,.51.91,0.61,0.61,0,0,1,.14.31,0.33,0.33,0,0,0-.17-0.2,0.79,0.79,0,0,1-.39-0.36,0.51,0.51,0,0,0,.2.31,0.48,0.48,0,0,1,.32.36A0.24,0.24,0,0,0,2.6,7,0.7,0.7,0,0,1,2.3,6.7a0.59,0.59,0,0,0,.27.36,0.7,0.7,0,0,1,.27.48s0,0.07-.06.1a1.6,1.6,0,0,0-.25.13c-0.06,0-.08,0-0.1.1a0.35,0.35,0,0,1-.12.22,0.21,0.21,0,0,0,0,.23,0.44,0.44,0,0,1,.12.05,0.53,0.53,0,0,0,.26,0,0.51,0.51,0,0,0,.19,0,0.17,0.17,0,0,0,.11,0,0.24,0.24,0,0,0,.11,0,0.24,0.24,0,0,0,.09-0.21,4.27,4.27,0,0,0-.08-0.74,0.82,0.82,0,0,1,.2-0.67,0.43,0.43,0,0,1,.28.52s-0.16.17-.28-0.11c0,0,0-.33.11-0.15a0.22,0.22,0,0,1,.05.2c0,0.08-.1,0-0.09,0a0,0,0,0,1,0,0S3.37,7,3.34,7a0.17,0.17,0,0,0,.15.21,0.15,0.15,0,0,1,.06-0.09,0.41,0.41,0,0,0-.22-0.38s-0.27,0,0,.52S3.7,7.36,4,8.14A1.1,1.1,0,0,1,4.23,9a0.78,0.78,0,0,0,.22.11,0.67,0.67,0,0,0,.34.09,1.17,1.17,0,0,1,.46.06s0.08,0,.07,0a0.27,0.27,0,0,0,.2-0.07S5.7,9.16,5.67,9Zm-0.34-.3h0Zm-3-.42s-0.05,0,0,0,0,0,0,0a0,0,0,0,1,0-.05s0-.08,0-0.07,0,0,0,0,0,0,0,0a1.22,1.22,0,0,0,0,.15V8.3h0Zm0.16-.39c0-.06,0-0.06,0-0.06l0.07,0s0,0,0,0a0.08,0.08,0,0,0,0,.07s0,0.05,0,.05V8S2.61,8,2.61,8s0,0-.07,0S2.52,8,2.53,7.91ZM2.71,8.32a0.49,0.49,0,0,0-.19,0s0,0,0,0a0.47,0.47,0,0,0,0-.16,0,0,0,0,0,0,0,0.06,0.06,0,0,1,0,0,0.07,0.07,0,0,0,0,0s0,0,.07,0,0,0,0,0a0.09,0.09,0,0,1,0,.09s0,0,0,0S2.71,8.32,2.71,8.32Zm0.09,0s-0.06-.07,0-0.05a0,0,0,0,0,0,0V8.06a0,0,0,0,1,.06,0,0.07,0.07,0,0,0,0,0,0.59,0.59,0,0,1,0,.1s0,0.08,0,.09a0.11,0.11,0,0,1,0,.08A0.13,0.13,0,0,1,2.8,8.35ZM2.9,7.79s0,0,0,0a0.11,0.11,0,0,0,0,.07,0.14,0.14,0,0,0,0,0s0,0,0,0a0.06,0.06,0,0,1,0-.06,0.12,0.12,0,0,1,.06-0.1l0.08,0A0,0,0,0,0,2.9,7.79Z" transform="translate(-0.17 -0.06)"/><path class="cls-35" d="M6,2.53a0.06,0.06,0,0,0,0,.05H6.11s0,0,0,0A0.13,0.13,0,0,0,6,2.53Z" transform="translate(-0.17 -0.06)"/><path class="cls-35" d="M6.17,2.55s0,0,0,.05a0.08,0.08,0,0,0,.07-0.05H6.17Z" transform="translate(-0.17 -0.06)"/><path class="cls-35" d="M6.27,2.59a0.06,0.06,0,0,1,0,0s0,0,0,0a0.12,0.12,0,0,1,.08,0s0.05,0,0,0a0.33,0.33,0,0,0-.15,0S6.26,2.56,6.27,2.59Z" transform="translate(-0.17 -0.06)"/><path class="cls-35" d="M6.57,2.75a0,0,0,0,1,0,0,0,0,0,0,0,.05,0,0.26,0.26,0,0,0-.14-0.12s-0.06,0,0,.05A0.23,0.23,0,0,0,6.57,2.75Z" transform="translate(-0.17 -0.06)"/><path class="cls-35" d="M3.67,5.83A1,1,0,0,0,4,6a1.76,1.76,0,0,1,.75.37s0,0,0,.08a0.31,0.31,0,0,0,.05,0V6.59a0.45,0.45,0,0,0-.11-0.21A1.29,1.29,0,0,0,3.95,6,0.78,0.78,0,0,1,3.67,5.83Z" transform="translate(-0.17 -0.06)"/><path class="cls-35" d="M4.38,7.43a0.46,0.46,0,0,0,.52.24s0-.49,0-0.62,0,0,0-.06a6.54,6.54,0,0,1,0,1,0.17,0.17,0,0,0-.05.08s0-.08,0-0.06a0.55,0.55,0,0,1-.39-0.14,0.89,0.89,0,0,0,.42.06c0-.06,0-0.13,0-0.18s0,0-.07,0A0.39,0.39,0,0,1,4.38,7.43Z" transform="translate(-0.17 -0.06)"/><path class="cls-35" d="M4.88,8.17a2.51,2.51,0,0,1-.34-0.1,0.64,0.64,0,0,0,.31.12C5,8.2,4.88,8.17,4.88,8.17Z" transform="translate(-0.17 -0.06)"/><path class="cls-35" d="M2,5.45v0Z" transform="translate(-0.17 -0.06)"/><path class="cls-35" d="M3.36,5.66v0Z" transform="translate(-0.17 -0.06)"/><path class="cls-35" d="M5.31,0.87a0.41,0.41,0,0,0-.15.32H5.23A0.41,0.41,0,0,1,5.31.87Z" transform="translate(-0.17 -0.06)"/><path class="cls-35" d="M5.2,0.45a0.66,0.66,0,0,0-.36.21A0.67,0.67,0,0,1,5.14.51s0.41-.07.3,0.25L5.5,0.7C5.62,0.38,5.2.45,5.2,0.45Z" transform="translate(-0.17 -0.06)"/><path class="cls-35" d="M4.34,1.51a0,0,0,0,0,.06,0v0A0.16,0.16,0,0,0,4.34,1.51Z" transform="translate(-0.17 -0.06)"/><path class="cls-35" d="M4.4,1.18a0.15,0.15,0,0,0-.11.08h0c0.14,0,.17.05,0.16,0.12h0C4.58,1.34,4.61,1.12,4.4,1.18Z" transform="translate(-0.17 -0.06)"/><path class="cls-35" d="M6,1.73A0.47,0.47,0,0,1,5.79,1.6a0.45,0.45,0,0,0-.31-0.24,0.47,0.47,0,0,0-.15-0.07s0,0,0,.06a0.1,0.1,0,0,1,.08.08h0a0.39,0.39,0,0,1,.29.23,0.47,0.47,0,0,0,.16.13,0.11,0.11,0,0,1,.06.06C6.05,1.89,6,1.76,6,1.73Z" transform="translate(-0.17 -0.06)"/><path class="cls-35" d="M5.64,2A0.09,0.09,0,0,0,5.57,2h0a0.21,0.21,0,0,0,.06,0C5.71,2,5.64,2,5.64,2Z" transform="translate(-0.17 -0.06)"/><path class="cls-35" d="M5.52,2a0.15,0.15,0,0,0-.14-0.13s0-.07-0.13,0a0.09,0.09,0,0,0,0,0c0.08,0,.09,0,0.09,0A0.15,0.15,0,0,1,5.46,2a0.1,0.1,0,0,1,0,.06A0.08,0.08,0,0,0,5.52,2Z" transform="translate(-0.17 -0.06)"/><path class="cls-35" d="M5.47,2.15a0.23,0.23,0,0,1-.23-0.09,0.16,0.16,0,0,0,0-.09s0,0,0-.07-0.05,0-.05,0a0.82,0.82,0,0,0-.24.19l0.17-.12s0.05,0,.05,0,0,0,0,.07a0.16,0.16,0,0,1,0,.09,0.23,0.23,0,0,0,.23.09c0.1,0,0,.1,0,0.1h0l0.07,0a0,0,0,0,0,0,0S5.58,2.13,5.47,2.15Z" transform="translate(-0.17 -0.06)"/><path class="cls-35" d="M4.79,3.84a0.07,0.07,0,0,1-.07,0,0.06,0.06,0,0,0,0,0,0.19,0.19,0,0,0-.1,0h0a0.11,0.11,0,0,0,0,0,0.06,0.06,0,0,1,.05,0,0,0,0,0,1,0,.05l0.06,0A0.08,0.08,0,0,0,4.79,3.84Z" transform="translate(-0.17 -0.06)"/><path class="cls-35" d="M3.57,3.64h0a0.33,0.33,0,0,0,.08.09,0.45,0.45,0,0,1,0-.08L3.62,3.59c-0.05,0-.1,0-0.09-0.21a0.11,0.11,0,0,1,0,0,0.17,0.17,0,0,1,0-.05h0a0.15,0.15,0,0,0-.07.07,0.72,0.72,0,0,0,0,.11,0.41,0.41,0,0,0,0,.16h0Z" transform="translate(-0.17 -0.06)"/><path class="cls-35" d="M3.93,2.47a0.08,0.08,0,0,0,0-.07l0,0a0.11,0.11,0,0,1,0,0,0.07,0.07,0,0,0-.06.1s0.07-.07.08,0a0.1,0.1,0,0,1,0,.09L3.8,2.68h0s0,0,0,0a0.44,0.44,0,0,1,.09-0.14A0.44,0.44,0,0,0,3.93,2.47Z" transform="translate(-0.17 -0.06)"/><path class="cls-35" d="M3.49,3.68A2.81,2.81,0,0,0,3,4.06,1.94,1.94,0,0,1,3.5,3.7v0Z" transform="translate(-0.17 -0.06)"/><path class="cls-35" d="M3.76,3.56l0.08,0a0.15,0.15,0,0,1,.22,0,0.09,0.09,0,0,1,0,.07,0.14,0.14,0,0,1,0,.11h0a0.17,0.17,0,0,0,.09-0.19,0.26,0.26,0,0,0-.25-0.08A0.31,0.31,0,0,0,3.76,3.56Z" transform="translate(-0.17 -0.06)"/><path class="cls-35" d="M4.46,3.7a0.28,0.28,0,0,1,.22,0h0a0.12,0.12,0,0,1,.14.08h0a0.18,0.18,0,0,1,0,.14h0a0.28,0.28,0,0,0,0-.08,0.27,0.27,0,0,0-.18-0.15,0.5,0.5,0,0,0-.23,0Z" transform="translate(-0.17 -0.06)"/><path class="cls-35" d="M3.69,3.45h0s0,0,0,0a0.12,0.12,0,0,0,0-.09h0a0.13,0.13,0,0,0-.05-0.05,0.12,0.12,0,0,0,0,0v0h0a0.12,0.12,0,0,1,0,.09,0.11,0.11,0,0,0,0,.06A0.12,0.12,0,0,0,3.69,3.45Z" transform="translate(-0.17 -0.06)"/><path class="cls-35" d="M3.59,3.52v0A0,0,0,0,0,3.59,3.52Z" transform="translate(-0.17 -0.06)"/><path class="cls-35" d="M3.88,3.71l-0.06,0h0l0,0a0.19,0.19,0,0,0,.11,0A0.14,0.14,0,0,0,4,3.69,0.18,0.18,0,0,1,3.88,3.71Z" transform="translate(-0.17 -0.06)"/><path class="cls-35" d="M4.32,3.87l-0.15.07L4.09,4l0.16-.08A0.19,0.19,0,0,0,4.32,3.87Z" transform="translate(-0.17 -0.06)"/><path class="cls-35" d="M3.8,3.61h0c0.08,0,.11,0,0.11.05a0.07,0.07,0,0,0,.06,0H4a0.15,0.15,0,0,0-.13-0.06A0.1,0.1,0,0,0,3.8,3.61Z" transform="translate(-0.17 -0.06)"/><path class="cls-35" d="M4.14,3.77a0.28,0.28,0,0,1-.35,0h0a0.14,0.14,0,0,1,0-.17l0-.06a0.23,0.23,0,0,0-.1.22C3.71,4,4,3.95,4.14,3.77Z" transform="translate(-0.17 -0.06)"/><path class="cls-35" d="M5.44,2.49l0,0,0,0Z" transform="translate(-0.17 -0.06)"/><path class="cls-35" d="M5,2.4a0.63,0.63,0,0,0-.34-0.15,0.13,0.13,0,0,0,0-.07s0-.05,0-0.07a0,0,0,0,0,0-.05h0l0,0a0,0,0,0,0,0,0,0,0,0,0,1,0,.05s0,0,0,.07a0.13,0.13,0,0,1,0,.07A0.63,0.63,0,0,1,5,2.47a1.4,1.4,0,0,0,.31,0,1.09,1.09,0,0,1,.44-0.22,0.47,0.47,0,0,1,.18.13,0.19,0.19,0,0,0,.16,0,0.12,0.12,0,0,0,0-.06,0.18,0.18,0,0,1-.15,0l0,0h0a0.23,0.23,0,0,1-.17-0.12,1.76,1.76,0,0,0-.42.23A1.4,1.4,0,0,1,5,2.4Z" transform="translate(-0.17 -0.06)"/><path class="cls-35" d="M6.42,2a1.43,1.43,0,0,0,0,.49s0.1,0,.08-0.06h0a1.43,1.43,0,0,1,0-.49A0.42,0.42,0,0,0,5.86,2,0.4,0.4,0,0,1,6.42,2Z" transform="translate(-0.17 -0.06)"/><path class="cls-35" d="M6.09,2.17a0.07,0.07,0,0,1-.1,0h0a0,0,0,0,0,0,0v0L6,2.24H6.1A0.11,0.11,0,0,0,6.09,2.17Z" transform="translate(-0.17 -0.06)"/><path class="cls-35" d="M4.65,1.3c0.11-.08.2-0.07,0.17,0a0.69,0.69,0,0,0-.1.13s-0.08.14,0.16,0.06a0.62,0.62,0,0,0,.18-0.13,0.09,0.09,0,0,1,.12,0c0.06,0,0,.07.11,0.12a1,1,0,0,1,.08.14s0,0.06,0,.1,0.13-.13.09-0.16a1,1,0,0,0-.08-0.14c-0.06,0,0-.08-0.11-0.12a0.09,0.09,0,0,0-.12,0,0.62,0.62,0,0,1-.18.13c-0.24.08-.2,0-0.16-0.06a0.69,0.69,0,0,1,.1-0.13c0-.1-0.06-0.1-0.17,0l-0.1.09Z" transform="translate(-0.17 -0.06)"/><path class="cls-35" d="M2.55,4h0a0.13,0.13,0,0,1,0,0h0Z" transform="translate(-0.17 -0.06)"/><path class="cls-35" d="M2.48,3.95h0V4a0.11,0.11,0,0,1,.12,0,0.12,0.12,0,0,0,0,0A0.16,0.16,0,0,0,2.48,3.95Z" transform="translate(-0.17 -0.06)"/><path class="cls-35" d="M2.56,4.11v0H2.51l0,0S2.37,4.1,2.4,4V4a0.08,0.08,0,0,1,0,0C2.22,4,2.48,4.25,2.56,4.11Z" transform="translate(-0.17 -0.06)"/><path class="cls-35" d="M4.47,1.5l0-.05a0.22,0.22,0,0,0-.09.08Z" transform="translate(-0.17 -0.06)"/><path class="cls-35" d="M2.68,4a0.12,0.12,0,0,0-.16-0.08L2.65,4Z" transform="translate(-0.17 -0.06)"/><path class="cls-35" d="M4.21,1.63A1.49,1.49,0,0,0,4,2s0,0.08.1,0l0,0C4,2,4,1.89,4,1.89a1.49,1.49,0,0,1,.24-0.32,0.65,0.65,0,0,0-.17.14A0.52,0.52,0,0,1,4.21,1.63Z" transform="translate(-0.17 -0.06)"/><path class="cls-35" d="M4.28,1.67a0.22,0.22,0,0,0,.09-0.08h0a0.23,0.23,0,0,0-.08.07h0Z" transform="translate(-0.17 -0.06)"/><path class="cls-35" d="M3.49,4.38l0.15-.16Z" transform="translate(-0.17 -0.06)"/><path class="cls-35" d="M3.36,4.49a2.41,2.41,0,0,1-.15.29,0.35,0.35,0,0,0,.18-0.3Z" transform="translate(-0.17 -0.06)"/><path class="cls-35" d="M3.66,4.85l0,0a0.27,0.27,0,0,1,0-.12A0.29,0.29,0,0,0,3.66,4.85Z" transform="translate(-0.17 -0.06)"/><path class="cls-35" d="M2.79,4.5l0,0a0.15,0.15,0,0,0,.07-0.07Z" transform="translate(-0.17 -0.06)"/><path class="cls-35" d="M3,4.33l0,0,0.13-.18A1,1,0,0,0,3,4.33Z" transform="translate(-0.17 -0.06)"/><path class="cls-35" d="M4.41,4.95L4.35,5a0.08,0.08,0,0,0,.07,0A0.06,0.06,0,0,1,4.41,4.95Z" transform="translate(-0.17 -0.06)"/><path class="cls-35" d="M6.7,2.63a0.24,0.24,0,0,1-.07-0.12,0.15,0.15,0,0,0,0-.15s-0.1-.21-0.1-0.16a0.37,0.37,0,0,0,.05.13c0,0.07,0,.09,0,0.1a0.16,0.16,0,0,1,0,.15,0.1,0.1,0,0,0,0,0,0.78,0.78,0,0,1,.1.08S6.74,2.67,6.7,2.63Z" transform="translate(-0.17 -0.06)"/><path class="cls-35" d="M6.53,3.14A0.4,0.4,0,0,0,5.9,3.09a0.41,0.41,0,0,1-.36,0,0.61,0.61,0,0,0-.53,0,0,0,0,0,1-.06,0C4.27,3.48,4.15,3,4.14,3s0,0,0,0a0.28,0.28,0,0,1,0-.29,0.29,0.29,0,0,0-.1.35s0,0,0,0,0.13,0.49.82,0.09a0,0,0,0,0,.06,0,0.61,0.61,0,0,1,.53,0,0.41,0.41,0,0,0,.36,0A0.55,0.55,0,0,1,6.17,3h0a0.34,0.34,0,0,1,.34.33,0.79,0.79,0,0,1,0,.2v0l0,0.1a0.75,0.75,0,0,1,0,.28,0.38,0.38,0,0,0,.08.33s0.06,0,0-.17a1,1,0,0,1,0-.6A0.46,0.46,0,0,0,6.53,3.14Z" transform="translate(-0.17 -0.06)"/><path class="cls-35" d="M5,4.36v0L5,4.23a0.45,0.45,0,0,0,0,.19,0.21,0.21,0,0,1-.07.17A0.28,0.28,0,0,0,5,4.36Z" transform="translate(-0.17 -0.06)"/><path class="cls-35" d="M2.63,4V4h0v0a0.15,0.15,0,0,1,0,.1l0.06-.05A0.32,0.32,0,0,0,2.63,4Z" transform="translate(-0.17 -0.06)"/><path class="cls-35" d="M5.94,3.27A0.35,0.35,0,0,1,6,3.14a0.35,0.35,0,0,0-.13.2,0.92,0.92,0,0,1,0,.34,0.41,0.41,0,0,0,0,.19,0.81,0.81,0,0,1-.15.29s0,0,0,.12a0.27,0.27,0,0,1,0,.16,2,2,0,0,0,.13.78A1.58,1.58,0,0,1,5.53,6.7a1.53,1.53,0,0,0,.25-1.55,2,2,0,0,1-.13-0.77,0.27,0.27,0,0,0,0-.16c0.07-.08,0-0.1,0-0.12A0.81,0.81,0,0,0,5.88,3.8a0.41,0.41,0,0,1,0-.19A0.92,0.92,0,0,0,5.94,3.27Z" transform="translate(-0.17 -0.06)"/><path class="cls-35" d="M3.7,3.16s0.19,0,.08.31l0.06-.06,0-.09a0.26,0.26,0,0,0,0-.12L3.79,3.1h0a0.23,0.23,0,0,0-.19.1A0.23,0.23,0,0,1,3.7,3.16Z" transform="translate(-0.17 -0.06)"/><path class="cls-35" d="M5.31,3.69a0.08,0.08,0,0,0,0,0,0,0,0,0,1,0,0,0,0,0,0,1,0,0,0.1,0.1,0,0,0,.06,0l0,0h0s-0.1,0-.05-0.06,0,0,0,0l-0.09,0Z" transform="translate(-0.17 -0.06)"/><path class="cls-35" d="M5.19,3.67a0.29,0.29,0,0,1,.14-0.05,0.19,0.19,0,0,1,.16,0,0.07,0.07,0,0,1,0,.07,0.11,0.11,0,0,1,0,.09l0,0a0.12,0.12,0,0,0,0-.15,0.24,0.24,0,0,0-.2,0A0.29,0.29,0,0,0,5.19,3.67Z" transform="translate(-0.17 -0.06)"/><path class="cls-35" d="M5.08,3.95a0.18,0.18,0,0,1,0,0A0.24,0.24,0,0,0,5,4a0.67,0.67,0,0,1-.34,0S4.48,4,4.54,3.79v0a0.16,0.16,0,0,0-.08.09C4.42,4,4.56,4,4.56,4a0.67,0.67,0,0,0,.34,0C5,3.95,5.09,4,5.08,3.95Z" transform="translate(-0.17 -0.06)"/><path class="cls-35" d="M3.64,4l0,0L3.51,4h0A0.18,0.18,0,0,1,3.64,4Z" transform="translate(-0.17 -0.06)"/><path class="cls-35" d="M4.39,4.23h0L4.33,4.3a1.1,1.1,0,0,1-.1.14A0.82,0.82,0,0,0,4.39,4.23Z" transform="translate(-0.17 -0.06)"/><path class="cls-35" d="M5,3.79v0H5s0-.09,0-0.1l0,0A0.42,0.42,0,0,0,5,3.79Z" transform="translate(-0.17 -0.06)"/><path class="cls-35" d="M3.43,3.58s0,0,0,0a1.65,1.65,0,0,0-.4.26H3A2.11,2.11,0,0,0,3.43,3.58Z" transform="translate(-0.17 -0.06)"/><path class="cls-35" d="M3.44,4.09a0.73,0.73,0,0,0-.1.08v0Z" transform="translate(-0.17 -0.06)"/><path class="cls-35" d="M4.3,3.8L4.22,3.9a1.06,1.06,0,0,0,.14-0.16l0-.05A0.53,0.53,0,0,0,4.3,3.8Z" transform="translate(-0.17 -0.06)"/><path class="cls-35" d="M5.48,3.85c-0.14.07-.24,0-0.27,0a0.14,0.14,0,0,1,0-.11,0.18,0.18,0,0,0-.09.18c0,0.08.13,0.12,0.27,0s0.1,0,.11-0.09Z" transform="translate(-0.17 -0.06)"/><path class="cls-35" d="M2.26,3.94a0.34,0.34,0,0,1,.19,0l0.06,0a0.19,0.19,0,0,1,.23.21h0A1.41,1.41,0,0,0,2.91,4L2.81,4s0,0,0,0a0.12,0.12,0,0,0-.06-0.13,0.39,0.39,0,0,0-.39,0,0.27,0.27,0,0,0-.1.09Z" transform="translate(-0.17 -0.06)"/><path class="cls-35" d="M6.33,2.81c0-.17-0.42.1-0.46,0.14s-0.07,0-.07,0a0.06,0.06,0,0,0-.09,0,0.1,0.1,0,0,0,0,0L5.74,3s0,0.06.07,0,0.41-.31.46-0.14v0h0C6.35,2.94,6.38,3,6.33,2.81Z" transform="translate(-0.17 -0.06)"/><path class="cls-35" d="M5.46,2.53l-0.08.06a0,0,0,0,0,0,0l0,0a0,0,0,0,1,0,0,0.1,0.1,0,0,0,.06-0.05S5.46,2.53,5.46,2.53Z" transform="translate(-0.17 -0.06)"/><path class="cls-35" d="M5.64,2.45L5.5,2.5a0.08,0.08,0,0,0,0,0l0.07,0v0S5.66,2.52,5.64,2.45Z" transform="translate(-0.17 -0.06)"/><path class="cls-35" d="M5.9,2.44a0.79,0.79,0,0,0-.23,0s0,0,0,.06H5.83S6,2.59,5.92,2.62l-0.07.07,0,0L6,2.56S5.93,2.45,5.9,2.44Z" transform="translate(-0.17 -0.06)"/><path class="cls-35" d="M6,2.6a0.06,0.06,0,0,0,0,.05H6s0,0,0,0A0.13,0.13,0,0,0,6,2.6Z" transform="translate(-0.17 -0.06)"/><path class="cls-35" d="M6.1,2.61s0,0,0,.05a0.08,0.08,0,0,0,.07-0.05H6.1Z" transform="translate(-0.17 -0.06)"/><path class="cls-35" d="M6.21,2.65a0.06,0.06,0,0,1,0,0s0,0,0,0a0.12,0.12,0,0,1,.08,0s0.05,0,0,0a0.33,0.33,0,0,0-.15,0S6.19,2.63,6.21,2.65Z" transform="translate(-0.17 -0.06)"/><path class="cls-35" d="M6.5,2.81a0,0,0,0,1,0,0,0,0,0,0,0,.05,0,0.26,0.26,0,0,0-.14-0.12s-0.06,0,0,.05A0.23,0.23,0,0,0,6.5,2.81Z" transform="translate(-0.17 -0.06)"/><path class="cls-35" d="M6.7,2.76a0.81,0.81,0,0,1-.22.15s0,0,0,0h0a0.81,0.81,0,0,0,.15-0.11s0,0,0,.09a0.2,0.2,0,0,1,0,.07,0.18,0.18,0,0,0,.09-0.14C6.71,2.74,6.7,2.76,6.7,2.76Z" transform="translate(-0.17 -0.06)"/><path class="cls-35" d="M6,3.26a0.22,0.22,0,0,1,.35.11,0.19,0.19,0,0,1,0,.11,0.2,0.2,0,0,1,0,.12h0s0.08,0,0,0a0.17,0.17,0,0,0,0-.15,0.19,0.19,0,0,0,0-.11A0.22,0.22,0,0,0,6.08,3.2,0.33,0.33,0,0,0,6,3.27H6Z" transform="translate(-0.17 -0.06)"/><path class="cls-35" d="M6,4.07A0.22,0.22,0,0,1,6,3.82l0.08-.1A1.27,1.27,0,0,0,6,3.89a0.22,0.22,0,0,0-.06.24,1.15,1.15,0,0,1,.11.3c0.28,1.24.55,1.35,0.23,2a1.1,1.1,0,0,1-.18.27,1.07,1.07,0,0,0,.24-0.33c0.32-.66.06-0.77-0.23-2A1.15,1.15,0,0,0,6,4.07Z" transform="translate(-0.17 -0.06)"/><path class="cls-35" d="M5.66,6.72A1,1,0,0,1,5.09,7L5.24,7A1,1,0,0,0,5.66,6.72Z" transform="translate(-0.17 -0.06)"/><path class="cls-35" d="M6.58,5.44a1.89,1.89,0,0,0-.38-1s0.07,0.2.15,0.47a5.88,5.88,0,0,1,.17.59,1.17,1.17,0,0,1-.24,1.11A1.15,1.15,0,0,0,6.58,5.44Z" transform="translate(-0.17 -0.06)"/><path class="cls-35" d="M6.58,6.34a0.29,0.29,0,0,1-.08.16,0.75,0.75,0,0,1-.19.33A0.68,0.68,0,0,0,6.58,6.34Z" transform="translate(-0.17 -0.06)"/><path class="cls-35" d="M6.16,7.45a0.22,0.22,0,0,0,.24.16l0,0v0A0.35,0.35,0,0,1,6.16,7.45Z" transform="translate(-0.17 -0.06)"/><path class="cls-35" d="M6.24,7.73a1.26,1.26,0,0,0-.13-0.13,0.15,0.15,0,0,1,0,0,0.82,0.82,0,0,0,0-.28A0.43,0.43,0,0,1,6.16,7,0.45,0.45,0,0,0,6,7.35a0.82,0.82,0,0,1,0,.28,0.15,0.15,0,0,0,0,0L6.12,7.74s0.07,0,.11,0l0.07,0a0.17,0.17,0,0,0,.09,0s0,0,0,0A0.19,0.19,0,0,1,6.24,7.73Z" transform="translate(-0.17 -0.06)"/><path class="cls-35" d="M6.29,7.32a0.3,0.3,0,0,0-.13-0.06,0.53,0.53,0,0,0,.27.14,0.08,0.08,0,0,0,.06-0.06A0.26,0.26,0,0,1,6.29,7.32Z" transform="translate(-0.17 -0.06)"/><path class="cls-35" d="M5.53,7V7H5.64a1.64,1.64,0,0,0,.78-0.45A1.61,1.61,0,0,1,5.7,7C5.48,7,5.53,7,5.53,7Z" transform="translate(-0.17 -0.06)"/><path class="cls-35" d="M6.79,5.34A0.42,0.42,0,0,1,6.64,5a0.73,0.73,0,0,0-.2-0.61,0.39,0.39,0,0,1,0-.39c0-.05.09-0.42-0.11-0.34a0.25,0.25,0,0,0-.12.09l0.06,0C6.44,3.63,6.38,4,6.35,4a0.39,0.39,0,0,0,0,.39,0.73,0.73,0,0,1,.2.61,0.58,0.58,0,0,0,0,.22,0.64,0.64,0,0,1,.15.17l0,0.05L6.84,5.6a1.1,1.1,0,0,1,0,.3,1,1,0,0,1-.07.38,2,2,0,0,0-.21.38h0l0,0,0,0.07a1.58,1.58,0,0,0,0,.48,0.08,0.08,0,0,1,0,.08V7.38h0v0a0.74,0.74,0,0,1,0,.11h0l0,0.07h0a0.29,0.29,0,0,0,0,.13h0s0,0,0,.06a0,0,0,0,1,0,0c0,0.27.11,0.3,0.11,0.3a0.77,0.77,0,0,1-.06-0.57,1.55,1.55,0,0,0,0-.64,1.27,1.27,0,0,1,.27-0.69A1.09,1.09,0,0,0,6.79,5.34Z" transform="translate(-0.17 -0.06)"/><path class="cls-35" d="M6.24,7.9v0c0,0.06,0,0,0,0a0.16,0.16,0,0,0,0-.06h0S6,7.77,6.06,7.82A0.31,0.31,0,0,1,6.12,8s0,0,0,0,0-.08,0,0a0.14,0.14,0,0,1,0,.13,0.21,0.21,0,0,0,.1-0.17h0Z" transform="translate(-0.17 -0.06)"/><path class="cls-35" d="M2.82,3.89l-0.06,0a0.67,0.67,0,0,0-.18-0.08,0.8,0.8,0,0,1-.12-0.17A0.31,0.31,0,0,0,2.3,3.43s0,0,0,.07a0.35,0.35,0,0,1,.13.18,0.71,0.71,0,0,1,.09.14A0.42,0.42,0,0,1,2.82,4h0L2.94,3.9H2.82Z" transform="translate(-0.17 -0.06)"/><path class="cls-35" d="M2.29,3.84s0,0-.39-0.27a0.44,0.44,0,0,0,0,.1,0.68,0.68,0,0,0,.35.24,0.16,0.16,0,0,1,.08,0S2.31,3.83,2.29,3.84Z" transform="translate(-0.17 -0.06)"/><path class="cls-35" d="M2.4,4.28a0.37,0.37,0,0,1-.25-0.21C2.12,4,2,3.94,1.54,3.85a0.11,0.11,0,0,0,0,.08h0C2,4,2.06,4,2.08,4.13a0.37,0.37,0,0,0,.25.21c0.06,0,0,0,0,0v0a0.23,0.23,0,0,0,.08-0.08S2.46,4.27,2.4,4.28Z" transform="translate(-0.17 -0.06)"/><path class="cls-35" d="M2.11,5.09a0.48,0.48,0,0,1,0-.22l0,0A0.53,0.53,0,0,0,2.11,5.09Z" transform="translate(-0.17 -0.06)"/><path class="cls-35" d="M2.3,5.52a0.66,0.66,0,0,1-.22-0.38A0.48,0.48,0,0,0,2.3,5.52Z" transform="translate(-0.17 -0.06)"/><path class="cls-35" d="M2.47,4.84l0,0a0.41,0.41,0,0,0,0,.06V5a0.44,0.44,0,0,1,0,.23,0.15,0.15,0,0,1,0,.07,0.14,0.14,0,0,0,.06-0.06,0.28,0.28,0,0,0,0-.24,0.12,0.12,0,0,1,0-.11,0.07,0.07,0,0,1,0,0h0c0-.07,0-0.1,0-0.14a0.17,0.17,0,0,0,0-.08H2.32s0,0,0,.05H2.39C2.52,4.63,2.48,4.81,2.47,4.84Z" transform="translate(-0.17 -0.06)"/><path class="cls-35" d="M2.19,4.76a0.31,0.31,0,0,1,.12.1c0.08,0,0,.19,0,0.19a0.23,0.23,0,0,1,0,.12,0.12,0.12,0,0,0,.08-0.1h0a0.47,0.47,0,0,1,0-.23,0,0,0,0,0,0,0h0a0.17,0.17,0,0,1-.12-0.07v0h0Z" transform="translate(-0.17 -0.06)"/><path class="cls-35" d="M2.49,5.42h0a0.17,0.17,0,0,1,0,.1A0.3,0.3,0,0,0,2.49,5.42Z" transform="translate(-0.17 -0.06)"/><path class="cls-35" d="M2.4,5.44l0,0,0,0h0l0,0Z" transform="translate(-0.17 -0.06)"/><path class="cls-35" d="M2.22,5.3h0A0.59,0.59,0,0,1,2.14,5C2.12,5.13,2.15,5.32,2.22,5.3Z" transform="translate(-0.17 -0.06)"/><path class="cls-35" d="M2.18,5.08V5h0a0.29,0.29,0,0,1,0-.07l0,0A0.5,0.5,0,0,0,2.18,5.08Z" transform="translate(-0.17 -0.06)"/><path class="cls-35" d="M2.37,5.2l-0.09,0H2.22l0,0.06A0.29,0.29,0,0,0,2.37,5.2Z" transform="translate(-0.17 -0.06)"/><path class="cls-35" d="M3.12,4.57V4.62l0.06-.05V4.51A0.85,0.85,0,0,0,3,4.69,0.7,0.7,0,0,1,3.12,4.57Z" transform="translate(-0.17 -0.06)"/><path class="cls-35" d="M2.6,5.34a0.12,0.12,0,0,1,0,0,0.32,0.32,0,0,1,0,.07Z" transform="translate(-0.17 -0.06)"/><path class="cls-35" d="M2.51,5.3h0a0,0,0,0,0,0,0Z" transform="translate(-0.17 -0.06)"/><path class="cls-35" d="M2.45,5.33a0.11,0.11,0,0,1,0,0h0a0.06,0.06,0,0,0,0,.07A0.11,0.11,0,0,0,2.45,5.33Z" transform="translate(-0.17 -0.06)"/><path class="cls-35" d="M2.23,5.05v0h0Z" transform="translate(-0.17 -0.06)"/><path class="cls-35" d="M3.14,5.57s0,0-.12,0H3a0.06,0.06,0,0,1-.06,0,0.53,0.53,0,0,0-.12-0.14l-0.06,0a0.08,0.08,0,0,1,0-.07v0a0.14,0.14,0,0,1,0-.16s0,0,0,0A0.29,0.29,0,0,1,2.8,4.93a0.42,0.42,0,0,0-.14.19s0,0.08,0,.14v0l0,0a0.65,0.65,0,0,1,.07.1l0.07,0h0A0.27,0.27,0,0,1,3,5.59a0.13,0.13,0,0,0,.08.05,0.47,0.47,0,0,1,.16-0.08l0-.05A0.43,0.43,0,0,0,3.14,5.57Z" transform="translate(-0.17 -0.06)"/><path class="cls-35" d="M3.11,4.89A0.26,0.26,0,0,0,3,5L3,5H3a0.1,0.1,0,0,1,.13,0l0,0A0.23,0.23,0,0,1,3.11,4.89Z" transform="translate(-0.17 -0.06)"/><path class="cls-35" d="M3.2,5l0,0H3.1A0.1,0.1,0,0,0,3,5l0,0H3.08l0,0A0.19,0.19,0,0,1,3.28,5c0.1,0,0,.12,0,0.16a0.36,0.36,0,0,0,0,.23v0l0,0h0a0.39,0.39,0,0,1,0-.13,0.25,0.25,0,0,1,0-.16l0,0a0.31,0.31,0,0,1,0-.07,0.07,0.07,0,0,0,0-.06A0.18,0.18,0,0,0,3.2,5Z" transform="translate(-0.17 -0.06)"/><path class="cls-35" d="M2.91,4.8l0,0.05h0A0.26,0.26,0,0,0,3,4.76Z" transform="translate(-0.17 -0.06)"/><path class="cls-35" d="M3.33,4.8a0.33,0.33,0,0,0-.11.09h0l0,0h0a0.1,0.1,0,0,1,.14.07,0.63,0.63,0,0,1,0,.12,0.25,0.25,0,0,1-.06.16l0,0a0.29,0.29,0,0,0,0,.08,0.23,0.23,0,0,1,0,.06,0.13,0.13,0,0,1,0,.12l0,0.06,0,0a0.62,0.62,0,0,0,.05-0.11,0.89,0.89,0,0,1,.07-0.29C3.57,5,3.51,4.78,3.33,4.8Z" transform="translate(-0.17 -0.06)"/><path class="cls-35" d="M2.39,5.59l0,0,0,0a0.54,0.54,0,0,1-.25-0.68l0-.07a1.43,1.43,0,0,1,.17-0.27A1.2,1.2,0,0,0,2,4.91L2,5a1,1,0,0,0,0,.16,0.63,0.63,0,0,0,.14.35,1.14,1.14,0,0,1,.14.13l0,0a1.47,1.47,0,0,1,.38.66l0,0L2.88,6.45s0,0-.1-0.2A1.47,1.47,0,0,0,2.39,5.59Z" transform="translate(-0.17 -0.06)"/><path class="cls-35" d="M1.92,4.43a0.34,0.34,0,0,1,.28.12,0.06,0.06,0,0,0,0,0,3.65,3.65,0,0,1,.34-0.28L2.47,4.4a0.11,0.11,0,0,1-.05.1h0s0,0,.08,0l0,0a0.2,0.2,0,0,1,0,.24,0.21,0.21,0,0,0,0,.13h0a0.34,0.34,0,0,1,.05.17,0.12,0.12,0,0,1,0-.07,0.91,0.91,0,0,0,0-.12,0.21,0.21,0,0,1,0-.18c0-.1.06-0.28-0.17-0.26a0.11,0.11,0,0,0,.05-0.1L2.65,4.2a3.65,3.65,0,0,0-.34.28,0.06,0.06,0,0,1,0,0A0.34,0.34,0,0,0,2,4.36a0.67,0.67,0,0,0-.42.08,0,0,0,0,0,0,0A0.59,0.59,0,0,1,1.92,4.43Z" transform="translate(-0.17 -0.06)"/><path class="cls-35" d="M2.77,4.91A0.13,0.13,0,0,0,2.71,5Z" transform="translate(-0.17 -0.06)"/><path class="cls-35" d="M3.08,5.39a0,0,0,0,1,0,0H3L3,5.46H3Z" transform="translate(-0.17 -0.06)"/><path class="cls-35" d="M2.93,5.28l0,0Z" transform="translate(-0.17 -0.06)"/><path class="cls-35" d="M3.17,4.64A0.5,0.5,0,0,0,3,4.75L3.1,4.7l0,0.1-0.24.25a0.21,0.21,0,0,0,0,.15,0.23,0.23,0,0,0,.08.11,0.18,0.18,0,0,1,0-.19v0A0.18,0.18,0,0,1,2.9,5l0.24-.25Z" transform="translate(-0.17 -0.06)"/><path class="cls-35" d="M3,5.21l0,0a0.12,0.12,0,0,0,0,.06v0Z" transform="translate(-0.17 -0.06)"/><path class="cls-35" d="M2.93,5.07l0,0A0.23,0.23,0,0,0,3,5.3a0,0,0,0,0,0,0C2.94,5.28,2.9,5.18,3,5.11A0.15,0.15,0,0,1,3,5H3Z" transform="translate(-0.17 -0.06)"/><path class="cls-35" d="M3,5.13a0.1,0.1,0,0,0,0,.06l0,0h0a0,0,0,0,1,0,0,0.11,0.11,0,0,1,0,.08l0,0,0,0a0.14,0.14,0,0,0-.07-0.14v0H3Z" transform="translate(-0.17 -0.06)"/><path class="cls-35" d="M3.94,5.41a0.29,0.29,0,0,1-.26-0.32l0,0a0.18,0.18,0,0,0-.07.08,0.26,0.26,0,0,0,0,.2,0.46,0.46,0,0,0,.21.14c0.12,0,0,0,.12,0H4a0.21,0.21,0,0,0,.06.05L4.21,5.6c0.41,0.18.49,0,.54,0a0.42,0.42,0,0,1-.47,0C3.86,5.35,4.12,5.43,3.94,5.41Z" transform="translate(-0.17 -0.06)"/><polygon class="cls-35" points="4.58 5.49 4.59 5.49 4.6 5.48 4.58 5.49"/><path class="cls-35" d="M5,5.34h0a0.08,0.08,0,0,0-.08.07h0A0.16,0.16,0,0,0,5,5.34Z" transform="translate(-0.17 -0.06)"/><path class="cls-35" d="M4.23,5A0.12,0.12,0,0,0,4.29,4.9V4.84a0.13,0.13,0,0,1-.07.07V5Z" transform="translate(-0.17 -0.06)"/><path class="cls-35" d="M5.06,4.91A0.48,0.48,0,0,1,4.8,4.67l-0.06,0a0.32,0.32,0,0,0,.12.14A1,1,0,0,0,5,5H5l0,0a0.11,0.11,0,0,1,0,.12,0.46,0.46,0,0,1,0,.22h0a0.16,0.16,0,0,0,.07-0.08A0.35,0.35,0,0,0,5.06,4.91Z" transform="translate(-0.17 -0.06)"/><path class="cls-35" d="M4.87,5.49a0.74,0.74,0,0,1-.07.17,0.3,0.3,0,0,0,.12-0.18h0Z" transform="translate(-0.17 -0.06)"/><path class="cls-35" d="M3.81,5a0.42,0.42,0,0,1,.26,0h0.1a0.13,0.13,0,0,0,0-.06,0.15,0.15,0,0,1-.09,0A0.47,0.47,0,0,0,3.7,5l0,0A0.3,0.3,0,0,1,3.81,5Z" transform="translate(-0.17 -0.06)"/><path class="cls-35" d="M4.5,5.23h0l0.05-.05a0.25,0.25,0,0,0,0-.07l0,0a0.14,0.14,0,0,1,0,.12h0Z" transform="translate(-0.17 -0.06)"/><path class="cls-35" d="M4.56,5.05a0.19,0.19,0,0,1,0,.11,0.13,0.13,0,0,1,0,.08h0a0.12,0.12,0,0,0,.07-0.07v0A0.15,0.15,0,0,0,4.56,5.05Z" transform="translate(-0.17 -0.06)"/><path class="cls-35" d="M4.43,5.12s0,0-.05,0,0,0.14,0,.14A0.1,0.1,0,0,0,4.43,5.12Z" transform="translate(-0.17 -0.06)"/><path class="cls-35" d="M4.15,5.16h0Z" transform="translate(-0.17 -0.06)"/><path class="cls-35" d="M4.55,5.37A0.13,0.13,0,0,0,4.61,5.3h0a0.43,0.43,0,0,1-.4,0,0.13,0.13,0,0,1-.14-0.11,0.19,0.19,0,0,1,0-.12s-0.12.14,0,.24H4.09l0.1,0.07A0.42,0.42,0,0,0,4.55,5.37Z" transform="translate(-0.17 -0.06)"/><path class="cls-35" d="M4.49,5L4.54,5.11A0.14,0.14,0,0,0,4.44,5,0.22,0.22,0,0,1,4.49,5Z" transform="translate(-0.17 -0.06)"/><path class="cls-35" d="M5,5.13C4.92,5,4.89,5,4.86,5s0,0-.18-0.06a0.22,0.22,0,0,0-.07-0.13l-0.1.06v0l0,0A0.2,0.2,0,0,1,4.61,5h0C4.83,5,4.77,5,4.8,5s0.06,0,.13.15a0.17,0.17,0,0,1,0,.07C5,5.26,5,5.23,5,5.13Z" transform="translate(-0.17 -0.06)"/><path class="cls-35" d="M4.8,5.34h0a0.14,0.14,0,0,0,0,.14l0.07,0A0.39,0.39,0,0,1,4.8,5.34Z" transform="translate(-0.17 -0.06)"/><path class="cls-35" d="M4.44,5.1l0,0s0-.08,0-0.07A0.08,0.08,0,0,1,4.44,5.1Z" transform="translate(-0.17 -0.06)"/><path class="cls-35" d="M3.86,5.06a0.54,0.54,0,0,1,.22,0,0,0,0,0,1,0,0,0.11,0.11,0,0,0,.08,0h0a0.13,0.13,0,0,1,0,.06c0.09,0,.08,0,0.08,0s0,0,.07,0,0-.07,0-0.07h0s0,0-.08,0,0-.15-0.35-0.1a0.24,0.24,0,0,0-.17.1A0.3,0.3,0,0,1,3.86,5.06Z" transform="translate(-0.17 -0.06)"/><path class="cls-35" d="M3.61,5.89A1,1,0,0,0,4,6a1.76,1.76,0,0,1,.75.37s0,0,0,.08a0.31,0.31,0,0,0,.05,0V6.66a0.45,0.45,0,0,0-.11-0.21,1.29,1.29,0,0,0-.79-0.4A0.78,0.78,0,0,1,3.61,5.89Z" transform="translate(-0.17 -0.06)"/><path class="cls-35" d="M4.32,7.49a0.46,0.46,0,0,0,.52.24s0-.49,0-0.62,0,0,0-.06a6.54,6.54,0,0,1,0,1,0.17,0.17,0,0,0-.05.08s0-.08,0-0.06A0.55,0.55,0,0,1,4.4,7.93,0.89,0.89,0,0,0,4.82,8c0-.06,0-0.13,0-0.18s0,0-.07,0A0.39,0.39,0,0,1,4.32,7.49Z" transform="translate(-0.17 -0.06)"/><path class="cls-35" d="M4.81,8.23a2.51,2.51,0,0,1-.34-0.1,0.64,0.64,0,0,0,.31.12C4.94,8.26,4.81,8.23,4.81,8.23Z" transform="translate(-0.17 -0.06)"/><path class="cls-35" d="M6.36,8.2l0,0a0.19,0.19,0,0,1,0,.1L6.39,8.41s0,0,0,0,0.06,0.07,0,.11a0.25,0.25,0,0,0,0,.11s0,0.08,0,.1H6.52v0H6.44s0,0,0,0,0-.06,0-0.1a0.25,0.25,0,0,1,0-.11c0.07,0,0-.12,0-0.11s0,0,0,0L6.39,8.28a0.17,0.17,0,0,0,0-.06Z" transform="translate(-0.17 -0.06)"/><path class="cls-35" d="M6.58,8.57a0.36,0.36,0,0,1,0,.14h0v0h0l0,0h0a0.27,0.27,0,0,0,0,0h0s0,0,0-.09l0,0A0,0,0,0,1,6.58,8.57Z" transform="translate(-0.17 -0.06)"/><path class="cls-35" d="M5.76,8.31a0.17,0.17,0,0,1,0,0h0a0.55,0.55,0,0,0,.2.44h0l0-.08A0.44,0.44,0,0,1,5.76,8.31Z" transform="translate(-0.17 -0.06)"/><path class="cls-35" d="M6.64,8.39a0.09,0.09,0,0,0,0-.13s0-.07-0.11-0.14L6.33,8l-0.11.07s0,0,0,0h0l0,0L6.4,8.16l0,0,0,0a0.09,0.09,0,0,1,.06.09h0l0,0h0a0.05,0.05,0,0,1,0,0,0.09,0.09,0,0,1,0,.13L6.65,8.5a0,0,0,0,0,0,0,0.19,0.19,0,0,1,.07.17,0,0,0,0,1,0,0s0,0,0,.05,0.07,0,.07,0A0.28,0.28,0,0,0,6.64,8.39Z" transform="translate(-0.17 -0.06)"/><path class="cls-35" d="M5.76,8.24v0s0,0,0,0a0.14,0.14,0,0,0,0,0h0a0,0,0,0,0,0,0,0.3,0.3,0,0,1,.12,0v0l0.11,0,0,0,0.07,0,0,0a0.24,0.24,0,0,0-.18,0H5.82a0.16,0.16,0,0,1-.09,0,0.71,0.71,0,0,1,0,.09h0Z" transform="translate(-0.17 -0.06)"/><path class="cls-35" d="M6.27,8.75h0Z" transform="translate(-0.17 -0.06)"/><path class="cls-35" d="M6.23,8.75h0a0,0,0,0,1,0,0,0.17,0.17,0,0,1-.1,0,0.07,0.07,0,0,1,0,0s0-.06,0,0a0.29,0.29,0,0,1,0,.1A1.73,1.73,0,0,0,6.23,8.75Z" transform="translate(-0.17 -0.06)"/><path class="cls-35" d="M6,8.25a0.07,0.07,0,0,0,0,.07s0.05,0,0,.09a0.19,0.19,0,0,0,0,.15l0,0a0.14,0.14,0,0,0,0-.05s0,0,0,0,0-.07,0-0.08a0.19,0.19,0,0,1,0-.15c0-.07,0-0.1,0-0.09a0,0,0,0,1,0,0H6Z" transform="translate(-0.17 -0.06)"/><path class="cls-35" d="M2.75,8s0,0,0,0a0.14,0.14,0,0,1,0,0v0h0a0.06,0.06,0,0,1,0-.06,0.1,0.1,0,0,1,0,0h0a0.12,0.12,0,0,0-.06.1A0.06,0.06,0,0,0,2.75,8Z" transform="translate(-0.17 -0.06)"/><path class="cls-35" d="M2.28,6.48a0.51,0.51,0,0,0,.2.31,0.6,0.6,0,0,1,.3.28,0.57,0.57,0,0,0-.1-0.23h0A0.79,0.79,0,0,1,2.28,6.48Z" transform="translate(-0.17 -0.06)"/><path class="cls-35" d="M2.33,8.13s0,0,0,0h0a0.06,0.06,0,0,1,0,.06,0.12,0.12,0,0,0,0,.09h0v0A1.22,1.22,0,0,1,2.33,8.13Z" transform="translate(-0.17 -0.06)"/><path class="cls-35" d="M2.48,8s0,0,.05,0h0s0,0,.07,0h0V8h0c0-.06,0,0-0.07,0s0,0,0-.07v0l-0.05,0s0,0,0,.06S2.43,8,2.48,8Z" transform="translate(-0.17 -0.06)"/><path class="cls-35" d="M2.66,6.54a2,2,0,0,0,.41.19s0.05,0,.05-0.07a1.25,1.25,0,0,1-.44-0.22C2.55,6.29,2.41,6,2.35,5.9A2.84,2.84,0,0,1,2,5.47a2.25,2.25,0,0,0,.17.35A5.36,5.36,0,0,1,2.66,6.54Z" transform="translate(-0.17 -0.06)"/><path class="cls-35" d="M2.65,8.36a0.34,0.34,0,0,0,0,0l-0.13,0s0,0,0,0a0.47,0.47,0,0,0,0-.16,0,0,0,0,0,0,0,0,0,0,0,1,0,0s0,0,0,0a0.07,0.07,0,0,1,0,0,0.06,0.06,0,0,0,0,0,0,0,0,0,1,0,0,0.52,0.52,0,0,1,0,.12h0A0.34,0.34,0,0,0,2.65,8.36Z" transform="translate(-0.17 -0.06)"/><path class="cls-35" d="M2.57,7.05l0,0a0.27,0.27,0,0,1,.11.13h0A0.28,0.28,0,0,0,2.63,7h0a0.31,0.31,0,0,1-.18-0.13h0L2.33,6.78A0.8,0.8,0,0,0,2.57,7.05Z" transform="translate(-0.17 -0.06)"/><path class="cls-35" d="M2.6,8h0Z" transform="translate(-0.17 -0.06)"/><path class="cls-35" d="M2.72,7.69a0.08,0.08,0,0,0,.07-0.07h0a1.6,1.6,0,0,0-.25.13c-0.05,0-.08,0-0.1.08h0A1.6,1.6,0,0,1,2.72,7.69Z" transform="translate(-0.17 -0.06)"/><path class="cls-35" d="M5.33,8.71h0Z" transform="translate(-0.17 -0.06)"/><path class="cls-35" d="M3.53,7.28s0,0,0,0a0.12,0.12,0,0,1-.09,0v0H3.38l0,0A0.16,0.16,0,0,0,3.53,7.28Z" transform="translate(-0.17 -0.06)"/><path class="cls-35" d="M3.39,7.13l0,0A0.35,0.35,0,0,0,3.36,7h0a0.15,0.15,0,0,0,.07.18v0A0,0,0,0,1,3.39,7.13Z" transform="translate(-0.17 -0.06)"/><path class="cls-35" d="M3.4,7.23l0-.06,0,0,0,0.05A0,0,0,0,0,3.4,7.23Z" transform="translate(-0.17 -0.06)"/><path class="cls-35" d="M2.76,8.29h0V8.1a0,0,0,0,0-.06,0V8.35l0.08,0v0S2.75,8.28,2.76,8.29Z" transform="translate(-0.17 -0.06)"/><path class="cls-35" d="M3.82,7.68a5.69,5.69,0,0,0-.36-1.3,1.45,1.45,0,0,0-.11-0.63s0-.14,0-0.09a0.12,0.12,0,0,1,0-.07,0.43,0.43,0,0,1-.23.11A0.69,0.69,0,0,1,2.9,5.61,0.75,0.75,0,0,1,3,5.76a0.44,0.44,0,0,0,.23-0.11,0.12,0.12,0,0,0,0,.07c0-.05,0,0.09,0,0.09a1.45,1.45,0,0,1,.11.63,5,5,0,0,1,.35,1.21A1,1,0,0,1,4,8.1L4,8.15a1.09,1.09,0,0,1,.25.74h0V8.81A2.68,2.68,0,0,0,3.82,7.68Z" transform="translate(-0.17 -0.06)"/><path class="cls-35" d="M3.32,7S3.26,7,3.26,7l0,0.07s0,0,0,0A0.67,0.67,0,0,1,3.32,7Z" transform="translate(-0.17 -0.06)"/><path class="cls-35" d="M3.11,7.37a1.06,1.06,0,0,1,0-.44,0.13,0.13,0,0,1,0-.06l0-.11A1,1,0,0,0,3,7.43a4.27,4.27,0,0,1,.08.74,0.24,0.24,0,0,1,0,.16l0,0A0.24,0.24,0,0,0,3.2,8.1,4.27,4.27,0,0,0,3.11,7.37Z" transform="translate(-0.17 -0.06)"/><path class="cls-35" d="M3.27,6.83L3.37,6.9,3.43,7a0.24,0.24,0,0,1,.06.18,0.29,0.29,0,0,1,0,.08l0,0h0a0.24,0.24,0,0,1,0-.07,0.38,0.38,0,0,0-.26-0.39,0.09,0.09,0,0,0,0,.05h0Z" transform="translate(-0.17 -0.06)"/><path class="cls-36" d="M9,0.73A12.28,12.28,0,0,0,2.45.31c-0.35.07-.7,0.16-1,0.27l-0.25.08L1,0.69a0.38,0.38,0,0,0-.12,0Q0.82,1,.74,1.24A12.62,12.62,0,0,0,.18,5.56,12.57,12.57,0,0,0,.45,7.73q0.11,0.52.27,1L0.8,9l0,0.06,0,0L1,9.13,1.52,9.29a12.28,12.28,0,0,0,4.36.45A12.18,12.18,0,0,0,8,9.38q0.52-.14,1-0.32a0.34,0.34,0,0,0,0-.11l0-.12,0.08-.27q0.07-.25.14-0.51a12.77,12.77,0,0,0,.29-4.4A12.26,12.26,0,0,0,9,.74a0.26,0.26,0,0,0,0,.07,0.35,0.35,0,0,0,0,.12,12,12,0,0,1,.73,4.28,11.93,11.93,0,0,1-.24,2.21Q9.33,8,9.17,8.48l-0.08.25,0,0.12a0.27,0.27,0,0,1-.14.07L8.4,9.08A12.28,12.28,0,0,1,4,9.55,12.19,12.19,0,0,1,1.89,9.2q-0.52-.13-1-0.31A0.14,0.14,0,0,1,.79,8.77l0-.12L0.67,8.38Q0.59,8.12.53,7.85A11.86,11.86,0,0,1,.29,3.47,12,12,0,0,1,.78,1.36l0.08-.24L0.9,1a0.09,0.09,0,0,1,0-.06L1,0.9l0.51-.16Q2.05,0.59,2.58.49A12.31,12.31,0,0,1,7,.43a12.13,12.13,0,0,1,2,.5A0.46,0.46,0,0,0,9,.73Z" transform="translate(-0.17 -0.06)"/></svg>