<?xml version="1.0" encoding="utf-8"?>
<!-- Generator: Adobe Illustrator 19.2.0, SVG Export Plug-In . SVG Version: 6.00 Build 0)  -->
<svg version="1.1" id="Layer_1" xmlns="http://www.w3.org/2000/svg" xmlns:xlink="http://www.w3.org/1999/xlink" x="0px" y="0px"
	 viewBox="0 0 797.2 2187.5" style="enable-background:new 0 0 797.2 2187.5;" xml:space="preserve">
<style type="text/css">
	.st0{fill:none;stroke:#1D2120;stroke-width:5;stroke-linecap:round;stroke-linejoin:round;}
	.st1{opacity:0.8;fill:none;stroke:#1D2120;stroke-width:3;stroke-linecap:round;stroke-linejoin:round;enable-background:new    ;}
	.st2{opacity:0.8;fill:none;stroke:#1A1C1B;stroke-miterlimit:10;enable-background:new    ;}
	.st3{opacity:0.8;fill:none;stroke:#0C0D0D;stroke-miterlimit:10;enable-background:new    ;}
	.st4{opacity:0.4;fill:#F0F1F2;enable-background:new    ;}
	.st5{fill:none;stroke:#1D2120;stroke-width:3;stroke-linecap:round;stroke-linejoin:round;}
	.st6{opacity:0.6;fill:none;stroke:#1D2120;stroke-width:5;stroke-linecap:round;stroke-linejoin:round;enable-background:new    ;}
	.st7{opacity:0.8;fill:none;stroke:#1D2120;stroke-width:5;stroke-linecap:round;stroke-linejoin:round;enable-background:new    ;}
	.st8{fill:#232625;stroke:#131414;stroke-miterlimit:10;}
	.st9{fill:#1D2120;}
	.st10{fill:#101211;}
	.st11{fill:#131414;stroke:#131414;stroke-miterlimit:10;}
	.st12{fill:none;stroke:#8B1B00;stroke-width:5;stroke-linecap:round;stroke-linejoin:round;}
	.st13{fill:none;stroke:#388B00;stroke-width:5;stroke-linecap:round;stroke-linejoin:round;}
	.st14{fill:none;stroke:#120073;stroke-width:5;stroke-linecap:round;stroke-linejoin:round;}
	.st15{fill:none;stroke:#00D0C7;stroke-width:5;stroke-linecap:round;stroke-linejoin:round;}
	.st16{fill:none;stroke:#232625;stroke-width:5;stroke-linecap:round;stroke-linejoin:round;}
	.st17{fill:#232625;stroke:#1D2120;stroke-width:3;stroke-linecap:round;stroke-linejoin:round;}
	.st18{opacity:0.6;fill:none;stroke:#FFFFFF;stroke-width:2;stroke-miterlimit:10;enable-background:new    ;}
	.st19{fill:#232625;stroke:#1D2120;stroke-width:5;stroke-linecap:round;stroke-linejoin:round;}
	.st20{fill:none;stroke:#1A1C1B;stroke-miterlimit:10;}
	.st21{fill:#F0F1F2;}
	.st22{font-family:'Teko-Regular';}
	.st23{font-size:12px;}
	.st24{fill:none;stroke:#1D2120;stroke-linecap:round;stroke-linejoin:round;}
	.st25{fill:#5E5E5E;}
	.st26{fill:url(#SVGID_1_);}
	.st27{fill:url(#SVGID_2_);}
	.st28{fill:url(#SVGID_3_);}
	.st29{fill:url(#SVGID_4_);}
	.st30{fill:url(#SVGID_5_);}
	.st31{fill:url(#SVGID_6_);}
	.st32{fill:url(#SVGID_7_);}
	.st33{fill:url(#SVGID_8_);}
	.st34{fill:url(#SVGID_9_);}
	.st35{fill:url(#SVGID_10_);}
	.st36{fill:url(#SVGID_11_);}
	.st37{fill:url(#SVGID_12_);}
	.st38{fill:url(#SVGID_13_);}
	.st39{fill:url(#SVGID_14_);}
	.st40{fill:url(#SVGID_15_);}
	.st41{fill:url(#SVGID_16_);}
	.st42{fill:url(#SVGID_17_);}
	.st43{fill:url(#SVGID_18_);}
	.st44{fill:url(#SVGID_19_);}
	.st45{fill:url(#SVGID_20_);}
	.st46{fill:url(#SVGID_21_);}
	.st47{fill:url(#SVGID_22_);}
	.st48{fill:url(#SVGID_23_);}
	.st49{fill:url(#SVGID_24_);}
	.st50{fill:url(#SVGID_25_);}
	.st51{fill:url(#SVGID_26_);}
	.st52{fill:url(#SVGID_27_);}
	.st53{fill:url(#SVGID_28_);}
	.st54{fill:url(#SVGID_29_);}
	.st55{fill:url(#SVGID_30_);}
	.st56{fill:url(#SVGID_31_);}
	.st57{fill:url(#SVGID_32_);}
	.st58{fill:#F3F2E5;}
	.st59{fill:#93928B;}
	.st60{fill:#5B5559;}
	
		.st61{opacity:0.8;fill:#232625;stroke:#1D2120;stroke-width:5;stroke-linecap:round;stroke-linejoin:round;enable-background:new    ;}
	.st62{opacity:0.8;fill:#F0F1F2;enable-background:new    ;}
	.st63{opacity:0.8;fill:#FF5629;enable-background:new    ;}
	.st64{fill:#65859A;}
	.st65{opacity:0.8;fill:#647362;stroke:#647362;stroke-miterlimit:10;enable-background:new    ;}
	.st66{fill:#FFFFFF;stroke:#647362;stroke-miterlimit:10;}
	.st67{opacity:0.8;fill:#647362;enable-background:new    ;}
	.st68{fill:none;stroke:#647362;stroke-linecap:round;stroke-linejoin:round;}
	.st69{fill:none;stroke:#65767E;stroke-miterlimit:10;}
	.st70{fill:#668599;}
	.st71{font-size:24.92px;}
	.st72{font-size:14.62px;}
	.st73{font-size:10.21px;}
	.st74{fill:#00A7E1;}
	.st75{opacity:0.8;fill:#232625;enable-background:new    ;}
	.st76{enable-background:new    ;}
	.st77{fill:#207245;}
	.st78{fill:#FFFFFF;}
</style>
<title>OneLines</title>
<rect x="256.1" y="2059.5" class="st0" width="285.4" height="102.5"/>
<rect x="362.5" y="1158.6" class="st1" width="75" height="219.7"/>
<rect x="373" y="1156.1" class="st2" width="54.1" height="222.2"/>
<rect x="385" y="1156.1" class="st3" width="29.9" height="222.2"/>
<path class="st4" d="M399.3,1157.6h1.5c7.1,0,12.9,5.8,12.9,12.8v29.5c0,7.1-5.8,12.8-12.9,12.8h-1.5c-7.1,0-12.9-5.8-12.9-12.8
	v-29.5C386.4,1163.4,392.2,1157.6,399.3,1157.6z"/>
<polyline class="st5" points="500.1,1024 500.1,1078 399.1,1156.5 435.9,1156.5 527.1,1079.4 525.7,1015.7 "/>
<polyline class="st5" points="295.1,1024 295.1,1078 399.4,1156.5 362.6,1156.5 269.1,1078.9 269.1,1017 "/>
<polygon class="st6" points="397.9,1051.5 163.1,983 163.1,682.7 397.9,745.5 "/>
<polygon class="st7" points="397.9,1051.5 632.8,983 632.8,682.7 397.9,745.5 "/>
<polygon class="st7" points="397.9,745.5 632.8,682.7 395.2,606.5 163.1,682.7 "/>
<path class="st8" d="M354,679.1h84c2.9,0,5.3,2.4,5.3,5.3v0.2c0,2.9-2.4,5.3-5.3,5.3h-84c-2.9,0-5.3-2.4-5.3-5.3v-0.2
	C348.7,681.5,351,679.1,354,679.1z"/>
<circle class="st9" cx="343.1" cy="272.5" r="17.6"/>
<path class="st10" d="M343.1,286.6c-9,0-16.6-6.9-17.5-15.9c-0.1,0.6-0.1,1.2-0.1,1.8c0,9.7,7.9,17.6,17.6,17.6l0,0
	c9.7,0,17.6-7.9,17.6-17.6l0,0c0-0.6,0-1.2-0.1-1.8C359.8,279.7,352.2,286.6,343.1,286.6z"/>
<circle class="st4" cx="343.1" cy="272.5" r="11.5"/>
<ellipse transform="matrix(0.7071 -0.7071 0.7071 0.7071 -75.9388 361.66)" class="st9" cx="398.6" cy="272.5" rx="17.6" ry="17.6"/>
<path class="st10" d="M408.6,282.5c-6.4,6.4-16.6,6.9-23.6,1.2c0.4,0.5,0.8,0.9,1.2,1.3c6.9,6.9,18,6.9,24.9,0c0,0,0,0,0,0
	c6.9-6.9,6.9-18,0-24.9c0,0,0,0,0,0c-0.4-0.4-0.9-0.8-1.3-1.2C415.5,265.9,414.9,276.1,408.6,282.5z"/>
<circle class="st4" cx="398.6" cy="272.5" r="11.5"/>
<ellipse transform="matrix(0.7071 -0.7071 0.7071 0.7071 -59.6858 400.9091)" class="st9" cx="454.1" cy="272.5" rx="17.6" ry="17.6"/>
<path class="st10" d="M464.1,282.5c-6.4,6.4-16.6,6.9-23.6,1.2c0.4,0.5,0.8,0.9,1.2,1.3c6.9,6.9,18,6.9,24.9,0.1c0,0,0,0,0.1-0.1
	c6.9-6.9,6.9-18,0.1-24.9c0,0,0,0-0.1-0.1c-0.4-0.4-0.9-0.8-1.3-1.2C471,265.8,470.5,276.1,464.1,282.5z"/>
<circle class="st4" cx="454.1" cy="272.5" r="11.5"/>
<ellipse class="st11" cx="365.3" cy="684.3" rx="3.3" ry="1.7"/>
<ellipse class="st11" cx="385.3" cy="684.3" rx="3.3" ry="1.7"/>
<ellipse class="st11" cx="404.4" cy="684.3" rx="3.3" ry="1.7"/>
<ellipse class="st11" cx="424.3" cy="684.3" rx="3.3" ry="1.7"/>
<rect x="358.5" y="455.5" class="st7" width="75" height="217.2"/>
<rect x="368.9" y="453" class="st2" width="54.1" height="222.2"/>
<rect x="381" y="453" class="st3" width="29.9" height="222.2"/>
<path d="M367.1,452c0-1.1-0.9-2-2-2s-2,0.9-2,2v8h-4v12h12v-12h-4V452z M359.1,480c0,2.5,1.6,4.8,4,5.6v8.4h4v-8.4
	c2.4-0.8,4-3.1,4-5.6v-4h-12V480z"/>
<path d="M426.1,452c0-1.1-0.9-2-2-2s-2,0.9-2,2v8h-4v12h12v-12h-4V452z M418.1,480c0,2.5,1.6,4.8,4,5.6v8.4h4v-8.4
	c2.4-0.8,4-3.1,4-5.6v-4h-12V480z"/>
<path d="M406.1,452c0-1.1-0.9-2-2-2s-2,0.9-2,2v8h-4v12h12v-12h-4V452z M398.1,480c0,2.5,1.6,4.8,4,5.6v8.4h4v-8.4
	c2.4-0.8,4-3.1,4-5.6v-4h-12V480z"/>
<path d="M387,452c0-1.1-0.9-2-2-2s-2,0.9-2,2v8h-4v12h12v-12h-4V452z M379,480c0,2.5,1.6,4.8,4,5.6v8.4h4v-8.4c2.4-0.8,4-3.1,4-5.6
	v-4h-12V480z"/>
<path d="M422.3,684c0,1.1,0.9,2,2,2s2-0.9,2-2v-8h4v-12h-12v12h4V684z M430.3,656c0-2.5-1.6-4.8-4-5.6V642h-4v8.4
	c-2.4,0.8-4,3.1-4,5.6v4h12V656z"/>
<path d="M363.3,684c0,1.1,0.9,2,2,2s2-0.9,2-2v-8h4v-12h-12v12h4V684z M371.3,656c0-2.5-1.6-4.8-4-5.6V642h-4v8.4
	c-2.4,0.8-4,3.1-4,5.6v4h12V656z"/>
<path d="M383.3,684c0,1.1,0.9,2,2,2s2-0.9,2-2v-8h4v-12h-12v12h4V684z M391.3,656c0-2.5-1.6-4.8-4-5.6V642h-4v8.4
	c-2.4,0.8-4,3.1-4,5.6v4h12V656z"/>
<path d="M402.4,684c0,1.1,0.9,2,2,2s2-0.9,2-2v-8h4v-12h-12v12h4V684z M410.4,656c0-2.5-1.6-4.8-4-5.6V642h-4v8.4
	c-2.4,0.8-4,3.1-4,5.6v4h12V656z"/>
<polyline class="st12" points="365.1,494 365.1,518.5 385.1,543.8 385.1,568 "/>
<polyline class="st12" points="385.1,568 385.1,592.8 365.1,618.1 365.1,642 "/>
<polyline class="st13" points="385.1,494 385.1,518.5 365.1,543.8 365.1,568 "/>
<polyline class="st14" points="404.1,494 404.1,518.5 424.1,543.8 424.1,568 "/>
<polyline class="st14" points="404.1,642 404.1,618 424.1,592.7 424.1,568 "/>
<polyline class="st13" points="385.1,642 385.1,618 365.1,592.7 365.1,568 "/>
<polyline class="st15" points="424.1,494 424.1,518.5 404.1,543.8 404.1,568 "/>
<polyline class="st15" points="404.1,568 404.1,592.8 424.1,618.1 424.1,642 "/>
<polygon class="st0" points="433.4,455.5 358.4,455.5 289.5,307.6 502.5,307.6 "/>
<polygon class="st16" points="2.5,2.5 289.5,240.5 503.4,240.5 794.7,2.5 "/>
<rect x="289.5" y="239.5" class="st0" width="213" height="68.1"/>
<polyline class="st17" points="477.1,223 477.1,193.7 477.1,222 "/>
<polyline class="st17" points="461.1,223 461.1,193.7 461.1,222 "/>
<polyline class="st17" points="445.1,223 445.1,193.7 445.1,222 "/>
<polyline class="st17" points="429.1,223 429.1,193.7 429.1,222 "/>
<polyline class="st17" points="413.1,223 413.1,193.7 413.1,222 "/>
<polyline class="st17" points="397.1,223 397.1,193.7 397.1,222 "/>
<polyline class="st17" points="381.1,223 381.1,193.7 381.1,222 "/>
<polyline class="st17" points="365.1,223 365.1,193.7 365.1,222 "/>
<polyline class="st17" points="349.1,223 349.1,193.7 349.1,222 "/>
<polyline class="st17" points="333.1,223 333.1,193.7 333.1,222 "/>
<polyline class="st17" points="317.1,223 317.1,193.7 317.1,222 "/>
<polyline class="st17" points="422.1,444 464.1,321.7 422.1,443 "/>
<polyline class="st17" points="406.1,444 420.1,321.7 406.1,443 "/>
<polyline class="st17" points="390.1,444 376.1,321.7 390.1,443 "/>
<polyline class="st17" points="374.1,444 332.1,321.7 374.1,443 "/>
<polyline class="st17" points="276.1,42 276.1,13.7 276.1,43 477.1,193.7 "/>
<polyline class="st17" points="260.1,42 260.1,13.7 260.1,43 461.1,193.7 "/>
<polyline class="st17" points="244.1,42 244.1,13.7 244.1,43 445.1,193.7 "/>
<polyline class="st17" points="228.1,42 228.1,13.7 228.1,43 429.1,193.7 "/>
<polyline class="st17" points="212.1,42 212.1,13.7 212.1,43 413.1,193.7 "/>
<polyline class="st17" points="196.1,42 196.1,13.7 196.1,43 397.1,193.7 "/>
<polyline class="st17" points="180.1,42 180.1,13.7 180.1,43 381.1,193.7 "/>
<polyline class="st17" points="164.1,42 164.1,13.7 164.1,43 365.1,193.7 "/>
<polyline class="st17" points="148.1,42 148.1,13.7 148.1,43 349.1,193.7 "/>
<polyline class="st17" points="132.1,42 132.1,13.7 132.1,43 333.1,193.7 "/>
<polyline class="st17" points="116.1,42 116.1,13.7 116.1,43 317.1,193.7 "/>
<polyline class="st17" points="518.1,42 518.1,13.7 518.1,43 317.1,193.7 "/>
<polyline class="st17" points="534.1,42 534.1,13.7 534.1,43 333.1,193.7 "/>
<polyline class="st17" points="550.1,42 550.1,13.7 550.1,43 349.1,193.7 "/>
<polyline class="st17" points="566.1,42 566.1,13.7 566.1,43 365.1,193.7 "/>
<polyline class="st17" points="582.1,42 582.1,13.7 582.1,43 381.1,193.7 "/>
<polyline class="st17" points="598.1,42 598.1,13.7 598.1,43 397.1,193.7 "/>
<polyline class="st17" points="614.1,42 614.1,13.7 614.1,43 413.1,193.7 "/>
<polyline class="st17" points="630.1,42 630.1,13.7 630.1,43 429.1,193.7 "/>
<polyline class="st17" points="646.1,42 646.1,13.7 646.1,43 445.1,193.7 "/>
<polyline class="st17" points="662.1,42 662.1,13.7 662.1,43 461.1,193.7 "/>
<polyline class="st17" points="678.1,42 678.1,13.7 678.1,43 477.1,193.7 "/>
<polyline class="st17" points="499.2,743.2 499.2,719.3 499.2,743.8 623.7,834.2 "/>
<polyline class="st17" points="489,746 489,722 489,746.6 613.5,837.1 "/>
<polyline class="st17" points="479.5,748.5 479.5,724.5 479.5,749.1 604,839.9 "/>
<polyline class="st17" points="469.3,751.3 469.3,727.3 469.3,751.9 593.8,842.8 "/>
<polyline class="st17" points="459.8,753.8 459.8,729.8 459.8,754.4 584.3,845.6 "/>
<polyline class="st17" points="449.6,756.6 449.6,732.5 449.6,757.2 574.1,848.5 "/>
<polyline class="st17" points="439.4,759.4 439.4,735.2 439.4,760 563.9,851.5 "/>
<polyline class="st17" points="430,761.9 430,737.8 430,762.5 554.4,854.2 "/>
<polyline class="st17" points="419.8,764.7 419.8,740.5 419.8,765.3 544.2,857.2 "/>
<polyline class="st17" points="410.3,767.2 410.3,743 410.3,767.8 534.8,859.9 "/>
<polyline class="st17" points="400.1,770 400.1,745.7 400.1,770.6 524.6,862.8 "/>
<polyline class="st17" points="524.7,736.3 524.7,712.5 524.7,736.9 400.2,898.8 "/>
<polyline class="st17" points="534.2,733.7 534.2,710 534.2,734.3 409.7,896.1 "/>
<polyline class="st17" points="544.4,731 544.4,707.2 544.4,731.6 419.9,893.1 "/>
<polyline class="st17" points="554.5,728.2 554.5,704.5 554.5,728.8 430.1,890.2 "/>
<polyline class="st17" points="564,725.7 564,702 564,726.3 439.5,887.4 "/>
<polyline class="st17" points="574.2,722.9 574.2,699.3 574.2,723.5 449.8,884.5 "/>
<polyline class="st17" points="583.7,720.3 583.7,696.7 583.7,720.9 459.2,881.8 "/>
<polyline class="st17" points="593.9,717.6 593.9,694 593.9,718.2 469.4,878.8 "/>
<polyline class="st17" points="604.1,714.8 604.1,691.3 604.1,715.4 479.6,875.8 "/>
<polyline class="st17" points="613.6,712.3 613.6,688.8 613.6,712.8 489.1,873.1 "/>
<polyline class="st17" points="623.8,709.5 623.8,686 623.8,710.1 499.3,870.2 "/>
<polyline class="st17" points="524.7,988.6 524.7,1012.9 524.7,988.5 400.2,898.3 "/>
<polyline class="st17" points="534.2,985.7 534.2,1010 534.2,985.6 409.7,895.6 "/>
<polyline class="st17" points="544.4,982.6 544.4,1006.8 544.4,982.4 419.9,892.7 "/>
<polyline class="st17" points="554.5,979.5 554.5,1003.6 554.5,979.3 430.1,889.7 "/>
<polyline class="st17" points="564,976.5 564,1000.7 564,976.4 439.5,887 "/>
<polyline class="st17" points="574.2,973.4 574.2,997.5 574.2,973.2 449.8,884 "/>
<polyline class="st17" points="583.7,970.5 583.7,994.5 583.7,970.3 459.2,881.3 "/>
<polyline class="st17" points="593.9,967.3 593.9,991.4 593.9,967.2 469.4,878.3 "/>
<polyline class="st17" points="604.1,964.2 604.1,988.2 604.1,964 479.6,875.4 "/>
<polyline class="st17" points="613.6,961.3 613.6,985.2 613.6,961.1 489.1,872.6 "/>
<polyline class="st17" points="623.8,958.1 623.8,982.1 623.8,958 499.3,869.7 "/>
<polyline class="st17" points="499.2,996.5 499.2,1020.9 499.2,996.3 623.7,833.7 "/>
<polyline class="st17" points="489,999.6 489,1024 489,999.5 613.5,836.7 "/>
<polyline class="st17" points="479.5,1002.5 479.5,1027 479.5,1002.4 604,839.4 "/>
<polyline class="st17" points="469.3,1005.7 469.3,1030.2 469.3,1005.5 593.8,842.4 "/>
<polyline class="st17" points="459.8,1008.6 459.8,1033.1 459.8,1008.5 584.3,845.1 "/>
<polyline class="st17" points="449.6,1011.8 449.6,1036.3 449.6,1011.6 574.1,848.1 "/>
<polyline class="st17" points="439.4,1014.9 439.4,1039.5 439.4,1014.7 563.9,851 "/>
<polyline class="st17" points="430,1017.8 430,1042.4 430,1017.7 554.4,853.8 "/>
<polyline class="st17" points="419.8,1020.9 419.8,1045.6 419.8,1020.8 544.2,856.7 "/>
<polyline class="st17" points="410.3,1023.9 410.3,1048.6 410.3,1023.7 534.8,859.4 "/>
<polyline class="st17" points="400.1,1027 400.1,1051.7 400.1,1026.8 524.6,862.4 "/>
<polyline class="st17" points="295.2,743.2 295.2,719.2 295.2,743.8 170.7,834.1 "/>
<polyline class="st17" points="305.4,745.9 305.4,722 305.4,746.5 180.9,837.1 "/>
<polyline class="st17" points="314.9,748.5 314.9,724.5 314.9,749.1 190.4,839.8 "/>
<polyline class="st17" points="325.1,751.2 325.1,727.2 325.1,751.8 200.6,842.8 "/>
<polyline class="st17" points="334.5,753.8 334.5,729.7 334.5,754.4 210.1,845.5 "/>
<polyline class="st17" points="344.7,756.5 344.7,732.5 344.7,757.2 220.3,848.5 "/>
<polyline class="st17" points="354.9,759.3 354.9,735.2 354.9,759.9 230.5,851.4 "/>
<polyline class="st17" points="364.4,761.9 364.4,737.7 364.4,762.5 239.9,854.2 "/>
<polyline class="st17" points="374.6,764.6 374.6,740.4 374.6,765.2 250.1,857.1 "/>
<polyline class="st17" points="384.1,767.2 384.1,743 384.1,767.8 259.6,859.8 "/>
<polyline class="st17" points="394.3,770 394.3,745.7 394.3,770.6 269.8,862.8 "/>
<polyline class="st17" points="269.7,736.3 269.7,712.4 269.7,736.9 394.2,898.8 "/>
<polyline class="st17" points="260.2,733.7 260.2,709.9 260.2,734.3 384.7,896 "/>
<polyline class="st17" points="250,730.9 250,707.2 250,731.5 374.5,893.1 "/>
<polyline class="st17" points="239.8,728.2 239.8,704.5 239.8,728.8 364.3,890.1 "/>
<polyline class="st17" points="230.3,725.6 230.3,701.9 230.3,726.2 354.8,887.4 "/>
<polyline class="st17" points="220.1,722.9 220.1,699.2 220.1,723.5 344.6,884.4 "/>
<polyline class="st17" points="210.7,720.3 210.7,696.7 210.7,720.9 335.1,881.7 "/>
<polyline class="st17" points="200.5,717.5 200.5,694 200.5,718.1 324.9,878.8 "/>
<polyline class="st17" points="190.3,714.8 190.3,691.2 190.3,715.4 314.7,875.8 "/>
<polyline class="st17" points="180.8,712.2 180.8,688.7 180.8,712.8 305.3,873.1 "/>
<polyline class="st17" points="170.6,709.5 170.6,686 170.6,710 295.1,870.1 "/>
<polyline class="st17" points="269.7,988.6 269.7,1012.9 269.7,988.5 394.2,898.3 "/>
<polyline class="st17" points="260.2,985.7 260.2,1009.9 260.2,985.5 384.7,895.6 "/>
<polyline class="st17" points="250,982.5 250,1006.8 250,982.4 374.5,892.6 "/>
<polyline class="st17" points="239.8,979.4 239.8,1003.6 239.8,979.3 364.3,889.7 "/>
<polyline class="st17" points="230.3,976.5 230.3,1000.6 230.3,976.3 354.8,886.9 "/>
<polyline class="st17" points="220.1,973.3 220.1,997.5 220.1,973.2 344.6,884 "/>
<polyline class="st17" points="210.7,970.4 210.7,994.5 210.7,970.3 335.1,881.2 "/>
<polyline class="st17" points="200.5,967.3 200.5,991.3 200.5,967.1 324.9,878.3 "/>
<polyline class="st17" points="190.3,964.2 190.3,988.1 190.3,964 314.7,875.3 "/>
<polyline class="st17" points="180.8,961.2 180.8,985.2 180.8,961.1 305.3,872.6 "/>
<polyline class="st17" points="170.6,958.1 170.6,982 170.6,958 295.1,869.7 "/>
<polyline class="st17" points="295.2,996.5 295.2,1020.8 295.2,996.3 170.7,833.7 "/>
<polyline class="st17" points="305.4,999.6 305.4,1024 305.4,999.4 180.9,836.6 "/>
<polyline class="st17" points="314.9,1002.5 314.9,1026.9 314.9,1002.4 190.4,839.4 "/>
<polyline class="st17" points="325.1,1005.7 325.1,1030.1 325.1,1005.5 200.6,842.3 "/>
<polyline class="st17" points="334.5,1008.6 334.5,1033.1 334.5,1008.4 210.1,845.1 "/>
<polyline class="st17" points="344.7,1011.7 344.7,1036.3 344.7,1011.5 220.3,848 "/>
<polyline class="st17" points="354.9,1014.8 354.9,1039.4 354.9,1014.7 230.5,851 "/>
<polyline class="st17" points="364.4,1017.8 364.4,1042.4 364.4,1017.6 239.9,853.7 "/>
<polyline class="st17" points="374.6,1020.9 374.6,1045.6 374.6,1020.8 250.1,856.7 "/>
<polyline class="st17" points="384.1,1023.8 384.1,1048.5 384.1,1023.7 259.6,859.4 "/>
<polyline class="st17" points="394.3,1027 394.3,1051.7 394.3,1026.8 269.8,862.3 "/>
<polygon class="st0" points="398.7,39.5 442,39.5 420.3,77 398.7,114.5 377,77 355.4,39.5 "/>
<circle class="st18" cx="398.6" cy="64.6" r="15.4"/>
<path class="st19" d="M422.1,414.7"/>
<path class="st20" d="M314.6,248h162.8c4.9,0,9,4,9,9V288c0,4.9-4,9-9,9H314.6c-4.9,0-9-4-9-9V257C305.6,252,309.6,248,314.6,248z"
	/>
<text transform="matrix(1 0 0 1 397.33 61.79)" class="st21 st22 st23">1</text>
<text transform="matrix(1 0 0 1 396.43 76.1899)" class="st21 st22 st23">0</text>
<path class="st24" d="M397.9,778"/>
<path class="st24" d="M421.1,739"/>
<path class="st24" d="M408.9,789.2"/>
<path class="st24" d="M432.1,736"/>
<polygon class="st19" points="270.8,868.8 398.9,1037.6 526.6,868.8 398.9,772.5 "/>
<path class="st25" d="M378.5,831.1c-3,0.6-6,1.3-9,2.2c-1.5,0.4-2.9,0.9-4.4,1.4l-0.7,0.2c-0.2,0.1-0.3,0.3-0.3,0.5l-0.4,1
	c-0.2,0.7-0.5,1.4-0.7,2.1c-1.9,5.9-3.3,11.9-4.1,18c-1.7,12.4-1,25.1,2,37.3c0.4,1.5,0.8,3,1.2,4.5c0.2,0.8,0.5,1.5,0.7,2.3l0.3,1
	c0,0.4,0.2,0.8,0.6,1c2.9,1,5.8,1.9,8.7,2.7c18.2,4.7,37.4,4.3,55.4-1c1.5-0.4,2.9-0.9,4.3-1.4c0.5-0.1,0.9-0.3,1.2-0.6l0.3-1
	c0.2-0.7,0.4-1.4,0.7-2.1c0.9-3,1.7-6,2.3-9c3.8-18.4,2.4-37.6-4.2-55.2c-5.4-1.9-11-3.3-16.7-4.3
	C403.6,828.6,390.9,828.7,378.5,831.1z"/>
<linearGradient id="SVGID_1_" gradientUnits="userSpaceOnUse" x1="637.41" y1="2047.7362" x2="644.9419" y2="2047.7362" gradientTransform="matrix(1 0 0 -1 -241.4 2882)">
	<stop  offset="0" style="stop-color:#D2D1C6"/>
	<stop  offset="1" style="stop-color:#92928A"/>
</linearGradient>
<path class="st26" d="M396,837.2c0,0,0.1-5.3,4.8-6.4c0,0,3.5-0.6,2.5,2.2c-0.3,0.3-0.6,0.6-0.9,0.8c-1.1,0.8-1.6,2.1-1.4,3.4
	c-0.7-0.1-1.4,0.1-1.9,0.6C399.2,837.8,399.3,835.2,396,837.2z"/>
<linearGradient id="SVGID_2_" gradientUnits="userSpaceOnUse" x1="634.36" y1="2043.5687" x2="636.76" y2="2043.5687" gradientTransform="matrix(1 0 0 -1 -241.4 2882)">
	<stop  offset="0" style="stop-color:#D2D1C6"/>
	<stop  offset="1" style="stop-color:#92928A"/>
</linearGradient>
<path class="st27" d="M393.2,839.7c0,0-1-2.2,0.8-2.6s1.5,1.4,1,1.5c-0.5,0.1-0.9,0.5-1,1c0,0.2-0.2,0.4-0.4,0.3
	C393.4,839.9,393.3,839.8,393.2,839.7z"/>
<linearGradient id="SVGID_3_" gradientUnits="userSpaceOnUse" x1="643.2083" y1="2041.5616" x2="649.171" y2="2041.5616" gradientTransform="matrix(1 0 0 -1 -241.4 2882)">
	<stop  offset="0" style="stop-color:#D2D1C6"/>
	<stop  offset="1" style="stop-color:#92928A"/>
</linearGradient>
<path class="st28" d="M401.9,838c0.5,0.1,0.9,0.3,1.3,0.6c0.3,0.3,0.5-0.5,2.6,2c0.4,0.5,0.8,0.8,1.4,1.1c0.7,0.3,0.9,1.6-0.3,1
	c-0.9,0.2-1.8,0-2.5-0.6c-1.3-0.8-1-1.3-0.8-1.5s0-0.2-0.2-0.3c-0.3-0.3-0.5-0.7-0.6-1.2c-0.1-0.3-0.4-0.6-0.7-0.7
	C401.8,838.3,401.7,838,401.9,838z"/>
<linearGradient id="SVGID_4_" gradientUnits="userSpaceOnUse" x1="645.21" y1="2037.5747" x2="646.3609" y2="2037.5747" gradientTransform="matrix(1 0 0 -1 -241.4 2882)">
	<stop  offset="0" style="stop-color:#D2D1C6"/>
	<stop  offset="1" style="stop-color:#92928A"/>
</linearGradient>
<path class="st29" d="M403.8,845c0,0,0.1-1.1,0.7-1.1c0,0,0.6-0.1,0.3,0.4S404.7,844,403.8,845z"/>
<linearGradient id="SVGID_5_" gradientUnits="userSpaceOnUse" x1="642.45" y1="2038.264" x2="645.04" y2="2038.264" gradientTransform="matrix(1 0 0 -1 -241.4 2882)">
	<stop  offset="0" style="stop-color:#D2D1C6"/>
	<stop  offset="1" style="stop-color:#92928A"/>
</linearGradient>
<path class="st30" d="M401.3,843.6c0,0,0.4-0.1,0.2,0.6c0.1,0.1,0.2,0.2,0.3,0.2c0.3,0.1,0.5,0.2,0.7,0.5c0,0.2,1.6,0,1.1-1
	c-0.1-0.6-0.6-1.1-1.2-1.1c0,0-0.2-0.6-1.1,0C401,843,401,843.3,401.3,843.6C401.2,843.6,401.2,843.6,401.3,843.6z"/>
<linearGradient id="SVGID_6_" gradientUnits="userSpaceOnUse" x1="639.21" y1="2037.0392" x2="645.0099" y2="2037.0392" gradientTransform="matrix(1 0 0 -1 -241.4 2882)">
	<stop  offset="0" style="stop-color:#D2D1C6"/>
	<stop  offset="1" style="stop-color:#92928A"/>
</linearGradient>
<path class="st31" d="M400.3,843c0,0,0.4-0.3,0.4,0.2c0,0.5,0,0.3,0.3,0.6s0,0.4,0.1,0.8c0.5,0.6,1.2,1,2,0.8c0.9-0.2,0.3,0.9,0,0.9
	c0.1,0.1,0.1,0.2,0.1,0.3c-0.4,0.3-0.8,0.5-1.3,0.6l-2.3-0.1c-0.8-0.1-1.4-0.6-1.8-1.3c-0.3-1.1,0.2-0.7,0.4-0.9
	S397.6,844.8,400.3,843z"/>
<linearGradient id="SVGID_7_" gradientUnits="userSpaceOnUse" x1="616.68" y1="2020.1913" x2="655.15" y2="2020.1913" gradientTransform="matrix(1 0 0 -1 -241.4 2882)">
	<stop  offset="0" style="stop-color:#D2D1C6"/>
	<stop  offset="1" style="stop-color:#92928A"/>
</linearGradient>
<path class="st32" d="M413.5,849.4c-0.3-0.3-0.5-0.6-0.6-1c0.2-0.4,0.2-0.9-0.1-1.3c-0.4-0.4-0.9-1.8-0.8-1.4
	c0.1,0.4,0.2,0.8,0.4,1.1c0.6,1.1-0.5,0.8-0.5,0.8c-1.8-2,1.1-2.5-0.2-4.2c-2-2.2-5.1-0.1-5.5,0.9s1.2,1.7,1.4,1.6
	c0.4,0,0.8-0.1,1.1-0.4c0.1-0.3-0.1-0.2-0.1-0.2c-0.8,0.3-1.1-0.1-1.1-0.3c0-0.1,0.1-0.3,0.2-0.3c1.9-0.5,1,1,1.4,1.2
	s-0.2,1-0.3,1.1c-0.5,0.1-1,0.1-1.4-0.2c-0.4-0.5-1-0.9-1.6-1.2c-1.1-0.6-2.8,1.9-3.7,1.9c-0.9,0.1-1.7,0-2.6-0.1
	c-0.8-0.7-1.8-1.2-2.9-1.3c-0.1-0.2-0.2-0.5-0.4-0.6c0-0.3-0.2-0.5,0-0.5c0.2-0.1,0.3-0.2,0.3-0.4c0-0.2,0.1-0.3,0.3-0.3
	c0.6-0.5,1.2-1,1.8-1.3c0.3-0.3,0.7-0.5,1.1-0.6c0.5-0.1,0.9-0.3,1.3-0.4c0.3-0.1,0.3,0.1,0.3,0.1c0.6-0.1,1.9-1.4,1.5-1.8
	s-0.1-0.8-0.6-1.2c-0.5-0.4-0.4-0.7-0.9-1c-0.4-0.2-0.8-0.1-1,0.3c-0.4,0.5-1,0.8-1.5,1.1c-2,0.6-1.7-0.1-1.3-0.5
	c0.2-0.4,0.5-0.8,0.8-1.1c0.3-0.8-0.5-0.9-1.4-0.2c-0.6,0.5-1.1,1-1.5,1.7c-1.2,0.7-0.6,0.8-1.7,1.4s-0.8,1.3-1.7,2.2
	s-0.9,0.2-0.9,0.2c0.5-1,1.2-1.9,2-2.7c0,0-1.9,0.9-3.6,4.6c-1.7,3.7-0.6,3-0.9,3.3c-0.3,0.4-0.3,0.8,0,1.2c0.2,0.1,0.4,0.2,0.5,0.4
	c0,0,0.2,0.4,0.3,0c0.2-0.5,0.5-0.9,0.9-1.3c0.1-0.2,0.1-0.5,0-0.8c-0.1-0.6-0.7,0-0.7,0c-0.2-1,1.1-1.2,1.1-0.2
	c0,1.1-0.4,2.1-1.2,2.9c-1,1.1,0,2.4,0.5,3.3c0.3,0.7,0.3,1.5,0,2.2c3.2-0.5,2.8,2.2,2.8,2.2c-1,1.9-4,2.5-4.2,0.7s1.7-2.7,2.5-1.6
	c0.9,1.1-1.6,1.9-1.7,1.3c-0.1-0.7,0.2-0.5,0.2-0.5c1.2,0.7,1.6-1.3,0.1-0.9c-0.5,0.1-0.9,0.6-0.9,1.1c0,0.2,0.1,0.4,0.3,0.6
	c0.6,0.3,1.3,0.3,1.9,0c1.7-1.3,0.2-2.3,0.2-2.3c-2.3-0.8-3.2,1.8-3.2,1.8c-0.9-0.8-1.3-2-1-3.2c0.2-0.5,0.8-1.2,1.4-0.2
	c0.4,0.4,0.3,1-0.1,1.4c-0.2,0.1-0.3,0.2-0.5,0.2c-0.3-0.1-0.1-0.3-0.1-0.3c0.3-0.3,0.3-0.7,0.1-1.1c-0.3-0.6-0.6,0.2-0.6,0.2
	c-0.2,3.4,2.1,0.8,2.1,0.8c1-2.9-0.7-2.7-0.7-2.7c-2.5,0-2.3,3.6-2.3,3.6c-3.7,2.6-3.5,1.8-4,2.6c-0.5,0.7-1.1,1.3-1.8,1.8
	c0-0.2-0.3,0-0.3,0c0.1-0.4-0.1-0.9-0.5-1.1c-1-0.7-2.3-0.9-3.4-0.3c-2.2,1.3-0.3,2.9,0.7,3.1s2.7-0.3,2.4-1.7s-1.5-1.3-1.9-0.7
	s0.4,0.8,0.7,0.7c0.2-0.2,0.3-0.4,0.3-0.7c0.5,0,0.3,0.7,0.3,0.7c-0.7,1.3-3.1-0.9-1-1.3s2,2.4,2,2.4c2.9-2.2,2.7-1.7,3.7-2.6
	c1-0.8,2.1-1.6,3.3-2.2c0.1,0.1,0.1,0.3,0.1,0.3c-1.4,0.5-4.8,3.7-4.9,4c-0.1,0.3-1,1.1-1.1,1.5c-0.3,0.6-0.7,1.3-1.1,1.9
	c0.1,0.7,0.6-0.3,1-0.6s1.5-1.2,1.5-1.2c2-3,2.3-2.2,3.3-3.1c0.6-0.5,1.2-1,1.8-1.3c0.1,0.4,0.3,0.8,0.7,1.1c-0.2-0.1-0.7,0-1.7,1
	c-0.5,0.4-0.9,0.9-1.4,1.3c-0.1,0.5-0.4,0.9-0.7,1.2c-0.3,0.3-0.5,0.7-0.5,1.2c-0.1,1.2-0.4,2.4-0.7,3.5c3.7-3.1,1.7-3.3,2.7-3.7
	s1.9-2.1,3.1-2.8s1.4-0.5,1.4-0.5c-0.3,0.2-0.4,0.6-0.4,1c0,0,0.5,0.9-1.5,3.2s-0.3,2.9-0.3,2.9c0.2-0.9,0.8-1.7,1.7-2
	c3.3-1.4,3.8-2.9,4.2-3.5c0.3-0.3,0.6-0.6,0.9-0.9c0,0.3,0,0.7,0,1c0,0.2,0.1,0.3,0.2,0.4c-0.1,2.1-1.3,3-2.1,4.1
	c0,2.3,1.1,2.4,1.2,2.3s-1.1-0.5,1.7-2.2c2.8-1.7,3.8-2.9,3.6-3.7c-0.1-0.5-0.1-1.1,0.1-1.6c0.3,0.4,0.5,0.8,0.7,1.2
	c0.2,0.4,0.2,0.9,0.2,1.4c4.3,13.7-0.2,19.1-0.8,20c-0.6,0.9-0.1,1.2-0.1,1.2c9.2-2.3,7.4-12.9,6.4-15.3c-0.8-2.1-1.2-4.3-1.1-6.6
	c0.1-1,0.6-1,0.3-1.4c0.6-0.7,0.4-0.9,0.3-1c0.6-0.7,1-1.6,1.3-2.5c0.2-0.4-0.3-0.9,0.2-1.6c0.3-0.9,0.4-1.9,0.3-2.9
	c0.2-1.1,1.1-1.9,2.1-2.2c1.8-0.4,2.9,1.8,2.9,2.9c-0.1,0.9-0.2,1.8-0.5,2.7c0.1,0.8,0,1.7-0.2,2.5c-0.2,1,0,2,0.7,2.8
	c0.4,0.4,0.5,0.4-0.1-1.5s-0.1-3,0.4-5.1s-0.2-2.9-0.3-3.2c-1.9-2.9-4.7-1-5.3-0.5c-0.9,0.5-2.1,0.6-3.1,0.2c-3-1-4.3-0.3-4.5-0.1
	c-0.1,0.1-0.4,0.1-0.5,0c-5.9,3.3-6.9-0.4-7-0.8s0.1-0.4,0.1-0.4c-0.9-2,1-3.7,2.8-3.6c1.8,0.1,1.7,1,2.6,1c0.6,0,1.2,0.2,1.7,0.6
	c1.7,0.1,1.5-0.1,2.4-0.6c0.7-0.4,1.3-1,1.8-1.6c2.1-1.7,2.8-0.8,3-0.7c0.4,0.3,0.8,0.5,1.3,0.7c0.4,0.1,0.8,0.3,1.1,0.5
	c1.3,0.3,1.6-0.5,2-0.4s1.2,1.2,1.7,1.3c0.4,0.2,0.8,0.4,1.1,0.7C413.8,850.3,413.9,849.8,413.5,849.4z M393.7,858.9
	c0.7-1,1.6-2,3.9-1.3c0,0,1.8,0.6,1.5,1.7c0,0.2,0.1,0.3,0.3,0.3c0,0,0.1,0,0.1,0c0.4-0.1,0.2-0.8,0.2-0.8s2.3-2.9,4.3-1.5
	c0.5,0.3,0.6,0.9,0.3,1.4c-0.4,0.9,0.1,0.6-1.1,1.3s-2,0.3-2.3-0.4c-0.1-0.9,0.6-1.7,1.5-1.7c0.3,0,0.6,0,0.9,0.2
	c0.1,0.2,0.1,0.5,0,0.7c-0.2,0.1-0.3,0.3-0.5,0.4c-0.1,0.2-0.9-0.1-0.5-0.4c0,0,0.4,0,0.3-0.3s-0.8-0.2-0.9,0.2
	c-0.1,0.4,0.3,1.5,1.7,0.8c1.4-0.7,0.1-2-0.3-2c-1.2-0.2-2.4,0.5-2.9,1.7c0,0.4,0,0.8,0,1.1c0.1,0.3-0.7,0-1.5,0.6
	c-0.8,0.1,0.1,0.3-2.9,0.2c0,0-1.2-0.1-0.8-1.6c0.5-1.5,2.7-1.1,2.7-0.3c0,0.4-0.3,0.7-0.7,0.7c-0.2,0-0.4-0.1-0.5-0.2
	c0,0,0.6-0.1,0.4-0.5c-0.2-0.3-0.5-0.3-0.8-0.2c-0.1,0-0.1,0.1-0.2,0.2c-0.1,0.3-0.3,1.8,2.2,1.2c0,0,1.2-2.1-1.4-2.5
	s-2.7,1.9-3.6,2.4c-0.9,0.5-1.4,0.7-1.4,0.7C392.6,860.2,393.2,859.5,393.7,858.9z"/>
<linearGradient id="SVGID_8_" gradientUnits="userSpaceOnUse" x1="646.0398" y1="2030.0754" x2="652.0098" y2="2030.0754" gradientTransform="matrix(1 0 0 -1 -241.4 2882)">
	<stop  offset="0" style="stop-color:#D2D1C6"/>
	<stop  offset="1" style="stop-color:#92928A"/>
</linearGradient>
<path class="st33" d="M405.9,852c0,0,0.2,0.5,0.6,0.1c0.3-0.3,3.5-2.7,3.9-1.2c0.4,1.5,0.1,1.1-0.3,1s-0.8-0.5-4.1,1.4
	c0,0-1.3,0.4-1.3-0.3c0,0,0-0.4,0.3-0.4c0-0.2,0.1-0.5,0.3-0.7C405.4,851.7,405.7,851.7,405.9,852C405.9,852,405.9,852,405.9,852z"
	/>
<linearGradient id="SVGID_9_" gradientUnits="userSpaceOnUse" x1="643.52" y1="2032.9677" x2="644.62" y2="2032.9677" gradientTransform="matrix(1 0 0 -1 -241.4 2882)">
	<stop  offset="0" style="stop-color:#D2D1C6"/>
	<stop  offset="1" style="stop-color:#92928A"/>
</linearGradient>
<path class="st34" d="M403,848.6c0,0,0.3,0.1,0.2,0.4c-0.2,0.4-0.6,0.6-1,0.5c-0.1-0.2,0.2-0.4,0.2-0.4L403,848.6z"/>
<linearGradient id="SVGID_10_" gradientUnits="userSpaceOnUse" x1="644.71" y1="2033.6422" x2="646" y2="2033.6422" gradientTransform="matrix(1 0 0 -1 -241.4 2882)">
	<stop  offset="0" style="stop-color:#D2D1C6"/>
	<stop  offset="1" style="stop-color:#92928A"/>
</linearGradient>
<path class="st35" d="M403.3,848.3c0,0-0.1,0.6,0.5,0.5s1-0.2,0.7-0.9L403.3,848.3z"/>
<linearGradient id="SVGID_11_" gradientUnits="userSpaceOnUse" x1="646.18" y1="2033.1487" x2="648.9388" y2="2033.1487" gradientTransform="matrix(1 0 0 -1 -241.4 2882)">
	<stop  offset="0" style="stop-color:#D2D1C6"/>
	<stop  offset="1" style="stop-color:#92928A"/>
</linearGradient>
<path class="st36" d="M404.8,847.8c0,0-0.2,0.2,0.6,1.2s0.9,1.2,1.2,0.8c0.3-0.4,0.5-0.7,0.9-1c0.3-0.3-0.5-1-0.7-1
	C406.1,847.7,405.5,847.7,404.8,847.8z"/>
<linearGradient id="SVGID_12_" gradientUnits="userSpaceOnUse" x1="649.24" y1="2033.1665" x2="649.98" y2="2033.1665" gradientTransform="matrix(1 0 0 -1 -241.4 2882)">
	<stop  offset="0" style="stop-color:#D2D1C6"/>
	<stop  offset="1" style="stop-color:#92928A"/>
</linearGradient>
<path class="st37" d="M407.8,848.6c0,0.2,0.1,0.4,0.2,0.5c0.2,0,0.3,0,0.5,0c0,0,0.1-0.3-0.1-0.3
	C408.3,848.6,408.1,848.6,407.8,848.6z"/>
<linearGradient id="SVGID_13_" gradientUnits="userSpaceOnUse" x1="650.26" y1="2033.0892" x2="651.05" y2="2033.0892" gradientTransform="matrix(1 0 0 -1 -241.4 2882)">
	<stop  offset="0" style="stop-color:#D2D1C6"/>
	<stop  offset="1" style="stop-color:#92928A"/>
</linearGradient>
<path class="st38" d="M409,848.7c0,0-0.4,0.3,0,0.4c0.3,0,0.5-0.2,0.6-0.4C409.4,848.7,409.2,848.7,409,848.7z"/>
<linearGradient id="SVGID_14_" gradientUnits="userSpaceOnUse" x1="651.28" y1="2032.9537" x2="652.94" y2="2032.9537" gradientTransform="matrix(1 0 0 -1 -241.4 2882)">
	<stop  offset="0" style="stop-color:#D2D1C6"/>
	<stop  offset="1" style="stop-color:#92928A"/>
</linearGradient>
<path class="st39" d="M409.9,849c0.1,0.1,0.2,0.2,0.3,0.3c0,0.1,0.2,0.1,0.3,0c0.2-0.1,0.5,0,0.7,0.1c0.2,0.1,0.4-0.2,0.3-0.3
	c-0.4-0.2-0.8-0.4-1.3-0.4C409.9,848.8,409.8,848.8,409.9,849z"/>
<linearGradient id="SVGID_15_" gradientUnits="userSpaceOnUse" x1="653.0613" y1="2031.8516" x2="654.5513" y2="2031.8516" gradientTransform="matrix(1 0 0 -1 -241.4 2882)">
	<stop  offset="0" style="stop-color:#D2D1C6"/>
	<stop  offset="1" style="stop-color:#92928A"/>
</linearGradient>
<path class="st40" d="M412.4,850.4c0.1,0,0.2,0.1,0.3,0.2c0,0.1,0.2,0.2,0.3,0.2c0.1,0,0.2-0.2,0.2-0.3c-0.3-0.5-0.7-0.8-1.2-1
	c-0.1,0-0.5,0.1-0.2,0.4C412,850.1,412.2,850.3,412.4,850.4z"/>
<linearGradient id="SVGID_16_" gradientUnits="userSpaceOnUse" x1="653.01" y1="2030.3528" x2="655" y2="2030.3528" gradientTransform="matrix(1 0 0 -1 -241.4 2882)">
	<stop  offset="0" style="stop-color:#D2D1C6"/>
	<stop  offset="1" style="stop-color:#92928A"/>
</linearGradient>
<path class="st41" d="M413.6,850.5c-0.6,0.5-1.2,0.9-1.9,1.2c0,0-0.2,0.1,0.1,0.2c0.3,0,0.5,0.3,0.5,0.5c0,0,0,0.1,0,0.1
	c0,0,0,0.3,0.3,0c0.5-0.3,0.9-0.8,1-1.3C413.7,850.3,413.6,850.5,413.6,850.5z"/>
<linearGradient id="SVGID_17_" gradientUnits="userSpaceOnUse" x1="641.24" y1="2011.8311" x2="653.05" y2="2011.8311" gradientTransform="matrix(1 0 0 -1 -241.4 2882)">
	<stop  offset="0" style="stop-color:#D2D1C6"/>
	<stop  offset="1" style="stop-color:#92928A"/>
</linearGradient>
<path class="st42" d="M411.4,857.4c0.3-0.4,0.4-0.9,0.3-1.3c0-0.3-0.1-0.7-0.4-0.9c-0.3-1-1.3-1.6-2.3-1.3c-0.3,0.1-0.5,0.2-0.7,0.4
	c-0.3,0.2-0.5,0.4-0.7,0.6c-0.1,0.5,0,1,0.1,1.4c0.2,0.4,0.2,0.8,0,1.2c-0.5,0.8-0.8,1.8-0.9,2.7c-0.1,1.3-1.5,1.9-1.5,3.9
	s1.6,8.6,2.3,10.9c0,0,1.3,10-7.8,11.3c0,0,7.3,1.5,10.5-5c2.7-5.7,0.5-6.6-2-17.1c-0.2-0.9-0.5-1.7-0.9-2.5c0,0-0.5-0.8,0.5-2.1
	s1.7-2.2,3.2-1.9C411.1,857.7,411.8,858,411.4,857.4z"/>
<linearGradient id="SVGID_18_" gradientUnits="userSpaceOnUse" x1="650.6636" y1="2007.5746" x2="654.3536" y2="2007.5746" gradientTransform="matrix(1 0 0 -1 -241.4 2882)">
	<stop  offset="0" style="stop-color:#D2D1C6"/>
	<stop  offset="1" style="stop-color:#92928A"/>
</linearGradient>
<path class="st43" d="M409.3,864.9c0,0,3.1,8.7,2.7,12.4c-0.2,2.4-1.1,4.7-2.7,6.5c-0.5,0.5,5.1-2.8,3.3-10.5
	C410.7,865.7,409.3,864.9,409.3,864.9z"/>
<linearGradient id="SVGID_19_" gradientUnits="userSpaceOnUse" x1="644.97" y1="2004.8669" x2="656.73" y2="2004.8669" gradientTransform="matrix(1 0 0 -1 -241.4 2882)">
	<stop  offset="0" style="stop-color:#D2D1C6"/>
	<stop  offset="1" style="stop-color:#92928A"/>
</linearGradient>
<path class="st44" d="M409,860.3c-0.3-0.9,0.2-1.9,1.1-2.2c0,0,0,0,0.1,0c1.7-0.7,1.2,2.4,0.9,2.8c-0.5,1.1-0.4,2.3,0.3,3.3
	c0.9,1,1.4,1.3,1.7,5.2c0,0-0.1,2.3,1.3,3.1s1.1,6.4,0.4,7.4s-2.3,3.2-2.3,5.9c0,2.7,0.2,4.1-0.4,5.4c-0.6,1.3,0,4.6,0.5,4.8
	c0,0-1-0.2-0.9-2.5c-0.1-0.1-0.2-0.2-0.4-0.1c0,0-0.1,0.1-0.1,0.1c-0.3,0.4-1.2,0.1-1.6-0.3s-1-0.7-0.9-0.3c0.3,0.4,0.5,0.9,0.5,1.5
	c0,0,0.1,0.4,0.4-0.1s0-0.7,0.3-0.3s-0.5,2.8-4.1,2c-0.2-0.2-0.3-0.6-0.1-0.9c0.2-1.6-0.1-3.1-0.7-4.5c-0.7-0.9,0.6-0.5-1.3-3.9
	c0,0-0.4-0.4,1.5-0.4c1.9-0.1,7.3-3.4,7.4-5.4c0,0,0.1,2.3-3,4.7c-1,0.8-1.6,2-1.5,3.3c0.2,2.1,0.3,1.5,0.2,2.4
	c0.1,0.2,0.2,0.3,0.3,0.4c0.4,0.3,0.7,0.7,1.1,1.1c0.6,0.4,1.3,0.4,1.8-0.1c0-0.4,0-0.8,0.2-1.1c-0.9,0.5-2.1,0.1-2.5-0.9
	c-0.1-0.1-0.1-0.2-0.1-0.4c0,0,1.8,1.8,2.9,0.7c0-0.5,0.1-0.9,0.3-1.4c0,0-0.6,1.2-3.1-0.9c0.4,0.1,0.8,0.2,1.1,0.5
	c1,0.5,2.4,0.3,2.2-0.7c-0.2-1-0.4-4.3,0.3-5c-0.5,0.5-1.1,0.9-1.7,1.3c0.7-0.7,1.3-1.5,1.9-2.3c0.3-0.6,2.5-4.2,2-8
	c-0.5-1.1-1.2-2.1-2.1-2.9c-0.5-1.4-0.8-2.8-0.9-4.3c0-0.3-0.1-0.6-0.4-0.8"/>
<linearGradient id="SVGID_20_" gradientUnits="userSpaceOnUse" x1="616.9053" y1="2023.4172" x2="622.9099" y2="2023.4172" gradientTransform="matrix(1 0 0 -1 -241.4 2882)">
	<stop  offset="0" style="stop-color:#D2D1C6"/>
	<stop  offset="1" style="stop-color:#92928A"/>
</linearGradient>
<path class="st45" d="M375.5,858.3c-0.1,0.6,0.4,1.2,1,1.2c0.1,0,0.2,0,0.3,0c1.5,0,2.6,0,3.7,1.3c0,0-0.1,0.4,0.3,0
	c0.2-0.2,0.4-0.4,0.7-0.6l-1-0.1c-0.2-0.1-0.4-0.2-0.5-0.3c-0.5-0.3-1-0.5-1.5-0.7c-0.3,0-0.5-0.9-1.1-1.5c-0.6-0.6-0.2-1.2-1.3-1.6
	C376.1,856.2,375.6,856.1,375.5,858.3z"/>
<linearGradient id="SVGID_21_" gradientUnits="userSpaceOnUse" x1="613.72" y1="2022.9711" x2="617.5" y2="2022.9711" gradientTransform="matrix(1 0 0 -1 -241.4 2882)">
	<stop  offset="0" style="stop-color:#D2D1C6"/>
	<stop  offset="1" style="stop-color:#92928A"/>
</linearGradient>
<path class="st46" d="M372.6,857.4c0,0-0.6,1.3-0.1,2c0.5,0.7,2,1.5,2.4,1.1c0.3-0.3,0.7-0.6,1.1-0.7c0,0,0.2-0.2-0.1-0.2
	C375.7,859.7,375.6,860,372.6,857.4z"/>
<linearGradient id="SVGID_22_" gradientUnits="userSpaceOnUse" x1="611.02" y1="2019.7963" x2="618.7936" y2="2019.7963" gradientTransform="matrix(1 0 0 -1 -241.4 2882)">
	<stop  offset="0" style="stop-color:#D2D1C6"/>
	<stop  offset="1" style="stop-color:#92928A"/>
</linearGradient>
<path class="st47" d="M369.6,859.8c0,0.3,0.1,0.5,0.3,0.7c0.8,0.6,1.5,1.3,2.2,2.1c0.5,0.2,0.9,0.5,1.2,1c0.4,0.2,0.9,0.3,1.4,0.4
	c0.4,0.1,1.3,1,1.9,0.6c0.3-0.2,0.6-0.5,0.8-0.8c0,0,0.1-0.4-0.4-0.3c-1-0.2-1.8-0.9-2.2-1.8C374.6,860.8,373.9,860.6,369.6,859.8z"
	/>
<linearGradient id="SVGID_23_" gradientUnits="userSpaceOnUse" x1="611.2258" y1="2009.594" x2="627.8458" y2="2009.594" gradientTransform="matrix(1 0 0 -1 -241.4 2882)">
	<stop  offset="0" style="stop-color:#D2D1C6"/>
	<stop  offset="1" style="stop-color:#92928A"/>
</linearGradient>
<path class="st48" d="M379.1,862.8c-1,0.7-2,1.5-2.9,2.4c-0.1,0.1-0.3,0.1-0.4,0c-0.6-0.7-1.5-1.1-2.4-1c0,0-1-0.4-3.5,0.7
	c0,0-0.2,0.3,0.4,0.6c0.6,0.3,3,1.5,3.7,1.4c0,0-0.2,0.7,0.3,0.4c-0.6,1.5-0.7,3.1-0.5,4.7c0.5,2.5,2.4,1.8,3.3,5.1
	c0.7,2,2.1,3.8,3.9,4.9c0.1,0.1,0.3-0.4-0.9-1.7c-0.6-1.9-2.3-5.4-3.2-5.7c-2.2-1.3-3.2-3.9-2.5-6.4c0,0,1.3-2.6,2.6-3.2
	c0,0-0.6,0.7,0,0.5s0.8-0.7,1.1-0.4c0.3,0.2,0.5,0.6,0.4,1c0,0.3,0,0.6,0,1.2c0,0.5-0.3,0.7,0,1.3c0.4,0.6,0.6,1.4,0.3,2.1
	c-0.1,0.6-0.5,1.1-1,1.4c-0.5,0.3,0.2,0.5-1.1,1.4c0,0-2.2-1-2-4.4c0.1-0.5,0.3-0.9,0.7-1.2c-0.7,1.6-0.5,3.4,0.7,4.7
	c0.3,0.3,0.8,0.3,1.1,0.1c0.1-0.1,0.2-0.2,0.2-0.3c0-0.3,0.1-0.5,0.3-0.6c0.5-0.2,0.8-0.7,0.8-1.2c0-0.7-0.1-1.3-0.4-1.9
	c-0.2-0.3-0.2-0.7,0-1c0.1-0.2,0.4-1.8-0.7-1.6s-1.3,0-1.1,0.7s1.3,0.3,1.3,1c-0.2,0.6-0.2,1.3,0,1.9c0,1-0.6,1.8-1.6,2
	c-0.7,0.2-0.9-2.3-0.5-2.7l0.5-0.3c0,0,0.3,0.1,0.1,0.9c0,0-0.3-0.4-0.4,0c-0.3,0.6-0.2,1.3,0.4,1.6c0,0,1.1-0.1,0.9-1.7
	c0,0,0.5-2-0.2-1.6c0,0-0.9-1.1-1.2-0.8s-2.9,4,1.4,7c0.5-0.3,0.9-0.9,1-1.5c0,0,0.9,0.5,1.1-1.2c0,0-0.2,0.2,0.5,1
	c0.7,0.8,0.5,1.1,1.3,1.2c0.5,0.2,0.9,0.6,1.1,1c0.6,0.9,1.5,0.3,2,0.1s0.6-0.2,0.9-0.4s-0.2-0.1,0.5-0.9c0.6-0.8-0.4-1.3,0.6-2.5
	c1-1.2,0.4-3.2-1.1-3c-0.4,0.2-0.7,0.4-0.9,0.8c-0.3,0.4-0.7,0-1,0c-0.7,0.3-1.3,0.8-1.6,1.5c-0.5,0.9,0.8,2.7,1.7,2
	s-0.1-2.1-0.6-1.2c0,0-0.3-0.6,0.1-0.8s1.6,0.4,1.1,1.8c-0.2,0.3-0.4,0.7-0.6,0.9c-0.2,0.1-0.5,0.2-0.6,0c-0.2-0.4-0.6-0.7-1-0.9
	c-0.4-0.1-0.7-1.9-0.1-2.5c0.6-0.6,2-2.1,2-2.1l0.2-0.9c-0.5,0.3-1,0.7-1.3,1.1c-0.5,0.7-1.5,1.5-1.8,2.1c-0.4,0.4-0.4,1-0.1,1.5
	c0.2,0.5,0.5,0.9,1,1.1c0.4,0.3,0.7,0.7,1,1.2c0.3,0.3,1.1-0.3,1.3-0.3c0.5,0.1,1-0.3,1.1-0.8c-0.1-0.7,0-1.3,0.3-1.9
	c0.3-0.4,0.8-1-0.1-1.4c-0.5,0-1,0.2-1.3,0.6c-0.4-0.3-1-0.3-1.4,0.1c-0.5,0.7-0.2,1.6,0.4,1.5c0,0,0.2,0.4-0.4,0.2
	c-0.6-0.3-0.8-1.1-0.5-1.7c0.1-0.1,0.1-0.2,0.2-0.3c0.7-0.7,0.6-0.9,1.8-0.5c0.3-0.2,0.5-0.4,0.7-0.6c0.4-0.2,0.9-0.1,1.1,0.3
	c0.1,0.1,0.1,0.2,0.1,0.3c0,0.6,0.3,0.8,0,1.4c-0.4,0.6-0.6,1.3-0.7,2c0,0.5-0.2,1-0.5,1.3c-0.5,0.2-1,0.4-1.3,0.7
	c0,0-0.4,0.4-1-0.3c-0.6-0.7-0.9-1.4-1.7-1.5s-0.7-0.9-0.7-1.4s0-0.8,0-1.2c0.2-0.7,0.7-1.3,1.3-1.7c0.3-0.3,0.6-0.6,0.8-1
	c0.1-0.1,1.7-1.3,1.7-1.4s0.1-0.5,0.1-0.5c-1,0.6-1.9,1.4-2.6,2.4c-1.5,1.9-1.1,0.7-1.7,2.1c0-0.5-0.1-0.9-0.2-1.4
	c-0.2-0.5-0.2-1.1,0-1.5c0.3-0.9,0.5-2.4-1.5-2.2c0,0,0.3,0,0.5-0.9L379.1,862.8z"/>
<linearGradient id="SVGID_24_" gradientUnits="userSpaceOnUse" x1="628.74" y1="2010.8152" x2="641.95" y2="2010.8152" gradientTransform="matrix(1 0 0 -1 -241.4 2882)">
	<stop  offset="0" style="stop-color:#D2D1C6"/>
	<stop  offset="1" style="stop-color:#92928A"/>
</linearGradient>
<path class="st49" d="M396.9,867.2c0.2,0.5,0.6,0.9,1.1,1.2c0.5,0.6,1.1,1,1.7,1.4c0.9,0.5-0.2,2.8-1.1,2.8c-0.9,0.1-0.6,0.8-1,1.1
	s-1.1,2-4.6,0.4c-3.5-1.6-1.4-0.9-2.9-1c-1.3-0.1-2.3-1.3-2.2-2.7c0,0,0,0,0-0.1c0.2-1.1,2-1.6,3.3-1.2c0.7,0.3,1.5,0.2,1.9-0.4
	l-0.1-0.5c-0.2,0.5-0.8,0.8-1.3,0.6c-1-0.2-2.9-0.6-3.7,0.4c-0.8,0.9-0.9,2.1-0.3,3.1c0.7,1,1.9,1.5,3.1,1.4c0.5,0.5,1.1,0.9,1.7,1
	c0,0,0.2,0.8,1.9,0.6c0.7,0.2,1.3,0.2,2,0.1c0.7-0.2,1.3,0.2,2.1-2.2c0,0,1.5-0.2,1.9-1.1c0.3-0.9,0.1-3.1-0.8-3.3
	c-1-0.4-1.7-1.1-2.2-2L396.9,867.2z"/>
<linearGradient id="SVGID_25_" gradientUnits="userSpaceOnUse" x1="629.76" y1="2011.0586" x2="640.56" y2="2011.0586" gradientTransform="matrix(1 0 0 -1 -241.4 2882)">
	<stop  offset="0" style="stop-color:#D2D1C6"/>
	<stop  offset="1" style="stop-color:#92928A"/>
</linearGradient>
<path class="st50" d="M394.9,868.4c0.2,0.5,0.5,0.9,1,1.1c0.7,0.6,0.8,1.6,0.2,2.4c-0.1,0.1-0.2,0.2-0.4,0.3c-1,0.7-2.4,0.8-3.5,0.3
	c-1.9-0.7-1.1-2.8-0.6-2.5c0.1,0.2,0.4,0.4,0.7,0.4c-0.2,0-0.4,0.1-0.5,0.2c-0.2,0.2-0.2,1.5,1.5,1.4s2.3,0,2.6-0.8
	c0.3-0.8-0.4-1.6-0.9-2c0,0,1.3,2.2-0.6,2.4c0,0,1.7-1.2-0.1-2.2c0,0,1.1,1,0,1.7c0,0,0.6-1.3-0.2-1.2c0,0,0.4,0.4,0.1,0.6
	s0.2-0.4-0.6,0c0,0,0-0.3-0.7-0.2c0,0-0.3-1.3-3-0.9c-0.8,0-1.4,0.6-1.6,1.3c-0.1,1.2,1,1.8,3,1.7c0,0,3.4,3.1,5.9,0.8
	c0,0-0.1-1.2,0.4-1.3s1.9,0.1,1.3-1.2c-0.6-1.4-0.8-1.2-1.1-1.3c-0.3-0.1,0.3-0.4-1.6-0.5c-0.1-0.4-0.3-0.8-0.6-1.1"/>
<linearGradient id="SVGID_26_" gradientUnits="userSpaceOnUse" x1="629.18" y1="2002.1" x2="639.21" y2="2002.1" gradientTransform="matrix(1 0 0 -1 -241.4 2882)">
	<stop  offset="0" style="stop-color:#D2D1C6"/>
	<stop  offset="1" style="stop-color:#92928A"/>
</linearGradient>
<path class="st51" d="M387.8,876.6c0.9,0.6,1.9,0.9,3,1.1c2.3,0.5,4.5,1.6,6.3,3.1c0.1,0.1,0.1,0.4,0.2,0.6c0.1,0.1,0.3,0.2,0.4,0.3
	v1.3c-0.2-0.7-0.5-1.3-1-1.8c-0.7-0.6-1.2-1.9-6.7-3.4C389.2,877.7,388.4,877.2,387.8,876.6z"/>
<linearGradient id="SVGID_27_" gradientUnits="userSpaceOnUse" x1="635.25" y1="1990.9111" x2="640.1523" y2="1990.9111" gradientTransform="matrix(1 0 0 -1 -241.4 2882)">
	<stop  offset="0" style="stop-color:#D2D1C6"/>
	<stop  offset="1" style="stop-color:#92928A"/>
</linearGradient>
<path class="st52" d="M393.9,890.3c0,0,1.6,3,4.4,2c0,0,0.1-4.2,0-5.3c0,0,0.3,0,0.3-0.5s0.4,7.3,0,8.5c-0.2,0.2-0.4,0.4-0.4,0.7
	c0,0,0.2-0.7-0.3-0.5c-1.2,0-2.4-0.4-3.3-1.2c0,0,3.2,1.1,3.6,0.5s-0.1-1.1,0.3-1.6s-0.1-0.2-0.6,0S395.1,893.4,393.9,890.3z"/>
<linearGradient id="SVGID_28_" gradientUnits="userSpaceOnUse" x1="636.56" y1="1985.7438" x2="639.8606" y2="1985.7438" gradientTransform="matrix(1 0 0 -1 -241.4 2882)">
	<stop  offset="0" style="stop-color:#D2D1C6"/>
	<stop  offset="1" style="stop-color:#92928A"/>
</linearGradient>
<path class="st53" d="M398.1,896.6c-1-0.2-2-0.5-2.9-0.8c0.8,0.6,1.7,0.9,2.7,1.1C399.1,896.8,398.1,896.6,398.1,896.6z"/>
<linearGradient id="SVGID_29_" gradientUnits="userSpaceOnUse" x1="646.4817" y1="1983.4709" x2="655.5193" y2="1983.4709" gradientTransform="matrix(1 0 0 -1 -241.4 2882)">
	<stop  offset="0" style="stop-color:#D2D1C6"/>
	<stop  offset="1" style="stop-color:#92928A"/>
</linearGradient>
<path class="st54" d="M413,898.4c0.3-0.4,0.2-0.9-0.2-1.1c0,0,0,0,0,0c0,0,0.3-0.6-0.9-1.2l-1.5-0.7c-0.3,0.2-0.6,0.4-0.9,0.6
	c-0.2,0-0.1,0.1-0.1,0.2c-0.5,0-1.1,0.1-1.5,0.3h-1.8c-0.3,0-0.5-0.1-0.8-0.2c-0.1,0.3-0.1,0.6-0.3,0.9c-0.1,0.3,0.2,3,1.7,3.8
	c0.4,0,0.7,0.1,1.1,0.1c0.6,0.2,1.3,0.3,1.9,0.4c0.6-0.1,1.2-0.1,1.8,0.1c0.5,0,1-0.1,1.3-0.4c0,0,1.3,0.3,1.2-0.2
	S414.5,899,413,898.4z M405.5,897c0.1-0.3,0.2-0.2,0.2-0.2c0.1,0.2,0.2,0.3,0.4,0.4c0.2,0.1,0.2-0.2,0.2-0.2c0.3-0.1,0.7-0.1,1,0
	c0,0.2,0.1,0.3,0.2,0.4c-0.3,0.4-0.5,0.8-0.5,1.3c0.1,0.7,0.4,1.4,0.8,2C405.5,900.6,405.5,897.3,405.5,897z M410.4,901.2
	c-0.4,0.1-0.7,0.1-1.1,0.1c-0.3,0-0.7-0.1-0.9-0.3c0-0.2,0.4-0.8,0.3-1.1s0.2,0.4,0.4,0.3s0-0.6-0.1-0.7c-0.3-0.3-0.5-0.8-0.4-1.3
	c0.1-0.6-0.1-0.8-0.4-0.8c0-0.3,0.1-0.5,0.3-0.6c0.5-0.3,1.5-0.1,1.4,0.6c0,0.3-0.1,0.5-0.3,0.7c-0.5,0.3,0.2,0.4,0.3,0.8
	c0.1,0.5,0.1,1.1,0.1,1.6c0,0-0.5,0.2-0.1,0.5c0.1,0.1,0.3,0.1,0.5,0.1C410.6,900.9,410.4,901.2,410.4,901.2z M412.5,901.2
	c-0.4,0.1-0.8,0.2-1.1,0.2c-0.2,0-0.3-0.3,0-0.4s0.2-0.5,0-0.8c-0.1-0.3-0.2-0.6-0.2-0.9c0.6-0.4,0-1.1,0.1-1s0.3,0,0.3-0.1
	c-0.2-0.2-0.4-0.4-0.6-0.5c0.1-0.3,0-0.6-0.1-0.9l0.4-0.4c0.1,0.1,0.2,0.2,0.4,0.2c0.3,0.1,0.5,0.4,0.5,0.7c0,0.1,0.1,0.3,0.2,0.3
	c-0.1,0.2-0.1,0.5-0.1,0.7c-0.3,0.1-0.4,0.5-0.2,0.7c0,0.1,0.1,0.1,0.1,0.1C412.6,899.7,412.7,900.5,412.5,901.2L412.5,901.2z
	 M413.8,900.7c-0.1,0.1-0.2,0.2-0.3,0.2c-0.2,0-0.4,0-0.5,0c0.1-0.5,0.1-0.9,0-1.4c0.2,0,0.3-0.1,0.3-0.2c0,0,0,0,0,0
	C413.6,899.6,413.9,900.1,413.8,900.7L413.8,900.7z"/>
<linearGradient id="SVGID_30_" gradientUnits="userSpaceOnUse" x1="615.14" y1="2009.2223" x2="615.27" y2="2009.2223" gradientTransform="matrix(1 0 0 -1 -241.4 2882)">
	<stop  offset="0" style="stop-color:#D2D1C6"/>
	<stop  offset="1" style="stop-color:#92928A"/>
</linearGradient>
<path class="st55" d="M373.8,873.4c0,0.1,0,0.1,0.1,0.2c0.5,0.9,1.6,1.3,2.5,0.8c0.9-0.5,1.3-1.6,0.8-2.5c-0.5-0.9-1.6-1.3-2.5-0.8
	C373.8,871.6,373.5,872.6,373.8,873.4z"/>
<linearGradient id="SVGID_31_" gradientUnits="userSpaceOnUse" x1="626.56" y1="2006.705" x2="626.68" y2="2006.705" gradientTransform="matrix(1 0 0 -1 -241.4 2882)">
	<stop  offset="0" style="stop-color:#D2D1C6"/>
	<stop  offset="1" style="stop-color:#92928A"/>
</linearGradient>
<path class="st56" d="M385.2,875.2l0.1,0.2L385.2,875.2z"/>
<linearGradient id="SVGID_32_" gradientUnits="userSpaceOnUse" x1="615.24" y1="1992.38" x2="646.25" y2="1992.38" gradientTransform="matrix(1 0 0 -1 -241.4 2882)">
	<stop  offset="0" style="stop-color:#D2D1C6"/>
	<stop  offset="1" style="stop-color:#92928A"/>
</linearGradient>
<path class="st57" d="M404.9,903.7c0-0.7-0.1-1.5-0.4-2.1c-1.1-1.4-2.4-2.6-4-3.5c-0.2,0.1-0.3,0.3-0.2,0.5c0,0,0,0,0,0
	c0.1,0.5,1.5,0.9,1.5,1.5c0.1,0.6-0.1,0.7,0.2,1c-0.3-0.3-0.6-0.6-0.8-0.9c-0.2-0.3-1-0.4-1.3,0.7c-0.7,1.5-2.5,2.1-4,1.4
	c-0.1,0-0.2-0.1-0.3-0.1c-0.4-0.4-0.5-1-0.2-1.4c0,0,0.7-0.3,0.5,0.5c0,0,0.1,0.5,0.4,0.4s0-0.4,0-0.4s0.6,0,0.1-0.7
	c-0.5-0.7-1.2-0.3-1.7,0.3s0.5,3.7,4.6,1.3c0.4-0.3,0.8-0.7,1.1-1.2c0.1-0.4,0.3,0.2,0.3,0.4c-0.1,0.8,0.5,1.5,1.3,1.7
	c0,0,0.7,1.5,1.2,1.6c0.5,0.1-1.2,0.6-2.1,0.5c-1.8-0.6-3.7-0.8-5.5-0.7c-0.7-0.2-1.3-0.6-1.9-0.9c-0.5-0.4-0.6,0.1-0.8-1.5
	c-0.5-3.5-1.9-6.7-3.9-9.6c0,0-1.5-8.4-3.1-11c0,0,0.1-3.8-0.9-5.4c0,0-0.2-1.2,0.2-0.8c-0.1-0.2-0.2-0.4-0.2-0.6
	c-0.6,0.5-1.3,0.8-2,0.9c-0.6-0.2-1.2-0.4-1.8-0.8c0,0,2.8,2,2.2,5.1c-0.3,0.7-0.2,1.5,0.2,2c0,0,0.3,2.2-0.4,1.7
	c-0.7-0.5-2.7-0.7-3.8-1.9s-2.4-4-2.9-4.5c-1-1.1-1.9-2.4-2.7-3.7c0.4,1,0.9,2,1.4,3c0.9,1.4,4.5,5.8,4.3,7.7c0.6,0.8,1,1.7,1.2,2.6
	c-0.2-0.7-0.8-1.4-1.5-1.7c-1-0.3-3.2-2.2-3.3-3.1c0.2,1.1,0.8,2,1.7,2.7c1.6,1.4,2.4,0.9,2.7,3c-0.3-0.7-0.9-1.2-1.6-1.3
	c-1.1,0-2.6-2.6-2.6-2.6s0.1,1.4,2.3,3c1.3,1,2.1,2.4,2.3,4.1c0,0,0.3,0.6-0.5,0.9c-0.7,0.3-1.4,0.7-2.1,1.1
	c-0.5,0.3-0.7-0.1-0.9,0.8c-0.1,0.7-0.5,1.4-1,1.8c-0.4,0.6-0.4,1.4,0.1,2c0.4,0.1,0.7,0.3,1,0.5c0.4,0.4,2-0.1,2.3-0.1
	c0.5,0.2,1.1,0.2,1.6,0.2c0.3,0,0.6-0.1,0.9-0.3c0.3-0.3,0.5,0.2,0.9-0.3c0.5-0.4,0.8-1.1,0.7-1.8c0-0.9-0.3-5.4-0.7-6.3
	s0.7-6.3,1.7-5.7c1,0.5,2.5,0.7,2.4,4.4c0,0-1.3,1.5-2.4-1c0,0-0.3-2.8,0.9-1.3c0,0,0.8,1,0.5,1.7c-0.4,0.7-0.9,0.1-0.7-0.1
	c0-0.1,0.1-0.2,0.3-0.2c0,0-0.4-1-0.7-0.6c-0.2,0.8,0.3,1.5,1,1.7c0.1,0,0.2,0,0.3,0c0.1-0.3,0.2-0.6,0.5-0.8
	c0.1-1.4-0.7-2.6-1.9-3.3c0,0-2.3-0.3,0.4,4.5c2.7,4.8,2.8,0.6,5.1,7.3c0,0,2.4,2.1,2.2,7.2c0.6,0.4,1.2,0.7,1.9,0.9
	c0.9,0.5,1.9,0.8,2.9,0.8c1.3-0.1,2.6,0.1,3.9,0.5c0,0,0.7,0,0.6-0.2c0,0,1.6-0.1,1.7-0.6C403.6,905,405.1,904.9,404.9,903.7z
	 M401.9,901.2L401.9,901.2z M376.8,897.6c-0.2,0-0.4-0.3-0.2-0.4s0-0.3-0.1-0.3c-0.1-0.1-0.1-0.3,0-0.5c0,0,0,0,0,0
	c0.1-0.1,0.2-0.7,0-0.6s0.1-0.1,0.1-0.1s0.3-0.2,0.4,0c0,0.4,0,0.9,0,1.3c0,0.2,0.1,0.5,0.1,0.5L376.8,897.6L376.8,897.6z
	 M378.1,894.3c0-0.5,0.2-0.5,0.2-0.5l0.6-0.4c0.2-0.1,0.3,0,0.3,0.1c0,0.2,0,0.4,0.2,0.6c0.2,0.4,0,0.4,0,0.4v0.3
	c0,0.4-0.5,0.1-0.5,0.1c-0.3-0.5-0.2-0.1-0.6-0.1C377.8,894.9,378.1,894.8,378.1,894.3L378.1,894.3z M379.6,897.8
	c-0.6,0-1.1,0.1-1.6,0.2c-0.4,0-0.3-0.2-0.3-0.2c0.1-0.4,0.2-0.9,0.1-1.4c0.1-0.1,0.1-0.2,0-0.3c0,0,0,0,0,0c0-0.1,0-0.2,0-0.4
	c0.1-0.1,0.2-0.2,0.3-0.4c0.1-0.3,0.3,0,0.5,0s-0.2,0.2,0,0.4c0.2,0.2,0.3,0.5,0.2,0.8c-0.1,0.3,0.3,0.1,0.3,0.1
	C379.9,896.5,379.6,897.8,379.6,897.8z M380.4,898c-0.3,0-0.5-0.6-0.4-0.5c0,0.1,0.1,0.1,0.2,0c0,0,0,0,0,0v-2
	c0-0.2,0.2-0.3,0.3-0.3c0.1,0,0.1,0,0.2,0.1c0,0.1,0.1,0.2,0.1,0.3c0,0.3,0,0.6,0,0.9c0,0.3-0.3,0.7-0.1,0.7
	c0.2,0.2,0.2,0.4,0.2,0.7C380.8,898.1,380.6,898.1,380.4,898L380.4,898z M381.2,893.3c0,0.2,0,0.3,0.1,0.4c-0.2,0.2-0.3,0.4-0.3,0.6
	c-0.1,0.1-0.1,0.2-0.2,0.4c0,0.2-0.3,0.3-0.3,0c-0.2-0.1-0.4-0.3-0.4-0.5c0-0.4,0.2-0.7,0.5-0.9c0.2-0.1,0.5-0.2,0.7-0.3
	C381.2,893.1,381.2,893.2,381.2,893.3L381.2,893.3z"/>
<path class="st58" d="M407.9,848.5c0,0.2,0.1,0.4,0.2,0.5c0.2,0,0.3,0,0.5,0c0,0,0.1-0.3-0.1-0.3
	C408.3,848.6,408.1,848.5,407.9,848.5z"/>
<path class="st58" d="M409.1,848.7c0,0-0.4,0.3,0,0.4c0.3,0,0.5-0.2,0.6-0.4C409.5,848.6,409.3,848.6,409.1,848.7z"/>
<path class="st58" d="M410,849c0.1,0.1,0.2,0.2,0.3,0.3c0,0.1,0.2,0.1,0.3,0c0.2-0.1,0.5,0,0.7,0.1c0.2,0.1,0.4-0.2,0.3-0.3
	c-0.4-0.2-0.8-0.4-1.3-0.4C409.9,848.7,409.9,848.8,410,849z"/>
<path class="st58" d="M412.5,850.3c0.1,0,0.2,0.1,0.3,0.2c0,0.1,0.2,0.2,0.3,0.2c0.1,0,0.2-0.2,0.2-0.3l0,0c-0.3-0.5-0.7-0.8-1.2-1
	c-0.1,0-0.5,0.1-0.2,0.4C412,850.1,412.2,850.2,412.5,850.3z"/>
<path class="st58" d="M387.8,876.6c0.9,0.6,1.9,0.9,3,1.1c2.3,0.5,4.5,1.6,6.3,3.1c0.1,0.1,0.1,0.4,0.2,0.6c0.1,0.1,0.3,0.2,0.4,0.3
	v1.3c-0.2-0.7-0.5-1.3-1-1.8c-0.7-0.6-1.2-1.9-6.7-3.4C389.3,877.7,388.5,877.2,387.8,876.6z"/>
<path class="st58" d="M393.9,890.2c0,0,1.6,3,4.4,2c0,0,0.1-4.2,0-5.3c0,0,0.3,0,0.3-0.5c0-0.5,0.4,7.3,0,8.5
	c-0.2,0.2-0.4,0.4-0.4,0.7c0,0,0.2-0.7-0.3-0.5c-1.2,0-2.4-0.4-3.3-1.2c0,0,3.2,1,3.6,0.5s-0.1-1.1,0.3-1.6s-0.1-0.2-0.6,0
	S395.1,893.3,393.9,890.2z"/>
<path class="st58" d="M398.1,896.5c-1-0.2-2-0.5-2.9-0.8c0.8,0.6,1.7,0.9,2.7,1C399.2,896.8,398.1,896.5,398.1,896.5z"/>
<path class="st58" d="M373.8,873.4c0,0.1,0,0.1,0.1,0.2c0.5,0.9,1.6,1.3,2.5,0.8c0.9-0.5,1.3-1.6,0.8-2.5c-0.5-0.9-1.6-1.3-2.5-0.8
	C373.9,871.5,373.5,872.5,373.8,873.4z"/>
<path class="st58" d="M385.2,875.2l0.1,0.2L385.2,875.2z"/>
<path class="st58" d="M401.8,834.3c-0.8,0.7-1.3,1.7-1.3,2.7c0.2-0.1,0.4-0.1,0.6,0C401,836.1,401.2,835.1,401.8,834.3z"/>
<path class="st58" d="M400.9,830.8c-1.2,0.3-2.3,0.9-3,1.8c0.7-0.6,1.6-1,2.5-1.3c0,0,3.5-0.6,2.6,2.1c0.2-0.1,0.4-0.3,0.5-0.5
	C404.4,830.2,400.9,830.8,400.9,830.8z"/>
<path class="st58" d="M393.5,839.8c0.2,0.1,0.4,0,0.5-0.2c0,0,0,0,0-0.1c0-0.1,0.1-0.2,0.1-0.4C393.8,839.3,393.6,839.5,393.5,839.8
	z"/>
<path class="st58" d="M394.1,837c-0.4,0.1-0.7,0.3-0.9,0.7c0.1-0.1,0.2-0.1,0.3-0.1c1.2-0.3,1.5,0.4,1.3,1l0.2,0
	C395.6,838.4,395.8,836.5,394.1,837z"/>
<path class="st58" d="M407.2,841.7c-0.5-0.3-1-0.6-1.4-1.1c-2.1-2.5-2.3-1.7-2.6-2c-0.4-0.3-0.8-0.5-1.3-0.6c-0.2,0-0.1,0.3,0.1,0.5
	c0.4,0.1,0.6,0.3,0.7,0.7c0,0,0,0.1,0,0.1c0.3,0.1,0.7-0.2,2.5,1.9c0.4,0.5,0.8,0.8,1.4,1.1c0.2,0.1,0.4,0.3,0.5,0.5
	C408.1,843,407.9,842,407.2,841.7z"/>
<path class="st58" d="M404.6,843.8c-0.3,0.1-0.5,0.3-0.6,0.6l0,0c0.1,0,0.2,0,0.4,0c0.2-0.1,0.4-0.1,0.5-0.3
	C405.2,843.7,404.6,843.8,404.6,843.8z"/>
<path class="st58" d="M403.6,843.8c-0.1-0.6-0.6-1.1-1.2-1.1c0,0-0.2-0.6-1.1,0c-0.1,0.1-0.2,0.2-0.2,0.4c0.7-0.3,0.8,0.2,0.8,0.2
	c0.6,0,1.1,0.5,1.2,1.1c0.1,0.1,0.1,0.3,0.1,0.5c0.4-0.1,0.6-0.4,0.6-0.8C403.7,844,403.7,843.9,403.6,843.8z"/>
<path class="st58" d="M403.2,845.3c-0.8,0.1-1.5-0.2-2-0.8c-0.2-0.4,0.2-0.5-0.1-0.8s-0.3-0.1-0.3-0.6c0-0.5-0.4-0.2-0.4-0.2
	c-0.8,0.4-1.4,0.9-2,1.6c0.3-0.2,0.8-0.6,1.5-1c0,0,0.4-0.3,0.4,0.2s0,0.3,0.3,0.6s0,0.4,0.1,0.8c0.5,0.6,1.2,1,2,0.8
	c0.9-0.2,0.3,0.9,0,0.9l0.1,0.1c0.2-0.1,0.4-0.2,0.6-0.4c0-0.1,0-0.2-0.1-0.3C403.5,846.1,404.1,845.1,403.2,845.3z"/>
<path class="st58" d="M397.3,859.6c-0.2,0.1-0.5,0-0.6-0.2c0.2,0,0.4-0.2,0.4-0.4c-0.3-0.2-0.6-0.3-0.9-0.3c0,0-0.1,0.1-0.1,0.1
	c0,0.1,0,0.2,0,0.3c0.2,0,0.3,0.1,0.4,0.3c0.1,0.2,0,0.3-0.1,0.4c0,0,0,0,0,0c0.1,0.1,0.3,0.2,0.5,0.3
	C397.1,860.1,397.3,859.9,397.3,859.6z"/>
<path class="st58" d="M386.9,858l-0.1,0.1c0.2,0.3,0.4,0.5,0.7,0.7c0.1-0.2,0.2-0.5,0.4-0.7c-0.2-0.2-0.3-0.3-0.4-0.5
	c-0.4,0.1-0.8-0.3-0.7-1.8c0-0.1,0.1-0.3,0.2-0.4c0-0.1,0-0.3,0.1-0.4l0.1-0.1c-0.3,0.1-0.5,0.4-0.6,0.6c-0.1,0.3-0.1,0.6-0.1,0.9
	c0,0.5,0.1,0.9,0.3,1.4l0.2-0.1C386.9,857.8,386.9,858,386.9,858z"/>
<path class="st58" d="M390,848c0-0.2-0.1-0.5-0.3-0.6c-0.1,0.1-0.2,0.1-0.3,0.2c0-0.1,0-0.2,0-0.3c-0.3,0-0.6,0.3-0.6,0.7
	c0,0.1,0,0.1,0,0.2c0,0,0.6-0.6,0.7,0c0.1,0.2,0.1,0.5,0,0.8c-0.2,0.3-0.4,0.5-0.6,0.8l0,0c0,0,0.2,0.4,0.3,0
	c0.2-0.4,0.4-0.8,0.8-1.2C390,848.4,390,848.2,390,848z"/>
<path class="st58" d="M386.3,858.3c-1.4,0.9-2.7,2-3.9,3.2c1.2-1.2,2.5-2.2,4-3L386.3,858.3z"/>
<path class="st58" d="M388.6,857.2c0.2-0.2,0.4-0.3,0.7-0.3c0.5-0.5,1.3-0.4,1.8,0.2c0,0,0,0,0.1,0.1c0.2,0.2,0.2,0.4,0.2,0.6
	c0.1,0.4,0,0.7-0.3,1l0,0c0.6-0.3,0.9-1,0.7-1.6c-0.5-0.6-1.4-0.9-2.2-0.7C389.2,856.6,388.9,856.9,388.6,857.2z"/>
<path class="st58" d="M394.5,858.5c0.6-0.4,1.2-0.5,1.9-0.3l0.3,0.1c0.5-0.1,1,0.2,1.2,0.7c0,0,0,0,0,0.1c0.2,0.4,0.2,0.8,0.1,1.2
	l0.4-0.1c0.1-0.2,0.2-0.5,0.3-0.7c-0.1-0.9-1.5-1.3-1.5-1.3c-0.6-0.2-1.3-0.3-1.9-0.2C394.9,858,394.7,858.2,394.5,858.5z"/>
<path class="st58" d="M388,856.4c-0.1,0-0.1,0-0.2,0c-0.3-0.1-0.1-0.3-0.1-0.3c0.2-0.2,0.3-0.5,0.2-0.8v-0.1
	c-0.1-0.2-0.3-0.4-0.4-0.5c-0.1,0.1-0.1,0.2-0.2,0.3c0,0.1,0,0.3,0,0.4l0,0c0.1,0.2,0.1,0.5,0.1,0.8c0,0.2,0.1,0.4,0.3,0.5
	C387.8,856.7,387.9,856.6,388,856.4z"/>
<path class="st58" d="M387.1,856.9v-0.1C387.1,856.8,387.1,856.9,387.1,856.9z"/>
<path class="st58" d="M389.6,858.6c-0.2,0-0.4,0-0.5-0.1l0,0c0,0.1,0.1,0.2,0.2,0.3c0.3,0.2,0.7,0.3,1,0.2c0.3-0.1,0.5-0.3,0.6-0.6
	C390.4,858.6,390,858.7,389.6,858.6z"/>
<path class="st58" d="M393.4,860l-1.2,0.6c-0.4,0.4-0.7,0.6-0.7,0.6s0.5-0.2,1.4-0.7C393,860.4,393.2,860.2,393.4,860z"/>
<path class="st58" d="M388.9,857.7l0.3-0.1c0.7-0.2,1,0.1,1,0.4c0.2,0,0.4-0.1,0.5-0.3v-0.1c-0.3-0.4-0.7-0.6-1.1-0.5
	C389.2,857.2,389,857.4,388.9,857.7z"/>
<path class="st58" d="M391.8,859.1c-1,0.8-2.4,1-3,0.3l-0.2-0.1c-0.3-0.4-0.3-1,0-1.4c0-0.2,0.1-0.4,0.2-0.5c-0.6,0.4-1,1.2-0.8,1.9
	C388.1,861,390.6,860.6,391.8,859.1z"/>
<path class="st58" d="M402.9,848.2l-0.2,0.2c0,0-0.1,0.2-0.3,0.4C402.5,848.6,402.7,848.3,402.9,848.2z"/>
<path class="st58" d="M399.5,847.4c-0.8-0.7-1.8-1.2-2.9-1.3c-0.1-0.2-0.2-0.5-0.4-0.6c0-0.3-0.2-0.5,0-0.5c0.2-0.1,0.3-0.2,0.3-0.4
	v-0.1c-0.1,0.1-0.2,0.2-0.3,0.3c-0.2,0-0.3,0.2-0.3,0.3c0,0.2-0.1,0.4-0.3,0.4c-0.2,0.1,0,0.3,0,0.6c0.2,0.2,0.3,0.4,0.4,0.6
	c1.1,0.1,2.1,0.6,2.9,1.3c0.9,0.1,1.7,0.2,2.6,0.1c0.9,0,2.6-2.5,3.7-1.9c0.6,0.2,1.1,0.6,1.6,1.1c0.4,0.3,0.9,0.4,1.4,0.2
	c0.2-0.1,0.3-0.3,0.4-0.5c-0.4,0.1-0.9,0-1.3-0.2l-0.2-0.2h-0.1c-0.6-0.1-1.2-0.5-1.5-1c-1.1-0.3-2.7,2-3.5,2
	C401.2,847.6,400.4,847.5,399.5,847.4z"/>
<path class="st58" d="M411.2,844c1.3,1.6-1.6,2.2,0.2,4.2c0,0,0.9,0.2,0.7-0.5H412c-1.8-2,1.1-2.5-0.2-4.2c-1.8-2-4.5-0.5-5.3,0.6
	C407.6,843.1,409.7,842.4,411.2,844z"/>
<path class="st58" d="M408.4,845.5c-0.3,0.2-0.7,0-0.8-0.3c0,0,0,0,0,0l-0.4,0.1c-0.1,0.1-0.2,0.2-0.2,0.3c0,0.1,0.1,0.2,0.1,0.3
	c0.2,0.1,0.4,0.2,0.6,0.2l0.3,0h0.1c0,0,0.1,0,0.1,0l0.3-0.1C408.5,845.8,408.5,845.6,408.4,845.5z"/>
<path class="st58" d="M396.2,838.1c0.9-0.7,1.7-0.6,1.4,0.2c-0.3,0.3-0.6,0.7-0.8,1.1c-0.3,0.4-0.7,1.2,1.3,0.5
	c0.6-0.3,1.1-0.7,1.5-1.1c0.2-0.3,0.6-0.4,1-0.3c0.5,0.4,0.4,0.6,0.9,1s0.2,0.8,0.6,1.2c0.2,0.2,0,0.5-0.2,0.8
	c0.5-0.4,1.1-1.1,0.8-1.4s-0.1-0.8-0.6-1.2s-0.4-0.7-0.9-1c-0.4-0.2-0.8-0.1-1,0.3c-0.4,0.5-1,0.8-1.5,1.1c-2,0.6-1.7-0.1-1.3-0.5
	c0.2-0.4,0.5-0.8,0.8-1.1c0.3-0.8-0.5-0.9-1.4-0.2c-0.3,0.2-0.6,0.5-0.8,0.8L396.2,838.1z"/>
<path class="st58" d="M378.3,861.4L378.3,861.4c-0.1-0.1-0.2-0.1-0.3-0.1c0,0.1,0,0.1,0,0.2C378.1,861.4,378.2,861.4,378.3,861.4z"
	/>
<path class="st58" d="M377.7,860.6l-0.1,0.1c0,0.1-0.1,0.1-0.1,0.2c0.4-0.1,0.7,0,1,0.2c0-0.1,0-0.2,0-0.3
	C378.3,860.6,378,860.5,377.7,860.6z"/>
<path class="st58" d="M378.3,862c0-0.1,0-0.1,0-0.2c-0.1,0-0.3,0-0.4,0c0,0.1-0.1,0.1-0.2,0.2c-0.3,0.1-1,0-0.7-0.7
	c0-0.1,0.1-0.1,0.1-0.2c-0.1-0.1-0.1-0.3-0.1-0.4C375.5,861.3,377.7,863.1,378.3,862z"/>
<path class="st58" d="M394.6,839.7c0.2-0.2,0.3-0.3,0.4-0.4c-0.3,0.2-0.6,0.4-0.7,0.7L394.6,839.7z"/>
<path class="st58" d="M379.4,861c-0.1-0.5-0.6-0.9-1.2-0.8c-0.1,0-0.1,0-0.2,0.1c0.4,0.1,0.8,0.3,1.2,0.5
	C379.2,860.9,379.3,860.9,379.4,861z"/>
<path class="st58" d="M392.4,840.8c-0.8,0.8-1.5,1.7-2,2.7c0,0,0,0.7,0.9-0.2c0.1-0.1,0.2-0.2,0.3-0.4c-0.7,0.5-0.7,0-0.7,0
	c0.5-1,1.2-1.9,2-2.7c-0.6,0.3-1.1,0.7-1.5,1.2C391.8,841.2,392.1,841,392.4,840.8z"/>
<path class="st58" d="M393,841.2c0.3-0.2,0.6-0.4,0.7-0.7l-0.2,0.1c-0.3,0.2-0.5,0.4-0.7,0.6L393,841.2z"/>
<path class="st58" d="M386.3,864.3c0.4-0.4,0.8-0.9,1.3-1.3C387.1,863.3,386.7,863.8,386.3,864.3z"/>
<path class="st58" d="M385.1,865.2c-0.8,0.3,0.4,0.6-1.3,2.4c1.7-1.6,1.5-2.2,1.5-2.6L385.1,865.2z"/>
<path class="st58" d="M387.7,868.2c0.1,0.1,0.2,0.1,0.3,0.2c0.1-0.4,0.2-0.7,0.4-1C388.2,867.6,387.9,867.9,387.7,868.2z"/>
<path class="st58" d="M380.3,865.3c-0.1,0.1-0.2,0.2-0.3,0.3c0.3-0.1,0.5-0.3,0.6-0.6L380.3,865.3z"/>
<path class="st58" d="M381.9,863.8l0.4-0.3c0.3-0.5,0.7-1.1,1.1-1.5C382.9,862.5,382.4,863.1,381.9,863.8z"/>
<path class="st58" d="M394.1,869.1c-0.2,0.2-0.4,0.3-0.5,0.5c0.1,0.2,0.3,0.3,0.6,0.3C393.9,869.8,393.9,869.4,394.1,869.1
	C394.1,869.1,394.1,869.1,394.1,869.1z"/>
<path class="st58" d="M413.6,849.4c-0.3-0.3-0.5-0.6-0.6-1c0.2-0.4,0.2-0.9-0.1-1.3c-0.4-0.4-0.9-1.8-0.8-1.4
	c0.1,0.4,0.2,0.8,0.4,1.1c0.3,0.6,0.1,0.8-0.1,0.9c0.2,0.4,0.2,0.8,0,1.2c0,0.2,0.1,0.3,0.2,0.4c0.3,0.2,0.6,0.4,0.9,0.7
	C413.8,850.3,413.9,849.7,413.6,849.4z"/>
<path class="st58" d="M412.1,853.7c-1.9-2.9-4.7-1-5.3-0.5c-0.9,0.5-2.1,0.6-3.1,0.2c-3-1-4.3-0.3-4.5-0.1c-0.1,0.1-0.4,0.1-0.5,0
	c-5.9,3.3-6.9-0.4-7-0.8s0.1-0.4,0.1-0.4c-0.4-0.8-0.3-1.8,0.3-2.5c-1,0.7-1.3,1.9-0.8,3c0,0-0.2,0-0.1,0.4s1.1,4.2,7,0.8
	c0.1,0.1,0.4,0.1,0.5,0c0.3-0.2,1.5-0.9,4.5,0.1c1,0.4,2.1,0.3,3.1-0.2c0.8-0.7,1.8-1,2.8-1.1h0.2c1.8-0.4,2.9,1.8,2.9,2.8
	c0,0.6-0.1,1.1-0.2,1.7l0,0.3c-0.1,0.3-0.1,0.6-0.2,0.8c0.1,0.8,0,1.6-0.2,2.4c-0.2,1,0,2,0.7,2.8c0.4,0.4,0.5,0.4-0.1-1.5
	s-0.1-3,0.4-5.1S412.3,854,412.1,853.7z"/>
<path class="st58" d="M399.4,864.1c0-0.1,0-0.3,0-0.4c-0.1-0.2-0.3-0.5-0.4-0.7c-0.1,0.5-0.2,1.1-0.1,1.6c0,0.5-0.2,1.1-0.6,1.4
	C399.2,865.2,399.5,864.6,399.4,864.1z"/>
<path class="st58" d="M378.9,861.2c0,0.1,0,0.2,0,0.2l-0.1,0.1c0,0.1,0.1,0.3,0.1,0.4c0.1,0.3,0,0.6-0.1,0.9
	c0.2-0.1,0.4-0.3,0.5-0.5C379.3,861.9,379.1,861.5,378.9,861.2z"/>
<path class="st58" d="M407.1,854.8c0.1-0.4,0.3-0.8,0.5-1.1c-0.5,0.4-0.9,1-1.1,1.7c0.1,1-0.1,2-0.3,2.9c-0.4,0.7,0,1.2-0.2,1.6
	c-0.3,0.9-0.7,1.8-1.3,2.5c0.2,0.1,0.3,0.3-0.3,1c0.3,0.4-0.2,0.4-0.3,1.4c-0.1,2.3,0.3,4.5,1.1,6.6c0.8,1.9,2.1,8.6-1.6,12.6
	c4.3-4,3-11.3,2.2-13.2c-0.8-2.1-1.2-4.3-1.1-6.6c0.1-1,0.6-1,0.3-1.4c0.6-0.7,0.4-0.9,0.3-1c0.6-0.7,1-1.6,1.3-2.5
	c0.2-0.4-0.3-0.9,0.2-1.6C407.1,856.8,407.2,855.8,407.1,854.8z"/>
<path class="st58" d="M388.1,853.9c0,0,1.6-0.2,0.7,2.7c0.2-0.2,0.4-0.3,0.5-0.5c0.1-0.3,0.2-0.5,0.2-0.8c0-0.3-0.1-0.7-0.2-1
	c-0.1-0.3-0.3-0.6-0.5-0.9c-0.1,0-0.1,0-0.2,0c-0.7,0-1.3,0.3-1.7,0.9C387.3,854,387.7,853.9,388.1,853.9z"/>
<path class="st58" d="M401.8,858.4c0,0.1,0,0.1,0,0.2c0.1,0,0.3,0.1,0.3,0.2c0,0.1,0,0.2-0.1,0.3c0,0-0.1,0-0.1,0
	c0.1,0.2,0.3,0.3,0.5,0.4c0.1-0.1,0.3-0.3,0.4-0.4V859c-0.2,0.1-0.8-0.2-0.4-0.5c0,0,0.3,0,0.3-0.1c-0.2-0.1-0.5-0.2-0.8-0.2
	C401.8,858.2,401.8,858.3,401.8,858.4z"/>
<path class="st58" d="M400.8,858.2c0.3-0.2,0.7-0.4,1.2-0.5c0.5-0.2,1-0.2,1.4,0.1c0.1,0.2,0.2,0.4,0.1,0.5c0.2,0.2,0.2,0.5,0.1,0.8
	c0.1-0.1,0.2-0.1,0.3-0.2c0.2-0.4,0.1-1-0.3-1.3c-0.5-0.4-1.1-0.5-1.7-0.3C401.4,857.5,401,857.8,400.8,858.2z"/>
<path class="st58" d="M399.8,860.6c0-0.1,0-0.2,0-0.4c-0.3,0.1-0.6,0.2-0.9,0.4c-0.8,0.1,0.1,0.3-2.9,0.2c0,0-1.2-0.1-0.8-1.6
	c0-0.1,0.1-0.2,0.1-0.3c-0.3,0.2-0.6,0.5-0.7,0.8c-0.5,1.5,0.8,1.6,0.8,1.6c3.1,0.1,2.1-0.1,2.9-0.2
	C399.1,860.6,399.9,860.8,399.8,860.6z"/>
<path class="st58" d="M387.6,860.8c-0.1-0.1-0.2-0.2-0.3-0.3c-0.3,0.2-0.6,0.5-0.9,0.8l-0.1,0.1
	C386.6,860.9,387.1,860.7,387.6,860.8z"/>
<path class="st58" d="M394,863L394,863c-0.2,0.1-0.4,0.3-0.5,0.6c-0.2,0.4-0.5,0.8-0.8,1.2C393.1,864.3,393.6,863.7,394,863z"/>
<path class="st58" d="M399.2,859.2c0,0.1,0,0.1,0,0.2c0.1,0.1,0.2,0.1,0.3,0c0.4-0.1,0.2-0.8,0.2-0.8c0-0.1,0.1-0.2,0.2-0.3
	C399.6,858.6,399.4,858.9,399.2,859.2z"/>
<path class="st58" d="M385.8,857.5c0,0,0-0.1,0-0.2c-3.1,2.1-3,1.4-3.4,2.2l0,0C383.5,859,384.7,858.3,385.8,857.5z"/>
<path class="st58" d="M385.9,861.8c-0.3,0.2-0.6,0.4-0.9,0.7l-0.1,0.2C385.3,862.4,385.6,862.1,385.9,861.8z"/>
<path class="st58" d="M393.2,859.4c-0.2,0.3-0.4,0.5-0.7,0.8c0.4-0.4,0.9-0.9,1.2-1.4c0.1-0.1,0.2-0.3,0.3-0.4
	C393.7,858.6,393.4,859,393.2,859.4z"/>
<path class="st58" d="M403.2,859.8c-1.2,0.6-2,0.3-2.3-0.4c-0.1-0.3,0-0.7,0.2-1c-0.5,0.3-0.8,0.9-0.8,1.5c0.3,0.7,1.1,1,2.3,0.4
	c0.9-0.5,0.8-0.4,0.9-0.8L403.2,859.8z"/>
<path class="st58" d="M375.8,860.5c0.5-0.3,1.1-0.4,1.7-0.3c0.2-0.1,0.3-0.1,0.5-0.2c1.5-0.3,1.9,1,1.9,1.8c0,0,0.1,0,0.1,0.1
	c0,0,0,0,0,0c0.5-0.4,1-0.8,1.4-1.3c-0.5,0.4-0.8,0.7-0.8,0.7c0-0.2-0.3,0-0.3,0c0.1-0.4-0.1-0.9-0.5-1.1c-1-0.7-2.3-0.9-3.4-0.3
	c-0.3,0.2-0.6,0.4-0.8,0.7L375.8,860.5z"/>
<path class="st58" d="M410.5,850.9c-0.4-1.5-3.6,0.9-3.9,1.2c-0.3,0.3-0.6-0.1-0.6-0.1c-0.2-0.2-0.5-0.3-0.7-0.1c0,0-0.1,0-0.1,0.1
	c-0.1,0.1-0.2,0.2-0.2,0.4c0.2,0,0.3,0.1,0.5,0.2c0,0,0.2,0.5,0.6,0.1s3.5-2.7,3.9-1.2c0,0.2,0.1,0.3,0.1,0.4h0.1
	C410.6,852,410.9,852.3,410.5,850.9z"/>
<path class="st58" d="M403.1,848.5l-0.7,0.5c-0.1,0.1-0.2,0.2-0.3,0.3l0.3-0.3c0.1,0,0.2,0.2,0.2,0.3c0,0,0,0,0,0
	c0.2-0.1,0.4-0.2,0.5-0.5C403.4,848.6,403.1,848.5,403.1,848.5z"/>
<path class="st58" d="M404.6,847.8l-1.2,0.4c0,0.1,0,0.2,0.1,0.3l0.6-0.2c0,0.1,0.1,0.2,0.1,0.3
	C404.5,848.6,404.8,848.4,404.6,847.8z"/>
<path class="st58" d="M406.8,847.7c-0.6-0.1-1.3-0.1-1.9,0c0,0-0.1,0.1,0.1,0.5c0.4,0,0.8,0,1.3,0c0.3,0.1,1,0.7,0.7,1
	c-0.2,0.2-0.4,0.4-0.6,0.6c0.1,0,0.2-0.1,0.3-0.2c0.3-0.4,0.5-0.7,0.9-1C407.8,848.5,407.1,847.8,406.8,847.7z"/>
<path class="st58" d="M407.3,849.1c0,0.2,0.1,0.4,0.2,0.5c0.2,0,0.3,0,0.5,0c0,0,0.1-0.3-0.1-0.3
	C407.8,849.1,407.5,849.1,407.3,849.1z"/>
<path class="st58" d="M408.5,849.2c0,0-0.4,0.3,0,0.4c0.3,0,0.5-0.2,0.6-0.4C408.9,849.2,408.7,849.2,408.5,849.2z"/>
<path class="st58" d="M409.4,849.5c0.1,0.1,0.2,0.2,0.3,0.3c0,0.1,0.2,0.1,0.3,0.1c0.2-0.1,0.5,0,0.7,0.1c0.2,0.1,0.4-0.2,0.3-0.3
	c-0.4-0.2-0.8-0.4-1.3-0.4C409.4,849.3,409.3,849.3,409.4,849.5z"/>
<path class="st58" d="M411.9,850.9c0.1,0,0.2,0.1,0.3,0.2c0.1,0.1,0.2,0.1,0.3,0c0,0,0.1-0.1,0.1-0.2c-0.3-0.5-0.7-0.8-1.2-1
	c-0.1,0-0.5,0.1-0.2,0.4C411.4,850.6,411.7,850.8,411.9,850.9z"/>
<path class="st58" d="M413.6,850.5c-0.6,0.5-1.2,0.9-1.9,1.2c0,0-0.2,0.2,0.1,0.2l0,0c0.4-0.3,0.9-0.6,1.2-0.9c0,0,0.1-0.2-0.1,0.7
	c0,0.2-0.1,0.4-0.2,0.6c0.4-0.2,0.7-0.7,0.8-1.2C413.7,850.3,413.6,850.5,413.6,850.5z"/>
<path class="st58" d="M407.8,854.8c0.8-0.7,2-0.6,2.6,0.2c0.2,0.2,0.3,0.4,0.4,0.7c0.2,0.3,0.3,0.6,0.4,0.9c0.1,0.3,0,0.7-0.1,1h0.2
	c0,0,0.7,0.3,0.2-0.3c0.3-0.4,0.4-0.9,0.3-1.3c0-0.3-0.1-0.7-0.4-0.9c-0.3-1-1.3-1.6-2.3-1.3c-0.3,0.1-0.5,0.2-0.7,0.4
	c-0.3,0.2-0.5,0.4-0.7,0.6v0.1L407.8,854.8z"/>
<path class="st58" d="M407.5,861.6c0,0-0.5-0.8,0.5-2.1c0.3-0.3,0.5-0.6,0.7-0.8c-0.5,0.4-0.9,0.9-1.3,1.4c-1,1.3-0.5,2.1-0.5,2.1
	c0.4,0.8,0.7,1.7,0.9,2.5c2.4,10.5,4.7,11.5,2,17.1c-0.4,0.8-0.9,1.6-1.5,2.3c0.9-0.8,1.6-1.8,2.1-2.8c2.7-5.7,0.5-6.6-2-17.1
	C408.2,863.3,407.9,862.4,407.5,861.6z"/>
<path class="st58" d="M404.7,884.2c-1.4,1.2-3.1,1.9-4.9,2.1c0.4,0.1,0.9,0.1,1.3,0.1C402.5,886,403.8,885.2,404.7,884.2z"/>
<path class="st58" d="M412.6,873.3c-1.9-7.7-3.3-8.4-3.3-8.4s0.6,1.7,1.3,4c0.6,1.6,1.1,3.3,1.5,5c1.2,4.8-0.6,7.9-2,9.4
	C411.4,882.1,414,878.8,412.6,873.3z"/>
<path class="st58" d="M412.6,880.9c-0.1,0.5-0.3,1-0.7,1.3c-0.3,1-0.8,2-1.6,2.8C412.6,882.9,412.6,880.9,412.6,880.9z"/>
<path class="st58" d="M409,890.4c0.2,0.9,1.1,1.5,2.1,1.4c0.1-0.1,0.2-0.1,0.2-0.2c0,0,0-0.1,0-0.2C410.3,891.7,409,890.4,409,890.4
	z"/>
<path class="st58" d="M409.7,892.8c-0.3-0.4-0.7-0.8-1.1-1.1c-0.1-0.1-0.3-0.2-0.3-0.4c0.1-0.9,0-0.3-0.2-2.4c-0.1-1,0.2-2,0.9-2.7
	c-1,0.8-1.5,2-1.4,3.3c0.2,2.1,0.3,1.5,0.2,2.4c0.1,0.2,0.2,0.3,0.3,0.4c0.2,0.2,0.4,0.4,0.6,0.6c0.1-0.2,0.6,0.1,0.9,0.4
	c0.2,0.1,0.4,0.3,0.6,0.3c0.3,0,0.6-0.1,0.8-0.3c0,0,0-0.1,0-0.3C410.5,893.2,410.1,893.1,409.7,892.8z"/>
<path class="st58" d="M410.1,889.3c-0.3-0.2-0.7-0.4-1.1-0.5c0.6,0.6,1.4,1,2.3,1.2c0.2-0.1,0.4-0.3,0.5-0.5
	C411.2,889.6,410.6,889.5,410.1,889.3z"/>
<path class="st58" d="M403.6,886.7l0.1,0.2c0.2,0,0.5,0,0.8-0.1c1.4,0,5-2,6.6-3.8c-1.8,1.6-4.8,3.2-6,3.3
	C403.3,886.4,403.6,886.7,403.6,886.7z"/>
<path class="st58" d="M414.4,872.5c-1.4-0.8-1.3-3.1-1.3-3.1c-0.3-3.9-0.7-4.3-1.7-5.2c-0.7-1-0.8-2.2-0.3-3.3
	c0.3-0.5,0.8-3.6-0.9-2.8c-0.4,0.2-0.8,0.4-1,0.8c0.1-0.1,0.3-0.2,0.5-0.3c1.7-0.7,1.2,2.4,0.9,2.8c-0.5,1.1-0.4,2.3,0.3,3.3
	c0.9,1,1.4,1.3,1.7,5.2c0,0.6,0.1,1.3,0.3,1.9c0.5,0.4,0.9,0.9,1.3,1.4c0.1,0.1,0.2,0.3,0.3,0.4c0.2,0.3,0.3,0.7,0.5,1
	c0.1,0.8,0.1,1.7,0,2.5c0,1.1-0.2,2.2-0.6,3.3c-0.7,1-1.3,2.1-1.8,3.3l0.1-0.1c-0.1,0.1-0.2,0.2-0.2,0.3c-0.1,0.2-0.1,0.4-0.2,0.6
	c-0.2,1.4-0.2,2.8,0.1,4.1c0.1,0.3,0,0.5-0.2,0.7c0,0.2,0,0.3,0,0.5c0,0,0.1-0.1,0.1-0.1c0,0.1-0.1,0.3-0.1,0.4
	c0,0.3-0.1,0.6-0.1,0.9v0.1l0,0c0,0.2-0.1,0.4-0.2,0.6l0,0c-0.1,0.4-0.2,0.7-0.2,1.1l-0.2,0.1c0,0.2,0,0.4,0,0.5
	c0.1-0.1,0.3,0,0.4,0.1c-0.1,2.3,0.9,2.5,0.9,2.5c-0.5-0.2-1.1-3.6-0.5-4.8s0.4-2.8,0.4-5.4s1.6-4.8,2.3-5.9
	C415.5,878.9,415.8,873.2,414.4,872.5z"/>
<path class="st58" d="M409.7,894.2c0,0.1,0,0.1-0.1,0.2c-0.2,0.5-0.4,0.1-0.4,0.1c0-0.2,0-0.4,0-0.5l-0.1-0.1
	c-0.4-0.4-1-0.7-0.9-0.3c0.3,0.4,0.5,0.9,0.5,1.5c0,0,0.1,0.4,0.4-0.1c0.2-0.5,0-0.7,0.3-0.3c0.1,0.4,0,0.8-0.3,1.1
	c0.5-0.3,0.8-0.9,0.8-1.5L409.7,894.2z"/>
<path class="st58" d="M380.6,860.1c-0.2-0.1-0.4-0.2-0.5-0.3c-0.5-0.3-1-0.5-1.5-0.7c-0.3,0-0.5-0.9-1.1-1.5
	c-0.6-0.6-0.2-1.2-1.3-1.6c0,0-0.2-0.1-0.4,0.6c0.9,0.4,0.6,1,1.2,1.5c0.3,0.4,0.5,0.8,0.8,1.2c1.1-0.1,2.2,0.4,2.9,1.2h0.4
	c0.2-0.2,0.4-0.4,0.6-0.5L380.6,860.1z"/>
<path class="st58" d="M376,859.6c-0.2,0-0.3,0.3-3.4-2.3c-0.1,0.3-0.2,0.5-0.3,0.8c2.4,2,2.8,2.1,3,2c0.2-0.2,0.4-0.3,0.7-0.4
	C376.1,859.8,376.3,859.6,376,859.6z"/>
<path class="st58" d="M377,863.4c-1-0.2-1.8-0.9-2.2-1.8c-0.3-0.8-0.9-1.1-5.2-1.9c0,0.3,0.1,0.5,0.3,0.7l0,0
	c3.6,0.7,4.1,0.9,4.4,1.7c0.4,0.9,1.2,1.6,2.2,1.8c0.5-0.1,0.4,0.3,0.4,0.3c0,0.1-0.1,0.1-0.1,0.2c0.3-0.2,0.5-0.4,0.7-0.7
	C377.4,863.7,377.5,863.3,377,863.4z"/>
<path class="st58" d="M374.5,870.3c0-0.6,0.1-1.3,0.4-1.9c-0.1,0-0.2,0.1-0.2,0.1C374.5,869.1,374.5,869.7,374.5,870.3z"/>
<path class="st58" d="M376.2,874c-1-0.8-1.6-2-1.9-3.2C374.4,872.1,375.1,873.3,376.2,874z"/>
<path class="st58" d="M377.6,868.1c0,0.1-0.1,0.2-0.2,0.3c0,0.2,0,0.3,0,0.5c0,0.1,0.1,0.1,0.1,0.2c0.3,0.6,0.5,1.3,0.4,1.9
	c0,0.2-0.1,0.4-0.2,0.6c0.2-0.1,0.4-0.3,0.5-0.5c0.2-0.7,0.1-1.4-0.3-2c-0.2-0.3-0.2-0.7,0-1c0-0.1,0-0.2,0-0.3v-0.1
	c0-0.6,0-0.9,0-1.2c0-0.2-0.1-0.5-0.2-0.7c-0.1,0-0.3,0-0.4,0c-0.4,0-0.7,0.1-0.9,0.1h-0.1h-0.1c-0.1,0.1-0.1,0.2,0,0.5l0.6-0.1
	C378,866.4,377.6,867.9,377.6,868.1z"/>
<path class="st58" d="M375.2,867.5c0.4,0.2,0.7,0.5,1,0.8c0.7-0.4,0.2,1.6,0.2,1.6c0.1,0.4,0,0.7-0.1,1.1c0.4-0.1,0.6-0.5,0.6-0.9
	l0,0c-0.2-0.6-0.2-1.3,0-1.9c0-0.2,0-0.3-0.2-0.4l0,0l0,0c-0.4,0-0.8-0.2-1-0.6c0-0.1,0-0.1-0.1-0.2c0,0-0.1,0-0.1,0.1
	C375.5,867.2,375.3,867.4,375.2,867.5z"/>
<path class="st58" d="M377.8,873.1c-0.1,0-0.3,0-0.4-0.1c0,0.3-0.1,0.6-0.3,0.9C377.4,873.7,377.6,873.4,377.8,873.1z"/>
<path class="st58" d="M377,873.3l-0.2,0.2c-0.1,0-0.2-0.1-0.3-0.2c-0.1,0.1-0.2,0.1-0.3,0.1l0.4,0.3
	C376.8,873.6,376.9,873.5,377,873.3z"/>
<path class="st58" d="M375.4,872.1L375.4,872.1c-0.4-0.7-0.6-1.5-0.7-2.3C374.6,870.6,374.8,872.3,375.4,872.1z"/>
<path class="st58" d="M375.1,870.2l0.1-0.2c0-0.1,0.1-0.1,0.1-0.1c0-0.2,0-0.4,0.1-0.6l-0.3,0.2
	C375.1,869.7,375.1,869.9,375.1,870.2z"/>
<path class="st58" d="M376.7,871.2c-0.2,0.2-0.5,0.3-0.7,0.4c-0.1,0-0.1,0-0.2,0c-0.1,0-0.1,0-0.2,0l-0.1-0.1
	c0.1,0.2,0.2,0.3,0.3,0.5C376.1,871.8,376.5,871.6,376.7,871.2z"/>
<path class="st58" d="M383.1,865.9l-0.1,0.4c0.2-0.1,0.4-0.3,0.5-0.5c0-0.1,0.1-0.5,0.1-0.5c-0.7,0.4-1.3,0.9-1.8,1.5
	C382.2,866.5,382.7,866.2,383.1,865.9z"/>
<path class="st58" d="M378.7,872.4c-0.1-0.1-0.1-0.3-0.2-0.4c0,0.2-0.1,0.4-0.1,0.6C378.5,872.6,378.6,872.5,378.7,872.4z"/>
<path class="st58" d="M378,872L378,872c-0.2,0.1-0.3,0.2-0.3,0.4C377.8,872.3,377.9,872.2,378,872z"/>
<path class="st58" d="M377.4,872.3c0-0.1,0-0.1,0-0.2c-0.1,0-0.1,0.1-0.2,0.1c-0.2,0.1-0.4,0.3-0.3,0.6
	C377.1,872.7,377.3,872.6,377.4,872.3z"/>
<path class="st58" d="M375.6,870c0-0.1,0-0.2,0-0.3C375.6,869.8,375.6,869.9,375.6,870L375.6,870z"/>
<path class="st58" d="M383.3,874.4c0,0-0.4,0.4-1-0.3l0,0c-0.1,0.1-0.3,0.1-0.5,0c-0.3-0.4-0.6-0.8-1-1.2c-0.2-0.1-0.4-0.2-0.5-0.4
	c-0.2-0.1-0.3-0.3-0.3-0.6l-0.1-0.2c-0.3-0.4-0.2-1,0.1-1.4c0-0.1,0-0.3,0-0.4c0.1-0.4,0.3-0.8,0.6-1.1c-0.5,0.4-1,1-1.2,1.7
	c0,0.4,0,0.7,0,1.2c0,0.1,0,0.1,0,0.2c0.1,0.1,0.2,0.3,0.3,0.4c0.2,0.3,0.4,0.5,0.6,0.8c0.2,0.1,0.4,0.2,0.6,0.3h0.1
	c0.5,0.2,0.9,0.6,1.1,1c0.2,0.2,0.4,0.4,0.7,0.5c0.4-0.3,0.9-0.6,1.3-0.7c0.1-0.1,0.2-0.3,0.3-0.5C384,874,383.6,874.2,383.3,874.4z
	"/>
<path class="st58" d="M383,868.6c-0.5,0.2-0.9,0.5-1.2,0.9c0.2-0.2,0.4-0.3,0.6-0.3l0,0c0.3-0.3,0.7-0.4,1.1-0.2l0.2-0.1
	C383.5,868.8,383.2,868.7,383,868.6z"/>
<path class="st58" d="M383.8,869.7c-0.1-0.1-0.2-0.1-0.4-0.2l-0.1,0.1l-0.4-0.1c-0.2,0-0.4,0.2-0.6,0.3c-0.1,0.1-0.1,0.2-0.2,0.3
	c0.2-0.1,0.4-0.1,0.6,0c0.1,0,0.3,0.1,0.4,0.2c0.3-0.4,0.8-0.6,1.3-0.6c0.8,0.4,0.4,1,0.1,1.4c-0.3,0.6-0.4,1.3-0.3,1.9
	c0,0.1,0,0.1,0,0.2c0.1,0,0.2-0.1,0.3-0.2l0,0c0-0.4,0.1-0.8,0.3-1.1c0-0.5,0.1-1,0.3-1.4c0.1-0.1,0.1-0.2,0.2-0.3
	c-0.1-0.2-0.1-0.4-0.1-0.6c0-0.2-0.1-0.4-0.3-0.5C384.5,869.1,384.1,869.3,383.8,869.7z"/>
<path class="st58" d="M381.3,867.9c0,0.1-0.1,0.3-0.3,0.4l0,0c0.3-0.2,0.5-0.5,0.7-0.8C381.6,867.6,381.5,867.7,381.3,867.9z"/>
<path class="st58" d="M384.9,867.9c-0.4,0.2-0.7,0.4-0.9,0.8l0,0c0.1-0.1,0.3-0.2,0.4-0.3h0.3c0.4-0.2,0.9-0.1,1.1,0.3
	c0,0.1,0.1,0.2,0.1,0.2c0.1,0.3,0.1,0.7,0.1,1c0,0.5-0.2,1-0.5,1.4c-0.3,0.3-0.4,0.6-0.3,1c0,0.2,0,0.3-0.1,0.5c0.1,0.3,0,0.7-0.2,1
	c-0.1,0.2-0.2,0.3-0.3,0.5c0.1-0.1,0.3-0.1,0.4-0.2c0.3-0.2-0.2-0.1,0.5-0.9c0.6-0.8-0.4-1.3,0.6-2.5S386.4,867.6,384.9,867.9z"/>
<path class="st58" d="M376.9,874.5l-0.3-0.2c-0.1,0.1-0.2,0.1-0.3,0.2c-2.9-2-2.7-4.4-2.2-5.8c0-0.2,0.1-0.4,0.1-0.6
	c0.4-0.8,0.9-1.6,1.5-2.3c-0.8,0.8-1.5,1.8-2,2.8c-0.1,0.2-0.1,0.5-0.2,0.7c0,0.5,0,0.9,0,1.4c0.1,1.1,0.5,2.1,1.2,3
	c0.4,0.3,0.8,0.7,1.2,1.1l0.3,0.2c1,0.2,2.6,3.7,3.2,5.6l0.2,0.2c0.7,0.5,1.2,0.8,1.2,0.9c0.1,0.1,0.3-0.4-0.9-1.7
	C379.5,878.3,377.9,874.8,376.9,874.5z"/>
<path class="st58" d="M372.9,864.7c0.9-0.1,1.8,0.3,2.4,1c0.1,0.1,0.3,0.1,0.4,0c0.9-0.9,1.9-1.6,2.9-2.4l-1,1.1
	c0,0.3-0.1,0.7-0.4,0.9h0.3c0.2-0.2,0.4-0.3,0.7-0.1c0.1,0.1,0.2,0.2,0.3,0.3c0.7,0.4,0.5,1.4,0.3,2c-0.2,0.4-0.2,0.8-0.1,1.1l0,0
	c0.3,0.4,0.4,0.9,0.5,1.5c0.1-0.2,0.2-0.4,0.4-0.6c0-0.3-0.1-0.7-0.2-1c-0.2-0.5-0.2-1.1,0-1.5c0.3-0.9,0.5-2.4-1.5-2.2
	c0.3-0.2,0.5-0.5,0.4-0.9l1-1.1c-1,0.7-2,1.5-2.9,2.4c-0.1,0.1-0.3,0.1-0.4,0c-0.6-0.7-1.5-1.1-2.4-1c0,0-1-0.4-3.5,0.7
	c-0.1,0.1-0.1,0.2,0,0.3C372,864.4,372.9,864.7,372.9,864.7z"/>
<path class="st58" d="M380.2,868.8c-0.2,0.1-0.4,0.3-0.5,0.5C379.9,869.1,380,868.9,380.2,868.8z"/>
<path class="st58" d="M382.8,872.9c-0.1,0.1-0.3,0.1-0.4-0.1c0,0,0,0,0,0l-0.1-0.1c-0.2,0.1-0.4,0.1-0.5,0c0.2,0.3,0.3,0.5,0.5,0.7
	l0.2-0.1C382.6,873.2,382.7,873,382.8,872.9z"/>
<path class="st58" d="M381.5,872c0.1,0.1,0.2,0.1,0.3,0.1C381.7,872,381.6,872,381.5,872z"/>
<path class="st58" d="M383.5,866.4c-0.5,0.3-0.9,0.6-1.2,1c0.2-0.2,0.4-0.3,0.6-0.4l-0.2,0.9c0,0-1.5,1.5-2,2.1
	c-0.3,0.4-0.4,0.9-0.3,1.3c0.1,0.4,0.4,0.7,0.7,0.9c-0.4-0.4-0.5-1-0.3-1.6l0.1-0.2c0-0.4,0.1-0.7,0.3-1c0.6-0.6,2-2.1,2-2.1
	L383.5,866.4z"/>
<path class="st58" d="M382,871.3c-0.1-0.1-0.1-0.2-0.2-0.4c0,0.2,0,0.3,0.1,0.5C381.9,871.4,381.9,871.3,382,871.3z"/>
<path class="st58" d="M381.6,870.1c-0.1,0.1-0.2,0.3-0.3,0.4c0,0.6,0.3,1.2,0.9,1.6c0.1-0.1,0.1-0.2,0-0.3c-0.6,0.1-0.9-0.8-0.5-1.4
	c0-0.3,0.1-0.6,0.4-0.9l0,0C381.9,869.7,381.8,869.9,381.6,870.1z"/>
<path class="st58" d="M382.1,870.6c0,0.2,0.1,0.4,0.2,0.5c0.1,0,0.2,0.1,0.3,0.1h0.2c0,0.1,0,0.2,0,0.2c0.1,0.2,0.1,0.5,0,0.7
	c0.1,0,0.2-0.1,0.3-0.1l0.1-0.1c0.1-0.5-0.2-1-0.6-1.2c0,0.1-0.1,0.1-0.1,0.2c0-0.1-0.1-0.2-0.1-0.3
	C382.2,870.6,382.1,870.6,382.1,870.6z"/>
<path class="st58" d="M390.1,873c-1.3-0.1-2.3-1.3-2.2-2.7c0,0,0,0,0-0.1c0-0.1,0.1-0.2,0.1-0.4c-0.3,0.2-0.5,0.4-0.6,0.7
	c-0.1,0.6,0,1.2,0.4,1.7c0.5,0.6,1.1,1,1.8,1.2c1,0.1,0.3-0.2,1,0.1h0.3c0.1,0.2,0.3,0.3,0.5,0.5l1,0.5c3.5,1.5,4.2-0.1,4.6-0.4
	c-0.6,0.5-1.7,0.9-4-0.1C389.5,872.5,391.6,873.2,390.1,873z"/>
<path class="st58" d="M397,874.2L397,874.2L397,874.2L397,874.2z"/>
<path class="st58" d="M398.9,872.4c-0.1,0.1-0.2,0.1-0.3,0.1c-0.4,0-0.7,0.2-0.7,0.6h0.2C398.4,873,398.7,872.8,398.9,872.4z"/>
<path class="st58" d="M392.6,869.1c0.2-0.1,0.4-0.2,0.6-0.5l-0.1-0.5c-0.1,0.3-0.3,0.5-0.6,0.6L392.6,869.1z"/>
<path class="st58" d="M399.6,868.8c-1-0.4-1.7-1.1-2.2-2l-0.5,0.4c0.2,0.5,0.6,0.9,1.1,1.2c0.4,0.4,0.8,0.8,1.3,1.1l0.2,0.1l0.3,0.2
	c0.3,0.3,0.4,0.7,0.3,1.1c0.1,0.6,0.1,1.2,0,1.8l0,0.1c0.3-0.1,0.5-0.4,0.6-0.7C400.8,871.1,400.5,869,399.6,868.8z"/>
<path class="st58" d="M398,873.7c-0.1,0.5-0.4,1-0.6,1.5c0.5-0.4,0.9-0.9,1-1.5C398.3,873.7,398.2,873.7,398,873.7z"/>
<path class="st58" d="M389,869.2c0.7-0.2,1.5-0.2,2.2,0c0.3,0.1,0.6,0.1,0.8,0.1c0.2-0.1,0.3-0.3,0.4-0.5c-0.2,0.1-0.5,0.1-0.8,0.1
	c-1-0.2-2.9-0.5-3.7,0.5l-0.2,0.2C388.2,869.3,388.6,869.2,389,869.2z"/>
<path class="st58" d="M394.9,871.5c-0.1,0-0.3,0.1-0.4,0.1c0.2-0.1,0.3-0.3,0.5-0.5c0-0.2,0-0.4-0.1-0.6c0,0.1-0.1,0.3-0.2,0.3
	c0,0.4-0.1,0.7-0.4,1h0.4C394.8,871.8,394.9,871.6,394.9,871.5z"/>
<path class="st58" d="M395.4,870c0.1,0.3,0.1,0.7,0,1c0.1,0.2,0.1,0.5,0,0.7l0,0c0.3-0.1,0.5-0.3,0.6-0.6c0-0.1,0-0.1,0.1-0.2
	C396,870.5,395.8,870.2,395.4,870z"/>
<path class="st58" d="M394.3,870.5c-0.2,0.1,0.1-0.4-0.5-0.1c0.5,0.1,0,1.2,0,1.2C394.2,871.5,394.4,871,394.3,870.5
	C394.3,870.6,394.3,870.6,394.3,870.5z"/>
<path class="st58" d="M391.9,870.9L391.9,870.9L391.9,870.9L391.9,870.9z"/>
<path class="st58" d="M395.3,872.7c0.2-0.1,0.4-0.3,0.6-0.6l0,0c-1,0.7-2.3,0.8-3.4,0.3c-0.6,0.1-1.1-0.4-1.2-1c0,0,0,0,0,0
	c-0.1-0.3-0.1-0.7,0-1c-0.4-0.2-1,1.2-0.2,2h0.4c0.3,0.2,0.5,0.4,0.8,0.6C393.3,873.4,394.4,873.3,395.3,872.7z"/>
<path class="st58" d="M394.8,869.9c0.2,0.2,0.3,0.3,0.5,0.5c-0.1-0.5-0.4-0.9-0.8-1C394.6,869.6,394.7,869.7,394.8,869.9z"/>
<path class="st58" d="M399.1,870.7c-0.6-1.4-0.8-1.2-1.1-1.3c-0.3-0.1,0.3-0.4-1.6-0.5c-0.1-0.4-0.3-0.8-0.6-1.1l-0.8,0.5
	c0,0.1,0,0.1,0.1,0.2l0.2-0.1c0.3,0.3,0.5,0.6,0.6,1l0.1,0.1c1.7,0.2,1.2,0.4,1.5,0.5s0.5-0.1,1.1,1.3c0.1,0.2,0.1,0.4,0.2,0.6
	C399.1,871.7,399.4,871.5,399.1,870.7z"/>
<path class="st58" d="M397.4,872.5h-0.2c-0.4,0.1-0.4,0.9-0.4,1.2c0.2-0.1,0.4-0.3,0.6-0.4C397.3,873,397.3,872.7,397.4,872.5z"/>
<path class="st58" d="M394.4,870.4c0.1,0.1,0.1,0.1,0.2,0.2c0.1-0.3,0.1-0.7-0.4-0.6C394.3,870,394.4,870.2,394.4,870.4z"/>
<path class="st58" d="M389.5,870c0.6-0.1,1.3-0.1,1.9,0c0.1-0.1,0.2-0.2,0.4-0.2c0.1,0.2,0.4,0.4,0.7,0.4c-0.1,0-0.2,0-0.3,0.1
	c0.2,0.1,0.3,0.3,0.4,0.5c0.7-0.2,0.7,0.2,0.7,0.2c0.7-0.4,0.3,0.2,0.6,0s-0.1-0.6-0.1-0.6h0.1c0-0.1-0.2-0.2-0.7-0.1
	c0,0-0.3-1.3-3-0.9c-0.6,0.1-1.1,0.4-1.5,0.9C388.8,870.1,389.1,870,389.5,870z"/>
<path class="st58" d="M387.3,877.1c0.9,0.6,1.9,0.9,3,1.1c2.3,0.5,4.5,1.6,6.3,3.1c0.1,0.1,0.1,0.4,0.2,0.6c0.1,0.1,0.3,0.2,0.4,0.3
	v1.3c-0.2-0.7-0.5-1.3-1-1.8c-0.7-0.6-1.2-1.9-6.7-3.4C388.7,878.2,387.9,877.7,387.3,877.1z"/>
<path class="st58" d="M393.3,890.8c0,0,1.6,3,4.4,2c0,0,0.1-4.2,0-5.3c0,0,0.3,0,0.3-0.5s0.4,7.3,0,8.5c-0.2,0.2-0.4,0.4-0.4,0.7
	c0,0,0.2-0.7-0.3-0.5c-1.2,0-2.4-0.4-3.3-1.2c0,0,3.2,1.1,3.6,0.5s-0.1-1.1,0.3-1.6s-0.1-0.2-0.6,0S394.6,893.9,393.3,890.8z"/>
<path class="st58" d="M397.6,897.1c-1-0.2-2-0.5-2.9-0.8c0.8,0.6,1.7,0.9,2.7,1.1C398.6,897.3,397.6,897.1,397.6,897.1z"/>
<path class="st58" d="M410.7,896.8l-0.4,0.3c0.1,0.3,0.1,0.6,0.1,0.9c0.2,0.2,0.4,0.3,0.6,0.5c0,0.1-0.2,0.2-0.3,0.1s0.5,0.6-0.1,1
	c0,0.3,0.1,0.6,0.2,0.9c0.2,0.3,0.3,0.7,0,0.8h-0.1c0.2,0,0.4,0,0.8,0.1c0.1,0,0.3,0,0.4,0c0-0.1,0-0.2,0-0.3c-0.3,0-0.7,0-0.7,0
	c-0.2,0-0.3-0.3,0-0.4s0.2-0.5,0-0.8c-0.1-0.3-0.2-0.6-0.2-0.9c0.6-0.3,0-1.1,0.1-1c0.1,0.1,0.3,0,0.3-0.1c-0.2-0.2-0.4-0.4-0.6-0.5
	c0-0.2,0-0.4,0-0.6C410.9,896.8,410.8,896.8,410.7,896.8z"/>
<path class="st58" d="M412.6,900c0.1,0.4,0.1,0.8,0,1.2c-0.1,0-0.1,0.1-0.2,0.1c0,0.1,0,0.2,0,0.2c0.1,0,0.2,0,0.2,0
	c0.1,0,0.3-0.1,0.3-0.3l0.3,0.1l0,0c0-0.1,0-0.2,0-0.3c-0.1,0-0.2,0-0.3,0c0,0,0-0.4,0.1-0.8c-0.1-0.1-0.2-0.2-0.3-0.3
	C412.7,899.9,412.7,900,412.6,900z"/>
<path class="st58" d="M405.6,897.7c-0.1-0.1-0.3-0.2-0.4-0.4c0,0-0.1,0-0.1,0c-0.1,0.5,0.3,3,1.7,3.8h0.3c-0.1-0.2-0.3-0.5-0.4-0.7
	C406,899.6,405.6,898.7,405.6,897.7z"/>
<path class="st58" d="M413.1,898.4c0.3-0.4,0.2-0.9-0.2-1.1c0,0,0,0,0,0c0,0,0.3-0.6-0.9-1.2l-1.5-0.7c-0.3,0.2-0.6,0.4-0.9,0.6
	c-0.2,0-0.1,0.1-0.1,0.2l0,0l0.4-0.3l1.1,0.5l0.3-0.2c0.1,0.1,0.2,0.2,0.4,0.2c0.3,0.1,0.5,0.4,0.5,0.7c0,0,0,0,0,0.1
	c0.1,0.1,0.1,0.2,0.2,0.3l0,0l0,0c0,0.1,0,0.2,0,0.3c0.4,0.3,0.4,0.8,0.2,1.1c0,0,0,0,0,0c0.3,0.1,0.5,0.3,0.7,0.5
	c0-0.1,0.1-0.1,0-0.2c0.4,0.3,0.7,0.9,0.6,1.4c0,0.1-0.1,0.2-0.2,0.2c0,0.2,0,0.3,0,0.4c0.3,0,0.6,0,0.6-0.3
	C414.1,900.5,414.5,899,413.1,898.4z"/>
<path class="st58" d="M405.6,897.2c0-0.1,0-0.1,0-0.2c0.1-0.3,0.2-0.2,0.2-0.2c0.1,0.2,0.2,0.3,0.4,0.4h0.1c0.1,0,0.1-0.1,0.1-0.2
	c0.3-0.1,0.7-0.1,1,0c0,0,0,0.1,0,0.1c0.3-0.2,0.6-0.3,0.9-0.3c0.1-0.1,0.1-0.1,0.2-0.2c0.2-0.1,0.4-0.1,0.6-0.1l0.3-0.2
	c-0.5-0.1-1.1,0-1.5,0.3h-1.8c-0.3,0-0.5-0.1-0.8-0.2c-0.1,0.2-0.1,0.5-0.2,0.7C405.3,897.1,405.4,897.1,405.6,897.2z"/>
<path class="st58" d="M409.9,901.5L409.9,901.5z"/>
<path class="st58" d="M409.6,901.5c-0.1,0-0.2,0-0.2-0.1c-0.1-0.1-0.1-0.1-0.1-0.2c-0.3,0-0.6-0.1-0.9-0.3c0-0.1,0-0.2,0.1-0.3
	c-0.2-0.1-0.3-0.5-0.3-0.3c0,0.3-0.1,0.6-0.3,0.8C408.5,901.3,409.1,901.4,409.6,901.5z"/>
<path class="st58" d="M408,897.2c-0.2,0.1-0.4,0.4-0.3,0.6c0.3,0,0.5,0.2,0.4,0.8c-0.1,0.5,0.1,1,0.4,1.3c0.1,0.1,0.2,0.2,0.2,0.3
	c0.1-0.1,0.1-0.3,0.1-0.4c0-0.3,0.2,0.4,0.4,0.3s0-0.6-0.1-0.7c-0.3-0.4-0.5-0.9-0.4-1.3c0.1-0.6-0.1-0.8-0.4-0.8c0,0,0-0.1,0-0.2
	C408.2,897.1,408.1,897.1,408,897.2z"/>
<path class="st58" d="M380,895.2c0.1,0.3,0.3,0.2,0.3,0c0-0.1,0.1-0.3,0.2-0.4c0-0.1,0-0.1,0-0.2l0,0c-0.2-0.1-0.4-0.3-0.4-0.5
	c0-0.1,0-0.3,0.1-0.4l-0.1,0.1c-0.3,0.2-0.5,0.5-0.5,0.9C379.6,894.9,379.8,895.1,380,895.2z"/>
<path class="st58" d="M376,882.2c0.2,1.1,0.8,2,1.7,2.7c1.4,1.2,2.2,1,2.6,2.4c-0.1-0.7-0.4-1.3-0.8-1.9h-0.1
	C378.3,885,376.2,883.1,376,882.2z"/>
<path class="st58" d="M376.4,896.2c-0.1-0.2-0.4,0-0.4,0l0,0v0.1c0.1,0.2,0.1,0.4,0,0.6c0,0.3,0.1,0.6,0.3,0.8l0.1,0.1v-0.2
	C376.4,897.1,376.4,896.7,376.4,896.2z"/>
<path class="st58" d="M377.7,895.3c0.3,0,0.3-0.3,0.5,0l0,0c0.1-0.3,0.3,0,0.5,0l0,0V895c0,0,0.1,0,0.1-0.1l0,0
	c-0.3-0.5-0.2-0.2-0.6-0.1c-0.4,0-0.1,0-0.1-0.6c0-0.1,0-0.2,0-0.3l-0.4,0.3c0,0-0.1,0-0.2,0.6C377.5,895.3,377.3,895.4,377.7,895.3
	z"/>
<path class="st58" d="M379.3,882.6c1.2,1,2.8,1.2,3.5,1.6c0.3,0.2,0.4-0.2,0.5-0.6c-0.8-0.4-2.6-0.7-3.7-1.9s-2.4-4-2.9-4.5
	c-1-1.1-1.9-2.4-2.7-3.7c0.4,1,0.9,2,1.4,3C376,877.7,378.3,880.5,379.3,882.6z"/>
<path class="st58" d="M379.1,898.1c0-0.1,0-0.3,0-0.4c-0.4,0.1-0.9,0.2-1.1,0.3c-0.3,0-0.3-0.2-0.3-0.2c0.1-0.4,0.2-0.9,0.1-1.4
	c0.1-0.1,0.1-0.2,0-0.3c0,0,0,0,0,0c0-0.1,0-0.2,0-0.3c-0.1-0.1-0.2-0.1-0.3,0.1c0,0.2-0.1,0.3-0.3,0.4c0,0.1,0,0.2,0,0.4
	c0.1,0.1,0.1,0.2,0,0.3c0,0,0,0,0,0c0,0.3,0,0.7-0.1,1l0.1,0.1C377.9,898.3,378.5,898.3,379.1,898.1z"/>
<path class="st58" d="M378.5,887l0.4,0.3c0.4,0.2,0.8,0.6,1,1.1l0,0c0-0.7-0.3-1.4-0.9-1.8h-0.1c-0.6-0.2-1.2-0.6-1.5-1.1l-0.1-0.1
	c-0.3-0.2-0.5-0.4-0.7-0.7C376.9,885.6,377.6,886.4,378.5,887z"/>
<path class="st58" d="M378.7,895.5C378.7,895.5,378.7,895.4,378.7,895.5L378.7,895.5z"/>
<path class="st58" d="M379.7,892.5c0.3,0,0.5-0.3,0.6-0.6l0,0c-0.7,0.3-1.4,0.7-2.1,1.1c-0.5,0.2-0.7-0.1-0.8,0.7
	c0.1,0,0.2-0.1,0.3-0.1C378.3,893.1,379,892.8,379.7,892.5z"/>
<path class="st58" d="M402,901.1L402,901.1z"/>
<path class="st58" d="M386.6,889c0-0.1,0-0.1,0-0.2c-0.2,0.1-0.5,0.1-0.7,0c-0.1,0.1-0.1,0.2-0.1,0.3c-0.1,0-0.3-0.1-0.4-0.1
	l0.2,0.4C385.9,889.5,386.3,889.3,386.6,889z"/>
<path class="st58" d="M385.5,887.7c0-0.1,0.1-0.1,0.2-0.2c-0.1-0.3-0.3-0.5-0.4-0.8c-0.1,0-0.1,0-0.2,0.1c-0.2,0.6,0.1,1.2,0.6,1.5
	c0-0.1,0-0.1,0.1-0.2C385.5,888.1,385.4,887.9,385.5,887.7C385.5,887.7,385.5,887.7,385.5,887.7z"/>
<path class="st58" d="M385.5,888.5c-0.2-0.2-0.3-0.3-0.4-0.5c-0.1,0-0.1,0.1-0.2,0.2l0.2,0.5C385.3,888.7,385.4,888.7,385.5,888.5z"
	/>
<path class="st58" d="M380.1,897.5c0,0,0.1,0.1,0.1,0.1c0-0.1,0.1-0.2,0.1-0.3v-1.2c0,0,0-0.1,0-0.1c-0.1-0.1-0.3-0.1-0.4,0
	c0,0-0.1,0.1-0.1,0.2v1.9c0.2,0,0.4,0.1,0.7,0.2c0-0.1,0-0.2,0-0.3C380.1,897.9,379.9,897.4,380.1,897.5z"/>
<path class="st58" d="M389.1,892.4c0,0-1.5-8.4-3.1-11c0,0,0.1-3.8-0.9-5.4c0,0-0.2-1.2,0.2-0.8c-0.1-0.2-0.2-0.4-0.2-0.6
	c-0.6,0.5-1.3,0.8-2,0.9c-0.6-0.2-1.2-0.4-1.8-0.8c0.5,0.4,0.9,0.8,1.3,1.3c0.7-0.1,1.4-0.4,1.9-0.9c0,0.2,0.1,0.4,0.2,0.6
	c-0.3-0.4-0.2,0.8-0.2,0.8c1,1.6,0.9,5.4,0.9,5.4c1.3,2.2,2.6,8.2,3,10.3c0.5,0.4,1,1.3,1.9,3.7l0.2,0.4c0.4,0.4,2,2.3,2.1,6.3
	l0.4-0.1c0-0.2,0-0.4-0.1-0.6C392.4,898.5,391.1,895.2,389.1,892.4z"/>
<path class="st58" d="M384.8,886.3c-0.3-0.2-0.5,0-0.5,0.4c0.1,0.2,0.1,0.4,0.2,0.6c0.1-0.1,0.2,0,0.3,0.1
	C384.8,887.1,384.8,886.7,384.8,886.3z"/>
<path class="st58" d="M383.1,889.7c-0.1-1.3,0-2.6,0.4-3.8c0-0.2,0.1-0.4,0.2-0.5c0.1-0.3,0.2-0.6,0.4-0.9c-1,0.1-1.9,4.9-1.5,5.8
	s0.7,5.4,0.7,6.3c0,0.5-0.1,1-0.4,1.3c0.1,0,0.1-0.1,0.2-0.1c0.5-0.4,0.8-1.1,0.7-1.8C383.8,895.1,383.5,890.6,383.1,889.7z"/>
<path class="st58" d="M384.4,885.1c0.3,0.2,0.6,0.4,0.8,0.7c0.2,0.1,0.4,0.2,0.5,0.4c0.4,0.4,0.6,1,0.5,1.5c0,0.2,0,0.4,0,0.6
	c-0.1,0-0.2,0.1-0.2,0.2l0.3,0.1c0.1-0.2,0.2-0.4,0.3-0.6c-0.2-2.5-1.3-2.9-2.2-3.3c-0.2,0.1-0.3,0.3-0.3,0.5
	C384.2,885.1,384.3,885.1,384.4,885.1z"/>
<path class="st59" d="M432.8,833.2c-17.8-6.2-36.9-7.4-55.3-3.6c-3,0.6-6,1.4-8.9,2.3l-2.1,0.7l-1,0.3c-0.4,0.1-0.7,0.2-1.1,0.4
	c-0.5,1.4-1,2.8-1.5,4.3c-5.6,17.9-6.4,36.9-2.5,55.2c0.7,3,1.4,5.9,2.3,8.8c0.2,0.7,0.4,1.4,0.7,2.1l0.2,0.5
	c0.1,0.1,0.2,0.1,0.4,0.2l1.2,0.4c1.4,0.5,2.9,1,4.3,1.4c18.1,5.2,37.2,5.5,55.4,0.8c2.9-0.8,5.9-1.7,8.7-2.7
	c0.2-0.3,0.3-0.6,0.3-0.9l0.3-1c0.2-0.8,0.5-1.5,0.7-2.3c0.4-1.4,0.8-2.9,1.2-4.4c3-12.3,3.8-25,2.4-37.5
	C437.7,849.6,435.8,841.3,432.8,833.2c0,0.2-0.1,0.4-0.1,0.6c0,0.4,0,0.7,0.1,1c6.5,17.7,8,36.8,4.2,55.3c-0.6,3-1.4,6-2.3,9
	c-0.2,0.7-0.4,1.4-0.7,2.1l-0.3,1c-0.3,0.3-0.8,0.5-1.2,0.6c-1.4,0.5-2.9,1-4.3,1.4c-18.1,5.3-37.2,5.7-55.4,1
	c-2.9-0.8-5.9-1.6-8.7-2.7c-0.4-0.2-0.6-0.6-0.6-1l-0.3-1c-0.2-0.8-0.5-1.5-0.7-2.3c-0.4-1.5-0.8-3-1.2-4.5c-3-12.2-3.7-24.8-2-37.3
	c0.8-6.1,2.2-12.1,4.1-18c0.2-0.7,0.5-1.4,0.7-2.1l0.4-1c0-0.2,0.1-0.4,0.3-0.5l0.7-0.2c1.4-0.5,2.9-0.9,4.4-1.4
	c2.9-0.9,5.9-1.6,9-2.2c12.4-2.4,25.1-2.6,37.5-0.5c5.7,1,11.3,2.4,16.7,4.3C432.9,834.9,433.1,833.3,432.8,833.2z"/>
<path class="st60" d="M320.6,1466.2h160.1c6.4,0,11.5,5.2,11.5,11.5v233.4c0,6.4-5.2,11.5-11.5,11.5H320.6
	c-6.4,0-11.5-5.2-11.5-11.5v-233.4C309,1471.3,314.2,1466.2,320.6,1466.2z"/>
<path class="st61" d="M325.4,1466.2h151.4c8.8,0,15.9,7.1,15.9,15.9v224.7c0,8.8-7.1,15.9-15.9,15.9H325.4
	c-8.8,0-15.9-7.1-15.9-15.9v-224.7C309.5,1473.3,316.7,1466.2,325.4,1466.2z"/>
<rect x="322.8" y="1479.9" class="st62" width="155.7" height="225.2"/>
<rect x="331.2" y="1489.1" class="st63" width="141.3" height="14.9"/>
<rect x="339.2" y="1550.1" class="st63" width="9.1" height="15.2"/>
<rect x="352.6" y="1540" class="st63" width="9.1" height="25.3"/>
<rect x="379.1" y="1533.7" class="st63" width="9.1" height="31.6"/>
<rect x="336.3" y="1587.1" class="st64" width="47.4" height="9.1"/>
<rect x="411.2" y="1587.1" class="st65" width="46.7" height="5.2"/>
<rect x="411.2" y="1591.6" class="st66" width="39.2" height="5.2"/>
<rect x="411.2" y="1607.4" class="st66" width="29.5" height="5.2"/>
<rect x="411.2" y="1621.6" class="st66" width="47.5" height="5.2"/>
<rect x="411.2" y="1602.9" class="st65" width="36.7" height="5.2"/>
<rect x="411.2" y="1618.1" class="st65" width="54" height="5.2"/>
<rect x="336.3" y="1602.9" class="st64" width="37.3" height="9.1"/>
<rect x="336.3" y="1618.7" class="st64" width="53.9" height="9.1"/>
<rect x="365.9" y="1543.6" class="st63" width="9.1" height="21.7"/>
<rect x="339.2" y="1521.1" class="st67" width="9.1" height="29.1"/>
<rect x="352.6" y="1521.1" class="st67" width="9.1" height="18.9"/>
<rect x="379.1" y="1521.1" class="st67" width="9.1" height="12.6"/>
<rect x="365.9" y="1521.1" class="st67" width="9.1" height="22.5"/>
<line class="st68" x1="332.4" y1="1653" x2="397.9" y2="1653"/>
<line class="st68" x1="332.4" y1="1662.5" x2="397.9" y2="1662.5"/>
<line class="st68" x1="332.4" y1="1671.9" x2="397.9" y2="1671.9"/>
<line class="st68" x1="332.4" y1="1681.4" x2="397.9" y2="1681.4"/>
<line class="st68" x1="332.4" y1="1690.9" x2="397.9" y2="1690.9"/>
<line class="st68" x1="404.9" y1="1653" x2="470.5" y2="1653"/>
<line class="st68" x1="404.9" y1="1662.5" x2="470.5" y2="1662.5"/>
<line class="st68" x1="404.9" y1="1671.9" x2="470.5" y2="1671.9"/>
<line class="st68" x1="404.9" y1="1681.4" x2="470.5" y2="1681.4"/>
<line class="st68" x1="404.9" y1="1690.9" x2="470.5" y2="1690.9"/>
<polyline class="st69" points="333.7,1584.7 333.7,1632.7 391.9,1632.7 "/>
<rect x="342.8" y="1629.7" class="st69" width="0.9" height="2.9"/>
<rect x="352.1" y="1629.7" class="st69" width="0.9" height="2.9"/>
<rect x="361.4" y="1629.7" class="st69" width="0.9" height="2.9"/>
<rect x="370.7" y="1629.7" class="st69" width="0.9" height="2.9"/>
<rect x="380" y="1629.7" class="st69" width="0.9" height="2.9"/>
<rect x="389.4" y="1629.7" class="st69" width="0.9" height="2.9"/>
<polyline class="st69" points="408.6,1584.7 408.6,1632.7 466.8,1632.7 "/>
<rect x="417.7" y="1629.7" class="st69" width="0.9" height="2.9"/>
<rect x="427" y="1629.7" class="st69" width="0.9" height="2.9"/>
<rect x="436.3" y="1629.7" class="st69" width="0.9" height="2.9"/>
<rect x="445.6" y="1629.7" class="st69" width="0.9" height="2.9"/>
<rect x="455" y="1629.7" class="st69" width="0.9" height="2.9"/>
<rect x="464.3" y="1629.7" class="st69" width="0.9" height="2.9"/>
<path class="st63" d="M434.5,1519.3c-13.8,0-25,11.2-25,25c0,13.8,11.2,25,25,25c6.8,0,13.3-2.8,18.1-7.7l-18.1-17.3L434.5,1519.3
	L434.5,1519.3z"/>
<path class="st70" d="M453.2,1527.7c-4.7-5.3-11.5-8.4-18.6-8.4v25L453.2,1527.7z"/>
<path class="st67" d="M453.2,1527.7l-18.6,16.6l18.1,17.3C461.6,1552.2,461.9,1537.4,453.2,1527.7z"/>
<path class="st4" d="M399.3,1212.8h1.5c7.1,0,12.9,5.8,12.9,12.8v29.5c0,7.1-5.8,12.8-12.9,12.8h-1.5c-7.1,0-12.9-5.8-12.9-12.8
	v-29.5C386.4,1218.6,392.2,1212.8,399.3,1212.8z"/>
<path class="st4" d="M399.3,1268h1.5c7.1,0,12.9,5.8,12.9,12.8v29.5c0,7.1-5.8,12.8-12.9,12.8h-1.5c-7.1,0-12.9-5.8-12.9-12.8v-29.5
	C386.4,1273.7,392.2,1268,399.3,1268z"/>
<path class="st4" d="M399.3,1323.2h1.5c7.1,0,12.9,5.8,12.9,12.8v29.5c0,7.1-5.8,12.8-12.9,12.8h-1.5c-7.1,0-12.9-5.8-12.9-12.8
	V1336C386.4,1328.9,392.2,1323.2,399.3,1323.2z"/>
<polyline class="st1" points="437.5,1378.3 512,1446.8 287.1,1446.8 362.5,1378.3 "/>
<polygon class="st2" points="501.6,1446.8 297.6,1446.8 373,1378.3 427.1,1378.3 "/>
<polygon class="st3" points="489.5,1446.8 309.7,1446.8 385,1378.3 415,1378.3 "/>
<text transform="matrix(1 0 0 1 414.54 1553.99)" class="st21 st22 st71">%</text>
<text transform="matrix(1 0 0 1 446.81 1547.87)" class="st21 st22 st72">%</text>
<text transform="matrix(1 0 0 1 436.8 1533.7)" class="st21 st22 st72">%</text>
<text transform="matrix(1 0 0 1 380.97 1532.33)" class="st21 st22 st73">%</text>
<text transform="matrix(1 0 0 1 367.35 1542.78)" class="st21 st22 st73">%</text>
<text transform="matrix(1 0 0 1 354.9 1538.11)" class="st21 st22 st73">%</text>
<text transform="matrix(1 0 0 1 341.1 1547.87)" class="st21 st22 st73">%</text>
<text transform="matrix(1 0 0 1 384.94 1594.41)" class="st21 st22 st73">%</text>
<text transform="matrix(1 0 0 1 374.91 1609.98)" class="st21 st22 st73">%</text>
<text transform="matrix(1 0 0 1 391.86 1626.03)" class="st21 st22 st73">%</text>
<path class="st74" d="M382.6,1780.6c-9.3,0-16.8-7.5-16.8-16.8s7.5-16.8,16.8-16.8s16.8,7.5,16.8,16.8l0,0
	C399.3,1773.1,391.8,1780.6,382.6,1780.6z M382.6,1748.9c-8.3,0-15,6.7-15,15s6.7,15,15,15s15-6.7,15-15l0,0
	C397.6,1755.6,390.9,1748.9,382.6,1748.9L382.6,1748.9z"/>
<path class="st74" d="M382.6,1780.3c-2.4,0-4.6-1.8-6.2-5c-3.2-7.3-3.2-15.7,0-23c1.6-3.2,3.8-5,6.2-5s4.6,1.8,6.2,5
	c3.2,7.3,3.2,15.7,0,23C387.2,1778.6,385,1780.3,382.6,1780.3z M382.6,1748.6c-1.9,0-3.7,1.5-5.1,4.3c-3,7-3,14.9,0,21.9
	c1.4,2.8,3.2,4.3,5.1,4.3s3.7-1.5,5.1-4.3c3-7,3-14.9,0-21.9C386.3,1750.1,384.5,1748.6,382.6,1748.6z"/>
<path class="st74" d="M392.5,1781.2c-1.7,0-3.4-0.3-5-0.9c-9.9-3.9-17.7-11.7-21.6-21.6c-1.5-4.5-1.1-8.2,1.1-10.4s5.9-2.6,10.4-1.1
	c4.9,1.8,9.4,4.8,13.1,8.6l0,0c3.8,3.7,6.7,8.1,8.6,13.1c1.5,4.5,1.1,8.2-1.1,10.4C396.4,1780.6,394.5,1781.3,392.5,1781.2z
	 M372.4,1747.6c-1.7-0.1-3.3,0.5-4.5,1.6c-1.8,1.8-2.1,5.1-0.8,9.1c3.8,9.5,11.3,17.1,20.8,20.8c4,1.3,7.3,1.1,9.1-0.8
	s2.1-5.1,0.8-9.1c-3.8-9.5-11.3-17.1-20.8-20.8C375.5,1747.9,373.9,1747.6,372.4,1747.6L372.4,1747.6z"/>
<circle class="st74" cx="372.1" cy="1768.2" r="2"/>
<rect x="382.6" y="1749" class="st74" width="1" height="31"/>
<rect x="370.6" y="1756" class="st74" width="27" height="1"/>
<polygon class="st74" points="396.6,1773 369.5,1773 369.5,1773 396.6,1773 "/>
<rect x="367.6" y="1764" class="st74" width="31" height="1"/>
<path class="st75" d="M465.7,1743.8h-16c-2.2,0-4,1.8-4,4v32c0,2.2,1.8,4,4,4h24c2.2,0,4.4-1.8,4.4-4v-24L465.7,1743.8z
	 M448.5,1759.8c-0.6-0.6-0.6-1.6,0-2.2c0,0,0,0,0,0l3.6-3.6c0.6-0.6,1.6-0.6,2.2,0c0,0,0,0,0,0l2.8,2.8l-5.8,5.8L448.5,1759.8z
	 M476.1,1781.8h-5.9l-17.2-17.3l5.9-5.9l17.2,17.1L476.1,1781.8L476.1,1781.8z"/>
<text transform="matrix(1 0 0 1 503.19 1783.79)" class="st21 st22 st71">... and more</text>
<path class="st7" d="M367.4,1949.6c-0.9,11-1,20.7-4.2,28.5c0,0-2.6,26.4-2.3,72.4h-60.3c0,0,6.1-12.6,7.3-18.1s18.5-44.3,7.1-63.1
	s-21.5-24.3-21.5-24.3s-12.9-11.1-21.8-30.8c-3.9-8.6-11.3-15.7-18.3-21c0,0-14.3-12.8-16.5-17.4s-14.5-31.4-18.2-33.2
	s-3.1-11.1,2.5-10.2s6.8,0.9,10.5,5.2c6.2,7.2,11.7,15.1,16.3,23.4c6.2,11.1,21.2,19.7,21.2,19.7s40.3,13.2,43.7,34.8
	c0,0,0-9.8-9.2-21.2c0,0-11.5-20.3-11.6-24s-1.9-16,10.4-9.2c0,0,3.1-1.2,17.8,23.1c0,0,10.8,17.8,20.8,21.6
	S368.4,1937.5,367.4,1949.6z"/>
<path class="st7" d="M284.7,1885.2c0,0-25-29.2-29.2-39.2s-5.6-18.7-12-20.4s-7.8,2-7.6,6.7c0.3,3.2,1.1,6.4,2.3,9.5
	c0,0,13.3,17.4,13.4,20.1S260.6,1873.2,284.7,1885.2z"/>
<path class="st7" d="M298.4,1891c0,0-9.1-2.3-20.8-17.5S263,1853,263,1853s0.7-15.1-2.7-21.3c0,0-0.5-4.8,7-2.6
	c7.6,2.3,9.3,20.1,9.3,20.1S280,1872.9,298.4,1891z"/>
<path class="st7" d="M434.4,1949.6c0.9,11,1,20.7,4.2,28.5c0,0,2.6,26.4,2.3,72.4h60.3c0,0-6.1-12.6-7.3-18.1s-18.5-44.3-7.1-63.1
	s21.5-24.3,21.5-24.3s12.9-11.1,21.9-30.8c3.9-8.6,11.3-15.7,18.3-21c0,0,14.3-12.8,16.5-17.4c2.2-4.6,14.5-31.4,18.2-33.2
	c3.7-1.8,3.1-11.1-2.5-10.2s-6.8,0.9-10.5,5.2c-6.2,7.2-11.7,15.1-16.3,23.4c-6.2,11.1-21.2,19.7-21.2,19.7s-40.3,13.2-43.7,34.8
	c0,0,0-9.8,9.2-21.2c0,0,11.5-20.3,11.6-24s1.9-16-10.4-9.2c0,0-3.1-1.2-17.8,23.1c0,0-10.8,17.8-20.8,21.6
	S433.4,1937.5,434.4,1949.6z"/>
<path class="st7" d="M517.1,1885.2c0,0,25-29.2,29.2-39.2s5.6-18.7,12-20.4c6.4-1.7,7.8,2,7.6,6.7c-0.3,3.2-1.1,6.4-2.3,9.5
	c0,0-13.3,17.4-13.4,20.1S541.2,1873.2,517.1,1885.2z"/>
<path class="st7" d="M503.4,1891c0,0,9.1-2.3,20.8-17.5c11.7-15.3,14.5-20.5,14.5-20.5s-0.7-15.1,2.7-21.3c0,0,0.6-4.8-7-2.6
	c-7.5,2.3-9.3,20.1-9.3,20.1S521.8,1872.9,503.4,1891z"/>
<g class="st76">
	<path class="st21" d="M320.1,2095.4h-10.5v-11c0-1.4-0.2-2.3-0.6-2.7c-0.4-0.4-1.3-0.6-2.7-0.6h-5.8c-1.4,0-2.3,0.2-2.8,0.6
		c-0.5,0.4-0.7,1.3-0.7,2.7v48.9c0,1.4,0.2,2.3,0.7,2.7c0.5,0.4,1.4,0.6,2.8,0.6h5.8c1.4,0,2.3-0.2,2.7-0.6c0.4-0.4,0.6-1.3,0.6-2.7
		v-10.9h10.5v12.1c0,6.8-3.6,10.2-10.8,10.2h-12.1c-7.1,0-10.7-3.4-10.7-10.2v-51.6c0-6.7,3.6-10.1,10.7-10.1h12.1
		c7.2,0,10.8,3.4,10.8,10.1V2095.4z"/>
	<path class="st21" d="M339.6,2144.7h-10.3v-76.7h10.3V2144.7z"/>
	<path class="st21" d="M349.5,2078.1v-10.2h10.8v10.2H349.5z M360,2144.7h-10.3v-55.9H360V2144.7z"/>
	<path class="st21" d="M380.6,2088.8h11.2c7.2,0,10.8,3.4,10.8,10.2v21H380v13.3c0,1.3,0.2,2.2,0.7,2.6c0.5,0.5,1.4,0.7,2.8,0.7h5.3
		c1.4,0,2.3-0.2,2.8-0.7c0.5-0.5,0.7-1.4,0.7-2.8v-4.6h10.1v6.1c0,6.7-3.6,10.1-10.7,10.1h-11c-7.1,0-10.7-3.4-10.7-10.1V2099
		C369.9,2092.2,373.4,2088.8,380.6,2088.8z M380,2112.4h12.4v-12.1c0-1.3-0.2-2.2-0.6-2.6c-0.4-0.5-1.3-0.7-2.7-0.7h-5.6
		c-1.4,0-2.3,0.2-2.8,0.7c-0.5,0.5-0.7,1.3-0.7,2.6V2112.4z"/>
	<path class="st21" d="M428.8,2088.8h4c7,0,10.4,3.4,10.4,10.2v45.7h-10.3v-44.2c0-1.4-0.2-2.3-0.7-2.7c-0.5-0.4-1.4-0.6-2.8-0.6h-4
		c-1.4,0-2.3,0.3-2.9,0.9c-0.6,0.6-0.9,1.6-0.9,3.1v43.5h-10.3v-55.9h10.3v4.5C422.7,2090.3,425.1,2088.8,428.8,2088.8z"/>
	<path class="st21" d="M472.1,2097.2h-7.7v35.4c0,1.4,0.2,2.3,0.6,2.7c0.4,0.4,1.3,0.6,2.7,0.6h4.4v8.8h-7.3
		c-7.2,0-10.8-3.4-10.8-10.1v-37.5h-5.3v-8.4h5.3v-9.5h10.4v9.5h7.7V2097.2z"/>
	<path class="st21" d="M488.7,2088.8H500c7.2,0,10.8,3.4,10.8,10.2v21h-22.6v13.3c0,1.3,0.2,2.2,0.7,2.6c0.5,0.5,1.4,0.7,2.8,0.7
		h5.3c1.4,0,2.3-0.2,2.8-0.7c0.5-0.5,0.7-1.4,0.7-2.8v-4.6h10.1v6.1c0,6.7-3.6,10.1-10.7,10.1h-11c-7.1,0-10.7-3.4-10.7-10.1V2099
		C478.1,2092.2,481.6,2088.8,488.7,2088.8z M488.1,2112.4h12.4v-12.1c0-1.3-0.2-2.2-0.6-2.6c-0.4-0.5-1.3-0.7-2.7-0.7h-5.6
		c-1.4,0-2.3,0.2-2.8,0.7c-0.5,0.5-0.7,1.3-0.7,2.6V2112.4z"/>
</g>
<polygon class="st5" points="398.1,1051.5 398.1,1156 500.1,1078 500.1,1024 "/>
<polygon class="st5" points="397.1,1051.5 397.1,1156 295.1,1078 295.1,1024 "/>
<polygon class="st5" points="338.3,1036.2 397.8,1114.7 457.1,1036.3 397.8,991.5 "/>
<path class="st77" d="M300.8,1747.5h21.1c0.9,0,1.6,0.7,1.6,1.6v29c0,0.9-0.7,1.6-1.6,1.6h-21.1c-0.9,0-1.6-0.7-1.6-1.6v-29
	C299.2,1748.2,299.9,1747.5,300.8,1747.5z"/>
<polygon class="st77" points="306.7,1783.9 303.9,1783.9 282.3,1780.2 282.3,1747.5 303.9,1743.8 306.7,1743.8 "/>
<polygon class="st78" points="288.9,1756.6 292,1756.4 294,1761.8 296.3,1756.1 299.5,1755.9 295.8,1763.5 299.6,1771.3 
	296.3,1771.1 293.9,1765.3 291.7,1770.8 288.6,1770.7 292.2,1763.7 "/>
<path class="st78" d="M319.1,1749h-12.4v2.8h3.7v3.2h-3.7v1.9h3.7v3.3h-3.7v1.9h3.7v3.3h-3.7v1.9h3.7v3.3h-3.7v1.9h3.7v3.3h-3.7v2.8
	h15.4V1749H319.1L319.1,1749z M312.4,1751.8h6.5v3.2h-6.5V1751.8L312.4,1751.8z M312.4,1756.9h6.5v3.3h-6.5V1756.9z M312.4,1762h6.5
	v3.3h-6.5V1762L312.4,1762z M312.4,1767.2h6.5v3.3h-6.5V1767.2z M312.4,1775.5v-3.3h6.5v3.3H312.4z"/>
</svg>
