<svg id="Layer_1" data-name="Layer 1" xmlns="http://www.w3.org/2000/svg" viewBox="0 0 312.05 1895.52"><defs><style>.cls-1,.cls-6{fill:#232625;}.cls-2,.cls-3,.cls-5{fill:none;}.cls-2,.cls-3,.cls-5,.cls-6{stroke:#1d2120;stroke-linecap:round;stroke-linejoin:round;stroke-width:5px;}.cls-3{stroke-dasharray:11 11;}.cls-4{fill:#1d2120;}.cls-5{stroke-dasharray:12 12;}.cls-6{opacity:0.8;}.cls-7{fill:#e8e8dc;opacity:0.46;}.cls-8{fill:#f0f1f2;}</style></defs><title>PopUps</title><line class="cls-1" x1="236" y1="28.97" x2="10" y2="28.97"/><line class="cls-2" x1="236" y1="29.47" x2="230" y2="29.47"/><line class="cls-3" x1="219" y1="29.47" x2="43" y2="29.47"/><line class="cls-2" x1="37" y1="29.47" x2="31" y2="29.47"/><polygon class="cls-4" points="41.22 16.04 35.72 29 41.22 41.96 10.5 29 41.22 16.04"/><path class="cls-1" d="M845.5,221" transform="translate(-545 547.97)"/><line class="cls-1" x1="236" y1="626.97" x2="141" y2="626.97"/><line class="cls-2" x1="236" y1="627.47" x2="230" y2="627.47"/><line class="cls-5" x1="218" y1="627.47" x2="174" y2="627.47"/><line class="cls-2" x1="168" y1="627.47" x2="162" y2="627.47"/><polygon class="cls-4" points="171.47 614.21 165.96 627.17 171.47 640.13 140.74 627.17 171.47 614.21"/><line class="cls-1" x1="236" y1="1318.97" y2="1318.97"/><line class="cls-2" x1="236" y1="1318.47" x2="230" y2="1318.47"/><line class="cls-5" x1="218" y1="1318.47" x2="33" y2="1318.47"/><line class="cls-2" x1="27" y1="1318.47" x2="21" y2="1318.47"/><polygon class="cls-4" points="30.93 1305.56 25.43 1318.52 30.93 1331.48 0.21 1318.52 30.93 1305.56"/><line class="cls-1" x1="236" y1="1866.97" x2="49" y2="1866.97"/><line class="cls-2" x1="236" y1="1866.47" x2="230" y2="1866.47"/><line class="cls-5" x1="218" y1="1866.47" x2="82" y2="1866.47"/><line class="cls-2" x1="76" y1="1866.47" x2="70" y2="1866.47"/><polygon class="cls-4" points="80.16 1853.56 74.66 1866.52 80.16 1879.48 49.44 1866.52 80.16 1853.56"/><circle class="cls-6" cx="283.05" cy="29" r="26.5"/><circle class="cls-7" cx="283.05" cy="29" r="21.04"/><path class="cls-8" d="M830.7-531.1v24.26h-2.65v-22H825.4v-2.3h5.3Z" transform="translate(-545 547.97)"/><circle class="cls-6" cx="282.73" cy="627.2" r="26.5"/><circle class="cls-7" cx="282.73" cy="627.2" r="21.04"/><path class="cls-8" d="M825.7,70.61V74.9h-2.65V70.19q0-3.08,3.08-3.08h3q3.08,0,3.08,3.08v2.15a12.8,12.8,0,0,1-1,5.07l-5.34,11.66h6.55v2.3h-9.32V89.1L828.63,77a12.15,12.15,0,0,0,.9-4.8V70.61a0.94,0.94,0,0,0-1.21-1.21h-1.4A0.94,0.94,0,0,0,825.7,70.61Z" transform="translate(-545 547.97)"/><circle class="cls-6" cx="283.05" cy="1318.52" r="26.5"/><circle class="cls-7" cx="283.05" cy="1318.52" r="21.04"/><path class="cls-8" d="M826,761.93v4h-2.65V761.5q0-3.08,3.08-3.08h3.28q3.08,0,3.08,3.08v7q0,1.76-1.44,1.87a1.62,1.62,0,0,1,1.44,1.83v7.41q0,3.08-3.08,3.08h-3.28q-3.08,0-3.08-3.08v-4.37H826v3.94a1.42,1.42,0,0,0,.23,1,1.53,1.53,0,0,0,1,.21h1.72a1.53,1.53,0,0,0,1-.21,1.42,1.42,0,0,0,.23-1v-6.4a1.43,1.43,0,0,0-.23-1,1.53,1.53,0,0,0-1-.21h-2.85v-2.34h2.85a1.53,1.53,0,0,0,1-.21,1.43,1.43,0,0,0,.23-1v-6.08a1.43,1.43,0,0,0-.23-1,1.53,1.53,0,0,0-1-.21h-1.72a1.53,1.53,0,0,0-1,.21A1.43,1.43,0,0,0,826,761.93Z" transform="translate(-545 547.97)"/><circle class="cls-6" cx="283.05" cy="1866.52" r="26.5"/><circle class="cls-7" cx="283.05" cy="1866.52" r="21.04"/><path class="cls-8" d="M834.29,1323.42v2.3h-2.07v5h-2.57v-5h-7.84v-2.07l6.4-17.24h2.61l-6.28,17h5.11v-4.6h2.57v4.6h2.07Z" transform="translate(-545 547.97)"/></svg>