<svg id="Layer_1" data-name="Layer 1" xmlns="http://www.w3.org/2000/svg" viewBox="0 0 49.41 49.41"><title>Radio</title><path d="M47.51,8.26l2.2-2.2a19.22,19.22,0,0,0-27.45,0l2.2,2.2A17.17,17.17,0,0,1,36,3.59,17.17,17.17,0,0,1,47.51,8.26ZM45,10.45a12.6,12.6,0,0,0-18.12,0l2.2,2.2a10,10,0,0,1,13.73,0ZM44.22,27.75H38.73v-11H33.24v11H5.78A5.51,5.51,0,0,0,.29,33.24v11a5.51,5.51,0,0,0,5.49,5.49H44.22a5.51,5.51,0,0,0,5.49-5.49v-11A5.51,5.51,0,0,0,44.22,27.75ZM14,41.47H8.53V36H14v5.49Zm9.61,0H18.14V36h5.49v5.49Zm9.61,0H27.75V36h5.49v5.49Z" transform="translate(-0.29 -0.29)"/></svg>