<svg id="Layer_1" data-name="Layer 1" xmlns="http://www.w3.org/2000/svg" xmlns:xlink="http://www.w3.org/1999/xlink" viewBox="0 0 49.64 45.13"><defs><style>.cls-1{fill:#fff;}.cls-2{fill:#420000;fill-rule:evenodd;opacity:0.12;}.cls-3{fill:url(#linear-gradient);}</style><linearGradient id="linear-gradient" x1="25" y1="10.26" x2="25" y2="28.99" gradientUnits="userSpaceOnUse"><stop offset="0" stop-color="#e52d27"/><stop offset="1" stop-color="#bf171d"/></linearGradient></defs><title>TV</title><path d="M45.31,2.44H4.69A4.53,4.53,0,0,0,.18,6.95V34a4.53,4.53,0,0,0,4.51,4.51H20.49v4.51H16v4.51H34V43.05H29.51V38.54H45.31A4.53,4.53,0,0,0,49.82,34V6.95A4.53,4.53,0,0,0,45.31,2.44Zm0,31.59H4.69V6.95H45.31V34Z" transform="translate(-0.18 -2.44)"/><path id="Triangle" class="cls-1" d="M22.25,23.08l7.2-3.73-7.2-3.75v7.48Z" transform="translate(-0.18 -2.44)"/><path id="The_Sharpness" data-name="The Sharpness" class="cls-2" d="M22.25,15.6l6.31,4.21,0.89-.46Z" transform="translate(-0.18 -2.44)"/><g id="Lozenge"><path class="cls-3" d="M38.05,14.3A5.76,5.76,0,0,0,37,11.66a3.81,3.81,0,0,0-2.67-1.13C30.6,10.26,25,10.26,25,10.26h0s-5.59,0-9.32.27A3.81,3.81,0,0,0,13,11.66a5.76,5.76,0,0,0-1.06,2.64,40.27,40.27,0,0,0-.27,4.31v2a40.27,40.27,0,0,0,.27,4.31A5.76,5.76,0,0,0,13,27.59a4.52,4.52,0,0,0,2.94,1.14C18.08,28.93,25,29,25,29s5.6,0,9.32-.28A3.81,3.81,0,0,0,37,27.59a5.76,5.76,0,0,0,1.06-2.64,40.34,40.34,0,0,0,.27-4.31v-2A40.34,40.34,0,0,0,38.05,14.3Zm-15.8,8.78V15.6l7.2,3.75Z" transform="translate(-0.18 -2.44)"/></g></svg>